ISO-10303-21;
HEADER;
FILE_DESCRIPTION (( 'STEP AP214' ),
    '1' );
FILE_NAME ('DSN-2_152AB.STEP',
    '2023-11-30T16:46:11',
    ( '' ),
    ( '' ),
    'SwSTEP 2.0',
    'SolidWorks 2021',
    '' );
FILE_SCHEMA (( 'AUTOMOTIVE_DESIGN' ));
ENDSEC;

DATA;
#1 = ORIENTED_EDGE ( 'NONE', *, *, #508, .T. ) ;
#2 = EDGE_CURVE ( 'NONE', #673, #639, #471, .T. ) ;
#3 = DIRECTION ( 'NONE',  ( 0.000000000000000000, 1.000000000000000000, 0.000000000000000000 ) ) ;
#4 = VECTOR ( 'NONE', #185, 1000.000000000000000 ) ;
#5 = AXIS2_PLACEMENT_3D ( 'NONE', #585, #591, #778 ) ;
#6 = VECTOR ( 'NONE', #458, 1000.000000000000000 ) ;
#7 = ORIENTED_EDGE ( 'NONE', *, *, #545, .T. ) ;
#8 = DIRECTION ( 'NONE',  ( -0.000000000000000000, 0.000000000000000000, 1.000000000000000000 ) ) ;
#9 = DIRECTION ( 'NONE',  ( -0.000000000000000000, -1.000000000000000000, -0.000000000000000000 ) ) ;
#10 = VERTEX_POINT ( 'NONE', #539 ) ;
#11 = ORIENTED_EDGE ( 'NONE', *, *, #183, .T. ) ;
#12 = LINE ( 'NONE', #474, #169 ) ;
#13 = EDGE_LOOP ( 'NONE', ( #572, #605, #175, #781 ) ) ;
#14 = LINE ( 'NONE', #158, #734 ) ;
#15 = DIRECTION ( 'NONE',  ( 0.000000000000000000, 0.000000000000000000, -1.000000000000000000 ) ) ;
#16 = ORIENTED_EDGE ( 'NONE', *, *, #492, .T. ) ;
#17 = DIRECTION ( 'NONE',  ( -1.000000000000000000, 0.000000000000000000, -1.807003620809174632E-16 ) ) ;
#18 = ADVANCED_FACE ( 'NONE', ( #610 ), #411, .F. ) ;
#19 = DIRECTION ( 'NONE',  ( -0.000000000000000000, -1.000000000000000000, -0.000000000000000000 ) ) ;
#20 = CARTESIAN_POINT ( 'NONE',  ( 0.7500000000000000000, 0.04999999999999991257, -0.3000000000000000444 ) ) ;
#21 = LINE ( 'NONE', #294, #624 ) ;
#22 = CARTESIAN_POINT ( 'NONE',  ( -0.7500000000000000000, 0.04999999999999991257, -0.2999999999999999889 ) ) ;
#23 = VECTOR ( 'NONE', #757, 1000.000000000000000 ) ;
#24 = EDGE_LOOP ( 'NONE', ( #478, #406, #622, #326 ) ) ;
#25 = VECTOR ( 'NONE', #264, 1000.000000000000000 ) ;
#26 = VECTOR ( 'NONE', #429, 1000.000000000000000 ) ;
#27 = DIRECTION ( 'NONE',  ( -1.000000000000000000, 0.000000000000000000, 0.000000000000000000 ) ) ;
#28 = ORIENTED_EDGE ( 'NONE', *, *, #52, .F. ) ;
#29 = CARTESIAN_POINT ( 'NONE',  ( -0.8000000000000001554, 0.05000000000000000278, -0.3999999999999999667 ) ) ;
#30 = ORIENTED_EDGE ( 'NONE', *, *, #62, .T. ) ;
#31 = PLANE ( 'NONE',  #150 ) ;
#32 = LINE ( 'NONE', #732, #346 ) ;
#33 = DIRECTION ( 'NONE',  ( 1.000000000000000000, 0.000000000000000000, -0.000000000000000000 ) ) ;
#34 = DIRECTION ( 'NONE',  ( 1.000000000000000000, -0.000000000000000000, -0.000000000000000000 ) ) ;
#35 = EDGE_CURVE ( 'NONE', #50, #10, #172, .T. ) ;
#36 = ORIENTED_EDGE ( 'NONE', *, *, #366, .T. ) ;
#37 = EDGE_CURVE ( 'NONE', #519, #666, #21, .T. ) ;
#38 = PRESENTATION_STYLE_ASSIGNMENT (( #288 ) ) ;
#39 = FACE_OUTER_BOUND ( 'NONE', #486, .T. ) ;
#40 = AXIS2_PLACEMENT_3D ( 'NONE', #661, #653, #93 ) ;
#41 = VECTOR ( 'NONE', #648, 1000.000000000000000 ) ;
#42 = DIRECTION ( 'NONE',  ( -0.000000000000000000, 0.000000000000000000, -1.000000000000000000 ) ) ;
#43 = LINE ( 'NONE', #553, #568 ) ;
#44 = ORIENTED_EDGE ( 'NONE', *, *, #649, .T. ) ;
#45 = CARTESIAN_POINT ( 'NONE',  ( -0.1999999999999999833, 0.04999999999999991257, -0.2999999999999999889 ) ) ;
#46 = CARTESIAN_POINT ( 'NONE',  ( -0.7499999999999998890, 1.173610252712211643, -0.2999999999999999889 ) ) ;
#47 = EDGE_CURVE ( 'NONE', #721, #695, #179, .T. ) ;
#48 = DIRECTION ( 'NONE',  ( 0.000000000000000000, 0.000000000000000000, 1.000000000000000000 ) ) ;
#49 = CARTESIAN_POINT ( 'NONE',  ( -0.2000000000000000666, 1.173610252712211643, -0.2999999999999999889 ) ) ;
#50 = VERTEX_POINT ( 'NONE', #224 ) ;
#51 = UNCERTAINTY_MEASURE_WITH_UNIT (LENGTH_MEASURE( 1.000000000000000082E-05 ), #820, 'distance_accuracy_value', 'NONE');
#52 = EDGE_CURVE ( 'NONE', #300, #305, #724, .T. ) ;
#53 = ORIENTED_EDGE ( 'NONE', *, *, #101, .F. ) ;
#54 = FACE_OUTER_BOUND ( 'NONE', #483, .T. ) ;
#55 = CLOSED_SHELL ( 'NONE', ( #828, #408, #488, #354, #383, #310 ) ) ;
#56 = AXIS2_PLACEMENT_3D ( 'NONE', #631, #65, #569 ) ;
#57 =( GEOMETRIC_REPRESENTATION_CONTEXT ( 3 ) GLOBAL_UNCERTAINTY_ASSIGNED_CONTEXT ( ( #378 ) ) GLOBAL_UNIT_ASSIGNED_CONTEXT ( ( #737, #301, #674 ) ) REPRESENTATION_CONTEXT ( 'NONE', 'WORKASPACE' ) );
#58 = CARTESIAN_POINT ( 'NONE',  ( -0.5734202748069465727, -0.5092680569437392224, -0.3999999999999999667 ) ) ;
#59 = UNCERTAINTY_MEASURE_WITH_UNIT (LENGTH_MEASURE( 1.000000000000000082E-05 ), #263, 'distance_accuracy_value', 'NONE');
#60 = SURFACE_STYLE_USAGE ( .BOTH. , #379 ) ;
#61 = CARTESIAN_POINT ( 'NONE',  ( -0.2000000000000000666, 1.173610252712211643, 0.2999999999999999889 ) ) ;
#62 = EDGE_CURVE ( 'NONE', #721, #207, #825, .T. ) ;
#63 = DIRECTION ( 'NONE',  ( 5.706327223607917555E-17, 0.000000000000000000, -1.000000000000000000 ) ) ;
#64 = EDGE_CURVE ( 'NONE', #240, #518, #309, .T. ) ;
#65 = DIRECTION ( 'NONE',  ( -1.000000000000000000, 0.000000000000000000, 0.000000000000000000 ) ) ;
#66 = DIRECTION ( 'NONE',  ( 0.000000000000000000, 0.000000000000000000, 1.000000000000000000 ) ) ;
#67 = VECTOR ( 'NONE', #317, 1000.000000000000000 ) ;
#68 = PRESENTATION_LAYER_ASSIGNMENT (  '', '', ( #99 ) ) ;
#69 = FILL_AREA_STYLE_COLOUR ( '', #570 ) ;
#70 = CARTESIAN_POINT ( 'NONE',  ( -0.5734202748069465727, 0.3099999999999999978, 0.4000000000000000222 ) ) ;
#71 = ADVANCED_FACE ( 'NONE', ( #380 ), #254, .F. ) ;
#72 = DIRECTION ( 'NONE',  ( -1.000000000000000000, 0.000000000000000000, -0.000000000000000000 ) ) ;
#73 = CARTESIAN_POINT ( 'NONE',  ( -0.7500000000000000000, 0.04999999999999991257, 0.2999999999999999889 ) ) ;
#74 = EDGE_CURVE ( 'NONE', #305, #207, #260, .T. ) ;
#75 = LINE ( 'NONE', #334, #699 ) ;
#76 = LINE ( 'NONE', #402, #482 ) ;
#77 = CARTESIAN_POINT ( 'NONE',  ( -0.2000000000000000666, 0.000000000000000000, 0.2999999999999999889 ) ) ;
#78 = VECTOR ( 'NONE', #775, 1000.000000000000000 ) ;
#79 = AXIS2_PLACEMENT_3D ( 'NONE', #790, #459, #151 ) ;
#80 = VECTOR ( 'NONE', #470, 1000.000000000000000 ) ;
#81 = VERTEX_POINT ( 'NONE', #678 ) ;
#82 = FILL_AREA_STYLE ('',( #709 ) ) ;
#83 = CARTESIAN_POINT ( 'NONE',  ( -0.2000000000000000666, 0.000000000000000000, 0.2999999999999999889 ) ) ;
#84 = DIRECTION ( 'NONE',  ( 0.000000000000000000, -0.000000000000000000, 1.000000000000000000 ) ) ;
#85 = VERTEX_POINT ( 'NONE', #440 ) ;
#86 = EDGE_CURVE ( 'NONE', #529, #50, #620, .T. ) ;
#87 = DIRECTION ( 'NONE',  ( 1.807003620809174139E-16, 0.000000000000000000, -1.000000000000000000 ) ) ;
#88 = DIRECTION ( 'NONE',  ( 0.000000000000000000, -0.000000000000000000, 1.000000000000000000 ) ) ;
#89 = EDGE_LOOP ( 'NONE', ( #498, #137, #345, #418 ) ) ;
#90 = DIRECTION ( 'NONE',  ( -0.000000000000000000, -0.000000000000000000, -1.000000000000000000 ) ) ;
#91 = LINE ( 'NONE', #228, #627 ) ;
#92 = ADVANCED_FACE ( 'NONE', ( #431 ), #761, .F. ) ;
#93 = DIRECTION ( 'NONE',  ( 0.000000000000000000, -0.000000000000000000, 1.000000000000000000 ) ) ;
#94 = ORIENTED_EDGE ( 'NONE', *, *, #607, .T. ) ;
#95 = AXIS2_PLACEMENT_3D ( 'NONE', #61, #562, #255 ) ;
#96 = COLOUR_RGB ( '',0.7960784313725489669, 0.8235294117647058432, 0.9372549019607843146 ) ;
#97 = VERTEX_POINT ( 'NONE', #373 ) ;
#98 =( NAMED_UNIT ( * ) PLANE_ANGLE_UNIT ( ) SI_UNIT ( $, .RADIAN. ) );
#99 = STYLED_ITEM ( 'NONE', ( #125 ), #691 ) ;
#100 = CARTESIAN_POINT ( 'NONE',  ( -0.6955463899072612532, 0.2999999999999999334, 0.4000000000000000222 ) ) ;
#101 = EDGE_CURVE ( 'NONE', #333, #616, #626, .T. ) ;
#102 = ORIENTED_EDGE ( 'NONE', *, *, #643, .T. ) ;
#103 = LINE ( 'NONE', #160, #449 ) ;
#104 = ORIENTED_EDGE ( 'NONE', *, *, #430, .F. ) ;
#105 = VERTEX_POINT ( 'NONE', #123 ) ;
#106 = FILL_AREA_STYLE ('',( #473 ) ) ;
#107 = CARTESIAN_POINT ( 'NONE',  ( -0.8000000000000003775, 0.3099999999999999423, -0.3999999999999999667 ) ) ;
#108 = CARTESIAN_POINT ( 'NONE',  ( -0.5734202748069465727, 0.2999999999999999889, -0.3999999999999999667 ) ) ;
#109 = DIRECTION ( 'NONE',  ( -1.000000000000000000, 0.000000000000000000, -5.706327223607917555E-17 ) ) ;
#110 = PLANE ( 'NONE',  #246 ) ;
#111 = APPLICATION_CONTEXT ( 'automotive_design' ) ;
#112 = VECTOR ( 'NONE', #789, 1000.000000000000000 ) ;
#113 = DIRECTION ( 'NONE',  ( 0.000000000000000000, 0.000000000000000000, -1.000000000000000000 ) ) ;
#114 = VECTOR ( 'NONE', #551, 1000.000000000000000 ) ;
#115 = COLOUR_RGB ( '',0.2509803921568627416, 0.2509803921568627416, 0.2509803921568627416 ) ;
#116 = FACE_OUTER_BOUND ( 'NONE', #454, .T. ) ;
#117 = CARTESIAN_POINT ( 'NONE',  ( 0.000000000000000000, 0.3099999999999999978, 0.000000000000000000 ) ) ;
#118 = APPLICATION_PROTOCOL_DEFINITION ( 'draft international standard', 'automotive_design', 1998, #457 ) ;
#119 = SURFACE_SIDE_STYLE ('',( #692 ) ) ;
#120 = DIRECTION ( 'NONE',  ( 0.000000000000000000, 1.000000000000000000, 0.000000000000000000 ) ) ;
#121 = AXIS2_PLACEMENT_3D ( 'NONE', #547, #817, #356 ) ;
#122 = VECTOR ( 'NONE', #490, 1000.000000000000000 ) ;
#123 = CARTESIAN_POINT ( 'NONE',  ( -0.6955463899072612532, 0.2999999999999999334, 0.4000000000000000222 ) ) ;
#124 = EDGE_CURVE ( 'NONE', #207, #740, #261, .T. ) ;
#125 = PRESENTATION_STYLE_ASSIGNMENT (( #630 ) ) ;
#126 = PRODUCT_DEFINITION_CONTEXT ( 'detailed design', #111, 'design' ) ;
#127 = ORIENTED_EDGE ( 'NONE', *, *, #824, .F. ) ;
#128 = EDGE_CURVE ( 'NONE', #97, #666, #330, .T. ) ;
#129 = DIRECTION ( 'NONE',  ( 1.000000000000000000, -0.000000000000000000, 0.000000000000000000 ) ) ;
#130 = PLANE ( 'NONE',  #56 ) ;
#131 = DIRECTION ( 'NONE',  ( -0.000000000000000000, -0.000000000000000000, -1.000000000000000000 ) ) ;
#132 = ORIENTED_EDGE ( 'NONE', *, *, #738, .T. ) ;
#133 = CARTESIAN_POINT ( 'NONE',  ( -0.5734202748069465727, 0.3099999999999999978, -0.3999999999999999667 ) ) ;
#134 = ORIENTED_EDGE ( 'NONE', *, *, #128, .F. ) ;
#135 = VECTOR ( 'NONE', #520, 1000.000000000000000 ) ;
#136 = ORIENTED_EDGE ( 'NONE', *, *, #86, .F. ) ;
#137 = ORIENTED_EDGE ( 'NONE', *, *, #52, .T. ) ;
#138 = LINE ( 'NONE', #391, #700 ) ;
#139 = MANIFOLD_SOLID_BREP ( 'Boss-Extrude2', #55 ) ;
#140 = PRESENTATION_STYLE_ASSIGNMENT (( #339 ) ) ;
#141 = ORIENTED_EDGE ( 'NONE', *, *, #504, .T. ) ;
#142 = PLANE ( 'NONE',  #5 ) ;
#143 = ORIENTED_EDGE ( 'NONE', *, *, #37, .F. ) ;
#144 = ORIENTED_EDGE ( 'NONE', *, *, #235, .T. ) ;
#145 = LINE ( 'NONE', #760, #314 ) ;
#146 = ORIENTED_EDGE ( 'NONE', *, *, #212, .F. ) ;
#147 = DIRECTION ( 'NONE',  ( -0.000000000000000000, 1.000000000000000000, -0.000000000000000000 ) ) ;
#148 = AXIS2_PLACEMENT_3D ( 'NONE', #489, #416, #794 ) ;
#149 = EDGE_CURVE ( 'NONE', #586, #736, #694, .T. ) ;
#150 = AXIS2_PLACEMENT_3D ( 'NONE', #797, #236, #87 ) ;
#151 = DIRECTION ( 'NONE',  ( 0.000000000000000000, -0.000000000000000000, 1.000000000000000000 ) ) ;
#152 = ORIENTED_EDGE ( 'NONE', *, *, #101, .T. ) ;
#153 = LINE ( 'NONE', #289, #238 ) ;
#154 = EDGE_CURVE ( 'NONE', #639, #97, #393, .T. ) ;
#155 = CARTESIAN_POINT ( 'NONE',  ( -0.4500000000000000111, 0.04999999999999991257, 0.2999999999999999889 ) ) ;
#156 = DIRECTION ( 'NONE',  ( -0.000000000000000000, -1.000000000000000000, -0.000000000000000000 ) ) ;
#157 = MANIFOLD_SOLID_BREP ( 'Boss-Extrude3[1]', #268 ) ;
#158 = CARTESIAN_POINT ( 'NONE',  ( -0.5734202748069465727, 0.3099999999999999978, -0.3999999999999999667 ) ) ;
#159 = DIRECTION ( 'NONE',  ( 1.000000000000000000, 0.000000000000000000, 0.000000000000000000 ) ) ;
#160 = CARTESIAN_POINT ( 'NONE',  ( -0.5734202748069465727, 0.2999999999999999889, -0.3999999999999999667 ) ) ;
#161 = EDGE_CURVE ( 'NONE', #609, #776, #516, .T. ) ;
#162 = DIRECTION ( 'NONE',  ( 0.000000000000000000, 1.000000000000000000, 0.000000000000000000 ) ) ;
#163 = CARTESIAN_POINT ( 'NONE',  ( -0.4500000000000000111, 1.173610252712211643, -0.2999999999999999334 ) ) ;
#164 = LINE ( 'NONE', #710, #259 ) ;
#165 = ORIENTED_EDGE ( 'NONE', *, *, #587, .T. ) ;
#166 = DIRECTION ( 'NONE',  ( 0.000000000000000000, 1.000000000000000000, 0.000000000000000000 ) ) ;
#167 = VECTOR ( 'NONE', #641, 1000.000000000000000 ) ;
#168 = ORIENTED_EDGE ( 'NONE', *, *, #649, .F. ) ;
#169 = VECTOR ( 'NONE', #726, 1000.000000000000000 ) ;
#170 = DIRECTION ( 'NONE',  ( -1.000000000000000000, -0.000000000000000000, -0.000000000000000000 ) ) ;
#171 = EDGE_CURVE ( 'NONE', #609, #673, #223, .T. ) ;
#172 = LINE ( 'NONE', #232, #613 ) ;
#173 = ORIENTED_EDGE ( 'NONE', *, *, #748, .F. ) ;
#174 = PLANE ( 'NONE',  #550 ) ;
#175 = ORIENTED_EDGE ( 'NONE', *, *, #629, .F. ) ;
#176 =( NAMED_UNIT ( * ) SI_UNIT ( $, .STERADIAN. ) SOLID_ANGLE_UNIT ( ) );
#177 = DIRECTION ( 'NONE',  ( 0.000000000000000000, 0.000000000000000000, -1.000000000000000000 ) ) ;
#178 = FACE_OUTER_BOUND ( 'NONE', #355, .T. ) ;
#179 = LINE ( 'NONE', #596, #112 ) ;
#180 = DIRECTION ( 'NONE',  ( -0.000000000000000000, 0.000000000000000000, 1.000000000000000000 ) ) ;
#181 =( GEOMETRIC_REPRESENTATION_CONTEXT ( 3 ) GLOBAL_UNCERTAINTY_ASSIGNED_CONTEXT ( ( #437 ) ) GLOBAL_UNIT_ASSIGNED_CONTEXT ( ( #750, #762, #374 ) ) REPRESENTATION_CONTEXT ( 'NONE', 'WORKASPACE' ) );
#182 = DIRECTION ( 'NONE',  ( -1.807003620809174139E-16, -0.000000000000000000, 1.000000000000000000 ) ) ;
#183 = EDGE_CURVE ( 'NONE', #485, #85, #594, .T. ) ;
#184 = DIRECTION ( 'NONE',  ( 0.000000000000000000, 1.000000000000000000, 0.000000000000000000 ) ) ;
#185 = DIRECTION ( 'NONE',  ( -0.000000000000000000, -1.000000000000000000, -0.000000000000000000 ) ) ;
#186 = VECTOR ( 'NONE', #19, 1000.000000000000000 ) ;
#187 = PRESENTATION_LAYER_ASSIGNMENT (  '', '', ( #679 ) ) ;
#188 = CARTESIAN_POINT ( 'NONE',  ( -0.5734202748069465727, -0.5092680569437392224, 0.4000000000000000222 ) ) ;
#189 = ORIENTED_EDGE ( 'NONE', *, *, #154, .F. ) ;
#190 = DIRECTION ( 'NONE',  ( -1.000000000000000000, 0.000000000000000000, 0.000000000000000000 ) ) ;
#191 = FACE_OUTER_BOUND ( 'NONE', #324, .T. ) ;
#192 = FILL_AREA_STYLE ('',( #69 ) ) ;
#193 = DIRECTION ( 'NONE',  ( 1.000000000000000000, -0.000000000000000000, 0.000000000000000000 ) ) ;
#194 =( NAMED_UNIT ( * ) PLANE_ANGLE_UNIT ( ) SI_UNIT ( $, .RADIAN. ) );
#195 = ORIENTED_EDGE ( 'NONE', *, *, #773, .T. ) ;
#196 = DIRECTION ( 'NONE',  ( 0.000000000000000000, -0.000000000000000000, 1.000000000000000000 ) ) ;
#197 = ADVANCED_FACE ( 'NONE', ( #469 ), #409, .T. ) ;
#198 = PRODUCT ( 'DSN-2_152AB', 'DSN-2_152AB', '', ( #810 ) ) ;
#199 = EDGE_CURVE ( 'NONE', #240, #105, #599, .T. ) ;
#200 = ORIENTED_EDGE ( 'NONE', *, *, #422, .T. ) ;
#201 = CARTESIAN_POINT ( 'NONE',  ( 0.7999999999999997113, 0.05000000000000000278, -0.4000000000000001887 ) ) ;
#202 = VECTOR ( 'NONE', #767, 1000.000000000000000 ) ;
#203 = AXIS2_PLACEMENT_3D ( 'NONE', #725, #730, #370 ) ;
#204 = ORIENTED_EDGE ( 'NONE', *, *, #511, .F. ) ;
#205 = FACE_OUTER_BOUND ( 'NONE', #663, .T. ) ;
#206 = CARTESIAN_POINT ( 'NONE',  ( -0.6955463899072612532, 0.2999999999999999889, -0.3999999999999999667 ) ) ;
#207 = VERTEX_POINT ( 'NONE', #290 ) ;
#208 = LINE ( 'NONE', #780, #41 ) ;
#209 = PLANE ( 'NONE',  #344 ) ;
#210 = EDGE_LOOP ( 'NONE', ( #729, #707, #720, #144, #143, #524, #141, #279 ) ) ;
#211 = CARTESIAN_POINT ( 'NONE',  ( -0.8000000000000001554, 0.05000000000000000278, 0.4000000000000000777 ) ) ;
#212 = EDGE_CURVE ( 'NONE', #740, #786, #276, .T. ) ;
#213 =( NAMED_UNIT ( * ) SI_UNIT ( $, .STERADIAN. ) SOLID_ANGLE_UNIT ( ) );
#214 = LINE ( 'NONE', #602, #617 ) ;
#215 = CARTESIAN_POINT ( 'NONE',  ( 0.7500000000000000000, 0.000000000000000000, 0.3000000000000000444 ) ) ;
#216 = CARTESIAN_POINT ( 'NONE',  ( -0.5734202748069465727, 0.2999999999999999889, 0.4000000000000000222 ) ) ;
#217 = ADVANCED_FACE ( 'NONE', ( #349 ), #606, .F. ) ;
#218 = CARTESIAN_POINT ( 'NONE',  ( 0.7999999999999997113, 0.05000000000000000278, 0.3999999999999998557 ) ) ;
#219 = STYLED_ITEM ( 'NONE', ( #316 ), #139 ) ;
#220 = VECTOR ( 'NONE', #180, 1000.000000000000000 ) ;
#221 = MECHANICAL_DESIGN_GEOMETRIC_PRESENTATION_REPRESENTATION (  '', ( #679 ), #57 ) ;
#222 = DIRECTION ( 'NONE',  ( 1.000000000000000000, -0.000000000000000000, 0.000000000000000000 ) ) ;
#223 = LINE ( 'NONE', #342, #690 ) ;
#224 = CARTESIAN_POINT ( 'NONE',  ( -0.7500000000000000000, 0.000000000000000000, 0.2999999999999999889 ) ) ;
#225 = ADVANCED_FACE ( 'NONE', ( #644 ), #142, .T. ) ;
#226 = DIRECTION ( 'NONE',  ( 0.000000000000000000, 1.000000000000000000, 0.000000000000000000 ) ) ;
#227 = VERTEX_POINT ( 'NONE', #29 ) ;
#228 = CARTESIAN_POINT ( 'NONE',  ( -0.7500000000000000000, 1.173610252712211643, 0.2999999999999999889 ) ) ;
#229 = CARTESIAN_POINT ( 'NONE',  ( 0.000000000000000000, 0.05000000000000000278, 0.000000000000000000 ) ) ;
#230 = ORIENTED_EDGE ( 'NONE', *, *, #422, .F. ) ;
#231 = SURFACE_STYLE_FILL_AREA ( #793 ) ;
#232 = CARTESIAN_POINT ( 'NONE',  ( -0.4500000000000000111, 0.000000000000000000, 0.2999999999999999889 ) ) ;
#233 = CARTESIAN_POINT ( 'NONE',  ( -0.4500000000000000111, 0.04999999999999991257, 0.2999999999999999889 ) ) ;
#234 = ORIENTED_EDGE ( 'NONE', *, *, #754, .T. ) ;
#235 = EDGE_CURVE ( 'NONE', #270, #666, #103, .T. ) ;
#236 = DIRECTION ( 'NONE',  ( 1.000000000000000000, -0.000000000000000000, 1.807003620809174139E-16 ) ) ;
#237 = ORIENTED_EDGE ( 'NONE', *, *, #252, .T. ) ;
#238 = VECTOR ( 'NONE', #17, 1000.000000000000000 ) ;
#239 = EDGE_LOOP ( 'NONE', ( #689, #16, #722, #200 ) ) ;
#240 = VERTEX_POINT ( 'NONE', #417 ) ;
#241 = EDGE_CURVE ( 'NONE', #608, #586, #784, .T. ) ;
#242 = ORIENTED_EDGE ( 'NONE', *, *, #149, .F. ) ;
#243 = ORIENTED_EDGE ( 'NONE', *, *, #554, .F. ) ;
#244 = VECTOR ( 'NONE', #455, 1000.000000000000000 ) ;
#245 = DIRECTION ( 'NONE',  ( 0.000000000000000000, -0.000000000000000000, 1.000000000000000000 ) ) ;
#246 = AXIS2_PLACEMENT_3D ( 'NONE', #359, #751, #621 ) ;
#247 = FACE_OUTER_BOUND ( 'NONE', #544, .T. ) ;
#248 = SHAPE_DEFINITION_REPRESENTATION ( #389, #427 ) ;
#249 = FACE_OUTER_BOUND ( 'NONE', #352, .T. ) ;
#250 = SURFACE_STYLE_USAGE ( .BOTH. , #311 ) ;
#251 = ORIENTED_EDGE ( 'NONE', *, *, #748, .T. ) ;
#252 = EDGE_CURVE ( 'NONE', #530, #712, #652, .T. ) ;
#253 = CARTESIAN_POINT ( 'NONE',  ( 0.7999999999999997113, 0.3099999999999999423, 0.3999999999999998557 ) ) ;
#254 = PLANE ( 'NONE',  #95 ) ;
#255 = DIRECTION ( 'NONE',  ( 0.000000000000000000, 0.000000000000000000, -1.000000000000000000 ) ) ;
#256 = ORIENTED_EDGE ( 'NONE', *, *, #372, .F. ) ;
#257 = CARTESIAN_POINT ( 'NONE',  ( 0.7999999999999997113, 0.3099999999999999423, -0.4000000000000001887 ) ) ;
#258 = AXIS2_PLACEMENT_3D ( 'NONE', #287, #597, #711 ) ;
#259 = VECTOR ( 'NONE', #147, 1000.000000000000000 ) ;
#260 = LINE ( 'NONE', #811, #23 ) ;
#261 = LINE ( 'NONE', #764, #202 ) ;
#262 = PRODUCT_RELATED_PRODUCT_CATEGORY ( 'part', '', ( #198 ) ) ;
#263 =( LENGTH_UNIT ( ) NAMED_UNIT ( * ) SI_UNIT ( .MILLI., .METRE. ) );
#264 = DIRECTION ( 'NONE',  ( 0.000000000000000000, 1.000000000000000000, 0.000000000000000000 ) ) ;
#265 = ORIENTED_EDGE ( 'NONE', *, *, #124, .F. ) ;
#266 = ORIENTED_EDGE ( 'NONE', *, *, #124, .T. ) ;
#267 = LINE ( 'NONE', #514, #135 ) ;
#268 = CLOSED_SHELL ( 'NONE', ( #71, #816, #593, #420, #92, #332 ) ) ;
#269 = VECTOR ( 'NONE', #714, 1000.000000000000000 ) ;
#270 = VERTEX_POINT ( 'NONE', #604 ) ;
#271 = MECHANICAL_DESIGN_GEOMETRIC_PRESENTATION_REPRESENTATION (  '', ( #99 ), #534 ) ;
#272 = CARTESIAN_POINT ( 'NONE',  ( 0.000000000000000000, 0.2999999999999999889, 0.000000000000000000 ) ) ;
#273 = ORIENTED_EDGE ( 'NONE', *, *, #37, .T. ) ;
#274 = DIRECTION ( 'NONE',  ( 0.000000000000000000, -0.000000000000000000, 1.000000000000000000 ) ) ;
#275 = CARTESIAN_POINT ( 'NONE',  ( -0.6955463899072612532, 0.2999999999999999889, 0.4000000000000000222 ) ) ;
#276 = LINE ( 'NONE', #77, #614 ) ;
#277 = FACE_OUTER_BOUND ( 'NONE', #210, .T. ) ;
#278 = ADVANCED_FACE ( 'NONE', ( #277 ), #665, .F. ) ;
#279 = ORIENTED_EDGE ( 'NONE', *, *, #366, .F. ) ;
#280 = CARTESIAN_POINT ( 'NONE',  ( -0.6955463899072612532, 0.3099999999999999978, 0.4000000000000000222 ) ) ;
#281 = VERTEX_POINT ( 'NONE', #795 ) ;
#282 =( LENGTH_UNIT ( ) NAMED_UNIT ( * ) SI_UNIT ( .MILLI., .METRE. ) );
#283 = EDGE_LOOP ( 'NONE', ( #251, #541, #237, #717 ) ) ;
#284 = EDGE_CURVE ( 'NONE', #712, #485, #453, .T. ) ;
#285 = ORIENTED_EDGE ( 'NONE', *, *, #183, .F. ) ;
#286 = AXIS2_PLACEMENT_3D ( 'NONE', #229, #162, #274 ) ;
#287 = CARTESIAN_POINT ( 'NONE',  ( 0.7999999999999997113, 2.408854381999832039, 0.3999999999999998557 ) ) ;
#288 = SURFACE_STYLE_USAGE ( .BOTH. , #800 ) ;
#289 = CARTESIAN_POINT ( 'NONE',  ( -0.4500000000000000111, 0.000000000000000000, -0.2999999999999999334 ) ) ;
#290 = CARTESIAN_POINT ( 'NONE',  ( 0.7500000000000000000, 0.000000000000000000, -0.3000000000000000444 ) ) ;
#291 = DIRECTION ( 'NONE',  ( -0.000000000000000000, -1.000000000000000000, -0.000000000000000000 ) ) ;
#292 = ORIENTED_EDGE ( 'NONE', *, *, #235, .F. ) ;
#293 = CARTESIAN_POINT ( 'NONE',  ( -0.8000000000000001554, 0.05000000000000000278, 0.4000000000000000777 ) ) ;
#294 = CARTESIAN_POINT ( 'NONE',  ( 0.7999999999999997113, 0.3099999999999999423, -0.4000000000000001887 ) ) ;
#295 = ORIENTED_EDGE ( 'NONE', *, *, #149, .T. ) ;
#296 =( LENGTH_UNIT ( ) NAMED_UNIT ( * ) SI_UNIT ( .MILLI., .METRE. ) );
#297 = LINE ( 'NONE', #357, #633 ) ;
#298 = LINE ( 'NONE', #743, #220 ) ;
#299 = AXIS2_PLACEMENT_3D ( 'NONE', #117, #120, #245 ) ;
#300 = VERTEX_POINT ( 'NONE', #405 ) ;
#301 =( NAMED_UNIT ( * ) PLANE_ANGLE_UNIT ( ) SI_UNIT ( $, .RADIAN. ) );
#302 = DIRECTION ( 'NONE',  ( -1.000000000000000000, 0.000000000000000000, -0.000000000000000000 ) ) ;
#303 = ADVANCED_FACE ( 'NONE', ( #522 ), #209, .T. ) ;
#304 = FACE_OUTER_BOUND ( 'NONE', #364, .T. ) ;
#305 = VERTEX_POINT ( 'NONE', #215 ) ;
#306 = ORIENTED_EDGE ( 'NONE', *, *, #682, .T. ) ;
#307 = DIRECTION ( 'NONE',  ( -0.000000000000000000, -1.000000000000000000, -0.000000000000000000 ) ) ;
#308 = ADVANCED_FACE ( 'NONE', ( #650 ), #412, .F. ) ;
#309 = LINE ( 'NONE', #188, #387 ) ;
#310 = ADVANCED_FACE ( 'NONE', ( #338 ), #398, .F. ) ;
#311 = SURFACE_SIDE_STYLE ('',( #231 ) ) ;
#312 = VERTEX_POINT ( 'NONE', #22 ) ;
#313 = VECTOR ( 'NONE', #131, 1000.000000000000000 ) ;
#314 = VECTOR ( 'NONE', #193, 1000.000000000000000 ) ;
#315 = AXIS2_PLACEMENT_3D ( 'NONE', #566, #190, #66 ) ;
#316 = PRESENTATION_STYLE_ASSIGNMENT (( #60 ) ) ;
#317 = DIRECTION ( 'NONE',  ( 0.000000000000000000, 0.000000000000000000, 1.000000000000000000 ) ) ;
#318 = CARTESIAN_POINT ( 'NONE',  ( 0.7500000000000000000, 1.173610252712211643, -0.3000000000000000444 ) ) ;
#319 = ORIENTED_EDGE ( 'NONE', *, *, #161, .T. ) ;
#320 = DIRECTION ( 'NONE',  ( -1.000000000000000000, 0.000000000000000000, 1.355252715606880789E-16 ) ) ;
#321 = ORIENTED_EDGE ( 'NONE', *, *, #660, .F. ) ;
#322 = AXIS2_PLACEMENT_3D ( 'NONE', #108, #33, #42 ) ;
#323 = CARTESIAN_POINT ( 'NONE',  ( -0.6955463899072612532, 0.3099999999999999978, -0.3999999999999999667 ) ) ;
#324 = EDGE_LOOP ( 'NONE', ( #698, #1, #578, #28 ) ) ;
#325 = FACE_OUTER_BOUND ( 'NONE', #421, .T. ) ;
#326 = ORIENTED_EDGE ( 'NONE', *, *, #625, .F. ) ;
#327 = LINE ( 'NONE', #201, #745 ) ;
#328 = ORIENTED_EDGE ( 'NONE', *, *, #525, .T. ) ;
#329 = CARTESIAN_POINT ( 'NONE',  ( -0.2000000000000000666, 1.173610252712211643, 0.2999999999999999889 ) ) ;
#330 = LINE ( 'NONE', #133, #313 ) ;
#331 = VERTEX_POINT ( 'NONE', #280 ) ;
#332 = ADVANCED_FACE ( 'NONE', ( #537 ), #472, .T. ) ;
#333 = VERTEX_POINT ( 'NONE', #672 ) ;
#334 = CARTESIAN_POINT ( 'NONE',  ( -0.6955463899072612532, 0.2999999999999999889, -0.3999999999999999667 ) ) ;
#335 = VECTOR ( 'NONE', #27, 1000.000000000000000 ) ;
#336 = LINE ( 'NONE', #704, #269 ) ;
#337 = SURFACE_SIDE_STYLE ('',( #705 ) ) ;
#338 = FACE_OUTER_BOUND ( 'NONE', #481, .T. ) ;
#339 = SURFACE_STYLE_USAGE ( .BOTH. , #337 ) ;
#340 = FACE_OUTER_BOUND ( 'NONE', #24, .T. ) ;
#341 = LINE ( 'NONE', #588, #557 ) ;
#342 = CARTESIAN_POINT ( 'NONE',  ( -0.6955463899072612532, 0.2999999999999999889, -0.3999999999999999667 ) ) ;
#343 = LINE ( 'NONE', #218, #438 ) ;
#344 = AXIS2_PLACEMENT_3D ( 'NONE', #272, #166, #88 ) ;
#345 = ORIENTED_EDGE ( 'NONE', *, *, #74, .T. ) ;
#346 = VECTOR ( 'NONE', #170, 1000.000000000000000 ) ;
#347 = ORIENTED_EDGE ( 'NONE', *, *, #361, .F. ) ;
#348 = CARTESIAN_POINT ( 'NONE',  ( 0.7999999999999997113, 0.05000000000000000278, -0.4000000000000001887 ) ) ;
#349 = FACE_OUTER_BOUND ( 'NONE', #396, .T. ) ;
#350 = DIRECTION ( 'NONE',  ( -1.000000000000000000, 0.000000000000000000, 0.000000000000000000 ) ) ;
#351 = EDGE_LOOP ( 'NONE', ( #136, #752, #494, #654 ) ) ;
#352 = EDGE_LOOP ( 'NONE', ( #371, #328, #444, #589 ) ) ;
#353 = CARTESIAN_POINT ( 'NONE',  ( -0.6955463899072612532, 0.2999999999999999889, 0.4000000000000000222 ) ) ;
#354 = ADVANCED_FACE ( 'NONE', ( #363 ), #110, .T. ) ;
#355 = EDGE_LOOP ( 'NONE', ( #735, #195, #234, #285 ) ) ;
#356 = DIRECTION ( 'NONE',  ( 1.000000000000000000, 0.000000000000000000, -5.706327223607917555E-17 ) ) ;
#357 = CARTESIAN_POINT ( 'NONE',  ( 0.7999999999999997113, 0.3099999999999999423, -0.4000000000000001887 ) ) ;
#358 = PLANE ( 'NONE',  #787 ) ;
#359 = CARTESIAN_POINT ( 'NONE',  ( -0.6955463899072612532, -0.5092680569437392224, 0.4000000000000000222 ) ) ;
#360 = AXIS2_PLACEMENT_3D ( 'NONE', #623, #113, #302 ) ;
#361 = EDGE_CURVE ( 'NONE', #281, #519, #43, .T. ) ;
#362 = CARTESIAN_POINT ( 'NONE',  ( -0.6955463899072612532, 0.2999999999999999889, -0.3999999999999999667 ) ) ;
#363 = FACE_OUTER_BOUND ( 'NONE', #13, .T. ) ;
#364 = EDGE_LOOP ( 'NONE', ( #102, #394, #731, #319 ) ) ;
#365 = UNCERTAINTY_MEASURE_WITH_UNIT (LENGTH_MEASURE( 1.000000000000000082E-05 ), #282, 'distance_accuracy_value', 'NONE');
#366 = EDGE_CURVE ( 'NONE', #382, #227, #686, .T. ) ;
#367 = CARTESIAN_POINT ( 'NONE',  ( -0.5734202748069465727, 0.2999999999999999334, -0.3999999999999999667 ) ) ;
#368 = APPLICATION_PROTOCOL_DEFINITION ( 'draft international standard', 'automotive_design', 1998, #111 ) ;
#369 = CARTESIAN_POINT ( 'NONE',  ( 0.000000000000000000, 0.000000000000000000, 0.000000000000000000 ) ) ;
#370 = DIRECTION ( 'NONE',  ( 0.000000000000000000, -0.000000000000000000, 1.000000000000000000 ) ) ;
#371 = ORIENTED_EDGE ( 'NONE', *, *, #390, .F. ) ;
#372 = EDGE_CURVE ( 'NONE', #695, #509, #298, .T. ) ;
#373 = CARTESIAN_POINT ( 'NONE',  ( -0.5734202748069465727, 0.3099999999999999423, 0.4000000000000000222 ) ) ;
#374 =( NAMED_UNIT ( * ) SI_UNIT ( $, .STERADIAN. ) SOLID_ANGLE_UNIT ( ) );
#375 = CARTESIAN_POINT ( 'NONE',  ( -0.8000000000000001554, 2.408854381999832039, -0.3999999999999999667 ) ) ;
#376 = CLOSED_SHELL ( 'NONE', ( #197, #688, #426, #217, #278, #500, #560, #447, #445, #303 ) ) ;
#377 = VECTOR ( 'NONE', #15, 1000.000000000000000 ) ;
#378 = UNCERTAINTY_MEASURE_WITH_UNIT (LENGTH_MEASURE( 1.000000000000000082E-05 ), #737, 'distance_accuracy_value', 'NONE');
#379 = SURFACE_SIDE_STYLE ('',( #755 ) ) ;
#380 = FACE_OUTER_BOUND ( 'NONE', #451, .T. ) ;
#381 = ORIENTED_EDGE ( 'NONE', *, *, #390, .T. ) ;
#382 = VERTEX_POINT ( 'NONE', #107 ) ;
#383 = ADVANCED_FACE ( 'NONE', ( #116 ), #812, .T. ) ;
#384 = CARTESIAN_POINT ( 'NONE',  ( -0.2000000000000000666, 0.04999999999999991257, 0.2999999999999999889 ) ) ;
#385 = FILL_AREA_STYLE ('',( #576 ) ) ;
#386 = ORIENTED_EDGE ( 'NONE', *, *, #741, .F. ) ;
#387 = VECTOR ( 'NONE', #821, 1000.000000000000000 ) ;
#388 = VECTOR ( 'NONE', #8, 1000.000000000000000 ) ;
#389 = PRODUCT_DEFINITION_SHAPE ( 'NONE', 'NONE',  #680 ) ;
#390 = EDGE_CURVE ( 'NONE', #105, #81, #495, .T. ) ;
#391 = CARTESIAN_POINT ( 'NONE',  ( 0.7500000000000000000, 0.04999999999999991257, 0.3000000000000000444 ) ) ;
#392 = DIRECTION ( 'NONE',  ( 1.000000000000000000, 0.000000000000000000, -1.355252715606880789E-16 ) ) ;
#393 = LINE ( 'NONE', #403, #78 ) ;
#394 = ORIENTED_EDGE ( 'NONE', *, *, #782, .F. ) ;
#395 = CARTESIAN_POINT ( 'NONE',  ( 0.7999999999999997113, 0.05000000000000000278, 0.3999999999999998557 ) ) ;
#396 = EDGE_LOOP ( 'NONE', ( #347, #536, #766, #243 ) ) ;
#397 = COLOUR_RGB ( '',0.7960784313725489669, 0.8235294117647058432, 0.9372549019607843146 ) ;
#398 = PLANE ( 'NONE',  #646 ) ;
#399 = DIRECTION ( 'NONE',  ( -0.000000000000000000, -1.000000000000000000, -0.000000000000000000 ) ) ;
#400 = ORIENTED_EDGE ( 'NONE', *, *, #241, .T. ) ;
#401 = ORIENTED_EDGE ( 'NONE', *, *, #564, .T. ) ;
#402 = CARTESIAN_POINT ( 'NONE',  ( -0.6955463899072612532, 0.3099999999999999978, -0.3999999999999999667 ) ) ;
#403 = CARTESIAN_POINT ( 'NONE',  ( -0.5734202748069465727, 0.2999999999999999889, 0.4000000000000000222 ) ) ;
#404 = ORIENTED_EDGE ( 'NONE', *, *, #2, .F. ) ;
#405 = CARTESIAN_POINT ( 'NONE',  ( 0.7500000000000000000, 0.04999999999999991257, 0.3000000000000000444 ) ) ;
#406 = ORIENTED_EDGE ( 'NONE', *, *, #430, .T. ) ;
#407 = EDGE_LOOP ( 'NONE', ( #638, #292, #446, #611 ) ) ;
#408 = ADVANCED_FACE ( 'NONE', ( #39 ), #434, .T. ) ;
#409 = PLANE ( 'NONE',  #40 ) ;
#410 = DIRECTION ( 'NONE',  ( -0.000000000000000000, -0.000000000000000000, -1.000000000000000000 ) ) ;
#411 = PLANE ( 'NONE',  #148 ) ;
#412 = PLANE ( 'NONE',  #79 ) ;
#413 = CARTESIAN_POINT ( 'NONE',  ( -0.5734202748069465727, 0.3099999999999999978, -0.3999999999999999667 ) ) ;
#414 = CARTESIAN_POINT ( 'NONE',  ( -0.6955463899072612532, 0.3099999999999999978, 0.4000000000000000222 ) ) ;
#415 = VECTOR ( 'NONE', #307, 1000.000000000000000 ) ;
#416 = DIRECTION ( 'NONE',  ( -1.807003620809174632E-16, 0.000000000000000000, 1.000000000000000000 ) ) ;
#417 = CARTESIAN_POINT ( 'NONE',  ( -0.5734202748069465727, 0.2999999999999999334, 0.4000000000000000222 ) ) ;
#418 = ORIENTED_EDGE ( 'NONE', *, *, #62, .F. ) ;
#419 = FACE_OUTER_BOUND ( 'NONE', #796, .T. ) ;
#420 = ADVANCED_FACE ( 'NONE', ( #54 ), #559, .F. ) ;
#421 = EDGE_LOOP ( 'NONE', ( #799, #667, #513, #510 ) ) ;
#422 = EDGE_CURVE ( 'NONE', #608, #785, #612, .T. ) ;
#423 = ORIENTED_EDGE ( 'NONE', *, *, #601, .F. ) ;
#424 = ORIENTED_EDGE ( 'NONE', *, *, #504, .F. ) ;
#425 = DIRECTION ( 'NONE',  ( 0.000000000000000000, 0.000000000000000000, 1.000000000000000000 ) ) ;
#426 = ADVANCED_FACE ( 'NONE', ( #687 ), #675, .F. ) ;
#427 = ADVANCED_BREP_SHAPE_REPRESENTATION ( 'DSN-2_152AB', ( #693, #139, #157, #691, #635 ), #771 ) ;
#428 = CARTESIAN_POINT ( 'NONE',  ( -0.6955463899072612532, 0.3099999999999999978, -0.3999999999999999667 ) ) ;
#429 = DIRECTION ( 'NONE',  ( -0.000000000000000000, -1.000000000000000000, -0.000000000000000000 ) ) ;
#430 = EDGE_CURVE ( 'NONE', #312, #529, #802, .T. ) ;
#431 = FACE_OUTER_BOUND ( 'NONE', #632, .T. ) ;
#432 =( NAMED_UNIT ( * ) SI_UNIT ( $, .STERADIAN. ) SOLID_ANGLE_UNIT ( ) );
#433 = DIRECTION ( 'NONE',  ( 0.000000000000000000, 0.000000000000000000, -1.000000000000000000 ) ) ;
#434 = PLANE ( 'NONE',  #360 ) ;
#435 = VECTOR ( 'NONE', #647, 1000.000000000000000 ) ;
#436 = MECHANICAL_DESIGN_GEOMETRIC_PRESENTATION_REPRESENTATION (  '', ( #770 ), #549 ) ;
#437 = UNCERTAINTY_MEASURE_WITH_UNIT (LENGTH_MEASURE( 1.000000000000000082E-05 ), #750, 'distance_accuracy_value', 'NONE');
#438 = VECTOR ( 'NONE', #464, 1000.000000000000000 ) ;
#439 = ADVANCED_FACE ( 'NONE', ( #178 ), #739, .F. ) ;
#440 = CARTESIAN_POINT ( 'NONE',  ( -0.4500000000000000111, 0.000000000000000000, -0.2999999999999999334 ) ) ;
#441 = ORIENTED_EDGE ( 'NONE', *, *, #587, .F. ) ;
#442 = CARTESIAN_POINT ( 'NONE',  ( 0.7500000000000000000, 1.173610252712211643, 0.3000000000000000444 ) ) ;
#443 = FACE_OUTER_BOUND ( 'NONE', #89, .T. ) ;
#444 = ORIENTED_EDGE ( 'NONE', *, *, #484, .F. ) ;
#445 = ADVANCED_FACE ( 'NONE', ( #671 ), #677, .F. ) ;
#446 = ORIENTED_EDGE ( 'NONE', *, *, #697, .F. ) ;
#447 = ADVANCED_FACE ( 'NONE', ( #304 ), #358, .F. ) ;
#448 = LINE ( 'NONE', #708, #25 ) ;
#449 = VECTOR ( 'NONE', #528, 1000.000000000000000 ) ;
#450 = ORIENTED_EDGE ( 'NONE', *, *, #619, .T. ) ;
#451 = EDGE_LOOP ( 'NONE', ( #256, #742, #543, #772 ) ) ;
#452 = CARTESIAN_POINT ( 'NONE',  ( -0.7499999999999998890, 0.000000000000000000, -0.2999999999999999889 ) ) ;
#453 = LINE ( 'NONE', #155, #377 ) ;
#454 = EDGE_LOOP ( 'NONE', ( #758, #642, #94, #306 ) ) ;
#455 = DIRECTION ( 'NONE',  ( -0.000000000000000000, -1.000000000000000000, -0.000000000000000000 ) ) ;
#456 = LINE ( 'NONE', #293, #167 ) ;
#457 = APPLICATION_CONTEXT ( 'automotive_design' ) ;
#458 = DIRECTION ( 'NONE',  ( 1.000000000000000000, -0.000000000000000000, 5.706327223607917555E-17 ) ) ;
#459 = DIRECTION ( 'NONE',  ( 0.000000000000000000, 1.000000000000000000, 0.000000000000000000 ) ) ;
#460 = VERTEX_POINT ( 'NONE', #428 ) ;
#461 = DIRECTION ( 'NONE',  ( -1.000000000000000000, 0.000000000000000000, 1.355252715606880789E-16 ) ) ;
#462 =( NAMED_UNIT ( * ) SI_UNIT ( $, .STERADIAN. ) SOLID_ANGLE_UNIT ( ) );
#463 = VECTOR ( 'NONE', #399, 1000.000000000000000 ) ;
#464 = DIRECTION ( 'NONE',  ( 0.000000000000000000, 0.000000000000000000, -1.000000000000000000 ) ) ;
#465 = MECHANICAL_DESIGN_GEOMETRIC_PRESENTATION_REPRESENTATION (  '', ( #788 ), #181 ) ;
#466 = CARTESIAN_POINT ( 'NONE',  ( 0.7999999999999997113, 2.408854381999832039, -0.4000000000000001887 ) ) ;
#467 = ORIENTED_EDGE ( 'NONE', *, *, #619, .F. ) ;
#468 = DIRECTION ( 'NONE',  ( 0.000000000000000000, 0.000000000000000000, 1.000000000000000000 ) ) ;
#469 = FACE_OUTER_BOUND ( 'NONE', #239, .T. ) ;
#470 = DIRECTION ( 'NONE',  ( -1.000000000000000000, 0.000000000000000000, -1.807003620809174632E-16 ) ) ;
#471 = LINE ( 'NONE', #353, #756 ) ;
#472 = PLANE ( 'NONE',  #203 ) ;
#473 = FILL_AREA_STYLE_COLOUR ( '', #115 ) ;
#474 = CARTESIAN_POINT ( 'NONE',  ( 0.7999999999999997113, 2.408854381999832039, 0.3999999999999998557 ) ) ;
#475 = DIRECTION ( 'NONE',  ( -0.000000000000000000, 1.000000000000000000, -0.000000000000000000 ) ) ;
#476 = ORIENTED_EDGE ( 'NONE', *, *, #2, .T. ) ;
#477 = CARTESIAN_POINT ( 'NONE',  ( 0.000000000000000000, 0.2999999999999999889, 0.000000000000000000 ) ) ;
#478 = ORIENTED_EDGE ( 'NONE', *, *, #803, .F. ) ;
#479 = EDGE_CURVE ( 'NONE', #333, #240, #681, .T. ) ;
#480 = AXIS2_PLACEMENT_3D ( 'NONE', #487, #618, #628 ) ;
#481 = EDGE_LOOP ( 'NONE', ( #381, #165, #727, #558 ) ) ;
#482 = VECTOR ( 'NONE', #468, 1000.000000000000000 ) ;
#483 = EDGE_LOOP ( 'NONE', ( #538, #30, #266, #127 ) ) ;
#484 = EDGE_CURVE ( 'NONE', #460, #331, #561, .T. ) ;
#485 = VERTEX_POINT ( 'NONE', #637 ) ;
#486 = EDGE_LOOP ( 'NONE', ( #441, #7, #574, #53 ) ) ;
#487 = CARTESIAN_POINT ( 'NONE',  ( 0.7999999999999997113, 2.408854381999832039, 0.3999999999999998557 ) ) ;
#488 = ADVANCED_FACE ( 'NONE', ( #247 ), #496, .T. ) ;
#489 = CARTESIAN_POINT ( 'NONE',  ( -0.4500000000000000111, 1.173610252712211643, -0.2999999999999999334 ) ) ;
#490 = DIRECTION ( 'NONE',  ( -1.807003620809174139E-16, 0.000000000000000000, 1.000000000000000000 ) ) ;
#491 = VECTOR ( 'NONE', #182, 1000.000000000000000 ) ;
#492 = EDGE_CURVE ( 'NONE', #776, #382, #297, .T. ) ;
#493 = VECTOR ( 'NONE', #3, 1000.000000000000000 ) ;
#494 = ORIENTED_EDGE ( 'NONE', *, *, #754, .F. ) ;
#495 = LINE ( 'NONE', #753, #759 ) ;
#496 = PLANE ( 'NONE',  #580 ) ;
#497 = CARTESIAN_POINT ( 'NONE',  ( 0.7500000000000000000, 1.173610252712211643, 0.3000000000000000444 ) ) ;
#498 = ORIENTED_EDGE ( 'NONE', *, *, #564, .F. ) ;
#499 = UNCERTAINTY_MEASURE_WITH_UNIT (LENGTH_MEASURE( 1.000000000000000082E-05 ), #296, 'distance_accuracy_value', 'NONE');
#500 = ADVANCED_FACE ( 'NONE', ( #716 ), #531, .F. ) ;
#501 = ORIENTED_EDGE ( 'NONE', *, *, #782, .T. ) ;
#502 = PLANE ( 'NONE',  #662 ) ;
#503 = LINE ( 'NONE', #575, #493 ) ;
#504 = EDGE_CURVE ( 'NONE', #668, #227, #327, .T. ) ;
#505 = CARTESIAN_POINT ( 'NONE',  ( -0.7500000000000000000, 0.000000000000000000, 0.2999999999999999889 ) ) ;
#506 = PLANE ( 'NONE',  #659 ) ;
#507 = DIRECTION ( 'NONE',  ( 0.000000000000000000, 0.000000000000000000, 1.000000000000000000 ) ) ;
#508 = EDGE_CURVE ( 'NONE', #509, #786, #634, .T. ) ;
#509 = VERTEX_POINT ( 'NONE', #384 ) ;
#510 = ORIENTED_EDGE ( 'NONE', *, *, #773, .F. ) ;
#511 = EDGE_CURVE ( 'NONE', #382, #608, #827, .T. ) ;
#512 = MECHANICAL_DESIGN_GEOMETRIC_PRESENTATION_REPRESENTATION (  '', ( #219 ), #801 ) ;
#513 = ORIENTED_EDGE ( 'NONE', *, *, #35, .T. ) ;
#514 = CARTESIAN_POINT ( 'NONE',  ( 0.7999999999999997113, 2.408854381999832039, -0.4000000000000001887 ) ) ;
#515 = VECTOR ( 'NONE', #590, 1000.000000000000000 ) ;
#516 = LINE ( 'NONE', #206, #804 ) ;
#517 = LINE ( 'NONE', #783, #6 ) ;
#518 = VERTEX_POINT ( 'NONE', #70 ) ;
#519 = VERTEX_POINT ( 'NONE', #257 ) ;
#520 = DIRECTION ( 'NONE',  ( -0.000000000000000000, -1.000000000000000000, -0.000000000000000000 ) ) ;
#521 = LINE ( 'NONE', #777, #80 ) ;
#522 = FACE_OUTER_BOUND ( 'NONE', #573, .T. ) ;
#523 = ORIENTED_EDGE ( 'NONE', *, *, #64, .F. ) ;
#524 = ORIENTED_EDGE ( 'NONE', *, *, #554, .T. ) ;
#525 = EDGE_CURVE ( 'NONE', #105, #331, #448, .T. ) ;
#526 = ORIENTED_EDGE ( 'NONE', *, *, #171, .T. ) ;
#527 = CARTESIAN_POINT ( 'NONE',  ( -0.8000000000000001554, 0.3099999999999999423, 0.4000000000000000777 ) ) ;
#528 = DIRECTION ( 'NONE',  ( -0.000000000000000000, 1.000000000000000000, -0.000000000000000000 ) ) ;
#529 = VERTEX_POINT ( 'NONE', #452 ) ;
#530 = VERTEX_POINT ( 'NONE', #73 ) ;
#531 = PLANE ( 'NONE',  #286 ) ;
#532 = DIRECTION ( 'NONE',  ( 0.000000000000000000, 0.000000000000000000, 1.000000000000000000 ) ) ;
#533 = VECTOR ( 'NONE', #507, 1000.000000000000000 ) ;
#534 =( GEOMETRIC_REPRESENTATION_CONTEXT ( 3 ) GLOBAL_UNCERTAINTY_ASSIGNED_CONTEXT ( ( #499 ) ) GLOBAL_UNIT_ASSIGNED_CONTEXT ( ( #296, #98, #176 ) ) REPRESENTATION_CONTEXT ( 'NONE', 'WORKASPACE' ) );
#535 = LINE ( 'NONE', #723, #515 ) ;
#536 = ORIENTED_EDGE ( 'NONE', *, *, #660, .T. ) ;
#537 = FACE_OUTER_BOUND ( 'NONE', #603, .T. ) ;
#538 = ORIENTED_EDGE ( 'NONE', *, *, #47, .F. ) ;
#539 = CARTESIAN_POINT ( 'NONE',  ( -0.4500000000000000111, 0.000000000000000000, 0.2999999999999999889 ) ) ;
#540 = DIRECTION ( 'NONE',  ( 1.355252715606880789E-16, -0.000000000000000000, 1.000000000000000000 ) ) ;
#541 = ORIENTED_EDGE ( 'NONE', *, *, #803, .T. ) ;
#542 = CARTESIAN_POINT ( 'NONE',  ( -0.4500000000000000111, 0.04999999999999991257, 0.2999999999999999889 ) ) ;
#543 = ORIENTED_EDGE ( 'NONE', *, *, #212, .T. ) ;
#544 = EDGE_LOOP ( 'NONE', ( #656, #152, #826, #523 ) ) ;
#545 = EDGE_CURVE ( 'NONE', #81, #460, #503, .T. ) ;
#546 = SURFACE_STYLE_FILL_AREA ( #106 ) ;
#547 = CARTESIAN_POINT ( 'NONE',  ( 0.7500000000000000000, 1.173610252712211643, -0.3000000000000000444 ) ) ;
#548 = CARTESIAN_POINT ( 'NONE',  ( -0.7500000000000000000, 0.04999999999999991257, 0.2999999999999999889 ) ) ;
#549 =( GEOMETRIC_REPRESENTATION_CONTEXT ( 3 ) GLOBAL_UNCERTAINTY_ASSIGNED_CONTEXT ( ( #365 ) ) GLOBAL_UNIT_ASSIGNED_CONTEXT ( ( #282, #583, #462 ) ) REPRESENTATION_CONTEXT ( 'NONE', 'WORKASPACE' ) );
#550 = AXIS2_PLACEMENT_3D ( 'NONE', #823, #129, #433 ) ;
#551 = DIRECTION ( 'NONE',  ( 1.000000000000000000, 0.000000000000000000, -1.355252715606880789E-16 ) ) ;
#552 = LINE ( 'NONE', #49, #26 ) ;
#553 = CARTESIAN_POINT ( 'NONE',  ( 0.7999999999999997113, 0.3099999999999999423, 0.3999999999999998557 ) ) ;
#554 = EDGE_CURVE ( 'NONE', #519, #668, #267, .T. ) ;
#555 = VECTOR ( 'NONE', #184, 1000.000000000000000 ) ;
#556 = AXIS2_PLACEMENT_3D ( 'NONE', #466, #540, #719 ) ;
#557 = VECTOR ( 'NONE', #392, 1000.000000000000000 ) ;
#558 = ORIENTED_EDGE ( 'NONE', *, *, #199, .T. ) ;
#559 = PLANE ( 'NONE',  #121 ) ;
#560 = ADVANCED_FACE ( 'NONE', ( #205 ), #506, .T. ) ;
#561 = LINE ( 'NONE', #323, #533 ) ;
#562 = DIRECTION ( 'NONE',  ( 1.000000000000000000, -0.000000000000000000, 0.000000000000000000 ) ) ;
#563 = EDGE_LOOP ( 'NONE', ( #404, #501, #230, #400, #295, #321, #168, #189 ) ) ;
#564 = EDGE_CURVE ( 'NONE', #300, #721, #138, .T. ) ;
#565 = CARTESIAN_POINT ( 'NONE',  ( 0.000000000000000000, 0.000000000000000000, 0.000000000000000000 ) ) ;
#566 = CARTESIAN_POINT ( 'NONE',  ( -0.6955463899072612532, -0.5092680569437392224, -0.3999999999999999667 ) ) ;
#567 = AXIS2_PLACEMENT_3D ( 'NONE', #565, #685, #196 ) ;
#568 = VECTOR ( 'NONE', #809, 1000.000000000000000 ) ;
#569 = DIRECTION ( 'NONE',  ( 0.000000000000000000, 0.000000000000000000, 1.000000000000000000 ) ) ;
#570 = COLOUR_RGB ( '',0.7960784313725489669, 0.8235294117647058432, 0.9372549019607843146 ) ;
#571 = EDGE_CURVE ( 'NONE', #270, #609, #75, .T. ) ;
#572 = ORIENTED_EDGE ( 'NONE', *, *, #199, .F. ) ;
#573 = EDGE_LOOP ( 'NONE', ( #526, #476, #822, #702 ) ) ;
#574 = ORIENTED_EDGE ( 'NONE', *, *, #682, .F. ) ;
#575 = CARTESIAN_POINT ( 'NONE',  ( -0.6955463899072612532, -0.5092680569437392224, -0.3999999999999999667 ) ) ;
#576 = FILL_AREA_STYLE_COLOUR ( '', #769 ) ;
#577 = PRESENTATION_LAYER_ASSIGNMENT (  '', '', ( #219 ) ) ;
#578 = ORIENTED_EDGE ( 'NONE', *, *, #601, .T. ) ;
#579 = DIRECTION ( 'NONE',  ( -1.000000000000000000, -0.000000000000000000, -0.000000000000000000 ) ) ;
#580 = AXIS2_PLACEMENT_3D ( 'NONE', #683, #598, #791 ) ;
#581 = CARTESIAN_POINT ( 'NONE',  ( -0.5734202748069465727, 0.3099999999999999978, -0.3999999999999999667 ) ) ;
#582 = PRESENTATION_LAYER_ASSIGNMENT (  '', '', ( #788 ) ) ;
#583 =( NAMED_UNIT ( * ) PLANE_ANGLE_UNIT ( ) SI_UNIT ( $, .RADIAN. ) );
#584 = CARTESIAN_POINT ( 'NONE',  ( 0.7999999999999997113, 0.05000000000000000278, 0.3999999999999998557 ) ) ;
#585 = CARTESIAN_POINT ( 'NONE',  ( 0.000000000000000000, 0.05000000000000000278, 0.000000000000000000 ) ) ;
#586 = VERTEX_POINT ( 'NONE', #211 ) ;
#587 = EDGE_CURVE ( 'NONE', #81, #333, #145, .T. ) ;
#588 = CARTESIAN_POINT ( 'NONE',  ( 0.7999999999999997113, 0.3099999999999999423, 0.3999999999999998557 ) ) ;
#589 = ORIENTED_EDGE ( 'NONE', *, *, #545, .F. ) ;
#590 = DIRECTION ( 'NONE',  ( 1.000000000000000000, -0.000000000000000000, 5.706327223607917555E-17 ) ) ;
#591 = DIRECTION ( 'NONE',  ( 0.000000000000000000, 1.000000000000000000, 0.000000000000000000 ) ) ;
#592 = EDGE_LOOP ( 'NONE', ( #467, #424, #386, #242 ) ) ;
#593 = ADVANCED_FACE ( 'NONE', ( #443 ), #130, .F. ) ;
#594 = LINE ( 'NONE', #163, #186 ) ;
#595 = CARTESIAN_POINT ( 'NONE',  ( -0.2000000000000000666, 0.000000000000000000, -0.2999999999999999889 ) ) ;
#596 = CARTESIAN_POINT ( 'NONE',  ( 0.7500000000000000000, 0.04999999999999991257, -0.3000000000000000444 ) ) ;
#597 = DIRECTION ( 'NONE',  ( -1.000000000000000000, 0.000000000000000000, 0.000000000000000000 ) ) ;
#598 = DIRECTION ( 'NONE',  ( 1.000000000000000000, 0.000000000000000000, 0.000000000000000000 ) ) ;
#599 = LINE ( 'NONE', #100, #335 ) ;
#600 = PRESENTATION_LAYER_ASSIGNMENT (  '', '', ( #770 ) ) ;
#601 = EDGE_CURVE ( 'NONE', #786, #305, #535, .T. ) ;
#602 = CARTESIAN_POINT ( 'NONE',  ( -0.4500000000000000111, 1.173610252712211643, 0.2999999999999999889 ) ) ;
#603 = EDGE_LOOP ( 'NONE', ( #829, #808, #132, #401 ) ) ;
#604 = CARTESIAN_POINT ( 'NONE',  ( -0.5734202748069465727, 0.2999999999999999889, -0.3999999999999999667 ) ) ;
#605 = ORIENTED_EDGE ( 'NONE', *, *, #64, .T. ) ;
#606 = PLANE ( 'NONE',  #258 ) ;
#607 = EDGE_CURVE ( 'NONE', #518, #616, #14, .T. ) ;
#608 = VERTEX_POINT ( 'NONE', #527 ) ;
#609 = VERTEX_POINT ( 'NONE', #658 ) ;
#610 = FACE_OUTER_BOUND ( 'NONE', #651, .T. ) ;
#611 = ORIENTED_EDGE ( 'NONE', *, *, #154, .T. ) ;
#612 = LINE ( 'NONE', #253, #114 ) ;
#613 = VECTOR ( 'NONE', #34, 1000.000000000000000 ) ;
#614 = VECTOR ( 'NONE', #792, 1000.000000000000000 ) ;
#615 = DIRECTION ( 'NONE',  ( -1.000000000000000000, 0.000000000000000000, 0.000000000000000000 ) ) ;
#616 = VERTEX_POINT ( 'NONE', #581 ) ;
#617 = VECTOR ( 'NONE', #291, 1000.000000000000000 ) ;
#618 = DIRECTION ( 'NONE',  ( -1.355252715606880789E-16, 0.000000000000000000, -1.000000000000000000 ) ) ;
#619 = EDGE_CURVE ( 'NONE', #227, #586, #456, .T. ) ;
#620 = LINE ( 'NONE', #505, #491 ) ;
#621 = DIRECTION ( 'NONE',  ( 1.000000000000000000, 0.000000000000000000, -0.000000000000000000 ) ) ;
#622 = ORIENTED_EDGE ( 'NONE', *, *, #86, .T. ) ;
#623 = CARTESIAN_POINT ( 'NONE',  ( -0.6955463899072612532, -0.5092680569437392224, -0.3999999999999999667 ) ) ;
#624 = VECTOR ( 'NONE', #798, 1000.000000000000000 ) ;
#625 = EDGE_CURVE ( 'NONE', #530, #50, #91, .T. ) ;
#626 = LINE ( 'NONE', #58, #555 ) ;
#627 = VECTOR ( 'NONE', #156, 1000.000000000000000 ) ;
#628 = DIRECTION ( 'NONE',  ( -1.000000000000000000, 0.000000000000000000, 1.355252715606880789E-16 ) ) ;
#629 = EDGE_CURVE ( 'NONE', #331, #518, #336, .T. ) ;
#630 = SURFACE_STYLE_USAGE ( .BOTH. , #119 ) ;
#631 = CARTESIAN_POINT ( 'NONE',  ( 0.7500000000000000000, 1.173610252712211643, 0.3000000000000000444 ) ) ;
#632 = EDGE_LOOP ( 'NONE', ( #146, #265, #645, #423 ) ) ;
#633 = VECTOR ( 'NONE', #461, 1000.000000000000000 ) ;
#634 = LINE ( 'NONE', #329, #244 ) ;
#635 = AXIS2_PLACEMENT_3D ( 'NONE', #369, #746, #684 ) ;
#636 = EDGE_CURVE ( 'NONE', #85, #529, #153, .T. ) ;
#637 = CARTESIAN_POINT ( 'NONE',  ( -0.4500000000000000111, 0.04999999999999991257, -0.2999999999999999334 ) ) ;
#638 = ORIENTED_EDGE ( 'NONE', *, *, #128, .T. ) ;
#639 = VERTEX_POINT ( 'NONE', #216 ) ;
#640 = DIRECTION ( 'NONE',  ( 0.000000000000000000, 0.000000000000000000, -1.000000000000000000 ) ) ;
#641 = DIRECTION ( 'NONE',  ( -0.000000000000000000, -0.000000000000000000, 1.000000000000000000 ) ) ;
#642 = ORIENTED_EDGE ( 'NONE', *, *, #629, .T. ) ;
#643 = EDGE_CURVE ( 'NONE', #776, #785, #76, .T. ) ;
#644 = FACE_OUTER_BOUND ( 'NONE', #283, .T. ) ;
#645 = ORIENTED_EDGE ( 'NONE', *, *, #74, .F. ) ;
#646 = AXIS2_PLACEMENT_3D ( 'NONE', #477, #226, #84 ) ;
#647 = DIRECTION ( 'NONE',  ( 1.000000000000000000, -0.000000000000000000, -1.355252715606880789E-16 ) ) ;
#648 = DIRECTION ( 'NONE',  ( 0.000000000000000000, 0.000000000000000000, -1.000000000000000000 ) ) ;
#649 = EDGE_CURVE ( 'NONE', #97, #281, #341, .T. ) ;
#650 = FACE_OUTER_BOUND ( 'NONE', #351, .T. ) ;
#651 = EDGE_LOOP ( 'NONE', ( #173, #11, #806, #104 ) ) ;
#652 = LINE ( 'NONE', #233, #813 ) ;
#653 = DIRECTION ( 'NONE',  ( 0.000000000000000000, 1.000000000000000000, 0.000000000000000000 ) ) ;
#654 = ORIENTED_EDGE ( 'NONE', *, *, #35, .F. ) ;
#655 = CARTESIAN_POINT ( 'NONE',  ( -0.8000000000000001554, 2.408854381999832039, 0.4000000000000000777 ) ) ;
#656 = ORIENTED_EDGE ( 'NONE', *, *, #479, .F. ) ;
#657 = LINE ( 'NONE', #669, #815 ) ;
#658 = CARTESIAN_POINT ( 'NONE',  ( -0.6955463899072612532, 0.2999999999999999889, -0.3999999999999999667 ) ) ;
#659 = AXIS2_PLACEMENT_3D ( 'NONE', #774, #703, #779 ) ;
#660 = EDGE_CURVE ( 'NONE', #281, #736, #12, .T. ) ;
#661 = CARTESIAN_POINT ( 'NONE',  ( 0.000000000000000000, 0.3099999999999999978, 0.000000000000000000 ) ) ;
#662 = AXIS2_PLACEMENT_3D ( 'NONE', #819, #765, #72 ) ;
#663 = EDGE_LOOP ( 'NONE', ( #134, #44, #701, #273 ) ) ;
#664 = PLANE ( 'NONE',  #315 ) ;
#665 = PLANE ( 'NONE',  #556 ) ;
#666 = VERTEX_POINT ( 'NONE', #413 ) ;
#667 = ORIENTED_EDGE ( 'NONE', *, *, #625, .T. ) ;
#668 = VERTEX_POINT ( 'NONE', #348 ) ;
#669 = CARTESIAN_POINT ( 'NONE',  ( -0.5734202748069465727, 0.2999999999999999889, -0.3999999999999999667 ) ) ;
#670 = FILL_AREA_STYLE_COLOUR ( '', #397 ) ;
#671 = FACE_OUTER_BOUND ( 'NONE', #407, .T. ) ;
#672 = CARTESIAN_POINT ( 'NONE',  ( -0.5734202748069465727, 0.2999999999999999334, -0.3999999999999999667 ) ) ;
#673 = VERTEX_POINT ( 'NONE', #275 ) ;
#674 =( NAMED_UNIT ( * ) SI_UNIT ( $, .STERADIAN. ) SOLID_ANGLE_UNIT ( ) );
#675 = PLANE ( 'NONE',  #480 ) ;
#676 = AXIS2_PLACEMENT_3D ( 'NONE', #805, #350, #425 ) ;
#677 = PLANE ( 'NONE',  #322 ) ;
#678 = CARTESIAN_POINT ( 'NONE',  ( -0.6955463899072612532, 0.2999999999999999334, -0.3999999999999999667 ) ) ;
#679 = STYLED_ITEM ( 'NONE', ( #38 ), #693 ) ;
#680 = PRODUCT_DEFINITION ( 'UNKNOWN', '', #747, #126 ) ;
#681 = LINE ( 'NONE', #367, #67 ) ;
#682 = EDGE_CURVE ( 'NONE', #616, #460, #32, .T. ) ;
#683 = CARTESIAN_POINT ( 'NONE',  ( -0.5734202748069465727, -0.5092680569437392224, -0.3999999999999999667 ) ) ;
#684 = DIRECTION ( 'NONE',  ( 1.000000000000000000, 0.000000000000000000, 0.000000000000000000 ) ) ;
#685 = DIRECTION ( 'NONE',  ( 0.000000000000000000, 1.000000000000000000, 0.000000000000000000 ) ) ;
#686 = LINE ( 'NONE', #375, #463 ) ;
#687 = FACE_OUTER_BOUND ( 'NONE', #563, .T. ) ;
#688 = ADVANCED_FACE ( 'NONE', ( #419 ), #174, .F. ) ;
#689 = ORIENTED_EDGE ( 'NONE', *, *, #643, .F. ) ;
#690 = VECTOR ( 'NONE', #532, 1000.000000000000000 ) ;
#691 = MANIFOLD_SOLID_BREP ( 'Boss-Extrude3[2]', #733 ) ;
#692 = SURFACE_STYLE_FILL_AREA ( #192 ) ;
#693 = MANIFOLD_SOLID_BREP ( 'Cut-Extrude1', #376 ) ;
#694 = LINE ( 'NONE', #395, #435 ) ;
#695 = VERTEX_POINT ( 'NONE', #45 ) ;
#696 = PRESENTATION_STYLE_ASSIGNMENT (( #250 ) ) ;
#697 = EDGE_CURVE ( 'NONE', #639, #270, #657, .T. ) ;
#698 = ORIENTED_EDGE ( 'NONE', *, *, #738, .F. ) ;
#699 = VECTOR ( 'NONE', #579, 1000.000000000000000 ) ;
#700 = VECTOR ( 'NONE', #640, 1000.000000000000000 ) ;
#701 = ORIENTED_EDGE ( 'NONE', *, *, #361, .T. ) ;
#702 = ORIENTED_EDGE ( 'NONE', *, *, #571, .T. ) ;
#703 = DIRECTION ( 'NONE',  ( 0.000000000000000000, 1.000000000000000000, 0.000000000000000000 ) ) ;
#704 = CARTESIAN_POINT ( 'NONE',  ( -0.6955463899072612532, 0.3099999999999999978, 0.4000000000000000222 ) ) ;
#705 = SURFACE_STYLE_FILL_AREA ( #82 ) ;
#706 = ORIENTED_EDGE ( 'NONE', *, *, #241, .F. ) ;
#707 = ORIENTED_EDGE ( 'NONE', *, *, #161, .F. ) ;
#708 = CARTESIAN_POINT ( 'NONE',  ( -0.6955463899072612532, -0.5092680569437392224, 0.4000000000000000222 ) ) ;
#709 = FILL_AREA_STYLE_COLOUR ( '', #96 ) ;
#710 = CARTESIAN_POINT ( 'NONE',  ( -0.6955463899072612532, 0.2999999999999999889, 0.4000000000000000222 ) ) ;
#711 = DIRECTION ( 'NONE',  ( 0.000000000000000000, 0.000000000000000000, 1.000000000000000000 ) ) ;
#712 = VERTEX_POINT ( 'NONE', #542 ) ;
#713 = VECTOR ( 'NONE', #9, 1000.000000000000000 ) ;
#714 = DIRECTION ( 'NONE',  ( 1.000000000000000000, 0.000000000000000000, 0.000000000000000000 ) ) ;
#715 = AXIS2_PLACEMENT_3D ( 'NONE', #442, #63, #109 ) ;
#716 = FACE_OUTER_BOUND ( 'NONE', #592, .T. ) ;
#717 = ORIENTED_EDGE ( 'NONE', *, *, #284, .T. ) ;
#718 = ADVANCED_FACE ( 'NONE', ( #340 ), #31, .F. ) ;
#719 = DIRECTION ( 'NONE',  ( 1.000000000000000000, 0.000000000000000000, -1.355252715606880789E-16 ) ) ;
#720 = ORIENTED_EDGE ( 'NONE', *, *, #571, .F. ) ;
#721 = VERTEX_POINT ( 'NONE', #20 ) ;
#722 = ORIENTED_EDGE ( 'NONE', *, *, #511, .T. ) ;
#723 = CARTESIAN_POINT ( 'NONE',  ( 0.7500000000000000000, 0.000000000000000000, 0.3000000000000000444 ) ) ;
#724 = LINE ( 'NONE', #497, #4 ) ;
#725 = CARTESIAN_POINT ( 'NONE',  ( 0.000000000000000000, 0.05000000000000000278, 0.000000000000000000 ) ) ;
#726 = DIRECTION ( 'NONE',  ( -0.000000000000000000, -1.000000000000000000, -0.000000000000000000 ) ) ;
#727 = ORIENTED_EDGE ( 'NONE', *, *, #479, .T. ) ;
#728 = CARTESIAN_POINT ( 'NONE',  ( -0.6955463899072612532, 0.3099999999999999978, -0.3999999999999999667 ) ) ;
#729 = ORIENTED_EDGE ( 'NONE', *, *, #492, .F. ) ;
#730 = DIRECTION ( 'NONE',  ( 0.000000000000000000, 1.000000000000000000, 0.000000000000000000 ) ) ;
#731 = ORIENTED_EDGE ( 'NONE', *, *, #171, .F. ) ;
#732 = CARTESIAN_POINT ( 'NONE',  ( -0.6955463899072612532, 0.3099999999999999978, -0.3999999999999999667 ) ) ;
#733 = CLOSED_SHELL ( 'NONE', ( #718, #807, #439, #18, #308, #225 ) ) ;
#734 = VECTOR ( 'NONE', #410, 1000.000000000000000 ) ;
#735 = ORIENTED_EDGE ( 'NONE', *, *, #284, .F. ) ;
#736 = VERTEX_POINT ( 'NONE', #584 ) ;
#737 =( LENGTH_UNIT ( ) NAMED_UNIT ( * ) SI_UNIT ( .MILLI., .METRE. ) );
#738 = EDGE_CURVE ( 'NONE', #509, #300, #517, .T. ) ;
#739 = PLANE ( 'NONE',  #676 ) ;
#740 = VERTEX_POINT ( 'NONE', #595 ) ;
#741 = EDGE_CURVE ( 'NONE', #736, #668, #343, .T. ) ;
#742 = ORIENTED_EDGE ( 'NONE', *, *, #824, .T. ) ;
#743 = CARTESIAN_POINT ( 'NONE',  ( -0.2000000000000000666, 0.04999999999999991257, 0.2999999999999999889 ) ) ;
#744 = VECTOR ( 'NONE', #749, 1000.000000000000000 ) ;
#745 = VECTOR ( 'NONE', #320, 1000.000000000000000 ) ;
#746 = DIRECTION ( 'NONE',  ( 0.000000000000000000, 0.000000000000000000, 1.000000000000000000 ) ) ;
#747 = PRODUCT_DEFINITION_FORMATION_WITH_SPECIFIED_SOURCE ( 'ANY', '', #198, .NOT_KNOWN. ) ;
#748 = EDGE_CURVE ( 'NONE', #485, #312, #521, .T. ) ;
#749 = DIRECTION ( 'NONE',  ( -0.000000000000000000, -1.000000000000000000, -0.000000000000000000 ) ) ;
#750 =( LENGTH_UNIT ( ) NAMED_UNIT ( * ) SI_UNIT ( .MILLI., .METRE. ) );
#751 = DIRECTION ( 'NONE',  ( 0.000000000000000000, 0.000000000000000000, 1.000000000000000000 ) ) ;
#752 = ORIENTED_EDGE ( 'NONE', *, *, #636, .F. ) ;
#753 = CARTESIAN_POINT ( 'NONE',  ( -0.6955463899072612532, 0.2999999999999999334, -0.3999999999999999667 ) ) ;
#754 = EDGE_CURVE ( 'NONE', #10, #85, #208, .T. ) ;
#755 = SURFACE_STYLE_FILL_AREA ( #385 ) ;
#756 = VECTOR ( 'NONE', #159, 1000.000000000000000 ) ;
#757 = DIRECTION ( 'NONE',  ( 0.000000000000000000, 0.000000000000000000, -1.000000000000000000 ) ) ;
#758 = ORIENTED_EDGE ( 'NONE', *, *, #484, .T. ) ;
#759 = VECTOR ( 'NONE', #177, 1000.000000000000000 ) ;
#760 = CARTESIAN_POINT ( 'NONE',  ( -0.6955463899072612532, 0.2999999999999999334, -0.3999999999999999667 ) ) ;
#761 = PLANE ( 'NONE',  #567 ) ;
#762 =( NAMED_UNIT ( * ) PLANE_ANGLE_UNIT ( ) SI_UNIT ( $, .RADIAN. ) );
#763 = CARTESIAN_POINT ( 'NONE',  ( -0.8000000000000001554, 0.3099999999999999423, 0.4000000000000000777 ) ) ;
#764 = CARTESIAN_POINT ( 'NONE',  ( 0.7500000000000000000, 0.000000000000000000, -0.3000000000000000444 ) ) ;
#765 = DIRECTION ( 'NONE',  ( 0.000000000000000000, 0.000000000000000000, -1.000000000000000000 ) ) ;
#766 = ORIENTED_EDGE ( 'NONE', *, *, #741, .T. ) ;
#767 = DIRECTION ( 'NONE',  ( -1.000000000000000000, 0.000000000000000000, 5.706327223607917555E-17 ) ) ;
#768 = PLANE ( 'NONE',  #715 ) ;
#769 = COLOUR_RGB ( '',1.000000000000000000, 1.000000000000000000, 1.000000000000000000 ) ;
#770 = STYLED_ITEM ( 'NONE', ( #140 ), #157 ) ;
#771 =( GEOMETRIC_REPRESENTATION_CONTEXT ( 3 ) GLOBAL_UNCERTAINTY_ASSIGNED_CONTEXT ( ( #59 ) ) GLOBAL_UNIT_ASSIGNED_CONTEXT ( ( #263, #818, #432 ) ) REPRESENTATION_CONTEXT ( 'NONE', 'WORKASPACE' ) );
#772 = ORIENTED_EDGE ( 'NONE', *, *, #508, .F. ) ;
#773 = EDGE_CURVE ( 'NONE', #712, #10, #214, .T. ) ;
#774 = CARTESIAN_POINT ( 'NONE',  ( 0.000000000000000000, 0.3099999999999999978, 0.000000000000000000 ) ) ;
#775 = DIRECTION ( 'NONE',  ( -0.000000000000000000, 1.000000000000000000, -0.000000000000000000 ) ) ;
#776 = VERTEX_POINT ( 'NONE', #728 ) ;
#777 = CARTESIAN_POINT ( 'NONE',  ( -0.4500000000000000111, 0.04999999999999991257, -0.2999999999999999334 ) ) ;
#778 = DIRECTION ( 'NONE',  ( 0.000000000000000000, -0.000000000000000000, 1.000000000000000000 ) ) ;
#779 = DIRECTION ( 'NONE',  ( 0.000000000000000000, -0.000000000000000000, 1.000000000000000000 ) ) ;
#780 = CARTESIAN_POINT ( 'NONE',  ( -0.4500000000000000111, 0.000000000000000000, 0.2999999999999999889 ) ) ;
#781 = ORIENTED_EDGE ( 'NONE', *, *, #525, .F. ) ;
#782 = EDGE_CURVE ( 'NONE', #673, #785, #164, .T. ) ;
#783 = CARTESIAN_POINT ( 'NONE',  ( 0.7500000000000000000, 0.04999999999999991257, 0.3000000000000000444 ) ) ;
#784 = LINE ( 'NONE', #655, #713 ) ;
#785 = VERTEX_POINT ( 'NONE', #414 ) ;
#786 = VERTEX_POINT ( 'NONE', #83 ) ;
#787 = AXIS2_PLACEMENT_3D ( 'NONE', #362, #615, #48 ) ;
#788 = STYLED_ITEM ( 'NONE', ( #696 ), #427 ) ;
#789 = DIRECTION ( 'NONE',  ( -1.000000000000000000, 0.000000000000000000, 5.706327223607917555E-17 ) ) ;
#790 = CARTESIAN_POINT ( 'NONE',  ( 0.000000000000000000, 0.000000000000000000, 0.000000000000000000 ) ) ;
#791 = DIRECTION ( 'NONE',  ( 0.000000000000000000, 0.000000000000000000, -1.000000000000000000 ) ) ;
#792 = DIRECTION ( 'NONE',  ( -0.000000000000000000, -0.000000000000000000, 1.000000000000000000 ) ) ;
#793 = FILL_AREA_STYLE ('',( #670 ) ) ;
#794 = DIRECTION ( 'NONE',  ( 1.000000000000000000, 0.000000000000000000, 1.807003620809174632E-16 ) ) ;
#795 = CARTESIAN_POINT ( 'NONE',  ( 0.7999999999999997113, 0.3099999999999999423, 0.3999999999999998557 ) ) ;
#796 = EDGE_LOOP ( 'NONE', ( #204, #36, #450, #706 ) ) ;
#797 = CARTESIAN_POINT ( 'NONE',  ( -0.7500000000000000000, 1.173610252712211643, 0.2999999999999999889 ) ) ;
#798 = DIRECTION ( 'NONE',  ( -1.000000000000000000, 0.000000000000000000, 1.355252715606880789E-16 ) ) ;
#799 = ORIENTED_EDGE ( 'NONE', *, *, #252, .F. ) ;
#800 = SURFACE_SIDE_STYLE ('',( #546 ) ) ;
#801 =( GEOMETRIC_REPRESENTATION_CONTEXT ( 3 ) GLOBAL_UNCERTAINTY_ASSIGNED_CONTEXT ( ( #51 ) ) GLOBAL_UNIT_ASSIGNED_CONTEXT ( ( #820, #194, #213 ) ) REPRESENTATION_CONTEXT ( 'NONE', 'WORKASPACE' ) );
#802 = LINE ( 'NONE', #46, #415 ) ;
#803 = EDGE_CURVE ( 'NONE', #312, #530, #814, .T. ) ;
#804 = VECTOR ( 'NONE', #475, 1000.000000000000000 ) ;
#805 = CARTESIAN_POINT ( 'NONE',  ( -0.4500000000000000111, 1.173610252712211643, 0.2999999999999999889 ) ) ;
#806 = ORIENTED_EDGE ( 'NONE', *, *, #636, .T. ) ;
#807 = ADVANCED_FACE ( 'NONE', ( #325 ), #502, .F. ) ;
#808 = ORIENTED_EDGE ( 'NONE', *, *, #372, .T. ) ;
#809 = DIRECTION ( 'NONE',  ( 0.000000000000000000, 0.000000000000000000, -1.000000000000000000 ) ) ;
#810 = PRODUCT_CONTEXT ( 'NONE', #457, 'mechanical' ) ;
#811 = CARTESIAN_POINT ( 'NONE',  ( 0.7500000000000000000, 0.000000000000000000, 0.3000000000000000444 ) ) ;
#812 = PLANE ( 'NONE',  #299 ) ;
#813 = VECTOR ( 'NONE', #222, 1000.000000000000000 ) ;
#814 = LINE ( 'NONE', #548, #122 ) ;
#815 = VECTOR ( 'NONE', #90, 1000.000000000000000 ) ;
#816 = ADVANCED_FACE ( 'NONE', ( #191 ), #768, .F. ) ;
#817 = DIRECTION ( 'NONE',  ( 5.706327223607917555E-17, -0.000000000000000000, 1.000000000000000000 ) ) ;
#818 =( NAMED_UNIT ( * ) PLANE_ANGLE_UNIT ( ) SI_UNIT ( $, .RADIAN. ) );
#819 = CARTESIAN_POINT ( 'NONE',  ( -0.4500000000000000111, 1.173610252712211643, 0.2999999999999999889 ) ) ;
#820 =( LENGTH_UNIT ( ) NAMED_UNIT ( * ) SI_UNIT ( .MILLI., .METRE. ) );
#821 = DIRECTION ( 'NONE',  ( 0.000000000000000000, 1.000000000000000000, 0.000000000000000000 ) ) ;
#822 = ORIENTED_EDGE ( 'NONE', *, *, #697, .T. ) ;
#823 = CARTESIAN_POINT ( 'NONE',  ( -0.8000000000000001554, 2.408854381999832039, 0.4000000000000000777 ) ) ;
#824 = EDGE_CURVE ( 'NONE', #695, #740, #552, .T. ) ;
#825 = LINE ( 'NONE', #318, #744 ) ;
#826 = ORIENTED_EDGE ( 'NONE', *, *, #607, .F. ) ;
#827 = LINE ( 'NONE', #763, #388 ) ;
#828 = ADVANCED_FACE ( 'NONE', ( #249 ), #664, .T. ) ;
#829 = ORIENTED_EDGE ( 'NONE', *, *, #47, .T. ) ;
ENDSEC;
END-ISO-10303-21;
