ISO-10303-21;
HEADER;
/* Generated by software containing ST-Developer
 * from STEP Tools, Inc. (www.steptools.com) 
 */
/* OPTION: using custom renumber hook */

FILE_DESCRIPTION(
/* description */ ('STEP AP242',
'CAx-IF Rec.Pracs.---Representation and Presentation of Product Manufa
cturing Information (PMI)---4.0---2014-10-13',
'CAx-IF Rec.Pracs.---3D Tessellated Geometry---0.4---2014-09-14','2;1'),

/* implementation_level */ '2;1');

FILE_NAME(
/* name */ 'MTMM-101-05-T-D-225',
/* time_stamp */ '2026-07-02T16:37:59+02:00',
/* author */ ('License CC BY-ND 4.0'),
/* organization */ ('CADENAS'),
/* preprocessor_version */ 'ST-DEVELOPER v20',
/* originating_system */ 'PARTsolutions',
/* authorisation */ '  ');

FILE_SCHEMA (('PROCESS_PLANNING_SCHEMA','AP242_MANAGED_MODEL_BASED_3D_ENGINEERING_MIM_LF { 1 0 10303 442 1 1 4 }'));
ENDSEC;

DATA;
#10=CONTEXT_DEPENDENT_SHAPE_REPRESENTATION(#14,#1687);
#11=CONTEXT_DEPENDENT_SHAPE_REPRESENTATION(#15,#1689);
#12=NEXT_ASSEMBLY_USAGE_OCCURRENCE('NAUO1','MTMM-101-05-T-D-225_pins',
'MTMM-101-05-T-D-225_pins',#1690,#1691,'');
#13=NEXT_ASSEMBLY_USAGE_OCCURRENCE('NAUO2','MTMM-101-05-T-D-225_body',
'MTMM-101-05-T-D-225_body',#1690,#1692,'');
#14=(
REPRESENTATION_RELATIONSHIP(' ',' ',#1066,#1065)
REPRESENTATION_RELATIONSHIP_WITH_TRANSFORMATION(#16)
SHAPE_REPRESENTATION_RELATIONSHIP()
);
#15=(
REPRESENTATION_RELATIONSHIP(' ',' ',#1067,#1065)
REPRESENTATION_RELATIONSHIP_WITH_TRANSFORMATION(#17)
SHAPE_REPRESENTATION_RELATIONSHIP()
);
#16=ITEM_DEFINED_TRANSFORMATION(' ',' ',#1068,#1107);
#17=ITEM_DEFINED_TRANSFORMATION(' ',' ',#1068,#1126);
#18=SHAPE_REPRESENTATION_RELATIONSHIP('','',#1066,#20);
#19=SHAPE_REPRESENTATION_RELATIONSHIP('','',#1067,#21);
#20=ADVANCED_BREP_SHAPE_REPRESENTATION('',(#1060),#1674);
#21=ADVANCED_BREP_SHAPE_REPRESENTATION('',(#1061),#1675);
#22=ORIENTED_EDGE('',*,*,#302,.T.);
#23=ORIENTED_EDGE('',*,*,#303,.F.);
#24=ORIENTED_EDGE('',*,*,#304,.F.);
#25=ORIENTED_EDGE('',*,*,#305,.T.);
#26=ORIENTED_EDGE('',*,*,#306,.F.);
#27=ORIENTED_EDGE('',*,*,#307,.T.);
#28=ORIENTED_EDGE('',*,*,#308,.T.);
#29=ORIENTED_EDGE('',*,*,#309,.T.);
#30=ORIENTED_EDGE('',*,*,#310,.F.);
#31=ORIENTED_EDGE('',*,*,#311,.T.);
#32=ORIENTED_EDGE('',*,*,#306,.T.);
#33=ORIENTED_EDGE('',*,*,#312,.T.);
#34=ORIENTED_EDGE('',*,*,#313,.F.);
#35=ORIENTED_EDGE('',*,*,#314,.F.);
#36=ORIENTED_EDGE('',*,*,#310,.T.);
#37=ORIENTED_EDGE('',*,*,#315,.T.);
#38=ORIENTED_EDGE('',*,*,#316,.F.);
#39=ORIENTED_EDGE('',*,*,#317,.T.);
#40=ORIENTED_EDGE('',*,*,#313,.T.);
#41=ORIENTED_EDGE('',*,*,#318,.T.);
#42=ORIENTED_EDGE('',*,*,#319,.F.);
#43=ORIENTED_EDGE('',*,*,#320,.T.);
#44=ORIENTED_EDGE('',*,*,#316,.T.);
#45=ORIENTED_EDGE('',*,*,#321,.T.);
#46=ORIENTED_EDGE('',*,*,#322,.F.);
#47=ORIENTED_EDGE('',*,*,#323,.T.);
#48=ORIENTED_EDGE('',*,*,#324,.T.);
#49=ORIENTED_EDGE('',*,*,#325,.T.);
#50=ORIENTED_EDGE('',*,*,#326,.F.);
#51=ORIENTED_EDGE('',*,*,#327,.T.);
#52=ORIENTED_EDGE('',*,*,#322,.T.);
#53=ORIENTED_EDGE('',*,*,#328,.T.);
#54=ORIENTED_EDGE('',*,*,#329,.F.);
#55=ORIENTED_EDGE('',*,*,#330,.F.);
#56=ORIENTED_EDGE('',*,*,#326,.T.);
#57=ORIENTED_EDGE('',*,*,#331,.T.);
#58=ORIENTED_EDGE('',*,*,#332,.F.);
#59=ORIENTED_EDGE('',*,*,#333,.T.);
#60=ORIENTED_EDGE('',*,*,#329,.T.);
#61=ORIENTED_EDGE('',*,*,#334,.T.);
#62=ORIENTED_EDGE('',*,*,#335,.F.);
#63=ORIENTED_EDGE('',*,*,#336,.T.);
#64=ORIENTED_EDGE('',*,*,#332,.T.);
#65=ORIENTED_EDGE('',*,*,#337,.T.);
#66=ORIENTED_EDGE('',*,*,#338,.T.);
#67=ORIENTED_EDGE('',*,*,#339,.F.);
#68=ORIENTED_EDGE('',*,*,#340,.F.);
#69=ORIENTED_EDGE('',*,*,#303,.T.);
#70=ORIENTED_EDGE('',*,*,#341,.T.);
#71=ORIENTED_EDGE('',*,*,#308,.F.);
#72=ORIENTED_EDGE('',*,*,#342,.T.);
#73=ORIENTED_EDGE('',*,*,#319,.T.);
#74=ORIENTED_EDGE('',*,*,#343,.T.);
#75=ORIENTED_EDGE('',*,*,#324,.F.);
#76=ORIENTED_EDGE('',*,*,#344,.T.);
#77=ORIENTED_EDGE('',*,*,#335,.T.);
#78=ORIENTED_EDGE('',*,*,#345,.T.);
#79=ORIENTED_EDGE('',*,*,#346,.F.);
#80=ORIENTED_EDGE('',*,*,#347,.F.);
#81=ORIENTED_EDGE('',*,*,#339,.T.);
#82=ORIENTED_EDGE('',*,*,#348,.F.);
#83=ORIENTED_EDGE('',*,*,#349,.T.);
#84=ORIENTED_EDGE('',*,*,#350,.T.);
#85=ORIENTED_EDGE('',*,*,#351,.T.);
#86=ORIENTED_EDGE('',*,*,#348,.T.);
#87=ORIENTED_EDGE('',*,*,#352,.T.);
#88=ORIENTED_EDGE('',*,*,#353,.F.);
#89=ORIENTED_EDGE('',*,*,#354,.T.);
#90=ORIENTED_EDGE('',*,*,#353,.T.);
#91=ORIENTED_EDGE('',*,*,#355,.F.);
#92=ORIENTED_EDGE('',*,*,#356,.F.);
#93=ORIENTED_EDGE('',*,*,#357,.T.);
#94=ORIENTED_EDGE('',*,*,#356,.T.);
#95=ORIENTED_EDGE('',*,*,#358,.T.);
#96=ORIENTED_EDGE('',*,*,#359,.F.);
#97=ORIENTED_EDGE('',*,*,#360,.T.);
#98=ORIENTED_EDGE('',*,*,#361,.F.);
#99=ORIENTED_EDGE('',*,*,#362,.T.);
#100=ORIENTED_EDGE('',*,*,#359,.T.);
#101=ORIENTED_EDGE('',*,*,#363,.T.);
#102=ORIENTED_EDGE('',*,*,#364,.F.);
#103=ORIENTED_EDGE('',*,*,#365,.T.);
#104=ORIENTED_EDGE('',*,*,#366,.T.);
#105=ORIENTED_EDGE('',*,*,#367,.T.);
#106=ORIENTED_EDGE('',*,*,#364,.T.);
#107=ORIENTED_EDGE('',*,*,#368,.T.);
#108=ORIENTED_EDGE('',*,*,#369,.F.);
#109=ORIENTED_EDGE('',*,*,#370,.T.);
#110=ORIENTED_EDGE('',*,*,#369,.T.);
#111=ORIENTED_EDGE('',*,*,#371,.F.);
#112=ORIENTED_EDGE('',*,*,#372,.F.);
#113=ORIENTED_EDGE('',*,*,#373,.T.);
#114=ORIENTED_EDGE('',*,*,#372,.T.);
#115=ORIENTED_EDGE('',*,*,#374,.T.);
#116=ORIENTED_EDGE('',*,*,#375,.F.);
#117=ORIENTED_EDGE('',*,*,#376,.T.);
#118=ORIENTED_EDGE('',*,*,#377,.F.);
#119=ORIENTED_EDGE('',*,*,#378,.T.);
#120=ORIENTED_EDGE('',*,*,#375,.T.);
#121=ORIENTED_EDGE('',*,*,#379,.T.);
#122=ORIENTED_EDGE('',*,*,#380,.T.);
#123=ORIENTED_EDGE('',*,*,#305,.F.);
#124=ORIENTED_EDGE('',*,*,#381,.F.);
#125=ORIENTED_EDGE('',*,*,#346,.T.);
#126=ORIENTED_EDGE('',*,*,#382,.T.);
#127=ORIENTED_EDGE('',*,*,#350,.F.);
#128=ORIENTED_EDGE('',*,*,#383,.F.);
#129=ORIENTED_EDGE('',*,*,#361,.T.);
#130=ORIENTED_EDGE('',*,*,#384,.T.);
#131=ORIENTED_EDGE('',*,*,#366,.F.);
#132=ORIENTED_EDGE('',*,*,#385,.F.);
#133=ORIENTED_EDGE('',*,*,#377,.T.);
#134=ORIENTED_EDGE('',*,*,#381,.T.);
#135=ORIENTED_EDGE('',*,*,#304,.T.);
#136=ORIENTED_EDGE('',*,*,#340,.T.);
#137=ORIENTED_EDGE('',*,*,#347,.T.);
#138=ORIENTED_EDGE('',*,*,#380,.F.);
#139=ORIENTED_EDGE('',*,*,#379,.F.);
#140=ORIENTED_EDGE('',*,*,#386,.T.);
#141=ORIENTED_EDGE('',*,*,#367,.F.);
#142=ORIENTED_EDGE('',*,*,#384,.F.);
#143=ORIENTED_EDGE('',*,*,#363,.F.);
#144=ORIENTED_EDGE('',*,*,#387,.T.);
#145=ORIENTED_EDGE('',*,*,#351,.F.);
#146=ORIENTED_EDGE('',*,*,#382,.F.);
#147=ORIENTED_EDGE('',*,*,#345,.F.);
#148=ORIENTED_EDGE('',*,*,#338,.F.);
#149=ORIENTED_EDGE('',*,*,#337,.F.);
#150=ORIENTED_EDGE('',*,*,#388,.T.);
#151=ORIENTED_EDGE('',*,*,#325,.F.);
#152=ORIENTED_EDGE('',*,*,#343,.F.);
#153=ORIENTED_EDGE('',*,*,#321,.F.);
#154=ORIENTED_EDGE('',*,*,#389,.T.);
#155=ORIENTED_EDGE('',*,*,#309,.F.);
#156=ORIENTED_EDGE('',*,*,#341,.F.);
#157=ORIENTED_EDGE('',*,*,#302,.F.);
#158=ORIENTED_EDGE('',*,*,#389,.F.);
#159=ORIENTED_EDGE('',*,*,#318,.F.);
#160=ORIENTED_EDGE('',*,*,#315,.F.);
#161=ORIENTED_EDGE('',*,*,#312,.F.);
#162=ORIENTED_EDGE('',*,*,#388,.F.);
#163=ORIENTED_EDGE('',*,*,#334,.F.);
#164=ORIENTED_EDGE('',*,*,#331,.F.);
#165=ORIENTED_EDGE('',*,*,#328,.F.);
#166=ORIENTED_EDGE('',*,*,#387,.F.);
#167=ORIENTED_EDGE('',*,*,#358,.F.);
#168=ORIENTED_EDGE('',*,*,#355,.T.);
#169=ORIENTED_EDGE('',*,*,#352,.F.);
#170=ORIENTED_EDGE('',*,*,#386,.F.);
#171=ORIENTED_EDGE('',*,*,#374,.F.);
#172=ORIENTED_EDGE('',*,*,#371,.T.);
#173=ORIENTED_EDGE('',*,*,#368,.F.);
#174=ORIENTED_EDGE('',*,*,#390,.T.);
#175=ORIENTED_EDGE('',*,*,#320,.F.);
#176=ORIENTED_EDGE('',*,*,#342,.F.);
#177=ORIENTED_EDGE('',*,*,#307,.F.);
#178=ORIENTED_EDGE('',*,*,#314,.T.);
#179=ORIENTED_EDGE('',*,*,#317,.F.);
#180=ORIENTED_EDGE('',*,*,#390,.F.);
#181=ORIENTED_EDGE('',*,*,#311,.F.);
#182=ORIENTED_EDGE('',*,*,#391,.T.);
#183=ORIENTED_EDGE('',*,*,#336,.F.);
#184=ORIENTED_EDGE('',*,*,#344,.F.);
#185=ORIENTED_EDGE('',*,*,#323,.F.);
#186=ORIENTED_EDGE('',*,*,#330,.T.);
#187=ORIENTED_EDGE('',*,*,#333,.F.);
#188=ORIENTED_EDGE('',*,*,#391,.F.);
#189=ORIENTED_EDGE('',*,*,#327,.F.);
#190=ORIENTED_EDGE('',*,*,#392,.F.);
#191=ORIENTED_EDGE('',*,*,#362,.F.);
#192=ORIENTED_EDGE('',*,*,#383,.T.);
#193=ORIENTED_EDGE('',*,*,#349,.F.);
#194=ORIENTED_EDGE('',*,*,#357,.F.);
#195=ORIENTED_EDGE('',*,*,#360,.F.);
#196=ORIENTED_EDGE('',*,*,#392,.T.);
#197=ORIENTED_EDGE('',*,*,#354,.F.);
#198=ORIENTED_EDGE('',*,*,#373,.F.);
#199=ORIENTED_EDGE('',*,*,#376,.F.);
#200=ORIENTED_EDGE('',*,*,#393,.T.);
#201=ORIENTED_EDGE('',*,*,#370,.F.);
#202=ORIENTED_EDGE('',*,*,#393,.F.);
#203=ORIENTED_EDGE('',*,*,#378,.F.);
#204=ORIENTED_EDGE('',*,*,#385,.T.);
#205=ORIENTED_EDGE('',*,*,#365,.F.);
#206=ORIENTED_EDGE('',*,*,#394,.F.);
#207=ORIENTED_EDGE('',*,*,#395,.T.);
#208=ORIENTED_EDGE('',*,*,#396,.F.);
#209=ORIENTED_EDGE('',*,*,#397,.F.);
#210=ORIENTED_EDGE('',*,*,#398,.T.);
#211=ORIENTED_EDGE('',*,*,#399,.T.);
#212=ORIENTED_EDGE('',*,*,#394,.T.);
#213=ORIENTED_EDGE('',*,*,#400,.F.);
#214=ORIENTED_EDGE('',*,*,#401,.F.);
#215=ORIENTED_EDGE('',*,*,#402,.T.);
#216=ORIENTED_EDGE('',*,*,#403,.T.);
#217=ORIENTED_EDGE('',*,*,#404,.T.);
#218=ORIENTED_EDGE('',*,*,#397,.T.);
#219=ORIENTED_EDGE('',*,*,#405,.F.);
#220=ORIENTED_EDGE('',*,*,#406,.F.);
#221=ORIENTED_EDGE('',*,*,#400,.T.);
#222=ORIENTED_EDGE('',*,*,#396,.T.);
#223=ORIENTED_EDGE('',*,*,#407,.F.);
#224=ORIENTED_EDGE('',*,*,#408,.F.);
#225=ORIENTED_EDGE('',*,*,#409,.F.);
#226=ORIENTED_EDGE('',*,*,#410,.T.);
#227=ORIENTED_EDGE('',*,*,#411,.F.);
#228=ORIENTED_EDGE('',*,*,#412,.F.);
#229=ORIENTED_EDGE('',*,*,#405,.T.);
#230=ORIENTED_EDGE('',*,*,#413,.F.);
#231=ORIENTED_EDGE('',*,*,#414,.F.);
#232=ORIENTED_EDGE('',*,*,#415,.T.);
#233=ORIENTED_EDGE('',*,*,#416,.T.);
#234=ORIENTED_EDGE('',*,*,#417,.F.);
#235=ORIENTED_EDGE('',*,*,#418,.F.);
#236=ORIENTED_EDGE('',*,*,#419,.T.);
#237=ORIENTED_EDGE('',*,*,#414,.T.);
#238=ORIENTED_EDGE('',*,*,#420,.F.);
#239=ORIENTED_EDGE('',*,*,#421,.F.);
#240=ORIENTED_EDGE('',*,*,#422,.T.);
#241=ORIENTED_EDGE('',*,*,#418,.T.);
#242=ORIENTED_EDGE('',*,*,#423,.F.);
#243=ORIENTED_EDGE('',*,*,#424,.F.);
#244=ORIENTED_EDGE('',*,*,#425,.T.);
#245=ORIENTED_EDGE('',*,*,#426,.T.);
#246=ORIENTED_EDGE('',*,*,#427,.F.);
#247=ORIENTED_EDGE('',*,*,#428,.F.);
#248=ORIENTED_EDGE('',*,*,#429,.T.);
#249=ORIENTED_EDGE('',*,*,#424,.T.);
#250=ORIENTED_EDGE('',*,*,#430,.F.);
#251=ORIENTED_EDGE('',*,*,#431,.F.);
#252=ORIENTED_EDGE('',*,*,#432,.T.);
#253=ORIENTED_EDGE('',*,*,#428,.T.);
#254=ORIENTED_EDGE('',*,*,#433,.F.);
#255=ORIENTED_EDGE('',*,*,#416,.F.);
#256=ORIENTED_EDGE('',*,*,#434,.T.);
#257=ORIENTED_EDGE('',*,*,#421,.T.);
#258=ORIENTED_EDGE('',*,*,#435,.F.);
#259=ORIENTED_EDGE('',*,*,#426,.F.);
#260=ORIENTED_EDGE('',*,*,#436,.T.);
#261=ORIENTED_EDGE('',*,*,#431,.T.);
#262=ORIENTED_EDGE('',*,*,#437,.T.);
#263=ORIENTED_EDGE('',*,*,#402,.F.);
#264=ORIENTED_EDGE('',*,*,#438,.F.);
#265=ORIENTED_EDGE('',*,*,#411,.T.);
#266=ORIENTED_EDGE('',*,*,#425,.F.);
#267=ORIENTED_EDGE('',*,*,#429,.F.);
#268=ORIENTED_EDGE('',*,*,#432,.F.);
#269=ORIENTED_EDGE('',*,*,#436,.F.);
#270=ORIENTED_EDGE('',*,*,#415,.F.);
#271=ORIENTED_EDGE('',*,*,#419,.F.);
#272=ORIENTED_EDGE('',*,*,#422,.F.);
#273=ORIENTED_EDGE('',*,*,#434,.F.);
#274=ORIENTED_EDGE('',*,*,#401,.T.);
#275=ORIENTED_EDGE('',*,*,#406,.T.);
#276=ORIENTED_EDGE('',*,*,#412,.T.);
#277=ORIENTED_EDGE('',*,*,#438,.T.);
#278=ORIENTED_EDGE('',*,*,#410,.F.);
#279=ORIENTED_EDGE('',*,*,#439,.F.);
#280=ORIENTED_EDGE('',*,*,#403,.F.);
#281=ORIENTED_EDGE('',*,*,#437,.F.);
#282=ORIENTED_EDGE('',*,*,#413,.T.);
#283=ORIENTED_EDGE('',*,*,#433,.T.);
#284=ORIENTED_EDGE('',*,*,#420,.T.);
#285=ORIENTED_EDGE('',*,*,#417,.T.);
#286=ORIENTED_EDGE('',*,*,#423,.T.);
#287=ORIENTED_EDGE('',*,*,#435,.T.);
#288=ORIENTED_EDGE('',*,*,#430,.T.);
#289=ORIENTED_EDGE('',*,*,#427,.T.);
#290=ORIENTED_EDGE('',*,*,#408,.T.);
#291=ORIENTED_EDGE('',*,*,#440,.F.);
#292=ORIENTED_EDGE('',*,*,#398,.F.);
#293=ORIENTED_EDGE('',*,*,#441,.T.);
#294=ORIENTED_EDGE('',*,*,#407,.T.);
#295=ORIENTED_EDGE('',*,*,#395,.F.);
#296=ORIENTED_EDGE('',*,*,#399,.F.);
#297=ORIENTED_EDGE('',*,*,#440,.T.);
#298=ORIENTED_EDGE('',*,*,#409,.T.);
#299=ORIENTED_EDGE('',*,*,#441,.F.);
#300=ORIENTED_EDGE('',*,*,#404,.F.);
#301=ORIENTED_EDGE('',*,*,#439,.T.);
#302=EDGE_CURVE('',#442,#443,#530,.T.);
#303=EDGE_CURVE('',#444,#443,#531,.T.);
#304=EDGE_CURVE('',#445,#444,#532,.T.);
#305=EDGE_CURVE('',#445,#442,#533,.T.);
#306=EDGE_CURVE('',#446,#447,#534,.T.);
#307=EDGE_CURVE('',#446,#448,#535,.T.);
#308=EDGE_CURVE('',#448,#449,#536,.T.);
#309=EDGE_CURVE('',#449,#447,#537,.T.);
#310=EDGE_CURVE('',#450,#451,#538,.T.);
#311=EDGE_CURVE('',#450,#446,#539,.T.);
#312=EDGE_CURVE('',#447,#451,#540,.T.);
#313=EDGE_CURVE('',#452,#453,#541,.T.);
#314=EDGE_CURVE('',#450,#452,#542,.T.);
#315=EDGE_CURVE('',#451,#453,#543,.T.);
#316=EDGE_CURVE('',#454,#455,#544,.T.);
#317=EDGE_CURVE('',#454,#452,#545,.T.);
#318=EDGE_CURVE('',#453,#455,#546,.T.);
#319=EDGE_CURVE('',#456,#457,#547,.T.);
#320=EDGE_CURVE('',#456,#454,#548,.T.);
#321=EDGE_CURVE('',#455,#457,#549,.T.);
#322=EDGE_CURVE('',#458,#459,#550,.T.);
#323=EDGE_CURVE('',#458,#460,#551,.T.);
#324=EDGE_CURVE('',#460,#461,#552,.T.);
#325=EDGE_CURVE('',#461,#459,#553,.T.);
#326=EDGE_CURVE('',#462,#463,#554,.T.);
#327=EDGE_CURVE('',#462,#458,#555,.T.);
#328=EDGE_CURVE('',#459,#463,#556,.T.);
#329=EDGE_CURVE('',#464,#465,#557,.T.);
#330=EDGE_CURVE('',#462,#464,#558,.T.);
#331=EDGE_CURVE('',#463,#465,#559,.T.);
#332=EDGE_CURVE('',#466,#467,#560,.T.);
#333=EDGE_CURVE('',#466,#464,#561,.T.);
#334=EDGE_CURVE('',#465,#467,#562,.T.);
#335=EDGE_CURVE('',#468,#469,#563,.T.);
#336=EDGE_CURVE('',#468,#466,#564,.T.);
#337=EDGE_CURVE('',#467,#469,#565,.T.);
#338=EDGE_CURVE('',#469,#470,#566,.T.);
#339=EDGE_CURVE('',#471,#470,#567,.T.);
#340=EDGE_CURVE('',#444,#471,#568,.T.);
#341=EDGE_CURVE('',#443,#449,#569,.T.);
#342=EDGE_CURVE('',#448,#456,#570,.T.);
#343=EDGE_CURVE('',#457,#461,#571,.T.);
#344=EDGE_CURVE('',#460,#468,#572,.T.);
#345=EDGE_CURVE('',#470,#472,#573,.T.);
#346=EDGE_CURVE('',#473,#472,#574,.T.);
#347=EDGE_CURVE('',#471,#473,#575,.T.);
#348=EDGE_CURVE('',#474,#475,#576,.T.);
#349=EDGE_CURVE('',#474,#476,#577,.T.);
#350=EDGE_CURVE('',#476,#477,#578,.T.);
#351=EDGE_CURVE('',#477,#475,#579,.T.);
#352=EDGE_CURVE('',#475,#478,#580,.T.);
#353=EDGE_CURVE('',#479,#478,#581,.T.);
#354=EDGE_CURVE('',#479,#474,#582,.T.);
#355=EDGE_CURVE('',#480,#478,#583,.T.);
#356=EDGE_CURVE('',#481,#480,#584,.T.);
#357=EDGE_CURVE('',#481,#479,#585,.T.);
#358=EDGE_CURVE('',#480,#482,#586,.T.);
#359=EDGE_CURVE('',#483,#482,#587,.T.);
#360=EDGE_CURVE('',#483,#481,#588,.T.);
#361=EDGE_CURVE('',#484,#485,#589,.T.);
#362=EDGE_CURVE('',#484,#483,#590,.T.);
#363=EDGE_CURVE('',#482,#485,#591,.T.);
#364=EDGE_CURVE('',#486,#487,#592,.T.);
#365=EDGE_CURVE('',#486,#488,#593,.T.);
#366=EDGE_CURVE('',#488,#489,#594,.T.);
#367=EDGE_CURVE('',#489,#487,#595,.T.);
#368=EDGE_CURVE('',#487,#490,#596,.T.);
#369=EDGE_CURVE('',#491,#490,#597,.T.);
#370=EDGE_CURVE('',#491,#486,#598,.T.);
#371=EDGE_CURVE('',#492,#490,#599,.T.);
#372=EDGE_CURVE('',#493,#492,#600,.T.);
#373=EDGE_CURVE('',#493,#491,#601,.T.);
#374=EDGE_CURVE('',#492,#494,#602,.T.);
#375=EDGE_CURVE('',#495,#494,#603,.T.);
#376=EDGE_CURVE('',#495,#493,#604,.T.);
#377=EDGE_CURVE('',#496,#497,#605,.T.);
#378=EDGE_CURVE('',#496,#495,#606,.T.);
#379=EDGE_CURVE('',#494,#497,#607,.T.);
#380=EDGE_CURVE('',#497,#442,#608,.T.);
#381=EDGE_CURVE('',#473,#445,#609,.T.);
#382=EDGE_CURVE('',#472,#477,#610,.T.);
#383=EDGE_CURVE('',#484,#476,#611,.T.);
#384=EDGE_CURVE('',#485,#489,#612,.T.);
#385=EDGE_CURVE('',#496,#488,#613,.T.);
#386=EDGE_CURVE('',#494,#487,#614,.T.);
#387=EDGE_CURVE('',#482,#475,#615,.T.);
#388=EDGE_CURVE('',#467,#459,#616,.T.);
#389=EDGE_CURVE('',#455,#447,#617,.T.);
#390=EDGE_CURVE('',#446,#454,#618,.T.);
#391=EDGE_CURVE('',#458,#466,#619,.T.);
#392=EDGE_CURVE('',#483,#474,#620,.T.);
#393=EDGE_CURVE('',#495,#486,#621,.T.);
#394=EDGE_CURVE('',#498,#499,#622,.T.);
#395=EDGE_CURVE('',#498,#500,#623,.T.);
#396=EDGE_CURVE('',#501,#500,#624,.T.);
#397=EDGE_CURVE('',#499,#501,#625,.T.);
#398=EDGE_CURVE('',#502,#503,#626,.T.);
#399=EDGE_CURVE('',#503,#498,#627,.T.);
#400=EDGE_CURVE('',#504,#499,#628,.T.);
#401=EDGE_CURVE('',#505,#504,#629,.T.);
#402=EDGE_CURVE('',#505,#506,#630,.T.);
#403=EDGE_CURVE('',#506,#507,#631,.T.);
#404=EDGE_CURVE('',#507,#502,#632,.T.);
#405=EDGE_CURVE('',#508,#501,#633,.T.);
#406=EDGE_CURVE('',#504,#508,#634,.T.);
#407=EDGE_CURVE('',#509,#500,#635,.T.);
#408=EDGE_CURVE('',#510,#509,#636,.T.);
#409=EDGE_CURVE('',#511,#510,#637,.T.);
#410=EDGE_CURVE('',#511,#512,#638,.T.);
#411=EDGE_CURVE('',#513,#512,#639,.T.);
#412=EDGE_CURVE('',#508,#513,#640,.T.);
#413=EDGE_CURVE('',#514,#515,#641,.T.);
#414=EDGE_CURVE('',#516,#514,#642,.T.);
#415=EDGE_CURVE('',#516,#517,#643,.T.);
#416=EDGE_CURVE('',#517,#515,#644,.T.);
#417=EDGE_CURVE('',#518,#514,#645,.T.);
#418=EDGE_CURVE('',#519,#518,#646,.T.);
#419=EDGE_CURVE('',#519,#516,#647,.T.);
#420=EDGE_CURVE('',#520,#518,#648,.T.);
#421=EDGE_CURVE('',#521,#520,#649,.T.);
#422=EDGE_CURVE('',#521,#519,#650,.T.);
#423=EDGE_CURVE('',#522,#523,#651,.T.);
#424=EDGE_CURVE('',#524,#522,#652,.T.);
#425=EDGE_CURVE('',#524,#525,#653,.T.);
#426=EDGE_CURVE('',#525,#523,#654,.T.);
#427=EDGE_CURVE('',#526,#522,#655,.T.);
#428=EDGE_CURVE('',#527,#526,#656,.T.);
#429=EDGE_CURVE('',#527,#524,#657,.T.);
#430=EDGE_CURVE('',#528,#526,#658,.T.);
#431=EDGE_CURVE('',#529,#528,#659,.T.);
#432=EDGE_CURVE('',#529,#527,#660,.T.);
#433=EDGE_CURVE('',#515,#520,#661,.T.);
#434=EDGE_CURVE('',#517,#521,#662,.T.);
#435=EDGE_CURVE('',#523,#528,#663,.T.);
#436=EDGE_CURVE('',#525,#529,#664,.T.);
#437=EDGE_CURVE('',#512,#506,#665,.T.);
#438=EDGE_CURVE('',#513,#505,#666,.T.);
#439=EDGE_CURVE('',#507,#511,#667,.T.);
#440=EDGE_CURVE('',#503,#509,#668,.T.);
#441=EDGE_CURVE('',#502,#510,#669,.T.);
#442=VERTEX_POINT('',#1388);
#443=VERTEX_POINT('',#1389);
#444=VERTEX_POINT('',#1391);
#445=VERTEX_POINT('',#1393);
#446=VERTEX_POINT('',#1397);
#447=VERTEX_POINT('',#1398);
#448=VERTEX_POINT('',#1400);
#449=VERTEX_POINT('',#1402);
#450=VERTEX_POINT('',#1406);
#451=VERTEX_POINT('',#1407);
#452=VERTEX_POINT('',#1412);
#453=VERTEX_POINT('',#1413);
#454=VERTEX_POINT('',#1418);
#455=VERTEX_POINT('',#1419);
#456=VERTEX_POINT('',#1424);
#457=VERTEX_POINT('',#1425);
#458=VERTEX_POINT('',#1430);
#459=VERTEX_POINT('',#1431);
#460=VERTEX_POINT('',#1433);
#461=VERTEX_POINT('',#1435);
#462=VERTEX_POINT('',#1439);
#463=VERTEX_POINT('',#1440);
#464=VERTEX_POINT('',#1445);
#465=VERTEX_POINT('',#1446);
#466=VERTEX_POINT('',#1451);
#467=VERTEX_POINT('',#1452);
#468=VERTEX_POINT('',#1457);
#469=VERTEX_POINT('',#1458);
#470=VERTEX_POINT('',#1463);
#471=VERTEX_POINT('',#1465);
#472=VERTEX_POINT('',#1473);
#473=VERTEX_POINT('',#1475);
#474=VERTEX_POINT('',#1479);
#475=VERTEX_POINT('',#1480);
#476=VERTEX_POINT('',#1482);
#477=VERTEX_POINT('',#1484);
#478=VERTEX_POINT('',#1488);
#479=VERTEX_POINT('',#1490);
#480=VERTEX_POINT('',#1494);
#481=VERTEX_POINT('',#1496);
#482=VERTEX_POINT('',#1500);
#483=VERTEX_POINT('',#1502);
#484=VERTEX_POINT('',#1506);
#485=VERTEX_POINT('',#1507);
#486=VERTEX_POINT('',#1512);
#487=VERTEX_POINT('',#1513);
#488=VERTEX_POINT('',#1515);
#489=VERTEX_POINT('',#1517);
#490=VERTEX_POINT('',#1521);
#491=VERTEX_POINT('',#1523);
#492=VERTEX_POINT('',#1527);
#493=VERTEX_POINT('',#1529);
#494=VERTEX_POINT('',#1533);
#495=VERTEX_POINT('',#1535);
#496=VERTEX_POINT('',#1539);
#497=VERTEX_POINT('',#1540);
#498=VERTEX_POINT('',#1575);
#499=VERTEX_POINT('',#1576);
#500=VERTEX_POINT('',#1578);
#501=VERTEX_POINT('',#1580);
#502=VERTEX_POINT('',#1584);
#503=VERTEX_POINT('',#1585);
#504=VERTEX_POINT('',#1588);
#505=VERTEX_POINT('',#1590);
#506=VERTEX_POINT('',#1592);
#507=VERTEX_POINT('',#1594);
#508=VERTEX_POINT('',#1598);
#509=VERTEX_POINT('',#1602);
#510=VERTEX_POINT('',#1604);
#511=VERTEX_POINT('',#1606);
#512=VERTEX_POINT('',#1608);
#513=VERTEX_POINT('',#1610);
#514=VERTEX_POINT('',#1614);
#515=VERTEX_POINT('',#1615);
#516=VERTEX_POINT('',#1617);
#517=VERTEX_POINT('',#1619);
#518=VERTEX_POINT('',#1623);
#519=VERTEX_POINT('',#1625);
#520=VERTEX_POINT('',#1629);
#521=VERTEX_POINT('',#1631);
#522=VERTEX_POINT('',#1635);
#523=VERTEX_POINT('',#1636);
#524=VERTEX_POINT('',#1638);
#525=VERTEX_POINT('',#1640);
#526=VERTEX_POINT('',#1644);
#527=VERTEX_POINT('',#1646);
#528=VERTEX_POINT('',#1650);
#529=VERTEX_POINT('',#1652);
#530=LINE('',#1387,#670);
#531=LINE('',#1390,#671);
#532=LINE('',#1392,#672);
#533=LINE('',#1394,#673);
#534=LINE('',#1396,#674);
#535=LINE('',#1399,#675);
#536=LINE('',#1401,#676);
#537=LINE('',#1403,#677);
#538=LINE('',#1405,#678);
#539=LINE('',#1408,#679);
#540=LINE('',#1409,#680);
#541=LINE('',#1411,#681);
#542=LINE('',#1414,#682);
#543=LINE('',#1415,#683);
#544=LINE('',#1417,#684);
#545=LINE('',#1420,#685);
#546=LINE('',#1421,#686);
#547=LINE('',#1423,#687);
#548=LINE('',#1426,#688);
#549=LINE('',#1427,#689);
#550=LINE('',#1429,#690);
#551=LINE('',#1432,#691);
#552=LINE('',#1434,#692);
#553=LINE('',#1436,#693);
#554=LINE('',#1438,#694);
#555=LINE('',#1441,#695);
#556=LINE('',#1442,#696);
#557=LINE('',#1444,#697);
#558=LINE('',#1447,#698);
#559=LINE('',#1448,#699);
#560=LINE('',#1450,#700);
#561=LINE('',#1453,#701);
#562=LINE('',#1454,#702);
#563=LINE('',#1456,#703);
#564=LINE('',#1459,#704);
#565=LINE('',#1460,#705);
#566=LINE('',#1462,#706);
#567=LINE('',#1464,#707);
#568=LINE('',#1466,#708);
#569=LINE('',#1467,#709);
#570=LINE('',#1468,#710);
#571=LINE('',#1469,#711);
#572=LINE('',#1470,#712);
#573=LINE('',#1472,#713);
#574=LINE('',#1474,#714);
#575=LINE('',#1476,#715);
#576=LINE('',#1478,#716);
#577=LINE('',#1481,#717);
#578=LINE('',#1483,#718);
#579=LINE('',#1485,#719);
#580=LINE('',#1487,#720);
#581=LINE('',#1489,#721);
#582=LINE('',#1491,#722);
#583=LINE('',#1493,#723);
#584=LINE('',#1495,#724);
#585=LINE('',#1497,#725);
#586=LINE('',#1499,#726);
#587=LINE('',#1501,#727);
#588=LINE('',#1503,#728);
#589=LINE('',#1505,#729);
#590=LINE('',#1508,#730);
#591=LINE('',#1509,#731);
#592=LINE('',#1511,#732);
#593=LINE('',#1514,#733);
#594=LINE('',#1516,#734);
#595=LINE('',#1518,#735);
#596=LINE('',#1520,#736);
#597=LINE('',#1522,#737);
#598=LINE('',#1524,#738);
#599=LINE('',#1526,#739);
#600=LINE('',#1528,#740);
#601=LINE('',#1530,#741);
#602=LINE('',#1532,#742);
#603=LINE('',#1534,#743);
#604=LINE('',#1536,#744);
#605=LINE('',#1538,#745);
#606=LINE('',#1541,#746);
#607=LINE('',#1542,#747);
#608=LINE('',#1544,#748);
#609=LINE('',#1545,#749);
#610=LINE('',#1546,#750);
#611=LINE('',#1547,#751);
#612=LINE('',#1548,#752);
#613=LINE('',#1549,#753);
#614=LINE('',#1552,#754);
#615=LINE('',#1553,#755);
#616=LINE('',#1554,#756);
#617=LINE('',#1555,#757);
#618=LINE('',#1561,#758);
#619=LINE('',#1564,#759);
#620=LINE('',#1567,#760);
#621=LINE('',#1570,#761);
#622=LINE('',#1574,#762);
#623=LINE('',#1577,#763);
#624=LINE('',#1579,#764);
#625=LINE('',#1581,#765);
#626=LINE('',#1583,#766);
#627=LINE('',#1586,#767);
#628=LINE('',#1587,#768);
#629=LINE('',#1589,#769);
#630=LINE('',#1591,#770);
#631=LINE('',#1593,#771);
#632=LINE('',#1595,#772);
#633=LINE('',#1597,#773);
#634=LINE('',#1599,#774);
#635=LINE('',#1601,#775);
#636=LINE('',#1603,#776);
#637=LINE('',#1605,#777);
#638=LINE('',#1607,#778);
#639=LINE('',#1609,#779);
#640=LINE('',#1611,#780);
#641=LINE('',#1613,#781);
#642=LINE('',#1616,#782);
#643=LINE('',#1618,#783);
#644=LINE('',#1620,#784);
#645=LINE('',#1622,#785);
#646=LINE('',#1624,#786);
#647=LINE('',#1626,#787);
#648=LINE('',#1628,#788);
#649=LINE('',#1630,#789);
#650=LINE('',#1632,#790);
#651=LINE('',#1634,#791);
#652=LINE('',#1637,#792);
#653=LINE('',#1639,#793);
#654=LINE('',#1641,#794);
#655=LINE('',#1643,#795);
#656=LINE('',#1645,#796);
#657=LINE('',#1647,#797);
#658=LINE('',#1649,#798);
#659=LINE('',#1651,#799);
#660=LINE('',#1653,#800);
#661=LINE('',#1655,#801);
#662=LINE('',#1656,#802);
#663=LINE('',#1658,#803);
#664=LINE('',#1659,#804);
#665=LINE('',#1661,#805);
#666=LINE('',#1662,#806);
#667=LINE('',#1665,#807);
#668=LINE('',#1667,#808);
#669=LINE('',#1668,#809);
#670=VECTOR('',#1131,39.3700787401575);
#671=VECTOR('',#1132,39.3700787401575);
#672=VECTOR('',#1133,39.3700787401575);
#673=VECTOR('',#1134,39.3700787401575);
#674=VECTOR('',#1137,39.3700787401575);
#675=VECTOR('',#1138,39.3700787401575);
#676=VECTOR('',#1139,39.3700787401575);
#677=VECTOR('',#1140,39.3700787401575);
#678=VECTOR('',#1143,39.3700787401575);
#679=VECTOR('',#1144,39.3700787401575);
#680=VECTOR('',#1145,39.3700787401575);
#681=VECTOR('',#1148,39.3700787401575);
#682=VECTOR('',#1149,39.3700787401575);
#683=VECTOR('',#1150,39.3700787401575);
#684=VECTOR('',#1153,39.3700787401575);
#685=VECTOR('',#1154,39.3700787401575);
#686=VECTOR('',#1155,39.3700787401575);
#687=VECTOR('',#1158,39.3700787401575);
#688=VECTOR('',#1159,39.3700787401575);
#689=VECTOR('',#1160,39.3700787401575);
#690=VECTOR('',#1163,39.3700787401575);
#691=VECTOR('',#1164,39.3700787401575);
#692=VECTOR('',#1165,39.3700787401575);
#693=VECTOR('',#1166,39.3700787401575);
#694=VECTOR('',#1169,39.3700787401575);
#695=VECTOR('',#1170,39.3700787401575);
#696=VECTOR('',#1171,39.3700787401575);
#697=VECTOR('',#1174,39.3700787401575);
#698=VECTOR('',#1175,39.3700787401575);
#699=VECTOR('',#1176,39.3700787401575);
#700=VECTOR('',#1179,39.3700787401575);
#701=VECTOR('',#1180,39.3700787401575);
#702=VECTOR('',#1181,39.3700787401575);
#703=VECTOR('',#1184,39.3700787401575);
#704=VECTOR('',#1185,39.3700787401575);
#705=VECTOR('',#1186,39.3700787401575);
#706=VECTOR('',#1189,39.3700787401575);
#707=VECTOR('',#1190,39.3700787401575);
#708=VECTOR('',#1191,39.3700787401575);
#709=VECTOR('',#1192,39.3700787401575);
#710=VECTOR('',#1193,39.3700787401575);
#711=VECTOR('',#1194,39.3700787401575);
#712=VECTOR('',#1195,39.3700787401575);
#713=VECTOR('',#1198,39.3700787401575);
#714=VECTOR('',#1199,39.3700787401575);
#715=VECTOR('',#1200,39.3700787401575);
#716=VECTOR('',#1203,39.3700787401575);
#717=VECTOR('',#1204,39.3700787401575);
#718=VECTOR('',#1205,39.3700787401575);
#719=VECTOR('',#1206,39.3700787401575);
#720=VECTOR('',#1209,39.3700787401575);
#721=VECTOR('',#1210,39.3700787401575);
#722=VECTOR('',#1211,39.3700787401575);
#723=VECTOR('',#1214,39.3700787401575);
#724=VECTOR('',#1215,39.3700787401575);
#725=VECTOR('',#1216,39.3700787401575);
#726=VECTOR('',#1219,39.3700787401575);
#727=VECTOR('',#1220,39.3700787401575);
#728=VECTOR('',#1221,39.3700787401575);
#729=VECTOR('',#1224,39.3700787401575);
#730=VECTOR('',#1225,39.3700787401575);
#731=VECTOR('',#1226,39.3700787401575);
#732=VECTOR('',#1229,39.3700787401575);
#733=VECTOR('',#1230,39.3700787401575);
#734=VECTOR('',#1231,39.3700787401575);
#735=VECTOR('',#1232,39.3700787401575);
#736=VECTOR('',#1235,39.3700787401575);
#737=VECTOR('',#1236,39.3700787401575);
#738=VECTOR('',#1237,39.3700787401575);
#739=VECTOR('',#1240,39.3700787401575);
#740=VECTOR('',#1241,39.3700787401575);
#741=VECTOR('',#1242,39.3700787401575);
#742=VECTOR('',#1245,39.3700787401575);
#743=VECTOR('',#1246,39.3700787401575);
#744=VECTOR('',#1247,39.3700787401575);
#745=VECTOR('',#1250,39.3700787401575);
#746=VECTOR('',#1251,39.3700787401575);
#747=VECTOR('',#1252,39.3700787401575);
#748=VECTOR('',#1255,39.3700787401575);
#749=VECTOR('',#1256,39.3700787401575);
#750=VECTOR('',#1257,39.3700787401575);
#751=VECTOR('',#1258,39.3700787401575);
#752=VECTOR('',#1259,39.3700787401575);
#753=VECTOR('',#1260,39.3700787401575);
#754=VECTOR('',#1265,39.3700787401575);
#755=VECTOR('',#1266,39.3700787401575);
#756=VECTOR('',#1267,39.3700787401575);
#757=VECTOR('',#1268,39.3700787401575);
#758=VECTOR('',#1279,39.3700787401575);
#759=VECTOR('',#1284,39.3700787401575);
#760=VECTOR('',#1289,39.3700787401575);
#761=VECTOR('',#1294,39.3700787401575);
#762=VECTOR('',#1301,39.3700787401575);
#763=VECTOR('',#1302,39.3700787401575);
#764=VECTOR('',#1303,39.3700787401575);
#765=VECTOR('',#1304,39.3700787401575);
#766=VECTOR('',#1307,39.3700787401575);
#767=VECTOR('',#1308,39.3700787401575);
#768=VECTOR('',#1309,39.3700787401575);
#769=VECTOR('',#1310,39.3700787401575);
#770=VECTOR('',#1311,39.3700787401575);
#771=VECTOR('',#1312,39.3700787401575);
#772=VECTOR('',#1313,39.3700787401575);
#773=VECTOR('',#1316,39.3700787401575);
#774=VECTOR('',#1317,39.3700787401575);
#775=VECTOR('',#1320,39.3700787401575);
#776=VECTOR('',#1321,39.3700787401575);
#777=VECTOR('',#1322,39.3700787401575);
#778=VECTOR('',#1323,39.3700787401575);
#779=VECTOR('',#1324,39.3700787401575);
#780=VECTOR('',#1325,39.3700787401575);
#781=VECTOR('',#1328,39.3700787401575);
#782=VECTOR('',#1329,39.3700787401575);
#783=VECTOR('',#1330,39.3700787401575);
#784=VECTOR('',#1331,39.3700787401575);
#785=VECTOR('',#1334,39.3700787401575);
#786=VECTOR('',#1335,39.3700787401575);
#787=VECTOR('',#1336,39.3700787401575);
#788=VECTOR('',#1339,39.3700787401575);
#789=VECTOR('',#1340,39.3700787401575);
#790=VECTOR('',#1341,39.3700787401575);
#791=VECTOR('',#1344,39.3700787401575);
#792=VECTOR('',#1345,39.3700787401575);
#793=VECTOR('',#1346,39.3700787401575);
#794=VECTOR('',#1347,39.3700787401575);
#795=VECTOR('',#1350,39.3700787401575);
#796=VECTOR('',#1351,39.3700787401575);
#797=VECTOR('',#1352,39.3700787401575);
#798=VECTOR('',#1355,39.3700787401575);
#799=VECTOR('',#1356,39.3700787401575);
#800=VECTOR('',#1357,39.3700787401575);
#801=VECTOR('',#1360,39.3700787401575);
#802=VECTOR('',#1361,39.3700787401575);
#803=VECTOR('',#1364,39.3700787401575);
#804=VECTOR('',#1365,39.3700787401575);
#805=VECTOR('',#1368,39.3700787401575);
#806=VECTOR('',#1369,39.3700787401575);
#807=VECTOR('',#1374,39.3700787401575);
#808=VECTOR('',#1377,39.3700787401575);
#809=VECTOR('',#1378,39.3700787401575);
#810=EDGE_LOOP('',(#22,#23,#24,#25));
#811=EDGE_LOOP('',(#26,#27,#28,#29));
#812=EDGE_LOOP('',(#30,#31,#32,#33));
#813=EDGE_LOOP('',(#34,#35,#36,#37));
#814=EDGE_LOOP('',(#38,#39,#40,#41));
#815=EDGE_LOOP('',(#42,#43,#44,#45));
#816=EDGE_LOOP('',(#46,#47,#48,#49));
#817=EDGE_LOOP('',(#50,#51,#52,#53));
#818=EDGE_LOOP('',(#54,#55,#56,#57));
#819=EDGE_LOOP('',(#58,#59,#60,#61));
#820=EDGE_LOOP('',(#62,#63,#64,#65));
#821=EDGE_LOOP('',(#66,#67,#68,#69,#70,#71,#72,#73,#74,#75,#76,#77));
#822=EDGE_LOOP('',(#78,#79,#80,#81));
#823=EDGE_LOOP('',(#82,#83,#84,#85));
#824=EDGE_LOOP('',(#86,#87,#88,#89));
#825=EDGE_LOOP('',(#90,#91,#92,#93));
#826=EDGE_LOOP('',(#94,#95,#96,#97));
#827=EDGE_LOOP('',(#98,#99,#100,#101));
#828=EDGE_LOOP('',(#102,#103,#104,#105));
#829=EDGE_LOOP('',(#106,#107,#108,#109));
#830=EDGE_LOOP('',(#110,#111,#112,#113));
#831=EDGE_LOOP('',(#114,#115,#116,#117));
#832=EDGE_LOOP('',(#118,#119,#120,#121));
#833=EDGE_LOOP('',(#122,#123,#124,#125,#126,#127,#128,#129,#130,#131,#132,
#133));
#834=EDGE_LOOP('',(#134,#135,#136,#137));
#835=EDGE_LOOP('',(#138,#139,#140,#141,#142,#143,#144,#145,#146,#147,#148,
#149,#150,#151,#152,#153,#154,#155,#156,#157));
#836=EDGE_LOOP('',(#158,#159,#160,#161));
#837=EDGE_LOOP('',(#162,#163,#164,#165));
#838=EDGE_LOOP('',(#166,#167,#168,#169));
#839=EDGE_LOOP('',(#170,#171,#172,#173));
#840=EDGE_LOOP('',(#174,#175,#176,#177));
#841=EDGE_LOOP('',(#178,#179,#180,#181));
#842=EDGE_LOOP('',(#182,#183,#184,#185));
#843=EDGE_LOOP('',(#186,#187,#188,#189));
#844=EDGE_LOOP('',(#190,#191,#192,#193));
#845=EDGE_LOOP('',(#194,#195,#196,#197));
#846=EDGE_LOOP('',(#198,#199,#200,#201));
#847=EDGE_LOOP('',(#202,#203,#204,#205));
#848=EDGE_LOOP('',(#206,#207,#208,#209));
#849=EDGE_LOOP('',(#210,#211,#212,#213,#214,#215,#216,#217));
#850=EDGE_LOOP('',(#218,#219,#220,#221));
#851=EDGE_LOOP('',(#222,#223,#224,#225,#226,#227,#228,#229));
#852=EDGE_LOOP('',(#230,#231,#232,#233));
#853=EDGE_LOOP('',(#234,#235,#236,#237));
#854=EDGE_LOOP('',(#238,#239,#240,#241));
#855=EDGE_LOOP('',(#242,#243,#244,#245));
#856=EDGE_LOOP('',(#246,#247,#248,#249));
#857=EDGE_LOOP('',(#250,#251,#252,#253));
#858=EDGE_LOOP('',(#254,#255,#256,#257));
#859=EDGE_LOOP('',(#258,#259,#260,#261));
#860=EDGE_LOOP('',(#262,#263,#264,#265));
#861=EDGE_LOOP('',(#266,#267,#268,#269));
#862=EDGE_LOOP('',(#270,#271,#272,#273));
#863=EDGE_LOOP('',(#274,#275,#276,#277));
#864=EDGE_LOOP('',(#278,#279,#280,#281));
#865=EDGE_LOOP('',(#282,#283,#284,#285));
#866=EDGE_LOOP('',(#286,#287,#288,#289));
#867=EDGE_LOOP('',(#290,#291,#292,#293));
#868=EDGE_LOOP('',(#294,#295,#296,#297));
#869=EDGE_LOOP('',(#298,#299,#300,#301));
#870=FACE_BOUND('',#810,.T.);
#871=FACE_BOUND('',#811,.T.);
#872=FACE_BOUND('',#812,.T.);
#873=FACE_BOUND('',#813,.T.);
#874=FACE_BOUND('',#814,.T.);
#875=FACE_BOUND('',#815,.T.);
#876=FACE_BOUND('',#816,.T.);
#877=FACE_BOUND('',#817,.T.);
#878=FACE_BOUND('',#818,.T.);
#879=FACE_BOUND('',#819,.T.);
#880=FACE_BOUND('',#820,.T.);
#881=FACE_BOUND('',#821,.T.);
#882=FACE_BOUND('',#822,.T.);
#883=FACE_BOUND('',#823,.T.);
#884=FACE_BOUND('',#824,.T.);
#885=FACE_BOUND('',#825,.T.);
#886=FACE_BOUND('',#826,.T.);
#887=FACE_BOUND('',#827,.T.);
#888=FACE_BOUND('',#828,.T.);
#889=FACE_BOUND('',#829,.T.);
#890=FACE_BOUND('',#830,.T.);
#891=FACE_BOUND('',#831,.T.);
#892=FACE_BOUND('',#832,.T.);
#893=FACE_BOUND('',#833,.T.);
#894=FACE_BOUND('',#834,.T.);
#895=FACE_BOUND('',#835,.T.);
#896=FACE_BOUND('',#836,.T.);
#897=FACE_BOUND('',#837,.T.);
#898=FACE_BOUND('',#838,.T.);
#899=FACE_BOUND('',#839,.T.);
#900=FACE_BOUND('',#840,.T.);
#901=FACE_BOUND('',#841,.T.);
#902=FACE_BOUND('',#842,.T.);
#903=FACE_BOUND('',#843,.T.);
#904=FACE_BOUND('',#844,.T.);
#905=FACE_BOUND('',#845,.T.);
#906=FACE_BOUND('',#846,.T.);
#907=FACE_BOUND('',#847,.T.);
#908=FACE_BOUND('',#848,.T.);
#909=FACE_BOUND('',#849,.T.);
#910=FACE_BOUND('',#850,.T.);
#911=FACE_BOUND('',#851,.T.);
#912=FACE_BOUND('',#852,.T.);
#913=FACE_BOUND('',#853,.T.);
#914=FACE_BOUND('',#854,.T.);
#915=FACE_BOUND('',#855,.T.);
#916=FACE_BOUND('',#856,.T.);
#917=FACE_BOUND('',#857,.T.);
#918=FACE_BOUND('',#858,.T.);
#919=FACE_BOUND('',#859,.T.);
#920=FACE_BOUND('',#860,.T.);
#921=FACE_BOUND('',#861,.T.);
#922=FACE_BOUND('',#862,.T.);
#923=FACE_BOUND('',#863,.T.);
#924=FACE_BOUND('',#864,.T.);
#925=FACE_BOUND('',#865,.T.);
#926=FACE_BOUND('',#866,.T.);
#927=FACE_BOUND('',#867,.T.);
#928=FACE_BOUND('',#868,.T.);
#929=FACE_BOUND('',#869,.T.);
#930=PLANE('',#1069);
#931=PLANE('',#1070);
#932=PLANE('',#1071);
#933=PLANE('',#1072);
#934=PLANE('',#1073);
#935=PLANE('',#1074);
#936=PLANE('',#1075);
#937=PLANE('',#1076);
#938=PLANE('',#1077);
#939=PLANE('',#1078);
#940=PLANE('',#1079);
#941=PLANE('',#1080);
#942=PLANE('',#1081);
#943=PLANE('',#1082);
#944=PLANE('',#1083);
#945=PLANE('',#1084);
#946=PLANE('',#1085);
#947=PLANE('',#1086);
#948=PLANE('',#1087);
#949=PLANE('',#1088);
#950=PLANE('',#1089);
#951=PLANE('',#1090);
#952=PLANE('',#1091);
#953=PLANE('',#1092);
#954=PLANE('',#1093);
#955=PLANE('',#1094);
#956=PLANE('',#1095);
#957=PLANE('',#1096);
#958=PLANE('',#1097);
#959=PLANE('',#1098);
#960=PLANE('',#1099);
#961=PLANE('',#1100);
#962=PLANE('',#1101);
#963=PLANE('',#1102);
#964=PLANE('',#1103);
#965=PLANE('',#1104);
#966=PLANE('',#1105);
#967=PLANE('',#1106);
#968=PLANE('',#1108);
#969=PLANE('',#1109);
#970=PLANE('',#1110);
#971=PLANE('',#1111);
#972=PLANE('',#1112);
#973=PLANE('',#1113);
#974=PLANE('',#1114);
#975=PLANE('',#1115);
#976=PLANE('',#1116);
#977=PLANE('',#1117);
#978=PLANE('',#1118);
#979=PLANE('',#1119);
#980=PLANE('',#1120);
#981=PLANE('',#1121);
#982=PLANE('',#1122);
#983=PLANE('',#1123);
#984=PLANE('',#1124);
#985=PLANE('',#1125);
#986=ADVANCED_FACE('',(#870),#930,.F.);
#987=ADVANCED_FACE('',(#871),#931,.F.);
#988=ADVANCED_FACE('',(#872),#932,.F.);
#989=ADVANCED_FACE('',(#873),#933,.F.);
#990=ADVANCED_FACE('',(#874),#934,.F.);
#991=ADVANCED_FACE('',(#875),#935,.F.);
#992=ADVANCED_FACE('',(#876),#936,.F.);
#993=ADVANCED_FACE('',(#877),#937,.F.);
#994=ADVANCED_FACE('',(#878),#938,.F.);
#995=ADVANCED_FACE('',(#879),#939,.F.);
#996=ADVANCED_FACE('',(#880),#940,.F.);
#997=ADVANCED_FACE('',(#881),#941,.F.);
#998=ADVANCED_FACE('',(#882),#942,.F.);
#999=ADVANCED_FACE('',(#883),#943,.F.);
#1000=ADVANCED_FACE('',(#884),#944,.F.);
#1001=ADVANCED_FACE('',(#885),#945,.F.);
#1002=ADVANCED_FACE('',(#886),#946,.F.);
#1003=ADVANCED_FACE('',(#887),#947,.F.);
#1004=ADVANCED_FACE('',(#888),#948,.F.);
#1005=ADVANCED_FACE('',(#889),#949,.F.);
#1006=ADVANCED_FACE('',(#890),#950,.F.);
#1007=ADVANCED_FACE('',(#891),#951,.F.);
#1008=ADVANCED_FACE('',(#892),#952,.F.);
#1009=ADVANCED_FACE('',(#893),#953,.F.);
#1010=ADVANCED_FACE('',(#894),#954,.T.);
#1011=ADVANCED_FACE('',(#895),#955,.F.);
#1012=ADVANCED_FACE('',(#896),#956,.F.);
#1013=ADVANCED_FACE('',(#897),#957,.F.);
#1014=ADVANCED_FACE('',(#898),#958,.F.);
#1015=ADVANCED_FACE('',(#899),#959,.F.);
#1016=ADVANCED_FACE('',(#900),#960,.F.);
#1017=ADVANCED_FACE('',(#901),#961,.F.);
#1018=ADVANCED_FACE('',(#902),#962,.F.);
#1019=ADVANCED_FACE('',(#903),#963,.F.);
#1020=ADVANCED_FACE('',(#904),#964,.F.);
#1021=ADVANCED_FACE('',(#905),#965,.F.);
#1022=ADVANCED_FACE('',(#906),#966,.F.);
#1023=ADVANCED_FACE('',(#907),#967,.F.);
#1024=ADVANCED_FACE('',(#908),#968,.F.);
#1025=ADVANCED_FACE('',(#909),#969,.F.);
#1026=ADVANCED_FACE('',(#910),#970,.F.);
#1027=ADVANCED_FACE('',(#911),#971,.F.);
#1028=ADVANCED_FACE('',(#912),#972,.T.);
#1029=ADVANCED_FACE('',(#913),#973,.T.);
#1030=ADVANCED_FACE('',(#914),#974,.T.);
#1031=ADVANCED_FACE('',(#915),#975,.T.);
#1032=ADVANCED_FACE('',(#916),#976,.T.);
#1033=ADVANCED_FACE('',(#917),#977,.T.);
#1034=ADVANCED_FACE('',(#918),#978,.T.);
#1035=ADVANCED_FACE('',(#919),#979,.T.);
#1036=ADVANCED_FACE('',(#920),#980,.F.);
#1037=ADVANCED_FACE('',(#921,#922,#923),#981,.T.);
#1038=ADVANCED_FACE('',(#924),#982,.F.);
#1039=ADVANCED_FACE('',(#925,#926,#927),#983,.F.);
#1040=ADVANCED_FACE('',(#928),#984,.F.);
#1041=ADVANCED_FACE('',(#929),#985,.F.);
#1042=CLOSED_SHELL('',(#986,#987,#988,#989,#990,#991,#992,#993,#994,#995,
#996,#997,#998,#999,#1000,#1001,#1002,#1003,#1004,#1005,#1006,#1007,#1008,
#1009,#1010,#1011,#1012,#1013,#1014,#1015,#1016,#1017,#1018,#1019,#1020,
#1021,#1022,#1023));
#1043=CLOSED_SHELL('',(#1024,#1025,#1026,#1027,#1028,#1029,#1030,#1031,
#1032,#1033,#1034,#1035,#1036,#1037,#1038,#1039,#1040,#1041));
#1044=STYLED_ITEM('',(#1046),#1060);
#1045=STYLED_ITEM('',(#1047),#1061);
#1046=PRESENTATION_STYLE_ASSIGNMENT((#1048));
#1047=PRESENTATION_STYLE_ASSIGNMENT((#1049));
#1048=SURFACE_STYLE_USAGE(.BOTH.,#1050);
#1049=SURFACE_STYLE_USAGE(.BOTH.,#1051);
#1050=SURFACE_SIDE_STYLE('',(#1052));
#1051=SURFACE_SIDE_STYLE('',(#1053));
#1052=SURFACE_STYLE_FILL_AREA(#1054);
#1053=SURFACE_STYLE_FILL_AREA(#1055);
#1054=FILL_AREA_STYLE('',(#1056));
#1055=FILL_AREA_STYLE('',(#1057));
#1056=FILL_AREA_STYLE_COLOUR('',#1058);
#1057=FILL_AREA_STYLE_COLOUR('',#1059);
#1058=COLOUR_RGB('',0.75,0.75,0.75);
#1059=COLOUR_RGB('',0.5,0.5,0.5);
#1060=MANIFOLD_SOLID_BREP('MTMM-101-05-T-D-225_pins',#1042);
#1061=MANIFOLD_SOLID_BREP('MTMM-101-05-T-D-225_body',#1043);
#1062=SHAPE_DEFINITION_REPRESENTATION(#1685,#1065);
#1063=SHAPE_DEFINITION_REPRESENTATION(#1686,#1066);
#1064=SHAPE_DEFINITION_REPRESENTATION(#1688,#1067);
#1065=SHAPE_REPRESENTATION('MTMM-101-05-T-D-225',(#1068,#1107,#1126),#1673);
#1066=SHAPE_REPRESENTATION('MTMM-101-05-T-D-225_pins',(#1068),#1674);
#1067=SHAPE_REPRESENTATION('MTMM-101-05-T-D-225_body',(#1068),#1675);
#1068=AXIS2_PLACEMENT_3D('',#1385,#1127,#1128);
#1069=AXIS2_PLACEMENT_3D('',#1386,#1129,#1130);
#1070=AXIS2_PLACEMENT_3D('',#1395,#1135,#1136);
#1071=AXIS2_PLACEMENT_3D('',#1404,#1141,#1142);
#1072=AXIS2_PLACEMENT_3D('',#1410,#1146,#1147);
#1073=AXIS2_PLACEMENT_3D('',#1416,#1151,#1152);
#1074=AXIS2_PLACEMENT_3D('',#1422,#1156,#1157);
#1075=AXIS2_PLACEMENT_3D('',#1428,#1161,#1162);
#1076=AXIS2_PLACEMENT_3D('',#1437,#1167,#1168);
#1077=AXIS2_PLACEMENT_3D('',#1443,#1172,#1173);
#1078=AXIS2_PLACEMENT_3D('',#1449,#1177,#1178);
#1079=AXIS2_PLACEMENT_3D('',#1455,#1182,#1183);
#1080=AXIS2_PLACEMENT_3D('',#1461,#1187,#1188);
#1081=AXIS2_PLACEMENT_3D('',#1471,#1196,#1197);
#1082=AXIS2_PLACEMENT_3D('',#1477,#1201,#1202);
#1083=AXIS2_PLACEMENT_3D('',#1486,#1207,#1208);
#1084=AXIS2_PLACEMENT_3D('',#1492,#1212,#1213);
#1085=AXIS2_PLACEMENT_3D('',#1498,#1217,#1218);
#1086=AXIS2_PLACEMENT_3D('',#1504,#1222,#1223);
#1087=AXIS2_PLACEMENT_3D('',#1510,#1227,#1228);
#1088=AXIS2_PLACEMENT_3D('',#1519,#1233,#1234);
#1089=AXIS2_PLACEMENT_3D('',#1525,#1238,#1239);
#1090=AXIS2_PLACEMENT_3D('',#1531,#1243,#1244);
#1091=AXIS2_PLACEMENT_3D('',#1537,#1248,#1249);
#1092=AXIS2_PLACEMENT_3D('',#1543,#1253,#1254);
#1093=AXIS2_PLACEMENT_3D('',#1550,#1261,#1262);
#1094=AXIS2_PLACEMENT_3D('',#1551,#1263,#1264);
#1095=AXIS2_PLACEMENT_3D('',#1556,#1269,#1270);
#1096=AXIS2_PLACEMENT_3D('',#1557,#1271,#1272);
#1097=AXIS2_PLACEMENT_3D('',#1558,#1273,#1274);
#1098=AXIS2_PLACEMENT_3D('',#1559,#1275,#1276);
#1099=AXIS2_PLACEMENT_3D('',#1560,#1277,#1278);
#1100=AXIS2_PLACEMENT_3D('',#1562,#1280,#1281);
#1101=AXIS2_PLACEMENT_3D('',#1563,#1282,#1283);
#1102=AXIS2_PLACEMENT_3D('',#1565,#1285,#1286);
#1103=AXIS2_PLACEMENT_3D('',#1566,#1287,#1288);
#1104=AXIS2_PLACEMENT_3D('',#1568,#1290,#1291);
#1105=AXIS2_PLACEMENT_3D('',#1569,#1292,#1293);
#1106=AXIS2_PLACEMENT_3D('',#1571,#1295,#1296);
#1107=AXIS2_PLACEMENT_3D('',#1572,#1297,#1298);
#1108=AXIS2_PLACEMENT_3D('',#1573,#1299,#1300);
#1109=AXIS2_PLACEMENT_3D('',#1582,#1305,#1306);
#1110=AXIS2_PLACEMENT_3D('',#1596,#1314,#1315);
#1111=AXIS2_PLACEMENT_3D('',#1600,#1318,#1319);
#1112=AXIS2_PLACEMENT_3D('',#1612,#1326,#1327);
#1113=AXIS2_PLACEMENT_3D('',#1621,#1332,#1333);
#1114=AXIS2_PLACEMENT_3D('',#1627,#1337,#1338);
#1115=AXIS2_PLACEMENT_3D('',#1633,#1342,#1343);
#1116=AXIS2_PLACEMENT_3D('',#1642,#1348,#1349);
#1117=AXIS2_PLACEMENT_3D('',#1648,#1353,#1354);
#1118=AXIS2_PLACEMENT_3D('',#1654,#1358,#1359);
#1119=AXIS2_PLACEMENT_3D('',#1657,#1362,#1363);
#1120=AXIS2_PLACEMENT_3D('',#1660,#1366,#1367);
#1121=AXIS2_PLACEMENT_3D('',#1663,#1370,#1371);
#1122=AXIS2_PLACEMENT_3D('',#1664,#1372,#1373);
#1123=AXIS2_PLACEMENT_3D('',#1666,#1375,#1376);
#1124=AXIS2_PLACEMENT_3D('',#1669,#1379,#1380);
#1125=AXIS2_PLACEMENT_3D('',#1670,#1381,#1382);
#1126=AXIS2_PLACEMENT_3D('',#1671,#1383,#1384);
#1127=DIRECTION('',(0.,0.,1.));
#1128=DIRECTION('',(1.,0.,0.));
#1129=DIRECTION('',(0.,0.,-1.));
#1130=DIRECTION('',(-1.,0.,0.));
#1131=DIRECTION('',(0.,-1.,0.));
#1132=DIRECTION('',(-1.,0.,0.));
#1133=DIRECTION('',(0.,-1.,0.));
#1134=DIRECTION('',(-1.,0.,0.));
#1135=DIRECTION('',(0.,0.,-1.));
#1136=DIRECTION('',(-1.,0.,0.));
#1137=DIRECTION('',(-1.,0.,0.));
#1138=DIRECTION('',(0.,1.,0.));
#1139=DIRECTION('',(-1.,0.,0.));
#1140=DIRECTION('',(0.,-1.,0.));
#1141=DIRECTION('',(0.,0.447213595499958,-0.894427190999916));
#1142=DIRECTION('',(0.,0.894427190999916,0.447213595499958));
#1143=DIRECTION('',(-1.,0.,0.));
#1144=DIRECTION('',(0.408248290463862,0.816496580927726,0.408248290463863));
#1145=DIRECTION('',(0.408248290463863,-0.816496580927726,-0.408248290463863));
#1146=DIRECTION('',(0.,1.,0.));
#1147=DIRECTION('',(0.,0.,1.));
#1148=DIRECTION('',(-1.,0.,0.));
#1149=DIRECTION('',(0.,0.,-1.));
#1150=DIRECTION('',(0.,0.,-1.));
#1151=DIRECTION('',(0.,0.447213595499957,0.894427190999916));
#1152=DIRECTION('',(0.,-0.894427190999916,0.447213595499957));
#1153=DIRECTION('',(-1.,0.,0.));
#1154=DIRECTION('',(-0.408248290463863,-0.816496580927726,0.408248290463862));
#1155=DIRECTION('',(-0.408248290463863,0.816496580927726,-0.408248290463862));
#1156=DIRECTION('',(0.,0.,1.));
#1157=DIRECTION('',(1.,0.,0.));
#1158=DIRECTION('',(-1.,0.,0.));
#1159=DIRECTION('',(0.,-1.,0.));
#1160=DIRECTION('',(0.,1.,0.));
#1161=DIRECTION('',(0.,0.,-1.));
#1162=DIRECTION('',(-1.,0.,0.));
#1163=DIRECTION('',(-1.,0.,0.));
#1164=DIRECTION('',(0.,1.,0.));
#1165=DIRECTION('',(-1.,0.,0.));
#1166=DIRECTION('',(0.,-1.,0.));
#1167=DIRECTION('',(0.,0.447213595499958,-0.894427190999916));
#1168=DIRECTION('',(0.,0.894427190999916,0.447213595499958));
#1169=DIRECTION('',(-1.,0.,0.));
#1170=DIRECTION('',(0.408248290463862,0.816496580927726,0.408248290463863));
#1171=DIRECTION('',(0.408248290463863,-0.816496580927726,-0.408248290463863));
#1172=DIRECTION('',(0.,1.,0.));
#1173=DIRECTION('',(0.,0.,1.));
#1174=DIRECTION('',(-1.,0.,0.));
#1175=DIRECTION('',(0.,0.,-1.));
#1176=DIRECTION('',(0.,0.,-1.));
#1177=DIRECTION('',(0.,0.447213595499957,0.894427190999916));
#1178=DIRECTION('',(0.,-0.894427190999916,0.447213595499957));
#1179=DIRECTION('',(-1.,0.,0.));
#1180=DIRECTION('',(-0.408248290463863,-0.816496580927726,0.408248290463862));
#1181=DIRECTION('',(-0.408248290463863,0.816496580927726,-0.408248290463862));
#1182=DIRECTION('',(0.,0.,1.));
#1183=DIRECTION('',(1.,0.,0.));
#1184=DIRECTION('',(-1.,0.,0.));
#1185=DIRECTION('',(0.,-1.,0.));
#1186=DIRECTION('',(0.,1.,0.));
#1187=DIRECTION('',(0.,1.,0.));
#1188=DIRECTION('',(0.,0.,1.));
#1189=DIRECTION('',(0.,0.,-1.));
#1190=DIRECTION('',(-1.,0.,0.));
#1191=DIRECTION('',(0.,0.,-1.));
#1192=DIRECTION('',(0.,0.,-1.));
#1193=DIRECTION('',(0.,0.,-1.));
#1194=DIRECTION('',(0.,0.,-1.));
#1195=DIRECTION('',(0.,0.,-1.));
#1196=DIRECTION('',(0.,0.,1.));
#1197=DIRECTION('',(1.,0.,0.));
#1198=DIRECTION('',(0.,1.,0.));
#1199=DIRECTION('',(-1.,0.,0.));
#1200=DIRECTION('',(0.,1.,0.));
#1201=DIRECTION('',(0.,0.,1.));
#1202=DIRECTION('',(1.,0.,0.));
#1203=DIRECTION('',(-1.,0.,0.));
#1204=DIRECTION('',(0.,-1.,0.));
#1205=DIRECTION('',(-1.,0.,0.));
#1206=DIRECTION('',(0.,1.,0.));
#1207=DIRECTION('',(0.,-0.447213595499958,0.894427190999916));
#1208=DIRECTION('',(0.,-0.894427190999916,-0.447213595499958));
#1209=DIRECTION('',(0.408248290463863,0.816496580927726,0.408248290463863));
#1210=DIRECTION('',(-1.,0.,0.));
#1211=DIRECTION('',(0.408248290463863,-0.816496580927726,-0.408248290463863));
#1212=DIRECTION('',(0.,-1.,0.));
#1213=DIRECTION('',(0.,0.,-1.));
#1214=DIRECTION('',(0.,0.,-1.));
#1215=DIRECTION('',(-1.,0.,0.));
#1216=DIRECTION('',(0.,0.,-1.));
#1217=DIRECTION('',(0.,-0.447213595499958,-0.894427190999916));
#1218=DIRECTION('',(0.,0.894427190999916,-0.447213595499958));
#1219=DIRECTION('',(-0.408248290463863,-0.816496580927726,0.408248290463863));
#1220=DIRECTION('',(-1.,0.,0.));
#1221=DIRECTION('',(-0.408248290463863,0.816496580927726,-0.408248290463863));
#1222=DIRECTION('',(0.,0.,-1.));
#1223=DIRECTION('',(-1.,0.,0.));
#1224=DIRECTION('',(-1.,0.,0.));
#1225=DIRECTION('',(0.,1.,0.));
#1226=DIRECTION('',(0.,-1.,0.));
#1227=DIRECTION('',(0.,0.,1.));
#1228=DIRECTION('',(1.,0.,0.));
#1229=DIRECTION('',(-1.,0.,0.));
#1230=DIRECTION('',(0.,-1.,0.));
#1231=DIRECTION('',(-1.,0.,0.));
#1232=DIRECTION('',(0.,1.,0.));
#1233=DIRECTION('',(0.,-0.447213595499958,0.894427190999916));
#1234=DIRECTION('',(0.,-0.894427190999916,-0.447213595499958));
#1235=DIRECTION('',(0.408248290463863,0.816496580927726,0.408248290463863));
#1236=DIRECTION('',(-1.,0.,0.));
#1237=DIRECTION('',(0.408248290463863,-0.816496580927726,-0.408248290463863));
#1238=DIRECTION('',(0.,-1.,0.));
#1239=DIRECTION('',(0.,0.,-1.));
#1240=DIRECTION('',(0.,0.,-1.));
#1241=DIRECTION('',(-1.,0.,0.));
#1242=DIRECTION('',(0.,0.,-1.));
#1243=DIRECTION('',(0.,-0.447213595499958,-0.894427190999916));
#1244=DIRECTION('',(0.,0.894427190999916,-0.447213595499958));
#1245=DIRECTION('',(-0.408248290463863,-0.816496580927726,0.408248290463863));
#1246=DIRECTION('',(-1.,0.,0.));
#1247=DIRECTION('',(-0.408248290463863,0.816496580927726,-0.408248290463863));
#1248=DIRECTION('',(0.,0.,-1.));
#1249=DIRECTION('',(-1.,0.,0.));
#1250=DIRECTION('',(-1.,0.,0.));
#1251=DIRECTION('',(0.,1.,0.));
#1252=DIRECTION('',(0.,-1.,0.));
#1253=DIRECTION('',(0.,-1.,-1.05006457321043E-15));
#1254=DIRECTION('',(0.,1.05006457321043E-15,-1.));
#1255=DIRECTION('',(0.,-1.05006457321043E-15,1.));
#1256=DIRECTION('',(0.,0.,1.));
#1257=DIRECTION('',(0.,0.,1.));
#1258=DIRECTION('',(0.,0.,-1.));
#1259=DIRECTION('',(0.,-1.45335801501546E-16,1.));
#1260=DIRECTION('',(0.,0.,-1.));
#1261=DIRECTION('',(1.,0.,0.));
#1262=DIRECTION('',(0.,0.,-1.));
#1263=DIRECTION('',(1.,0.,0.));
#1264=DIRECTION('',(0.,0.,-1.));
#1265=DIRECTION('',(0.,0.,-1.));
#1266=DIRECTION('',(0.,0.,-1.));
#1267=DIRECTION('',(0.,0.,1.));
#1268=DIRECTION('',(0.,0.,1.));
#1269=DIRECTION('',(0.894427190999916,0.447213595499958,0.));
#1270=DIRECTION('',(-0.447213595499958,0.894427190999916,0.));
#1271=DIRECTION('',(0.894427190999916,0.447213595499958,0.));
#1272=DIRECTION('',(-0.447213595499958,0.894427190999916,0.));
#1273=DIRECTION('',(0.894427190999916,-0.447213595499958,0.));
#1274=DIRECTION('',(0.447213595499958,0.894427190999916,0.));
#1275=DIRECTION('',(0.894427190999916,-0.447213595499958,0.));
#1276=DIRECTION('',(0.447213595499958,0.894427190999916,0.));
#1277=DIRECTION('',(-1.,0.,0.));
#1278=DIRECTION('',(0.,0.,1.));
#1279=DIRECTION('',(0.,0.,-1.));
#1280=DIRECTION('',(-0.894427190999916,0.447213595499957,0.));
#1281=DIRECTION('',(-0.447213595499957,-0.894427190999916,0.));
#1282=DIRECTION('',(-1.,0.,0.));
#1283=DIRECTION('',(0.,0.,1.));
#1284=DIRECTION('',(0.,0.,-1.));
#1285=DIRECTION('',(-0.894427190999916,0.447213595499957,0.));
#1286=DIRECTION('',(-0.447213595499957,-0.894427190999916,0.));
#1287=DIRECTION('',(-1.,0.,0.));
#1288=DIRECTION('',(0.,0.,1.));
#1289=DIRECTION('',(0.,0.,-1.));
#1290=DIRECTION('',(-0.894427190999916,-0.447213595499958,0.));
#1291=DIRECTION('',(0.447213595499958,-0.894427190999916,0.));
#1292=DIRECTION('',(-0.894427190999916,-0.447213595499958,0.));
#1293=DIRECTION('',(0.447213595499958,-0.894427190999916,0.));
#1294=DIRECTION('',(0.,0.,-1.));
#1295=DIRECTION('',(-1.,0.,0.));
#1296=DIRECTION('',(0.,0.,1.));
#1297=DIRECTION('',(0.,0.,1.));
#1298=DIRECTION('',(1.,0.,0.));
#1299=DIRECTION('',(0.,1.,0.));
#1300=DIRECTION('',(0.,0.,1.));
#1301=DIRECTION('',(0.,0.,1.));
#1302=DIRECTION('',(1.,0.,0.));
#1303=DIRECTION('',(0.,0.,-1.));
#1304=DIRECTION('',(1.,0.,0.));
#1305=DIRECTION('',(1.,0.,0.));
#1306=DIRECTION('',(0.,0.,-1.));
#1307=DIRECTION('',(0.,0.,1.));
#1308=DIRECTION('',(0.,-1.,-5.97591748614058E-15));
#1309=DIRECTION('',(0.,-1.,0.));
#1310=DIRECTION('',(0.,0.,1.));
#1311=DIRECTION('',(0.,-1.,0.));
#1312=DIRECTION('',(0.,0.,1.));
#1313=DIRECTION('',(0.,1.,0.));
#1314=DIRECTION('',(0.,0.,-1.));
#1315=DIRECTION('',(-1.,0.,0.));
#1316=DIRECTION('',(0.,-1.,0.));
#1317=DIRECTION('',(1.,0.,0.));
#1318=DIRECTION('',(-1.,0.,0.));
#1319=DIRECTION('',(0.,0.,1.));
#1320=DIRECTION('',(0.,-1.,-5.97591748614058E-15));
#1321=DIRECTION('',(0.,0.,1.));
#1322=DIRECTION('',(0.,1.,0.));
#1323=DIRECTION('',(0.,0.,-1.));
#1324=DIRECTION('',(0.,-1.,0.));
#1325=DIRECTION('',(0.,0.,-1.));
#1326=DIRECTION('',(1.,0.,0.));
#1327=DIRECTION('',(0.,0.,-1.));
#1328=DIRECTION('',(0.,0.,1.));
#1329=DIRECTION('',(0.,-1.,0.));
#1330=DIRECTION('',(0.,0.,1.));
#1331=DIRECTION('',(0.,-1.,0.));
#1332=DIRECTION('',(0.,0.,1.));
#1333=DIRECTION('',(1.,0.,0.));
#1334=DIRECTION('',(-1.,0.,0.));
#1335=DIRECTION('',(0.,-1.,0.));
#1336=DIRECTION('',(-1.,0.,0.));
#1337=DIRECTION('',(-1.,0.,0.));
#1338=DIRECTION('',(0.,0.,1.));
#1339=DIRECTION('',(0.,0.,-1.));
#1340=DIRECTION('',(0.,-1.,0.));
#1341=DIRECTION('',(0.,0.,-1.));
#1342=DIRECTION('',(1.,0.,0.));
#1343=DIRECTION('',(0.,0.,-1.));
#1344=DIRECTION('',(0.,0.,1.));
#1345=DIRECTION('',(0.,-1.,0.));
#1346=DIRECTION('',(0.,0.,1.));
#1347=DIRECTION('',(0.,-1.,0.));
#1348=DIRECTION('',(0.,0.,1.));
#1349=DIRECTION('',(1.,0.,0.));
#1350=DIRECTION('',(-1.,0.,0.));
#1351=DIRECTION('',(0.,-1.,0.));
#1352=DIRECTION('',(-1.,0.,0.));
#1353=DIRECTION('',(-1.,0.,0.));
#1354=DIRECTION('',(0.,0.,1.));
#1355=DIRECTION('',(0.,0.,-1.));
#1356=DIRECTION('',(0.,-1.,0.));
#1357=DIRECTION('',(0.,0.,-1.));
#1358=DIRECTION('',(0.,0.,-1.));
#1359=DIRECTION('',(-1.,0.,0.));
#1360=DIRECTION('',(1.,0.,0.));
#1361=DIRECTION('',(1.,0.,0.));
#1362=DIRECTION('',(0.,0.,-1.));
#1363=DIRECTION('',(-1.,0.,0.));
#1364=DIRECTION('',(1.,0.,0.));
#1365=DIRECTION('',(1.,0.,0.));
#1366=DIRECTION('',(0.,0.,1.));
#1367=DIRECTION('',(1.,0.,0.));
#1368=DIRECTION('',(-1.,0.,0.));
#1369=DIRECTION('',(-1.,0.,0.));
#1370=DIRECTION('',(0.,1.,0.));
#1371=DIRECTION('',(0.,0.,1.));
#1372=DIRECTION('',(0.,1.,0.));
#1373=DIRECTION('',(0.,0.,1.));
#1374=DIRECTION('',(1.,0.,0.));
#1375=DIRECTION('',(0.,1.,0.));
#1376=DIRECTION('',(0.,0.,1.));
#1377=DIRECTION('',(1.,0.,0.));
#1378=DIRECTION('',(1.,0.,0.));
#1379=DIRECTION('',(0.,-5.97591748614058E-15,1.));
#1380=DIRECTION('',(0.,-1.,-5.97591748614058E-15));
#1381=DIRECTION('',(0.,0.,-1.));
#1382=DIRECTION('',(-1.,0.,0.));
#1383=DIRECTION('',(0.,0.,1.));
#1384=DIRECTION('',(1.,0.,0.));
#1385=CARTESIAN_POINT('',(0.,0.,0.));
#1386=CARTESIAN_POINT('',(0.015,0.039,0.0575));
#1387=CARTESIAN_POINT('',(-0.01,0.039,0.0575));
#1388=CARTESIAN_POINT('',(-0.01,0.039,0.0575));
#1389=CARTESIAN_POINT('',(-0.01,0.03,0.0575));
#1390=CARTESIAN_POINT('',(0.015,0.03,0.0575));
#1391=CARTESIAN_POINT('',(0.015,0.03,0.0575));
#1392=CARTESIAN_POINT('',(0.015,0.039,0.0575));
#1393=CARTESIAN_POINT('',(0.015,0.039,0.0575));
#1394=CARTESIAN_POINT('',(0.015,0.039,0.0575));
#1395=CARTESIAN_POINT('',(0.015,0.03,0.04937));
#1396=CARTESIAN_POINT('',(0.015,-0.083,0.04937));
#1397=CARTESIAN_POINT('',(0.01,-0.083,0.04937));
#1398=CARTESIAN_POINT('',(-0.01,-0.083,0.04937));
#1399=CARTESIAN_POINT('',(0.01,0.03,0.04937));
#1400=CARTESIAN_POINT('',(0.01,0.03,0.0493700000000001));
#1401=CARTESIAN_POINT('',(0.015,0.03,0.04937));
#1402=CARTESIAN_POINT('',(-0.01,0.03,0.04937));
#1403=CARTESIAN_POINT('',(-0.01,0.03,0.04937));
#1404=CARTESIAN_POINT('',(0.015,-0.083,0.04937));
#1405=CARTESIAN_POINT('',(0.015,-0.093,0.04437));
#1406=CARTESIAN_POINT('',(0.005,-0.093,0.0443700000000001));
#1407=CARTESIAN_POINT('',(-0.005,-0.093,0.0443700000000001));
#1408=CARTESIAN_POINT('',(0.0108333333333333,-0.0813333333333333,0.0502033333333333));
#1409=CARTESIAN_POINT('',(-0.00583333333333333,-0.0913333333333333,0.0452033333333333));
#1410=CARTESIAN_POINT('',(0.015,-0.093,0.04437));
#1411=CARTESIAN_POINT('',(0.015,-0.093,0.03437));
#1412=CARTESIAN_POINT('',(0.005,-0.093,0.0343700000000001));
#1413=CARTESIAN_POINT('',(-0.005,-0.093,0.03437));
#1414=CARTESIAN_POINT('',(0.005,-0.093,0.3));
#1415=CARTESIAN_POINT('',(-0.005,-0.093,0.3));
#1416=CARTESIAN_POINT('',(0.015,-0.093,0.03437));
#1417=CARTESIAN_POINT('',(0.015,-0.083,0.02937));
#1418=CARTESIAN_POINT('',(0.01,-0.083,0.0293700000000001));
#1419=CARTESIAN_POINT('',(-0.01,-0.083,0.0293700000000001));
#1420=CARTESIAN_POINT('',(0.00666666666666667,-0.0896666666666666,0.0327033333333333));
#1421=CARTESIAN_POINT('',(-0.00166666666666666,-0.0996666666666666,0.0377033333333333));
#1422=CARTESIAN_POINT('',(0.015,-0.083,0.02937));
#1423=CARTESIAN_POINT('',(0.015,0.03,0.02937));
#1424=CARTESIAN_POINT('',(0.01,0.03,0.0293700000000001));
#1425=CARTESIAN_POINT('',(-0.01,0.03,0.02937));
#1426=CARTESIAN_POINT('',(0.01,-0.083,0.02937));
#1427=CARTESIAN_POINT('',(-0.01,-0.083,0.02937));
#1428=CARTESIAN_POINT('',(0.015,0.03,-0.02937));
#1429=CARTESIAN_POINT('',(0.015,-0.083,-0.02937));
#1430=CARTESIAN_POINT('',(0.01,-0.0829999999999999,-0.02937));
#1431=CARTESIAN_POINT('',(-0.01,-0.083,-0.02937));
#1432=CARTESIAN_POINT('',(0.01,0.03,-0.02937));
#1433=CARTESIAN_POINT('',(0.01,0.03,-0.0293699999999999));
#1434=CARTESIAN_POINT('',(0.015,0.03,-0.02937));
#1435=CARTESIAN_POINT('',(-0.01,0.03,-0.02937));
#1436=CARTESIAN_POINT('',(-0.01,0.03,-0.02937));
#1437=CARTESIAN_POINT('',(0.015,-0.083,-0.02937));
#1438=CARTESIAN_POINT('',(0.015,-0.093,-0.03437));
#1439=CARTESIAN_POINT('',(0.005,-0.093,-0.0343699999999999));
#1440=CARTESIAN_POINT('',(-0.005,-0.093,-0.0343699999999999));
#1441=CARTESIAN_POINT('',(0.0108333333333333,-0.0813333333333333,-0.0285366666666667));
#1442=CARTESIAN_POINT('',(-0.00583333333333333,-0.0913333333333333,-0.0335366666666667));
#1443=CARTESIAN_POINT('',(0.015,-0.093,-0.03437));
#1444=CARTESIAN_POINT('',(0.015,-0.093,-0.04437));
#1445=CARTESIAN_POINT('',(0.005,-0.093,-0.0443699999999999));
#1446=CARTESIAN_POINT('',(-0.00499999999999999,-0.093,-0.04437));
#1447=CARTESIAN_POINT('',(0.005,-0.093,0.3));
#1448=CARTESIAN_POINT('',(-0.005,-0.093,0.3));
#1449=CARTESIAN_POINT('',(0.015,-0.093,-0.04437));
#1450=CARTESIAN_POINT('',(0.015,-0.083,-0.04937));
#1451=CARTESIAN_POINT('',(0.01,-0.083,-0.0493699999999999));
#1452=CARTESIAN_POINT('',(-0.01,-0.083,-0.0493699999999999));
#1453=CARTESIAN_POINT('',(0.00666666666666667,-0.0896666666666666,-0.0460366666666667));
#1454=CARTESIAN_POINT('',(-0.00166666666666666,-0.0996666666666666,-0.0410366666666667));
#1455=CARTESIAN_POINT('',(0.015,-0.083,-0.04937));
#1456=CARTESIAN_POINT('',(0.015,0.03,-0.04937));
#1457=CARTESIAN_POINT('',(0.01,0.03,-0.0493699999999999));
#1458=CARTESIAN_POINT('',(-0.01,0.03,-0.04937));
#1459=CARTESIAN_POINT('',(0.01,-0.083,-0.04937));
#1460=CARTESIAN_POINT('',(-0.01,-0.083,-0.04937));
#1461=CARTESIAN_POINT('',(0.015,0.03,-0.04937));
#1462=CARTESIAN_POINT('',(-0.01,0.03,-0.04937));
#1463=CARTESIAN_POINT('',(-0.01,0.03,-0.0575));
#1464=CARTESIAN_POINT('',(0.015,0.03,-0.0575));
#1465=CARTESIAN_POINT('',(0.015,0.03,-0.0575));
#1466=CARTESIAN_POINT('',(0.015,0.03,0.0575));
#1467=CARTESIAN_POINT('',(-0.01,0.03,0.0575));
#1468=CARTESIAN_POINT('',(0.01,0.03,0.3));
#1469=CARTESIAN_POINT('',(-0.01,0.03,0.02937));
#1470=CARTESIAN_POINT('',(0.01,0.03,0.3));
#1471=CARTESIAN_POINT('',(0.015,0.03,-0.0575));
#1472=CARTESIAN_POINT('',(-0.01,0.03,-0.0575));
#1473=CARTESIAN_POINT('',(-0.01,0.039,-0.0575));
#1474=CARTESIAN_POINT('',(0.015,0.039,-0.0575));
#1475=CARTESIAN_POINT('',(0.015,0.039,-0.0575));
#1476=CARTESIAN_POINT('',(0.015,0.03,-0.0575));
#1477=CARTESIAN_POINT('',(0.015,0.039,-0.04937));
#1478=CARTESIAN_POINT('',(0.015,0.274,-0.04937));
#1479=CARTESIAN_POINT('',(0.01,0.274,-0.04937));
#1480=CARTESIAN_POINT('',(-0.01,0.274,-0.04937));
#1481=CARTESIAN_POINT('',(0.01,0.039,-0.04937));
#1482=CARTESIAN_POINT('',(0.01,0.039,-0.0493699999999999));
#1483=CARTESIAN_POINT('',(0.015,0.039,-0.04937));
#1484=CARTESIAN_POINT('',(-0.01,0.039,-0.04937));
#1485=CARTESIAN_POINT('',(-0.01,0.039,-0.04937));
#1486=CARTESIAN_POINT('',(0.015,0.274,-0.04937));
#1487=CARTESIAN_POINT('',(-0.00583333333333333,0.282333333333333,-0.0452033333333333));
#1488=CARTESIAN_POINT('',(-0.005,0.284,-0.0443699999999999));
#1489=CARTESIAN_POINT('',(0.015,0.284,-0.04437));
#1490=CARTESIAN_POINT('',(0.005,0.284,-0.0443699999999999));
#1491=CARTESIAN_POINT('',(0.0108333333333333,0.272333333333333,-0.0502033333333333));
#1492=CARTESIAN_POINT('',(0.015,0.284,-0.04437));
#1493=CARTESIAN_POINT('',(-0.005,0.284,0.3));
#1494=CARTESIAN_POINT('',(-0.005,0.284,-0.0343699999999999));
#1495=CARTESIAN_POINT('',(0.015,0.284,-0.03437));
#1496=CARTESIAN_POINT('',(0.00500000000000001,0.284,-0.03437));
#1497=CARTESIAN_POINT('',(0.005,0.284,0.3));
#1498=CARTESIAN_POINT('',(0.015,0.284,-0.03437));
#1499=CARTESIAN_POINT('',(-0.00166666666666666,0.290666666666667,-0.0377033333333333));
#1500=CARTESIAN_POINT('',(-0.01,0.274,-0.0293699999999999));
#1501=CARTESIAN_POINT('',(0.015,0.274,-0.02937));
#1502=CARTESIAN_POINT('',(0.01,0.274,-0.0293699999999999));
#1503=CARTESIAN_POINT('',(0.00666666666666667,0.280666666666667,-0.0327033333333333));
#1504=CARTESIAN_POINT('',(0.015,0.274,-0.02937));
#1505=CARTESIAN_POINT('',(0.015,0.039,-0.02937));
#1506=CARTESIAN_POINT('',(0.01,0.039,-0.0293699999999999));
#1507=CARTESIAN_POINT('',(-0.01,0.039,-0.02937));
#1508=CARTESIAN_POINT('',(0.01,0.274,-0.02937));
#1509=CARTESIAN_POINT('',(-0.01,0.274,-0.02937));
#1510=CARTESIAN_POINT('',(0.015,0.039,0.02937));
#1511=CARTESIAN_POINT('',(0.015,0.274,0.02937));
#1512=CARTESIAN_POINT('',(0.01,0.274,0.02937));
#1513=CARTESIAN_POINT('',(-0.01,0.274,0.02937));
#1514=CARTESIAN_POINT('',(0.01,0.039,0.02937));
#1515=CARTESIAN_POINT('',(0.01,0.039,0.0293700000000001));
#1516=CARTESIAN_POINT('',(0.015,0.039,0.02937));
#1517=CARTESIAN_POINT('',(-0.01,0.039,0.02937));
#1518=CARTESIAN_POINT('',(-0.01,0.039,0.02937));
#1519=CARTESIAN_POINT('',(0.015,0.274,0.02937));
#1520=CARTESIAN_POINT('',(-0.00583333333333333,0.282333333333333,0.0335366666666667));
#1521=CARTESIAN_POINT('',(-0.005,0.284,0.0343700000000001));
#1522=CARTESIAN_POINT('',(0.015,0.284,0.03437));
#1523=CARTESIAN_POINT('',(0.005,0.284,0.0343700000000001));
#1524=CARTESIAN_POINT('',(0.0108333333333333,0.272333333333333,0.0285366666666667));
#1525=CARTESIAN_POINT('',(0.015,0.284,0.03437));
#1526=CARTESIAN_POINT('',(-0.005,0.284,0.3));
#1527=CARTESIAN_POINT('',(-0.005,0.284,0.0443700000000001));
#1528=CARTESIAN_POINT('',(0.015,0.284,0.04437));
#1529=CARTESIAN_POINT('',(0.005,0.284,0.04437));
#1530=CARTESIAN_POINT('',(0.005,0.284,0.3));
#1531=CARTESIAN_POINT('',(0.015,0.284,0.04437));
#1532=CARTESIAN_POINT('',(-0.00166666666666666,0.290666666666667,0.0410366666666667));
#1533=CARTESIAN_POINT('',(-0.01,0.274,0.0493700000000001));
#1534=CARTESIAN_POINT('',(0.015,0.274,0.04937));
#1535=CARTESIAN_POINT('',(0.01,0.274,0.0493700000000001));
#1536=CARTESIAN_POINT('',(0.00666666666666667,0.280666666666667,0.0460366666666667));
#1537=CARTESIAN_POINT('',(0.015,0.274,0.04937));
#1538=CARTESIAN_POINT('',(0.015,0.039,0.04937));
#1539=CARTESIAN_POINT('',(0.01,0.039,0.0493700000000001));
#1540=CARTESIAN_POINT('',(-0.01,0.039,0.04937));
#1541=CARTESIAN_POINT('',(0.01,0.274,0.04937));
#1542=CARTESIAN_POINT('',(-0.01,0.274,0.04937));
#1543=CARTESIAN_POINT('',(0.015,0.039,0.04937));
#1544=CARTESIAN_POINT('',(-0.01,0.039,0.04937));
#1545=CARTESIAN_POINT('',(0.015,0.039,-0.0575));
#1546=CARTESIAN_POINT('',(-0.01,0.039,-0.0575));
#1547=CARTESIAN_POINT('',(0.01,0.039,0.3));
#1548=CARTESIAN_POINT('',(-0.01,0.039,-0.02937));
#1549=CARTESIAN_POINT('',(0.01,0.039,0.3));
#1550=CARTESIAN_POINT('',(0.015,0.,0.));
#1551=CARTESIAN_POINT('',(-0.01,0.,0.));
#1552=CARTESIAN_POINT('',(-0.01,0.274,0.));
#1553=CARTESIAN_POINT('',(-0.01,0.274,0.));
#1554=CARTESIAN_POINT('',(-0.01,-0.083,0.));
#1555=CARTESIAN_POINT('',(-0.01,-0.083,0.));
#1556=CARTESIAN_POINT('',(-0.01,-0.083,0.3));
#1557=CARTESIAN_POINT('',(-0.01,-0.083,0.3));
#1558=CARTESIAN_POINT('',(-0.005,0.284,0.3));
#1559=CARTESIAN_POINT('',(-0.005,0.284,0.3));
#1560=CARTESIAN_POINT('',(0.01,-0.083,0.3));
#1561=CARTESIAN_POINT('',(0.01,-0.083,0.3));
#1562=CARTESIAN_POINT('',(0.005,-0.093,0.3));
#1563=CARTESIAN_POINT('',(0.01,-0.083,0.3));
#1564=CARTESIAN_POINT('',(0.01,-0.083,0.3));
#1565=CARTESIAN_POINT('',(0.005,-0.093,0.3));
#1566=CARTESIAN_POINT('',(0.01,0.039,0.3));
#1567=CARTESIAN_POINT('',(0.01,0.274,0.3));
#1568=CARTESIAN_POINT('',(0.01,0.274,0.3));
#1569=CARTESIAN_POINT('',(0.01,0.274,0.3));
#1570=CARTESIAN_POINT('',(0.01,0.274,0.3));
#1571=CARTESIAN_POINT('',(0.01,0.039,0.3));
#1572=CARTESIAN_POINT('',(0.,0.,0.));
#1573=CARTESIAN_POINT('',(0.,0.,0.));
#1574=CARTESIAN_POINT('',(-0.03937,0.,-0.0775));
#1575=CARTESIAN_POINT('',(-0.03937,0.,0.0625));
#1576=CARTESIAN_POINT('',(-0.03937,0.,0.0775));
#1577=CARTESIAN_POINT('',(-0.03937,0.,0.0625));
#1578=CARTESIAN_POINT('',(0.03937,0.,0.0625));
#1579=CARTESIAN_POINT('',(0.03937,0.,0.0775));
#1580=CARTESIAN_POINT('',(0.03937,0.,0.0775));
#1581=CARTESIAN_POINT('',(-0.03937,0.,0.0775));
#1582=CARTESIAN_POINT('',(-0.03937,0.059,-0.0775));
#1583=CARTESIAN_POINT('',(-0.03937,0.01,-0.0625));
#1584=CARTESIAN_POINT('',(-0.03937,0.01,-0.0625));
#1585=CARTESIAN_POINT('',(-0.03937,0.01,0.0625000000000001));
#1586=CARTESIAN_POINT('',(-0.03937,0.01,0.0625000000000001));
#1587=CARTESIAN_POINT('',(-0.03937,0.059,0.0775));
#1588=CARTESIAN_POINT('',(-0.03937,0.059,0.0775));
#1589=CARTESIAN_POINT('',(-0.03937,0.059,-0.0775));
#1590=CARTESIAN_POINT('',(-0.03937,0.059,-0.0775));
#1591=CARTESIAN_POINT('',(-0.03937,0.059,-0.0775));
#1592=CARTESIAN_POINT('',(-0.03937,0.,-0.0775));
#1593=CARTESIAN_POINT('',(-0.03937,0.,-0.0775));
#1594=CARTESIAN_POINT('',(-0.03937,0.,-0.0625));
#1595=CARTESIAN_POINT('',(-0.03937,0.,-0.0625));
#1596=CARTESIAN_POINT('',(-0.03937,0.059,0.0775));
#1597=CARTESIAN_POINT('',(0.03937,0.059,0.0775));
#1598=CARTESIAN_POINT('',(0.03937,0.059,0.0775));
#1599=CARTESIAN_POINT('',(-0.03937,0.059,0.0775));
#1600=CARTESIAN_POINT('',(0.03937,0.059,0.0775));
#1601=CARTESIAN_POINT('',(0.03937,0.01,0.0625000000000001));
#1602=CARTESIAN_POINT('',(0.03937,0.01,0.0625000000000001));
#1603=CARTESIAN_POINT('',(0.03937,0.01,-0.0625));
#1604=CARTESIAN_POINT('',(0.03937,0.01,-0.0625));
#1605=CARTESIAN_POINT('',(0.03937,0.,-0.0625));
#1606=CARTESIAN_POINT('',(0.03937,0.,-0.0625));
#1607=CARTESIAN_POINT('',(0.03937,0.,0.0775));
#1608=CARTESIAN_POINT('',(0.03937,0.,-0.0775));
#1609=CARTESIAN_POINT('',(0.03937,0.059,-0.0775));
#1610=CARTESIAN_POINT('',(0.03937,0.059,-0.0775));
#1611=CARTESIAN_POINT('',(0.03937,0.059,0.0775));
#1612=CARTESIAN_POINT('',(-0.01,0.059,-0.04937));
#1613=CARTESIAN_POINT('',(-0.01,0.01,-0.04937));
#1614=CARTESIAN_POINT('',(-0.00999999999999999,0.01,-0.04937));
#1615=CARTESIAN_POINT('',(-0.01,0.01,-0.02937));
#1616=CARTESIAN_POINT('',(-0.01,0.059,-0.04937));
#1617=CARTESIAN_POINT('',(-0.01,0.059,-0.04937));
#1618=CARTESIAN_POINT('',(-0.01,0.059,-0.04937));
#1619=CARTESIAN_POINT('',(-0.01,0.059,-0.02937));
#1620=CARTESIAN_POINT('',(-0.01,0.059,-0.02937));
#1621=CARTESIAN_POINT('',(0.01,0.059,-0.04937));
#1622=CARTESIAN_POINT('',(0.01,0.01,-0.04937));
#1623=CARTESIAN_POINT('',(0.01,0.01,-0.04937));
#1624=CARTESIAN_POINT('',(0.01,0.059,-0.04937));
#1625=CARTESIAN_POINT('',(0.01,0.059,-0.04937));
#1626=CARTESIAN_POINT('',(0.01,0.059,-0.04937));
#1627=CARTESIAN_POINT('',(0.01,0.059,-0.02937));
#1628=CARTESIAN_POINT('',(0.01,0.01,-0.02937));
#1629=CARTESIAN_POINT('',(0.01,0.01,-0.02937));
#1630=CARTESIAN_POINT('',(0.01,0.059,-0.02937));
#1631=CARTESIAN_POINT('',(0.01,0.059,-0.02937));
#1632=CARTESIAN_POINT('',(0.01,0.059,-0.02937));
#1633=CARTESIAN_POINT('',(-0.01,0.059,0.02937));
#1634=CARTESIAN_POINT('',(-0.01,0.01,0.02937));
#1635=CARTESIAN_POINT('',(-0.00999999999999999,0.01,0.02937));
#1636=CARTESIAN_POINT('',(-0.01,0.01,0.04937));
#1637=CARTESIAN_POINT('',(-0.01,0.059,0.02937));
#1638=CARTESIAN_POINT('',(-0.01,0.059,0.02937));
#1639=CARTESIAN_POINT('',(-0.01,0.059,0.02937));
#1640=CARTESIAN_POINT('',(-0.01,0.059,0.04937));
#1641=CARTESIAN_POINT('',(-0.01,0.059,0.04937));
#1642=CARTESIAN_POINT('',(0.01,0.059,0.02937));
#1643=CARTESIAN_POINT('',(0.01,0.01,0.02937));
#1644=CARTESIAN_POINT('',(0.01,0.01,0.02937));
#1645=CARTESIAN_POINT('',(0.01,0.059,0.02937));
#1646=CARTESIAN_POINT('',(0.01,0.059,0.02937));
#1647=CARTESIAN_POINT('',(0.01,0.059,0.02937));
#1648=CARTESIAN_POINT('',(0.01,0.059,0.04937));
#1649=CARTESIAN_POINT('',(0.01,0.01,0.04937));
#1650=CARTESIAN_POINT('',(0.01,0.01,0.04937));
#1651=CARTESIAN_POINT('',(0.01,0.059,0.04937));
#1652=CARTESIAN_POINT('',(0.01,0.059,0.04937));
#1653=CARTESIAN_POINT('',(0.01,0.059,0.04937));
#1654=CARTESIAN_POINT('',(-0.01,0.059,-0.02937));
#1655=CARTESIAN_POINT('',(-0.01,0.01,-0.02937));
#1656=CARTESIAN_POINT('',(-0.01,0.059,-0.02937));
#1657=CARTESIAN_POINT('',(-0.01,0.059,0.04937));
#1658=CARTESIAN_POINT('',(-0.01,0.01,0.04937));
#1659=CARTESIAN_POINT('',(-0.01,0.059,0.04937));
#1660=CARTESIAN_POINT('',(0.03937,0.059,-0.0775));
#1661=CARTESIAN_POINT('',(0.03937,0.,-0.0775));
#1662=CARTESIAN_POINT('',(0.03937,0.059,-0.0775));
#1663=CARTESIAN_POINT('',(0.,0.059,0.));
#1664=CARTESIAN_POINT('',(0.,0.,0.));
#1665=CARTESIAN_POINT('',(-0.03937,0.,-0.0625));
#1666=CARTESIAN_POINT('',(-0.03937,0.01,-0.0625));
#1667=CARTESIAN_POINT('',(-0.03937,0.01,0.0625000000000001));
#1668=CARTESIAN_POINT('',(-0.03937,0.01,-0.0625));
#1669=CARTESIAN_POINT('',(-0.03937,0.01,0.0625000000000001));
#1670=CARTESIAN_POINT('',(-0.03937,0.,-0.0625));
#1671=CARTESIAN_POINT('',(0.,0.,0.));
#1672=MECHANICAL_DESIGN_GEOMETRIC_PRESENTATION_REPRESENTATION('',(#1044,
#1045),#1673);
#1673=(
GEOMETRIC_REPRESENTATION_CONTEXT(3)
GLOBAL_UNCERTAINTY_ASSIGNED_CONTEXT((#1676))
GLOBAL_UNIT_ASSIGNED_CONTEXT((#1681,#1680,#1679))
REPRESENTATION_CONTEXT('MTMM-101-05-T-D-225','TOP_LEVEL_ASSEMBLY_PART')
);
#1674=(
GEOMETRIC_REPRESENTATION_CONTEXT(3)
GLOBAL_UNCERTAINTY_ASSIGNED_CONTEXT((#1677))
GLOBAL_UNIT_ASSIGNED_CONTEXT((#1681,#1680,#1679))
REPRESENTATION_CONTEXT('MTMM-101-05-T-D-225_pins','COMPONENT_PART')
);
#1675=(
GEOMETRIC_REPRESENTATION_CONTEXT(3)
GLOBAL_UNCERTAINTY_ASSIGNED_CONTEXT((#1678))
GLOBAL_UNIT_ASSIGNED_CONTEXT((#1681,#1680,#1679))
REPRESENTATION_CONTEXT('MTMM-101-05-T-D-225_body','COMPONENT_PART')
);
#1676=UNCERTAINTY_MEASURE_WITH_UNIT(LENGTH_MEASURE(3.93700787401575E-7),
#1681,'DISTANCE_ACCURACY_VALUE','Maximum Tolerance applied to model');
#1677=UNCERTAINTY_MEASURE_WITH_UNIT(LENGTH_MEASURE(3.93700787401575E-7),
#1681,'DISTANCE_ACCURACY_VALUE','Maximum Tolerance applied to model');
#1678=UNCERTAINTY_MEASURE_WITH_UNIT(LENGTH_MEASURE(3.93700787401575E-7),
#1681,'DISTANCE_ACCURACY_VALUE','Maximum Tolerance applied to model');
#1679=(
NAMED_UNIT(*)
SI_UNIT($,.STERADIAN.)
SOLID_ANGLE_UNIT()
);
#1680=(
NAMED_UNIT(*)
PLANE_ANGLE_UNIT()
SI_UNIT($,.RADIAN.)
);
#1681=(
CONVERSION_BASED_UNIT('INCH',#1683)
LENGTH_UNIT()
NAMED_UNIT(#1682)
);
#1682=DIMENSIONAL_EXPONENTS(1.,0.,0.,0.,0.,0.,0.);
#1683=LENGTH_MEASURE_WITH_UNIT(LENGTH_MEASURE(25.4),#1684);
#1684=(
LENGTH_UNIT()
NAMED_UNIT(*)
SI_UNIT(.MILLI.,.METRE.)
);
#1685=PRODUCT_DEFINITION_SHAPE('','',#1690);
#1686=PRODUCT_DEFINITION_SHAPE('','',#1691);
#1687=PRODUCT_DEFINITION_SHAPE(' ','NAUO PRDDFN',#12);
#1688=PRODUCT_DEFINITION_SHAPE('','',#1692);
#1689=PRODUCT_DEFINITION_SHAPE(' ','NAUO PRDDFN',#13);
#1690=PRODUCT_DEFINITION('','',#1696,#1693);
#1691=PRODUCT_DEFINITION('','',#1697,#1694);
#1692=PRODUCT_DEFINITION('','',#1698,#1695);
#1693=PRODUCT_DEFINITION_CONTEXT('',#1712,'design');
#1694=PRODUCT_DEFINITION_CONTEXT('',#1712,'design');
#1695=PRODUCT_DEFINITION_CONTEXT('',#1712,'design');
#1696=PRODUCT_DEFINITION_FORMATION_WITH_SPECIFIED_SOURCE('','',#1702,
 .NOT_KNOWN.);
#1697=PRODUCT_DEFINITION_FORMATION_WITH_SPECIFIED_SOURCE('','',#1703,
 .NOT_KNOWN.);
#1698=PRODUCT_DEFINITION_FORMATION_WITH_SPECIFIED_SOURCE('','',#1704,
 .NOT_KNOWN.);
#1699=PRODUCT_RELATED_PRODUCT_CATEGORY('','',(#1702));
#1700=PRODUCT_RELATED_PRODUCT_CATEGORY('','',(#1703));
#1701=PRODUCT_RELATED_PRODUCT_CATEGORY('','',(#1704));
#1702=PRODUCT('MTMM-101-05-T-D-225','MTMM-101-05-T-D-225',
'MTMM-101-05-T-D-225',(#1708));
#1703=PRODUCT('MTMM-101-05-T-D-225_pins','MTMM-101-05-T-D-225_pins',
'MTMM-101-05-T-D-225_pins',(#1709));
#1704=PRODUCT('MTMM-101-05-T-D-225_body','MTMM-101-05-T-D-225_body',
'MTMM-101-05-T-D-225_body',(#1710));
#1705=PRODUCT_CATEGORY('','');
#1706=PRODUCT_CATEGORY('','');
#1707=PRODUCT_CATEGORY('','');
#1708=PRODUCT_CONTEXT('',#1712,'mechanical');
#1709=PRODUCT_CONTEXT('',#1712,'mechanical');
#1710=PRODUCT_CONTEXT('',#1712,'mechanical');
#1711=APPLICATION_PROTOCOL_DEFINITION('international standard',
'ap242_managed_model_based_3d_engineering',2011,#1712);
#1712=APPLICATION_CONTEXT('managed model based 3d engineering');
ENDSEC;
END-ISO-10303-21;
