ISO-10303-21;
HEADER;
/* Generated by software containing ST-Developer
 * from STEP Tools, Inc. (www.steptools.com) 
 */
/* OPTION: using custom renumber hook */

FILE_DESCRIPTION(
/* description */ ('STEP AP242',
'CAx-IF Rec.Pracs.---Representation and Presentation of Product Manufa
cturing Information (PMI)---4.0---2014-10-13',
'CAx-IF Rec.Pracs.---3D Tessellated Geometry---0.4---2014-09-14','2;1'),

/* implementation_level */ '2;1');

FILE_NAME(
/* name */ 'MTMM-102-05-T-S-255',
/* time_stamp */ '2026-07-02T16:46:06+02:00',
/* author */ ('License CC BY-ND 4.0'),
/* organization */ ('CADENAS'),
/* preprocessor_version */ 'ST-DEVELOPER v20',
/* originating_system */ 'PARTsolutions',
/* authorisation */ '  ');

FILE_SCHEMA (('AP242_MANAGED_MODEL_BASED_3D_ENGINEERING_MIM_LF { 1 0 10303 442 1 1 4 }'));
ENDSEC;

DATA;
#10=CONTEXT_DEPENDENT_SHAPE_REPRESENTATION(#14,#1707);
#11=CONTEXT_DEPENDENT_SHAPE_REPRESENTATION(#15,#1709);
#12=NEXT_ASSEMBLY_USAGE_OCCURRENCE('NAUO1','MTMM-102-05-T-S-255_pins',
'MTMM-102-05-T-S-255_pins',#1710,#1711,'');
#13=NEXT_ASSEMBLY_USAGE_OCCURRENCE('NAUO2','MTMM-102-05-T-S-255_body',
'MTMM-102-05-T-S-255_body',#1710,#1712,'');
#14=(
REPRESENTATION_RELATIONSHIP(' ',' ',#1078,#1077)
REPRESENTATION_RELATIONSHIP_WITH_TRANSFORMATION(#16)
SHAPE_REPRESENTATION_RELATIONSHIP()
);
#15=(
REPRESENTATION_RELATIONSHIP(' ',' ',#1079,#1077)
REPRESENTATION_RELATIONSHIP_WITH_TRANSFORMATION(#17)
SHAPE_REPRESENTATION_RELATIONSHIP()
);
#16=ITEM_DEFINED_TRANSFORMATION(' ',' ',#1080,#1121);
#17=ITEM_DEFINED_TRANSFORMATION(' ',' ',#1080,#1140);
#18=SHAPE_REPRESENTATION_RELATIONSHIP('','',#1078,#20);
#19=SHAPE_REPRESENTATION_RELATIONSHIP('','',#1079,#21);
#20=ADVANCED_BREP_SHAPE_REPRESENTATION('',(#1072),#1694);
#21=ADVANCED_BREP_SHAPE_REPRESENTATION('',(#1073),#1695);
#22=ORIENTED_EDGE('',*,*,#302,.F.);
#23=ORIENTED_EDGE('',*,*,#303,.T.);
#24=ORIENTED_EDGE('',*,*,#304,.T.);
#25=ORIENTED_EDGE('',*,*,#305,.T.);
#26=ORIENTED_EDGE('',*,*,#306,.F.);
#27=ORIENTED_EDGE('',*,*,#307,.T.);
#28=ORIENTED_EDGE('',*,*,#302,.T.);
#29=ORIENTED_EDGE('',*,*,#308,.T.);
#30=ORIENTED_EDGE('',*,*,#309,.F.);
#31=ORIENTED_EDGE('',*,*,#310,.F.);
#32=ORIENTED_EDGE('',*,*,#306,.T.);
#33=ORIENTED_EDGE('',*,*,#311,.T.);
#34=ORIENTED_EDGE('',*,*,#312,.F.);
#35=ORIENTED_EDGE('',*,*,#313,.T.);
#36=ORIENTED_EDGE('',*,*,#309,.T.);
#37=ORIENTED_EDGE('',*,*,#314,.T.);
#38=ORIENTED_EDGE('',*,*,#315,.F.);
#39=ORIENTED_EDGE('',*,*,#316,.T.);
#40=ORIENTED_EDGE('',*,*,#312,.T.);
#41=ORIENTED_EDGE('',*,*,#317,.T.);
#42=ORIENTED_EDGE('',*,*,#318,.F.);
#43=ORIENTED_EDGE('',*,*,#319,.T.);
#44=ORIENTED_EDGE('',*,*,#320,.T.);
#45=ORIENTED_EDGE('',*,*,#321,.T.);
#46=ORIENTED_EDGE('',*,*,#318,.T.);
#47=ORIENTED_EDGE('',*,*,#322,.T.);
#48=ORIENTED_EDGE('',*,*,#323,.F.);
#49=ORIENTED_EDGE('',*,*,#324,.T.);
#50=ORIENTED_EDGE('',*,*,#323,.T.);
#51=ORIENTED_EDGE('',*,*,#325,.F.);
#52=ORIENTED_EDGE('',*,*,#326,.F.);
#53=ORIENTED_EDGE('',*,*,#327,.T.);
#54=ORIENTED_EDGE('',*,*,#326,.T.);
#55=ORIENTED_EDGE('',*,*,#328,.T.);
#56=ORIENTED_EDGE('',*,*,#329,.F.);
#57=ORIENTED_EDGE('',*,*,#330,.T.);
#58=ORIENTED_EDGE('',*,*,#331,.F.);
#59=ORIENTED_EDGE('',*,*,#332,.T.);
#60=ORIENTED_EDGE('',*,*,#329,.T.);
#61=ORIENTED_EDGE('',*,*,#333,.T.);
#62=ORIENTED_EDGE('',*,*,#334,.T.);
#63=ORIENTED_EDGE('',*,*,#335,.F.);
#64=ORIENTED_EDGE('',*,*,#336,.F.);
#65=ORIENTED_EDGE('',*,*,#337,.T.);
#66=ORIENTED_EDGE('',*,*,#338,.F.);
#67=ORIENTED_EDGE('',*,*,#339,.T.);
#68=ORIENTED_EDGE('',*,*,#340,.T.);
#69=ORIENTED_EDGE('',*,*,#341,.T.);
#70=ORIENTED_EDGE('',*,*,#342,.F.);
#71=ORIENTED_EDGE('',*,*,#343,.T.);
#72=ORIENTED_EDGE('',*,*,#338,.T.);
#73=ORIENTED_EDGE('',*,*,#344,.T.);
#74=ORIENTED_EDGE('',*,*,#345,.F.);
#75=ORIENTED_EDGE('',*,*,#346,.F.);
#76=ORIENTED_EDGE('',*,*,#342,.T.);
#77=ORIENTED_EDGE('',*,*,#347,.T.);
#78=ORIENTED_EDGE('',*,*,#348,.F.);
#79=ORIENTED_EDGE('',*,*,#349,.T.);
#80=ORIENTED_EDGE('',*,*,#345,.T.);
#81=ORIENTED_EDGE('',*,*,#350,.T.);
#82=ORIENTED_EDGE('',*,*,#351,.F.);
#83=ORIENTED_EDGE('',*,*,#352,.T.);
#84=ORIENTED_EDGE('',*,*,#348,.T.);
#85=ORIENTED_EDGE('',*,*,#353,.T.);
#86=ORIENTED_EDGE('',*,*,#335,.T.);
#87=ORIENTED_EDGE('',*,*,#354,.T.);
#88=ORIENTED_EDGE('',*,*,#340,.F.);
#89=ORIENTED_EDGE('',*,*,#355,.T.);
#90=ORIENTED_EDGE('',*,*,#351,.T.);
#91=ORIENTED_EDGE('',*,*,#356,.T.);
#92=ORIENTED_EDGE('',*,*,#357,.F.);
#93=ORIENTED_EDGE('',*,*,#358,.F.);
#94=ORIENTED_EDGE('',*,*,#304,.F.);
#95=ORIENTED_EDGE('',*,*,#359,.T.);
#96=ORIENTED_EDGE('',*,*,#315,.T.);
#97=ORIENTED_EDGE('',*,*,#360,.F.);
#98=ORIENTED_EDGE('',*,*,#361,.T.);
#99=ORIENTED_EDGE('',*,*,#362,.F.);
#100=ORIENTED_EDGE('',*,*,#363,.F.);
#101=ORIENTED_EDGE('',*,*,#357,.T.);
#102=ORIENTED_EDGE('',*,*,#364,.T.);
#103=ORIENTED_EDGE('',*,*,#365,.T.);
#104=ORIENTED_EDGE('',*,*,#366,.F.);
#105=ORIENTED_EDGE('',*,*,#367,.T.);
#106=ORIENTED_EDGE('',*,*,#366,.T.);
#107=ORIENTED_EDGE('',*,*,#368,.T.);
#108=ORIENTED_EDGE('',*,*,#369,.F.);
#109=ORIENTED_EDGE('',*,*,#370,.T.);
#110=ORIENTED_EDGE('',*,*,#369,.T.);
#111=ORIENTED_EDGE('',*,*,#371,.F.);
#112=ORIENTED_EDGE('',*,*,#372,.F.);
#113=ORIENTED_EDGE('',*,*,#373,.T.);
#114=ORIENTED_EDGE('',*,*,#372,.T.);
#115=ORIENTED_EDGE('',*,*,#374,.T.);
#116=ORIENTED_EDGE('',*,*,#375,.F.);
#117=ORIENTED_EDGE('',*,*,#376,.T.);
#118=ORIENTED_EDGE('',*,*,#375,.T.);
#119=ORIENTED_EDGE('',*,*,#377,.T.);
#120=ORIENTED_EDGE('',*,*,#378,.F.);
#121=ORIENTED_EDGE('',*,*,#379,.T.);
#122=ORIENTED_EDGE('',*,*,#380,.T.);
#123=ORIENTED_EDGE('',*,*,#364,.F.);
#124=ORIENTED_EDGE('',*,*,#381,.F.);
#125=ORIENTED_EDGE('',*,*,#378,.T.);
#126=ORIENTED_EDGE('',*,*,#362,.T.);
#127=ORIENTED_EDGE('',*,*,#382,.T.);
#128=ORIENTED_EDGE('',*,*,#320,.F.);
#129=ORIENTED_EDGE('',*,*,#383,.F.);
#130=ORIENTED_EDGE('',*,*,#331,.T.);
#131=ORIENTED_EDGE('',*,*,#384,.T.);
#132=ORIENTED_EDGE('',*,*,#337,.F.);
#133=ORIENTED_EDGE('',*,*,#385,.F.);
#134=ORIENTED_EDGE('',*,*,#385,.T.);
#135=ORIENTED_EDGE('',*,*,#336,.T.);
#136=ORIENTED_EDGE('',*,*,#358,.T.);
#137=ORIENTED_EDGE('',*,*,#363,.T.);
#138=ORIENTED_EDGE('',*,*,#384,.F.);
#139=ORIENTED_EDGE('',*,*,#333,.F.);
#140=ORIENTED_EDGE('',*,*,#386,.T.);
#141=ORIENTED_EDGE('',*,*,#321,.F.);
#142=ORIENTED_EDGE('',*,*,#382,.F.);
#143=ORIENTED_EDGE('',*,*,#361,.F.);
#144=ORIENTED_EDGE('',*,*,#356,.F.);
#145=ORIENTED_EDGE('',*,*,#353,.F.);
#146=ORIENTED_EDGE('',*,*,#387,.T.);
#147=ORIENTED_EDGE('',*,*,#341,.F.);
#148=ORIENTED_EDGE('',*,*,#354,.F.);
#149=ORIENTED_EDGE('',*,*,#334,.F.);
#150=ORIENTED_EDGE('',*,*,#387,.F.);
#151=ORIENTED_EDGE('',*,*,#350,.F.);
#152=ORIENTED_EDGE('',*,*,#347,.F.);
#153=ORIENTED_EDGE('',*,*,#344,.F.);
#154=ORIENTED_EDGE('',*,*,#386,.F.);
#155=ORIENTED_EDGE('',*,*,#328,.F.);
#156=ORIENTED_EDGE('',*,*,#325,.T.);
#157=ORIENTED_EDGE('',*,*,#322,.F.);
#158=ORIENTED_EDGE('',*,*,#388,.T.);
#159=ORIENTED_EDGE('',*,*,#316,.F.);
#160=ORIENTED_EDGE('',*,*,#359,.F.);
#161=ORIENTED_EDGE('',*,*,#303,.F.);
#162=ORIENTED_EDGE('',*,*,#310,.T.);
#163=ORIENTED_EDGE('',*,*,#313,.F.);
#164=ORIENTED_EDGE('',*,*,#388,.F.);
#165=ORIENTED_EDGE('',*,*,#307,.F.);
#166=ORIENTED_EDGE('',*,*,#389,.F.);
#167=ORIENTED_EDGE('',*,*,#379,.F.);
#168=ORIENTED_EDGE('',*,*,#381,.T.);
#169=ORIENTED_EDGE('',*,*,#367,.F.);
#170=ORIENTED_EDGE('',*,*,#373,.F.);
#171=ORIENTED_EDGE('',*,*,#376,.F.);
#172=ORIENTED_EDGE('',*,*,#389,.T.);
#173=ORIENTED_EDGE('',*,*,#370,.F.);
#174=ORIENTED_EDGE('',*,*,#380,.F.);
#175=ORIENTED_EDGE('',*,*,#377,.F.);
#176=ORIENTED_EDGE('',*,*,#390,.T.);
#177=ORIENTED_EDGE('',*,*,#365,.F.);
#178=ORIENTED_EDGE('',*,*,#391,.F.);
#179=ORIENTED_EDGE('',*,*,#332,.F.);
#180=ORIENTED_EDGE('',*,*,#383,.T.);
#181=ORIENTED_EDGE('',*,*,#319,.F.);
#182=ORIENTED_EDGE('',*,*,#390,.F.);
#183=ORIENTED_EDGE('',*,*,#374,.F.);
#184=ORIENTED_EDGE('',*,*,#371,.T.);
#185=ORIENTED_EDGE('',*,*,#368,.F.);
#186=ORIENTED_EDGE('',*,*,#327,.F.);
#187=ORIENTED_EDGE('',*,*,#330,.F.);
#188=ORIENTED_EDGE('',*,*,#391,.T.);
#189=ORIENTED_EDGE('',*,*,#324,.F.);
#190=ORIENTED_EDGE('',*,*,#392,.T.);
#191=ORIENTED_EDGE('',*,*,#314,.F.);
#192=ORIENTED_EDGE('',*,*,#311,.F.);
#193=ORIENTED_EDGE('',*,*,#308,.F.);
#194=ORIENTED_EDGE('',*,*,#346,.T.);
#195=ORIENTED_EDGE('',*,*,#349,.F.);
#196=ORIENTED_EDGE('',*,*,#393,.F.);
#197=ORIENTED_EDGE('',*,*,#343,.F.);
#198=ORIENTED_EDGE('',*,*,#360,.T.);
#199=ORIENTED_EDGE('',*,*,#317,.F.);
#200=ORIENTED_EDGE('',*,*,#392,.F.);
#201=ORIENTED_EDGE('',*,*,#305,.F.);
#202=ORIENTED_EDGE('',*,*,#393,.T.);
#203=ORIENTED_EDGE('',*,*,#352,.F.);
#204=ORIENTED_EDGE('',*,*,#355,.F.);
#205=ORIENTED_EDGE('',*,*,#339,.F.);
#206=ORIENTED_EDGE('',*,*,#394,.F.);
#207=ORIENTED_EDGE('',*,*,#395,.T.);
#208=ORIENTED_EDGE('',*,*,#396,.F.);
#209=ORIENTED_EDGE('',*,*,#397,.F.);
#210=ORIENTED_EDGE('',*,*,#398,.T.);
#211=ORIENTED_EDGE('',*,*,#399,.T.);
#212=ORIENTED_EDGE('',*,*,#394,.T.);
#213=ORIENTED_EDGE('',*,*,#400,.F.);
#214=ORIENTED_EDGE('',*,*,#401,.F.);
#215=ORIENTED_EDGE('',*,*,#402,.T.);
#216=ORIENTED_EDGE('',*,*,#403,.T.);
#217=ORIENTED_EDGE('',*,*,#404,.T.);
#218=ORIENTED_EDGE('',*,*,#397,.T.);
#219=ORIENTED_EDGE('',*,*,#405,.F.);
#220=ORIENTED_EDGE('',*,*,#406,.F.);
#221=ORIENTED_EDGE('',*,*,#400,.T.);
#222=ORIENTED_EDGE('',*,*,#396,.T.);
#223=ORIENTED_EDGE('',*,*,#407,.F.);
#224=ORIENTED_EDGE('',*,*,#408,.F.);
#225=ORIENTED_EDGE('',*,*,#409,.F.);
#226=ORIENTED_EDGE('',*,*,#410,.T.);
#227=ORIENTED_EDGE('',*,*,#411,.F.);
#228=ORIENTED_EDGE('',*,*,#412,.F.);
#229=ORIENTED_EDGE('',*,*,#405,.T.);
#230=ORIENTED_EDGE('',*,*,#413,.F.);
#231=ORIENTED_EDGE('',*,*,#414,.F.);
#232=ORIENTED_EDGE('',*,*,#415,.T.);
#233=ORIENTED_EDGE('',*,*,#416,.T.);
#234=ORIENTED_EDGE('',*,*,#417,.F.);
#235=ORIENTED_EDGE('',*,*,#418,.F.);
#236=ORIENTED_EDGE('',*,*,#419,.T.);
#237=ORIENTED_EDGE('',*,*,#414,.T.);
#238=ORIENTED_EDGE('',*,*,#420,.F.);
#239=ORIENTED_EDGE('',*,*,#421,.F.);
#240=ORIENTED_EDGE('',*,*,#422,.T.);
#241=ORIENTED_EDGE('',*,*,#418,.T.);
#242=ORIENTED_EDGE('',*,*,#423,.F.);
#243=ORIENTED_EDGE('',*,*,#424,.F.);
#244=ORIENTED_EDGE('',*,*,#425,.T.);
#245=ORIENTED_EDGE('',*,*,#426,.T.);
#246=ORIENTED_EDGE('',*,*,#427,.F.);
#247=ORIENTED_EDGE('',*,*,#428,.F.);
#248=ORIENTED_EDGE('',*,*,#429,.T.);
#249=ORIENTED_EDGE('',*,*,#424,.T.);
#250=ORIENTED_EDGE('',*,*,#430,.F.);
#251=ORIENTED_EDGE('',*,*,#431,.F.);
#252=ORIENTED_EDGE('',*,*,#432,.T.);
#253=ORIENTED_EDGE('',*,*,#428,.T.);
#254=ORIENTED_EDGE('',*,*,#433,.F.);
#255=ORIENTED_EDGE('',*,*,#416,.F.);
#256=ORIENTED_EDGE('',*,*,#434,.T.);
#257=ORIENTED_EDGE('',*,*,#421,.T.);
#258=ORIENTED_EDGE('',*,*,#435,.F.);
#259=ORIENTED_EDGE('',*,*,#426,.F.);
#260=ORIENTED_EDGE('',*,*,#436,.T.);
#261=ORIENTED_EDGE('',*,*,#431,.T.);
#262=ORIENTED_EDGE('',*,*,#437,.T.);
#263=ORIENTED_EDGE('',*,*,#402,.F.);
#264=ORIENTED_EDGE('',*,*,#438,.F.);
#265=ORIENTED_EDGE('',*,*,#411,.T.);
#266=ORIENTED_EDGE('',*,*,#425,.F.);
#267=ORIENTED_EDGE('',*,*,#429,.F.);
#268=ORIENTED_EDGE('',*,*,#432,.F.);
#269=ORIENTED_EDGE('',*,*,#436,.F.);
#270=ORIENTED_EDGE('',*,*,#415,.F.);
#271=ORIENTED_EDGE('',*,*,#419,.F.);
#272=ORIENTED_EDGE('',*,*,#422,.F.);
#273=ORIENTED_EDGE('',*,*,#434,.F.);
#274=ORIENTED_EDGE('',*,*,#401,.T.);
#275=ORIENTED_EDGE('',*,*,#406,.T.);
#276=ORIENTED_EDGE('',*,*,#412,.T.);
#277=ORIENTED_EDGE('',*,*,#438,.T.);
#278=ORIENTED_EDGE('',*,*,#410,.F.);
#279=ORIENTED_EDGE('',*,*,#439,.F.);
#280=ORIENTED_EDGE('',*,*,#403,.F.);
#281=ORIENTED_EDGE('',*,*,#437,.F.);
#282=ORIENTED_EDGE('',*,*,#407,.T.);
#283=ORIENTED_EDGE('',*,*,#395,.F.);
#284=ORIENTED_EDGE('',*,*,#399,.F.);
#285=ORIENTED_EDGE('',*,*,#440,.T.);
#286=ORIENTED_EDGE('',*,*,#409,.T.);
#287=ORIENTED_EDGE('',*,*,#441,.F.);
#288=ORIENTED_EDGE('',*,*,#404,.F.);
#289=ORIENTED_EDGE('',*,*,#439,.T.);
#290=ORIENTED_EDGE('',*,*,#413,.T.);
#291=ORIENTED_EDGE('',*,*,#433,.T.);
#292=ORIENTED_EDGE('',*,*,#420,.T.);
#293=ORIENTED_EDGE('',*,*,#417,.T.);
#294=ORIENTED_EDGE('',*,*,#423,.T.);
#295=ORIENTED_EDGE('',*,*,#435,.T.);
#296=ORIENTED_EDGE('',*,*,#430,.T.);
#297=ORIENTED_EDGE('',*,*,#427,.T.);
#298=ORIENTED_EDGE('',*,*,#408,.T.);
#299=ORIENTED_EDGE('',*,*,#440,.F.);
#300=ORIENTED_EDGE('',*,*,#398,.F.);
#301=ORIENTED_EDGE('',*,*,#441,.T.);
#302=EDGE_CURVE('',#442,#443,#530,.T.);
#303=EDGE_CURVE('',#442,#444,#531,.T.);
#304=EDGE_CURVE('',#444,#445,#532,.T.);
#305=EDGE_CURVE('',#445,#443,#533,.T.);
#306=EDGE_CURVE('',#446,#447,#534,.T.);
#307=EDGE_CURVE('',#446,#442,#535,.T.);
#308=EDGE_CURVE('',#443,#447,#536,.T.);
#309=EDGE_CURVE('',#448,#449,#537,.T.);
#310=EDGE_CURVE('',#446,#448,#538,.T.);
#311=EDGE_CURVE('',#447,#449,#539,.T.);
#312=EDGE_CURVE('',#450,#451,#540,.T.);
#313=EDGE_CURVE('',#450,#448,#541,.T.);
#314=EDGE_CURVE('',#449,#451,#542,.T.);
#315=EDGE_CURVE('',#452,#453,#543,.T.);
#316=EDGE_CURVE('',#452,#450,#544,.T.);
#317=EDGE_CURVE('',#451,#453,#545,.T.);
#318=EDGE_CURVE('',#454,#455,#546,.T.);
#319=EDGE_CURVE('',#454,#456,#547,.T.);
#320=EDGE_CURVE('',#456,#457,#548,.T.);
#321=EDGE_CURVE('',#457,#455,#549,.T.);
#322=EDGE_CURVE('',#455,#458,#550,.T.);
#323=EDGE_CURVE('',#459,#458,#551,.T.);
#324=EDGE_CURVE('',#459,#454,#552,.T.);
#325=EDGE_CURVE('',#460,#458,#553,.T.);
#326=EDGE_CURVE('',#461,#460,#554,.T.);
#327=EDGE_CURVE('',#461,#459,#555,.T.);
#328=EDGE_CURVE('',#460,#462,#556,.T.);
#329=EDGE_CURVE('',#463,#462,#557,.T.);
#330=EDGE_CURVE('',#463,#461,#558,.T.);
#331=EDGE_CURVE('',#464,#465,#559,.T.);
#332=EDGE_CURVE('',#464,#463,#560,.T.);
#333=EDGE_CURVE('',#462,#465,#561,.T.);
#334=EDGE_CURVE('',#466,#467,#562,.T.);
#335=EDGE_CURVE('',#468,#467,#563,.T.);
#336=EDGE_CURVE('',#469,#468,#564,.T.);
#337=EDGE_CURVE('',#469,#466,#565,.T.);
#338=EDGE_CURVE('',#470,#471,#566,.T.);
#339=EDGE_CURVE('',#470,#472,#567,.T.);
#340=EDGE_CURVE('',#472,#473,#568,.T.);
#341=EDGE_CURVE('',#473,#471,#569,.T.);
#342=EDGE_CURVE('',#474,#475,#570,.T.);
#343=EDGE_CURVE('',#474,#470,#571,.T.);
#344=EDGE_CURVE('',#471,#475,#572,.T.);
#345=EDGE_CURVE('',#476,#477,#573,.T.);
#346=EDGE_CURVE('',#474,#476,#574,.T.);
#347=EDGE_CURVE('',#475,#477,#575,.T.);
#348=EDGE_CURVE('',#478,#479,#576,.T.);
#349=EDGE_CURVE('',#478,#476,#577,.T.);
#350=EDGE_CURVE('',#477,#479,#578,.T.);
#351=EDGE_CURVE('',#480,#481,#579,.T.);
#352=EDGE_CURVE('',#480,#478,#580,.T.);
#353=EDGE_CURVE('',#479,#481,#581,.T.);
#354=EDGE_CURVE('',#467,#473,#582,.T.);
#355=EDGE_CURVE('',#472,#480,#583,.T.);
#356=EDGE_CURVE('',#481,#482,#584,.T.);
#357=EDGE_CURVE('',#483,#482,#585,.T.);
#358=EDGE_CURVE('',#468,#483,#586,.T.);
#359=EDGE_CURVE('',#444,#452,#587,.T.);
#360=EDGE_CURVE('',#445,#453,#588,.T.);
#361=EDGE_CURVE('',#482,#484,#589,.T.);
#362=EDGE_CURVE('',#485,#484,#590,.T.);
#363=EDGE_CURVE('',#483,#485,#591,.T.);
#364=EDGE_CURVE('',#486,#487,#592,.T.);
#365=EDGE_CURVE('',#487,#488,#593,.T.);
#366=EDGE_CURVE('',#489,#488,#594,.T.);
#367=EDGE_CURVE('',#489,#486,#595,.T.);
#368=EDGE_CURVE('',#488,#490,#596,.T.);
#369=EDGE_CURVE('',#491,#490,#597,.T.);
#370=EDGE_CURVE('',#491,#489,#598,.T.);
#371=EDGE_CURVE('',#492,#490,#599,.T.);
#372=EDGE_CURVE('',#493,#492,#600,.T.);
#373=EDGE_CURVE('',#493,#491,#601,.T.);
#374=EDGE_CURVE('',#492,#494,#602,.T.);
#375=EDGE_CURVE('',#495,#494,#603,.T.);
#376=EDGE_CURVE('',#495,#493,#604,.T.);
#377=EDGE_CURVE('',#494,#496,#605,.T.);
#378=EDGE_CURVE('',#497,#496,#606,.T.);
#379=EDGE_CURVE('',#497,#495,#607,.T.);
#380=EDGE_CURVE('',#496,#487,#608,.T.);
#381=EDGE_CURVE('',#497,#486,#609,.T.);
#382=EDGE_CURVE('',#484,#457,#610,.T.);
#383=EDGE_CURVE('',#464,#456,#611,.T.);
#384=EDGE_CURVE('',#465,#466,#612,.T.);
#385=EDGE_CURVE('',#485,#469,#613,.T.);
#386=EDGE_CURVE('',#462,#455,#614,.T.);
#387=EDGE_CURVE('',#479,#471,#615,.T.);
#388=EDGE_CURVE('',#442,#450,#616,.T.);
#389=EDGE_CURVE('',#495,#489,#617,.T.);
#390=EDGE_CURVE('',#494,#488,#618,.T.);
#391=EDGE_CURVE('',#463,#454,#619,.T.);
#392=EDGE_CURVE('',#443,#451,#620,.T.);
#393=EDGE_CURVE('',#470,#478,#621,.T.);
#394=EDGE_CURVE('',#498,#499,#622,.T.);
#395=EDGE_CURVE('',#498,#500,#623,.T.);
#396=EDGE_CURVE('',#501,#500,#624,.T.);
#397=EDGE_CURVE('',#499,#501,#625,.T.);
#398=EDGE_CURVE('',#502,#503,#626,.T.);
#399=EDGE_CURVE('',#503,#498,#627,.T.);
#400=EDGE_CURVE('',#504,#499,#628,.T.);
#401=EDGE_CURVE('',#505,#504,#629,.T.);
#402=EDGE_CURVE('',#505,#506,#630,.T.);
#403=EDGE_CURVE('',#506,#507,#631,.T.);
#404=EDGE_CURVE('',#507,#502,#632,.T.);
#405=EDGE_CURVE('',#508,#501,#633,.T.);
#406=EDGE_CURVE('',#504,#508,#634,.T.);
#407=EDGE_CURVE('',#509,#500,#635,.T.);
#408=EDGE_CURVE('',#510,#509,#636,.T.);
#409=EDGE_CURVE('',#511,#510,#637,.T.);
#410=EDGE_CURVE('',#511,#512,#638,.T.);
#411=EDGE_CURVE('',#513,#512,#639,.T.);
#412=EDGE_CURVE('',#508,#513,#640,.T.);
#413=EDGE_CURVE('',#514,#515,#641,.T.);
#414=EDGE_CURVE('',#516,#514,#642,.T.);
#415=EDGE_CURVE('',#516,#517,#643,.T.);
#416=EDGE_CURVE('',#517,#515,#644,.T.);
#417=EDGE_CURVE('',#518,#514,#645,.T.);
#418=EDGE_CURVE('',#519,#518,#646,.T.);
#419=EDGE_CURVE('',#519,#516,#647,.T.);
#420=EDGE_CURVE('',#520,#518,#648,.T.);
#421=EDGE_CURVE('',#521,#520,#649,.T.);
#422=EDGE_CURVE('',#521,#519,#650,.T.);
#423=EDGE_CURVE('',#522,#523,#651,.T.);
#424=EDGE_CURVE('',#524,#522,#652,.T.);
#425=EDGE_CURVE('',#524,#525,#653,.T.);
#426=EDGE_CURVE('',#525,#523,#654,.T.);
#427=EDGE_CURVE('',#526,#522,#655,.T.);
#428=EDGE_CURVE('',#527,#526,#656,.T.);
#429=EDGE_CURVE('',#527,#524,#657,.T.);
#430=EDGE_CURVE('',#528,#526,#658,.T.);
#431=EDGE_CURVE('',#529,#528,#659,.T.);
#432=EDGE_CURVE('',#529,#527,#660,.T.);
#433=EDGE_CURVE('',#515,#520,#661,.T.);
#434=EDGE_CURVE('',#517,#521,#662,.T.);
#435=EDGE_CURVE('',#523,#528,#663,.T.);
#436=EDGE_CURVE('',#525,#529,#664,.T.);
#437=EDGE_CURVE('',#512,#506,#665,.T.);
#438=EDGE_CURVE('',#513,#505,#666,.T.);
#439=EDGE_CURVE('',#507,#511,#667,.T.);
#440=EDGE_CURVE('',#503,#509,#668,.T.);
#441=EDGE_CURVE('',#502,#510,#669,.T.);
#442=VERTEX_POINT('',#1406);
#443=VERTEX_POINT('',#1407);
#444=VERTEX_POINT('',#1409);
#445=VERTEX_POINT('',#1411);
#446=VERTEX_POINT('',#1415);
#447=VERTEX_POINT('',#1416);
#448=VERTEX_POINT('',#1421);
#449=VERTEX_POINT('',#1422);
#450=VERTEX_POINT('',#1427);
#451=VERTEX_POINT('',#1428);
#452=VERTEX_POINT('',#1433);
#453=VERTEX_POINT('',#1434);
#454=VERTEX_POINT('',#1439);
#455=VERTEX_POINT('',#1440);
#456=VERTEX_POINT('',#1442);
#457=VERTEX_POINT('',#1444);
#458=VERTEX_POINT('',#1448);
#459=VERTEX_POINT('',#1450);
#460=VERTEX_POINT('',#1454);
#461=VERTEX_POINT('',#1456);
#462=VERTEX_POINT('',#1460);
#463=VERTEX_POINT('',#1462);
#464=VERTEX_POINT('',#1466);
#465=VERTEX_POINT('',#1467);
#466=VERTEX_POINT('',#1472);
#467=VERTEX_POINT('',#1473);
#468=VERTEX_POINT('',#1475);
#469=VERTEX_POINT('',#1477);
#470=VERTEX_POINT('',#1481);
#471=VERTEX_POINT('',#1482);
#472=VERTEX_POINT('',#1484);
#473=VERTEX_POINT('',#1486);
#474=VERTEX_POINT('',#1490);
#475=VERTEX_POINT('',#1491);
#476=VERTEX_POINT('',#1496);
#477=VERTEX_POINT('',#1497);
#478=VERTEX_POINT('',#1502);
#479=VERTEX_POINT('',#1503);
#480=VERTEX_POINT('',#1508);
#481=VERTEX_POINT('',#1509);
#482=VERTEX_POINT('',#1516);
#483=VERTEX_POINT('',#1518);
#484=VERTEX_POINT('',#1524);
#485=VERTEX_POINT('',#1526);
#486=VERTEX_POINT('',#1530);
#487=VERTEX_POINT('',#1531);
#488=VERTEX_POINT('',#1533);
#489=VERTEX_POINT('',#1535);
#490=VERTEX_POINT('',#1539);
#491=VERTEX_POINT('',#1541);
#492=VERTEX_POINT('',#1545);
#493=VERTEX_POINT('',#1547);
#494=VERTEX_POINT('',#1551);
#495=VERTEX_POINT('',#1553);
#496=VERTEX_POINT('',#1557);
#497=VERTEX_POINT('',#1559);
#498=VERTEX_POINT('',#1595);
#499=VERTEX_POINT('',#1596);
#500=VERTEX_POINT('',#1598);
#501=VERTEX_POINT('',#1600);
#502=VERTEX_POINT('',#1604);
#503=VERTEX_POINT('',#1605);
#504=VERTEX_POINT('',#1608);
#505=VERTEX_POINT('',#1610);
#506=VERTEX_POINT('',#1612);
#507=VERTEX_POINT('',#1614);
#508=VERTEX_POINT('',#1618);
#509=VERTEX_POINT('',#1622);
#510=VERTEX_POINT('',#1624);
#511=VERTEX_POINT('',#1626);
#512=VERTEX_POINT('',#1628);
#513=VERTEX_POINT('',#1630);
#514=VERTEX_POINT('',#1634);
#515=VERTEX_POINT('',#1635);
#516=VERTEX_POINT('',#1637);
#517=VERTEX_POINT('',#1639);
#518=VERTEX_POINT('',#1643);
#519=VERTEX_POINT('',#1645);
#520=VERTEX_POINT('',#1649);
#521=VERTEX_POINT('',#1651);
#522=VERTEX_POINT('',#1655);
#523=VERTEX_POINT('',#1656);
#524=VERTEX_POINT('',#1658);
#525=VERTEX_POINT('',#1660);
#526=VERTEX_POINT('',#1664);
#527=VERTEX_POINT('',#1666);
#528=VERTEX_POINT('',#1670);
#529=VERTEX_POINT('',#1672);
#530=LINE('',#1405,#670);
#531=LINE('',#1408,#671);
#532=LINE('',#1410,#672);
#533=LINE('',#1412,#673);
#534=LINE('',#1414,#674);
#535=LINE('',#1417,#675);
#536=LINE('',#1418,#676);
#537=LINE('',#1420,#677);
#538=LINE('',#1423,#678);
#539=LINE('',#1424,#679);
#540=LINE('',#1426,#680);
#541=LINE('',#1429,#681);
#542=LINE('',#1430,#682);
#543=LINE('',#1432,#683);
#544=LINE('',#1435,#684);
#545=LINE('',#1436,#685);
#546=LINE('',#1438,#686);
#547=LINE('',#1441,#687);
#548=LINE('',#1443,#688);
#549=LINE('',#1445,#689);
#550=LINE('',#1447,#690);
#551=LINE('',#1449,#691);
#552=LINE('',#1451,#692);
#553=LINE('',#1453,#693);
#554=LINE('',#1455,#694);
#555=LINE('',#1457,#695);
#556=LINE('',#1459,#696);
#557=LINE('',#1461,#697);
#558=LINE('',#1463,#698);
#559=LINE('',#1465,#699);
#560=LINE('',#1468,#700);
#561=LINE('',#1469,#701);
#562=LINE('',#1471,#702);
#563=LINE('',#1474,#703);
#564=LINE('',#1476,#704);
#565=LINE('',#1478,#705);
#566=LINE('',#1480,#706);
#567=LINE('',#1483,#707);
#568=LINE('',#1485,#708);
#569=LINE('',#1487,#709);
#570=LINE('',#1489,#710);
#571=LINE('',#1492,#711);
#572=LINE('',#1493,#712);
#573=LINE('',#1495,#713);
#574=LINE('',#1498,#714);
#575=LINE('',#1499,#715);
#576=LINE('',#1501,#716);
#577=LINE('',#1504,#717);
#578=LINE('',#1505,#718);
#579=LINE('',#1507,#719);
#580=LINE('',#1510,#720);
#581=LINE('',#1511,#721);
#582=LINE('',#1513,#722);
#583=LINE('',#1514,#723);
#584=LINE('',#1515,#724);
#585=LINE('',#1517,#725);
#586=LINE('',#1519,#726);
#587=LINE('',#1520,#727);
#588=LINE('',#1521,#728);
#589=LINE('',#1523,#729);
#590=LINE('',#1525,#730);
#591=LINE('',#1527,#731);
#592=LINE('',#1529,#732);
#593=LINE('',#1532,#733);
#594=LINE('',#1534,#734);
#595=LINE('',#1536,#735);
#596=LINE('',#1538,#736);
#597=LINE('',#1540,#737);
#598=LINE('',#1542,#738);
#599=LINE('',#1544,#739);
#600=LINE('',#1546,#740);
#601=LINE('',#1548,#741);
#602=LINE('',#1550,#742);
#603=LINE('',#1552,#743);
#604=LINE('',#1554,#744);
#605=LINE('',#1556,#745);
#606=LINE('',#1558,#746);
#607=LINE('',#1560,#747);
#608=LINE('',#1562,#748);
#609=LINE('',#1563,#749);
#610=LINE('',#1564,#750);
#611=LINE('',#1565,#751);
#612=LINE('',#1566,#752);
#613=LINE('',#1567,#753);
#614=LINE('',#1570,#754);
#615=LINE('',#1571,#755);
#616=LINE('',#1575,#756);
#617=LINE('',#1578,#757);
#618=LINE('',#1581,#758);
#619=LINE('',#1583,#759);
#620=LINE('',#1587,#760);
#621=LINE('',#1589,#761);
#622=LINE('',#1594,#762);
#623=LINE('',#1597,#763);
#624=LINE('',#1599,#764);
#625=LINE('',#1601,#765);
#626=LINE('',#1603,#766);
#627=LINE('',#1606,#767);
#628=LINE('',#1607,#768);
#629=LINE('',#1609,#769);
#630=LINE('',#1611,#770);
#631=LINE('',#1613,#771);
#632=LINE('',#1615,#772);
#633=LINE('',#1617,#773);
#634=LINE('',#1619,#774);
#635=LINE('',#1621,#775);
#636=LINE('',#1623,#776);
#637=LINE('',#1625,#777);
#638=LINE('',#1627,#778);
#639=LINE('',#1629,#779);
#640=LINE('',#1631,#780);
#641=LINE('',#1633,#781);
#642=LINE('',#1636,#782);
#643=LINE('',#1638,#783);
#644=LINE('',#1640,#784);
#645=LINE('',#1642,#785);
#646=LINE('',#1644,#786);
#647=LINE('',#1646,#787);
#648=LINE('',#1648,#788);
#649=LINE('',#1650,#789);
#650=LINE('',#1652,#790);
#651=LINE('',#1654,#791);
#652=LINE('',#1657,#792);
#653=LINE('',#1659,#793);
#654=LINE('',#1661,#794);
#655=LINE('',#1663,#795);
#656=LINE('',#1665,#796);
#657=LINE('',#1667,#797);
#658=LINE('',#1669,#798);
#659=LINE('',#1671,#799);
#660=LINE('',#1673,#800);
#661=LINE('',#1675,#801);
#662=LINE('',#1676,#802);
#663=LINE('',#1678,#803);
#664=LINE('',#1679,#804);
#665=LINE('',#1681,#805);
#666=LINE('',#1682,#806);
#667=LINE('',#1685,#807);
#668=LINE('',#1687,#808);
#669=LINE('',#1689,#809);
#670=VECTOR('',#1145,39.3700787401575);
#671=VECTOR('',#1146,39.3700787401575);
#672=VECTOR('',#1147,39.3700787401575);
#673=VECTOR('',#1148,39.3700787401575);
#674=VECTOR('',#1151,39.3700787401575);
#675=VECTOR('',#1152,39.3700787401575);
#676=VECTOR('',#1153,39.3700787401575);
#677=VECTOR('',#1156,39.3700787401575);
#678=VECTOR('',#1157,39.3700787401575);
#679=VECTOR('',#1158,39.3700787401575);
#680=VECTOR('',#1161,39.3700787401575);
#681=VECTOR('',#1162,39.3700787401575);
#682=VECTOR('',#1163,39.3700787401575);
#683=VECTOR('',#1166,39.3700787401575);
#684=VECTOR('',#1167,39.3700787401575);
#685=VECTOR('',#1168,39.3700787401575);
#686=VECTOR('',#1171,39.3700787401575);
#687=VECTOR('',#1172,39.3700787401575);
#688=VECTOR('',#1173,39.3700787401575);
#689=VECTOR('',#1174,39.3700787401575);
#690=VECTOR('',#1177,39.3700787401575);
#691=VECTOR('',#1178,39.3700787401575);
#692=VECTOR('',#1179,39.3700787401575);
#693=VECTOR('',#1182,39.3700787401575);
#694=VECTOR('',#1183,39.3700787401575);
#695=VECTOR('',#1184,39.3700787401575);
#696=VECTOR('',#1187,39.3700787401575);
#697=VECTOR('',#1188,39.3700787401575);
#698=VECTOR('',#1189,39.3700787401575);
#699=VECTOR('',#1192,39.3700787401575);
#700=VECTOR('',#1193,39.3700787401575);
#701=VECTOR('',#1194,39.3700787401575);
#702=VECTOR('',#1197,39.3700787401575);
#703=VECTOR('',#1198,39.3700787401575);
#704=VECTOR('',#1199,39.3700787401575);
#705=VECTOR('',#1200,39.3700787401575);
#706=VECTOR('',#1203,39.3700787401575);
#707=VECTOR('',#1204,39.3700787401575);
#708=VECTOR('',#1205,39.3700787401575);
#709=VECTOR('',#1206,39.3700787401575);
#710=VECTOR('',#1209,39.3700787401575);
#711=VECTOR('',#1210,39.3700787401575);
#712=VECTOR('',#1211,39.3700787401575);
#713=VECTOR('',#1214,39.3700787401575);
#714=VECTOR('',#1215,39.3700787401575);
#715=VECTOR('',#1216,39.3700787401575);
#716=VECTOR('',#1219,39.3700787401575);
#717=VECTOR('',#1220,39.3700787401575);
#718=VECTOR('',#1221,39.3700787401575);
#719=VECTOR('',#1224,39.3700787401575);
#720=VECTOR('',#1225,39.3700787401575);
#721=VECTOR('',#1226,39.3700787401575);
#722=VECTOR('',#1229,39.3700787401575);
#723=VECTOR('',#1230,39.3700787401575);
#724=VECTOR('',#1231,39.3700787401575);
#725=VECTOR('',#1232,39.3700787401575);
#726=VECTOR('',#1233,39.3700787401575);
#727=VECTOR('',#1234,39.3700787401575);
#728=VECTOR('',#1235,39.3700787401575);
#729=VECTOR('',#1238,39.3700787401575);
#730=VECTOR('',#1239,39.3700787401575);
#731=VECTOR('',#1240,39.3700787401575);
#732=VECTOR('',#1243,39.3700787401575);
#733=VECTOR('',#1244,39.3700787401575);
#734=VECTOR('',#1245,39.3700787401575);
#735=VECTOR('',#1246,39.3700787401575);
#736=VECTOR('',#1249,39.3700787401575);
#737=VECTOR('',#1250,39.3700787401575);
#738=VECTOR('',#1251,39.3700787401575);
#739=VECTOR('',#1254,39.3700787401575);
#740=VECTOR('',#1255,39.3700787401575);
#741=VECTOR('',#1256,39.3700787401575);
#742=VECTOR('',#1259,39.3700787401575);
#743=VECTOR('',#1260,39.3700787401575);
#744=VECTOR('',#1261,39.3700787401575);
#745=VECTOR('',#1264,39.3700787401575);
#746=VECTOR('',#1265,39.3700787401575);
#747=VECTOR('',#1266,39.3700787401575);
#748=VECTOR('',#1269,39.3700787401575);
#749=VECTOR('',#1270,39.3700787401575);
#750=VECTOR('',#1271,39.3700787401575);
#751=VECTOR('',#1272,39.3700787401575);
#752=VECTOR('',#1273,39.3700787401575);
#753=VECTOR('',#1274,39.3700787401575);
#754=VECTOR('',#1279,39.3700787401575);
#755=VECTOR('',#1280,39.3700787401575);
#756=VECTOR('',#1287,39.3700787401575);
#757=VECTOR('',#1292,39.3700787401575);
#758=VECTOR('',#1297,39.3700787401575);
#759=VECTOR('',#1300,39.3700787401575);
#760=VECTOR('',#1307,39.3700787401575);
#761=VECTOR('',#1310,39.3700787401575);
#762=VECTOR('',#1319,39.3700787401575);
#763=VECTOR('',#1320,39.3700787401575);
#764=VECTOR('',#1321,39.3700787401575);
#765=VECTOR('',#1322,39.3700787401575);
#766=VECTOR('',#1325,39.3700787401575);
#767=VECTOR('',#1326,39.3700787401575);
#768=VECTOR('',#1327,39.3700787401575);
#769=VECTOR('',#1328,39.3700787401575);
#770=VECTOR('',#1329,39.3700787401575);
#771=VECTOR('',#1330,39.3700787401575);
#772=VECTOR('',#1331,39.3700787401575);
#773=VECTOR('',#1334,39.3700787401575);
#774=VECTOR('',#1335,39.3700787401575);
#775=VECTOR('',#1338,39.3700787401575);
#776=VECTOR('',#1339,39.3700787401575);
#777=VECTOR('',#1340,39.3700787401575);
#778=VECTOR('',#1341,39.3700787401575);
#779=VECTOR('',#1342,39.3700787401575);
#780=VECTOR('',#1343,39.3700787401575);
#781=VECTOR('',#1346,39.3700787401575);
#782=VECTOR('',#1347,39.3700787401575);
#783=VECTOR('',#1348,39.3700787401575);
#784=VECTOR('',#1349,39.3700787401575);
#785=VECTOR('',#1352,39.3700787401575);
#786=VECTOR('',#1353,39.3700787401575);
#787=VECTOR('',#1354,39.3700787401575);
#788=VECTOR('',#1357,39.3700787401575);
#789=VECTOR('',#1358,39.3700787401575);
#790=VECTOR('',#1359,39.3700787401575);
#791=VECTOR('',#1362,39.3700787401575);
#792=VECTOR('',#1363,39.3700787401575);
#793=VECTOR('',#1364,39.3700787401575);
#794=VECTOR('',#1365,39.3700787401575);
#795=VECTOR('',#1368,39.3700787401575);
#796=VECTOR('',#1369,39.3700787401575);
#797=VECTOR('',#1370,39.3700787401575);
#798=VECTOR('',#1373,39.3700787401575);
#799=VECTOR('',#1374,39.3700787401575);
#800=VECTOR('',#1375,39.3700787401575);
#801=VECTOR('',#1378,39.3700787401575);
#802=VECTOR('',#1379,39.3700787401575);
#803=VECTOR('',#1382,39.3700787401575);
#804=VECTOR('',#1383,39.3700787401575);
#805=VECTOR('',#1386,39.3700787401575);
#806=VECTOR('',#1387,39.3700787401575);
#807=VECTOR('',#1392,39.3700787401575);
#808=VECTOR('',#1395,39.3700787401575);
#809=VECTOR('',#1398,39.3700787401575);
#810=EDGE_LOOP('',(#22,#23,#24,#25));
#811=EDGE_LOOP('',(#26,#27,#28,#29));
#812=EDGE_LOOP('',(#30,#31,#32,#33));
#813=EDGE_LOOP('',(#34,#35,#36,#37));
#814=EDGE_LOOP('',(#38,#39,#40,#41));
#815=EDGE_LOOP('',(#42,#43,#44,#45));
#816=EDGE_LOOP('',(#46,#47,#48,#49));
#817=EDGE_LOOP('',(#50,#51,#52,#53));
#818=EDGE_LOOP('',(#54,#55,#56,#57));
#819=EDGE_LOOP('',(#58,#59,#60,#61));
#820=EDGE_LOOP('',(#62,#63,#64,#65));
#821=EDGE_LOOP('',(#66,#67,#68,#69));
#822=EDGE_LOOP('',(#70,#71,#72,#73));
#823=EDGE_LOOP('',(#74,#75,#76,#77));
#824=EDGE_LOOP('',(#78,#79,#80,#81));
#825=EDGE_LOOP('',(#82,#83,#84,#85));
#826=EDGE_LOOP('',(#86,#87,#88,#89,#90,#91,#92,#93));
#827=EDGE_LOOP('',(#94,#95,#96,#97));
#828=EDGE_LOOP('',(#98,#99,#100,#101));
#829=EDGE_LOOP('',(#102,#103,#104,#105));
#830=EDGE_LOOP('',(#106,#107,#108,#109));
#831=EDGE_LOOP('',(#110,#111,#112,#113));
#832=EDGE_LOOP('',(#114,#115,#116,#117));
#833=EDGE_LOOP('',(#118,#119,#120,#121));
#834=EDGE_LOOP('',(#122,#123,#124,#125));
#835=EDGE_LOOP('',(#126,#127,#128,#129,#130,#131,#132,#133));
#836=EDGE_LOOP('',(#134,#135,#136,#137));
#837=EDGE_LOOP('',(#138,#139,#140,#141,#142,#143,#144,#145,#146,#147,#148,
#149));
#838=EDGE_LOOP('',(#150,#151,#152,#153));
#839=EDGE_LOOP('',(#154,#155,#156,#157));
#840=EDGE_LOOP('',(#158,#159,#160,#161));
#841=EDGE_LOOP('',(#162,#163,#164,#165));
#842=EDGE_LOOP('',(#166,#167,#168,#169));
#843=EDGE_LOOP('',(#170,#171,#172,#173));
#844=EDGE_LOOP('',(#174,#175,#176,#177));
#845=EDGE_LOOP('',(#178,#179,#180,#181));
#846=EDGE_LOOP('',(#182,#183,#184,#185));
#847=EDGE_LOOP('',(#186,#187,#188,#189));
#848=EDGE_LOOP('',(#190,#191,#192,#193));
#849=EDGE_LOOP('',(#194,#195,#196,#197));
#850=EDGE_LOOP('',(#198,#199,#200,#201));
#851=EDGE_LOOP('',(#202,#203,#204,#205));
#852=EDGE_LOOP('',(#206,#207,#208,#209));
#853=EDGE_LOOP('',(#210,#211,#212,#213,#214,#215,#216,#217));
#854=EDGE_LOOP('',(#218,#219,#220,#221));
#855=EDGE_LOOP('',(#222,#223,#224,#225,#226,#227,#228,#229));
#856=EDGE_LOOP('',(#230,#231,#232,#233));
#857=EDGE_LOOP('',(#234,#235,#236,#237));
#858=EDGE_LOOP('',(#238,#239,#240,#241));
#859=EDGE_LOOP('',(#242,#243,#244,#245));
#860=EDGE_LOOP('',(#246,#247,#248,#249));
#861=EDGE_LOOP('',(#250,#251,#252,#253));
#862=EDGE_LOOP('',(#254,#255,#256,#257));
#863=EDGE_LOOP('',(#258,#259,#260,#261));
#864=EDGE_LOOP('',(#262,#263,#264,#265));
#865=EDGE_LOOP('',(#266,#267,#268,#269));
#866=EDGE_LOOP('',(#270,#271,#272,#273));
#867=EDGE_LOOP('',(#274,#275,#276,#277));
#868=EDGE_LOOP('',(#278,#279,#280,#281));
#869=EDGE_LOOP('',(#282,#283,#284,#285));
#870=EDGE_LOOP('',(#286,#287,#288,#289));
#871=EDGE_LOOP('',(#290,#291,#292,#293));
#872=EDGE_LOOP('',(#294,#295,#296,#297));
#873=EDGE_LOOP('',(#298,#299,#300,#301));
#874=FACE_BOUND('',#810,.T.);
#875=FACE_BOUND('',#811,.T.);
#876=FACE_BOUND('',#812,.T.);
#877=FACE_BOUND('',#813,.T.);
#878=FACE_BOUND('',#814,.T.);
#879=FACE_BOUND('',#815,.T.);
#880=FACE_BOUND('',#816,.T.);
#881=FACE_BOUND('',#817,.T.);
#882=FACE_BOUND('',#818,.T.);
#883=FACE_BOUND('',#819,.T.);
#884=FACE_BOUND('',#820,.T.);
#885=FACE_BOUND('',#821,.T.);
#886=FACE_BOUND('',#822,.T.);
#887=FACE_BOUND('',#823,.T.);
#888=FACE_BOUND('',#824,.T.);
#889=FACE_BOUND('',#825,.T.);
#890=FACE_BOUND('',#826,.T.);
#891=FACE_BOUND('',#827,.T.);
#892=FACE_BOUND('',#828,.T.);
#893=FACE_BOUND('',#829,.T.);
#894=FACE_BOUND('',#830,.T.);
#895=FACE_BOUND('',#831,.T.);
#896=FACE_BOUND('',#832,.T.);
#897=FACE_BOUND('',#833,.T.);
#898=FACE_BOUND('',#834,.T.);
#899=FACE_BOUND('',#835,.T.);
#900=FACE_BOUND('',#836,.T.);
#901=FACE_BOUND('',#837,.T.);
#902=FACE_BOUND('',#838,.T.);
#903=FACE_BOUND('',#839,.T.);
#904=FACE_BOUND('',#840,.T.);
#905=FACE_BOUND('',#841,.T.);
#906=FACE_BOUND('',#842,.T.);
#907=FACE_BOUND('',#843,.T.);
#908=FACE_BOUND('',#844,.T.);
#909=FACE_BOUND('',#845,.T.);
#910=FACE_BOUND('',#846,.T.);
#911=FACE_BOUND('',#847,.T.);
#912=FACE_BOUND('',#848,.T.);
#913=FACE_BOUND('',#849,.T.);
#914=FACE_BOUND('',#850,.T.);
#915=FACE_BOUND('',#851,.T.);
#916=FACE_BOUND('',#852,.T.);
#917=FACE_BOUND('',#853,.T.);
#918=FACE_BOUND('',#854,.T.);
#919=FACE_BOUND('',#855,.T.);
#920=FACE_BOUND('',#856,.T.);
#921=FACE_BOUND('',#857,.T.);
#922=FACE_BOUND('',#858,.T.);
#923=FACE_BOUND('',#859,.T.);
#924=FACE_BOUND('',#860,.T.);
#925=FACE_BOUND('',#861,.T.);
#926=FACE_BOUND('',#862,.T.);
#927=FACE_BOUND('',#863,.T.);
#928=FACE_BOUND('',#864,.T.);
#929=FACE_BOUND('',#865,.T.);
#930=FACE_BOUND('',#866,.T.);
#931=FACE_BOUND('',#867,.T.);
#932=FACE_BOUND('',#868,.T.);
#933=FACE_BOUND('',#869,.T.);
#934=FACE_BOUND('',#870,.T.);
#935=FACE_BOUND('',#871,.T.);
#936=FACE_BOUND('',#872,.T.);
#937=FACE_BOUND('',#873,.T.);
#938=PLANE('',#1081);
#939=PLANE('',#1082);
#940=PLANE('',#1083);
#941=PLANE('',#1084);
#942=PLANE('',#1085);
#943=PLANE('',#1086);
#944=PLANE('',#1087);
#945=PLANE('',#1088);
#946=PLANE('',#1089);
#947=PLANE('',#1090);
#948=PLANE('',#1091);
#949=PLANE('',#1092);
#950=PLANE('',#1093);
#951=PLANE('',#1094);
#952=PLANE('',#1095);
#953=PLANE('',#1096);
#954=PLANE('',#1097);
#955=PLANE('',#1098);
#956=PLANE('',#1099);
#957=PLANE('',#1100);
#958=PLANE('',#1101);
#959=PLANE('',#1102);
#960=PLANE('',#1103);
#961=PLANE('',#1104);
#962=PLANE('',#1105);
#963=PLANE('',#1106);
#964=PLANE('',#1107);
#965=PLANE('',#1108);
#966=PLANE('',#1109);
#967=PLANE('',#1110);
#968=PLANE('',#1111);
#969=PLANE('',#1112);
#970=PLANE('',#1113);
#971=PLANE('',#1114);
#972=PLANE('',#1115);
#973=PLANE('',#1116);
#974=PLANE('',#1117);
#975=PLANE('',#1118);
#976=PLANE('',#1119);
#977=PLANE('',#1120);
#978=PLANE('',#1122);
#979=PLANE('',#1123);
#980=PLANE('',#1124);
#981=PLANE('',#1125);
#982=PLANE('',#1126);
#983=PLANE('',#1127);
#984=PLANE('',#1128);
#985=PLANE('',#1129);
#986=PLANE('',#1130);
#987=PLANE('',#1131);
#988=PLANE('',#1132);
#989=PLANE('',#1133);
#990=PLANE('',#1134);
#991=PLANE('',#1135);
#992=PLANE('',#1136);
#993=PLANE('',#1137);
#994=PLANE('',#1138);
#995=PLANE('',#1139);
#996=ADVANCED_FACE('',(#874),#938,.F.);
#997=ADVANCED_FACE('',(#875),#939,.F.);
#998=ADVANCED_FACE('',(#876),#940,.F.);
#999=ADVANCED_FACE('',(#877),#941,.F.);
#1000=ADVANCED_FACE('',(#878),#942,.F.);
#1001=ADVANCED_FACE('',(#879),#943,.F.);
#1002=ADVANCED_FACE('',(#880),#944,.F.);
#1003=ADVANCED_FACE('',(#881),#945,.F.);
#1004=ADVANCED_FACE('',(#882),#946,.F.);
#1005=ADVANCED_FACE('',(#883),#947,.F.);
#1006=ADVANCED_FACE('',(#884),#948,.F.);
#1007=ADVANCED_FACE('',(#885),#949,.F.);
#1008=ADVANCED_FACE('',(#886),#950,.F.);
#1009=ADVANCED_FACE('',(#887),#951,.F.);
#1010=ADVANCED_FACE('',(#888),#952,.F.);
#1011=ADVANCED_FACE('',(#889),#953,.F.);
#1012=ADVANCED_FACE('',(#890,#891),#954,.F.);
#1013=ADVANCED_FACE('',(#892),#955,.F.);
#1014=ADVANCED_FACE('',(#893),#956,.F.);
#1015=ADVANCED_FACE('',(#894),#957,.F.);
#1016=ADVANCED_FACE('',(#895),#958,.F.);
#1017=ADVANCED_FACE('',(#896),#959,.F.);
#1018=ADVANCED_FACE('',(#897),#960,.F.);
#1019=ADVANCED_FACE('',(#898,#899),#961,.F.);
#1020=ADVANCED_FACE('',(#900),#962,.T.);
#1021=ADVANCED_FACE('',(#901),#963,.F.);
#1022=ADVANCED_FACE('',(#902),#964,.F.);
#1023=ADVANCED_FACE('',(#903),#965,.F.);
#1024=ADVANCED_FACE('',(#904),#966,.F.);
#1025=ADVANCED_FACE('',(#905),#967,.F.);
#1026=ADVANCED_FACE('',(#906),#968,.F.);
#1027=ADVANCED_FACE('',(#907),#969,.F.);
#1028=ADVANCED_FACE('',(#908),#970,.F.);
#1029=ADVANCED_FACE('',(#909),#971,.F.);
#1030=ADVANCED_FACE('',(#910),#972,.F.);
#1031=ADVANCED_FACE('',(#911),#973,.F.);
#1032=ADVANCED_FACE('',(#912),#974,.F.);
#1033=ADVANCED_FACE('',(#913),#975,.F.);
#1034=ADVANCED_FACE('',(#914),#976,.F.);
#1035=ADVANCED_FACE('',(#915),#977,.F.);
#1036=ADVANCED_FACE('',(#916),#978,.F.);
#1037=ADVANCED_FACE('',(#917),#979,.F.);
#1038=ADVANCED_FACE('',(#918),#980,.F.);
#1039=ADVANCED_FACE('',(#919),#981,.F.);
#1040=ADVANCED_FACE('',(#920),#982,.T.);
#1041=ADVANCED_FACE('',(#921),#983,.T.);
#1042=ADVANCED_FACE('',(#922),#984,.T.);
#1043=ADVANCED_FACE('',(#923),#985,.T.);
#1044=ADVANCED_FACE('',(#924),#986,.T.);
#1045=ADVANCED_FACE('',(#925),#987,.T.);
#1046=ADVANCED_FACE('',(#926),#988,.T.);
#1047=ADVANCED_FACE('',(#927),#989,.T.);
#1048=ADVANCED_FACE('',(#928),#990,.F.);
#1049=ADVANCED_FACE('',(#929,#930,#931),#991,.T.);
#1050=ADVANCED_FACE('',(#932),#992,.F.);
#1051=ADVANCED_FACE('',(#933),#993,.F.);
#1052=ADVANCED_FACE('',(#934),#994,.F.);
#1053=ADVANCED_FACE('',(#935,#936,#937),#995,.F.);
#1054=CLOSED_SHELL('',(#996,#997,#998,#999,#1000,#1001,#1002,#1003,#1004,
#1005,#1006,#1007,#1008,#1009,#1010,#1011,#1012,#1013,#1014,#1015,#1016,
#1017,#1018,#1019,#1020,#1021,#1022,#1023,#1024,#1025,#1026,#1027,#1028,
#1029,#1030,#1031,#1032,#1033,#1034,#1035));
#1055=CLOSED_SHELL('',(#1036,#1037,#1038,#1039,#1040,#1041,#1042,#1043,
#1044,#1045,#1046,#1047,#1048,#1049,#1050,#1051,#1052,#1053));
#1056=STYLED_ITEM('',(#1058),#1072);
#1057=STYLED_ITEM('',(#1059),#1073);
#1058=PRESENTATION_STYLE_ASSIGNMENT((#1060));
#1059=PRESENTATION_STYLE_ASSIGNMENT((#1061));
#1060=SURFACE_STYLE_USAGE(.BOTH.,#1062);
#1061=SURFACE_STYLE_USAGE(.BOTH.,#1063);
#1062=SURFACE_SIDE_STYLE('',(#1064));
#1063=SURFACE_SIDE_STYLE('',(#1065));
#1064=SURFACE_STYLE_FILL_AREA(#1066);
#1065=SURFACE_STYLE_FILL_AREA(#1067);
#1066=FILL_AREA_STYLE('',(#1068));
#1067=FILL_AREA_STYLE('',(#1069));
#1068=FILL_AREA_STYLE_COLOUR('',#1070);
#1069=FILL_AREA_STYLE_COLOUR('',#1071);
#1070=COLOUR_RGB('',0.75,0.75,0.75);
#1071=COLOUR_RGB('',0.5,0.5,0.5);
#1072=MANIFOLD_SOLID_BREP('MTMM-102-05-T-S-255_pins',#1054);
#1073=MANIFOLD_SOLID_BREP('MTMM-102-05-T-S-255_body',#1055);
#1074=SHAPE_DEFINITION_REPRESENTATION(#1705,#1077);
#1075=SHAPE_DEFINITION_REPRESENTATION(#1706,#1078);
#1076=SHAPE_DEFINITION_REPRESENTATION(#1708,#1079);
#1077=SHAPE_REPRESENTATION('MTMM-102-05-T-S-255',(#1080,#1121,#1140),#1693);
#1078=SHAPE_REPRESENTATION('MTMM-102-05-T-S-255_pins',(#1080),#1694);
#1079=SHAPE_REPRESENTATION('MTMM-102-05-T-S-255_body',(#1080),#1695);
#1080=AXIS2_PLACEMENT_3D('',#1403,#1141,#1142);
#1081=AXIS2_PLACEMENT_3D('',#1404,#1143,#1144);
#1082=AXIS2_PLACEMENT_3D('',#1413,#1149,#1150);
#1083=AXIS2_PLACEMENT_3D('',#1419,#1154,#1155);
#1084=AXIS2_PLACEMENT_3D('',#1425,#1159,#1160);
#1085=AXIS2_PLACEMENT_3D('',#1431,#1164,#1165);
#1086=AXIS2_PLACEMENT_3D('',#1437,#1169,#1170);
#1087=AXIS2_PLACEMENT_3D('',#1446,#1175,#1176);
#1088=AXIS2_PLACEMENT_3D('',#1452,#1180,#1181);
#1089=AXIS2_PLACEMENT_3D('',#1458,#1185,#1186);
#1090=AXIS2_PLACEMENT_3D('',#1464,#1190,#1191);
#1091=AXIS2_PLACEMENT_3D('',#1470,#1195,#1196);
#1092=AXIS2_PLACEMENT_3D('',#1479,#1201,#1202);
#1093=AXIS2_PLACEMENT_3D('',#1488,#1207,#1208);
#1094=AXIS2_PLACEMENT_3D('',#1494,#1212,#1213);
#1095=AXIS2_PLACEMENT_3D('',#1500,#1217,#1218);
#1096=AXIS2_PLACEMENT_3D('',#1506,#1222,#1223);
#1097=AXIS2_PLACEMENT_3D('',#1512,#1227,#1228);
#1098=AXIS2_PLACEMENT_3D('',#1522,#1236,#1237);
#1099=AXIS2_PLACEMENT_3D('',#1528,#1241,#1242);
#1100=AXIS2_PLACEMENT_3D('',#1537,#1247,#1248);
#1101=AXIS2_PLACEMENT_3D('',#1543,#1252,#1253);
#1102=AXIS2_PLACEMENT_3D('',#1549,#1257,#1258);
#1103=AXIS2_PLACEMENT_3D('',#1555,#1262,#1263);
#1104=AXIS2_PLACEMENT_3D('',#1561,#1267,#1268);
#1105=AXIS2_PLACEMENT_3D('',#1568,#1275,#1276);
#1106=AXIS2_PLACEMENT_3D('',#1569,#1277,#1278);
#1107=AXIS2_PLACEMENT_3D('',#1572,#1281,#1282);
#1108=AXIS2_PLACEMENT_3D('',#1573,#1283,#1284);
#1109=AXIS2_PLACEMENT_3D('',#1574,#1285,#1286);
#1110=AXIS2_PLACEMENT_3D('',#1576,#1288,#1289);
#1111=AXIS2_PLACEMENT_3D('',#1577,#1290,#1291);
#1112=AXIS2_PLACEMENT_3D('',#1579,#1293,#1294);
#1113=AXIS2_PLACEMENT_3D('',#1580,#1295,#1296);
#1114=AXIS2_PLACEMENT_3D('',#1582,#1298,#1299);
#1115=AXIS2_PLACEMENT_3D('',#1584,#1301,#1302);
#1116=AXIS2_PLACEMENT_3D('',#1585,#1303,#1304);
#1117=AXIS2_PLACEMENT_3D('',#1586,#1305,#1306);
#1118=AXIS2_PLACEMENT_3D('',#1588,#1308,#1309);
#1119=AXIS2_PLACEMENT_3D('',#1590,#1311,#1312);
#1120=AXIS2_PLACEMENT_3D('',#1591,#1313,#1314);
#1121=AXIS2_PLACEMENT_3D('',#1592,#1315,#1316);
#1122=AXIS2_PLACEMENT_3D('',#1593,#1317,#1318);
#1123=AXIS2_PLACEMENT_3D('',#1602,#1323,#1324);
#1124=AXIS2_PLACEMENT_3D('',#1616,#1332,#1333);
#1125=AXIS2_PLACEMENT_3D('',#1620,#1336,#1337);
#1126=AXIS2_PLACEMENT_3D('',#1632,#1344,#1345);
#1127=AXIS2_PLACEMENT_3D('',#1641,#1350,#1351);
#1128=AXIS2_PLACEMENT_3D('',#1647,#1355,#1356);
#1129=AXIS2_PLACEMENT_3D('',#1653,#1360,#1361);
#1130=AXIS2_PLACEMENT_3D('',#1662,#1366,#1367);
#1131=AXIS2_PLACEMENT_3D('',#1668,#1371,#1372);
#1132=AXIS2_PLACEMENT_3D('',#1674,#1376,#1377);
#1133=AXIS2_PLACEMENT_3D('',#1677,#1380,#1381);
#1134=AXIS2_PLACEMENT_3D('',#1680,#1384,#1385);
#1135=AXIS2_PLACEMENT_3D('',#1683,#1388,#1389);
#1136=AXIS2_PLACEMENT_3D('',#1684,#1390,#1391);
#1137=AXIS2_PLACEMENT_3D('',#1686,#1393,#1394);
#1138=AXIS2_PLACEMENT_3D('',#1688,#1396,#1397);
#1139=AXIS2_PLACEMENT_3D('',#1690,#1399,#1400);
#1140=AXIS2_PLACEMENT_3D('',#1691,#1401,#1402);
#1141=DIRECTION('',(0.,0.,1.));
#1142=DIRECTION('',(1.,0.,0.));
#1143=DIRECTION('',(0.,0.,-1.));
#1144=DIRECTION('',(-1.,0.,0.));
#1145=DIRECTION('',(-1.,0.,0.));
#1146=DIRECTION('',(0.,1.,0.));
#1147=DIRECTION('',(-1.,0.,0.));
#1148=DIRECTION('',(0.,-1.,0.));
#1149=DIRECTION('',(0.,0.447213595499957,-0.894427190999916));
#1150=DIRECTION('',(0.,0.894427190999916,0.447213595499957));
#1151=DIRECTION('',(-1.,0.,0.));
#1152=DIRECTION('',(0.408248290463863,0.816496580927726,0.408248290463862));
#1153=DIRECTION('',(0.408248290463863,-0.816496580927726,-0.408248290463863));
#1154=DIRECTION('',(0.,1.,0.));
#1155=DIRECTION('',(0.,0.,1.));
#1156=DIRECTION('',(-1.,0.,0.));
#1157=DIRECTION('',(0.,0.,-1.));
#1158=DIRECTION('',(0.,0.,-1.));
#1159=DIRECTION('',(0.,0.447213595499958,0.894427190999916));
#1160=DIRECTION('',(0.,-0.894427190999916,0.447213595499958));
#1161=DIRECTION('',(-1.,0.,0.));
#1162=DIRECTION('',(-0.408248290463863,-0.816496580927726,0.408248290463863));
#1163=DIRECTION('',(-0.408248290463862,0.816496580927726,-0.408248290463863));
#1164=DIRECTION('',(0.,0.,1.));
#1165=DIRECTION('',(1.,0.,0.));
#1166=DIRECTION('',(-1.,0.,0.));
#1167=DIRECTION('',(0.,-1.,0.));
#1168=DIRECTION('',(0.,1.,0.));
#1169=DIRECTION('',(0.,-8.05379715113285E-18,1.));
#1170=DIRECTION('',(0.,-1.,-8.05379715113285E-18));
#1171=DIRECTION('',(-1.,0.,0.));
#1172=DIRECTION('',(0.,-1.,-8.05379715113285E-18));
#1173=DIRECTION('',(-1.,0.,0.));
#1174=DIRECTION('',(0.,1.,8.05379715113285E-18));
#1175=DIRECTION('',(0.,-0.447213595499958,0.894427190999916));
#1176=DIRECTION('',(0.,-0.894427190999916,-0.447213595499958));
#1177=DIRECTION('',(0.408248290463863,0.816496580927726,0.408248290463863));
#1178=DIRECTION('',(-1.,0.,0.));
#1179=DIRECTION('',(0.408248290463863,-0.816496580927726,-0.408248290463863));
#1180=DIRECTION('',(0.,-1.,0.));
#1181=DIRECTION('',(0.,0.,-1.));
#1182=DIRECTION('',(0.,0.,-1.));
#1183=DIRECTION('',(-1.,0.,0.));
#1184=DIRECTION('',(0.,0.,-1.));
#1185=DIRECTION('',(0.,-0.447213595499958,-0.894427190999916));
#1186=DIRECTION('',(0.,0.894427190999916,-0.447213595499958));
#1187=DIRECTION('',(-0.408248290463863,-0.816496580927726,0.408248290463863));
#1188=DIRECTION('',(-1.,0.,0.));
#1189=DIRECTION('',(-0.408248290463863,0.816496580927726,-0.408248290463863));
#1190=DIRECTION('',(0.,0.,-1.));
#1191=DIRECTION('',(-1.,0.,0.));
#1192=DIRECTION('',(-1.,0.,0.));
#1193=DIRECTION('',(0.,1.,0.));
#1194=DIRECTION('',(0.,-1.,0.));
#1195=DIRECTION('',(0.,0.,-1.));
#1196=DIRECTION('',(-1.,0.,0.));
#1197=DIRECTION('',(0.,-1.,0.));
#1198=DIRECTION('',(-1.,0.,0.));
#1199=DIRECTION('',(0.,-1.,0.));
#1200=DIRECTION('',(-1.,0.,0.));
#1201=DIRECTION('',(0.,0.,-1.));
#1202=DIRECTION('',(-1.,0.,0.));
#1203=DIRECTION('',(-1.,0.,0.));
#1204=DIRECTION('',(0.,1.,0.));
#1205=DIRECTION('',(-1.,0.,0.));
#1206=DIRECTION('',(0.,-1.,0.));
#1207=DIRECTION('',(0.,0.447213595499957,-0.894427190999916));
#1208=DIRECTION('',(0.,0.894427190999916,0.447213595499957));
#1209=DIRECTION('',(-1.,0.,0.));
#1210=DIRECTION('',(0.408248290463863,0.816496580927726,0.408248290463862));
#1211=DIRECTION('',(0.408248290463863,-0.816496580927726,-0.408248290463863));
#1212=DIRECTION('',(0.,1.,0.));
#1213=DIRECTION('',(0.,0.,1.));
#1214=DIRECTION('',(-1.,0.,0.));
#1215=DIRECTION('',(0.,0.,-1.));
#1216=DIRECTION('',(0.,0.,-1.));
#1217=DIRECTION('',(0.,0.447213595499958,0.894427190999916));
#1218=DIRECTION('',(0.,-0.894427190999916,0.447213595499958));
#1219=DIRECTION('',(-1.,0.,0.));
#1220=DIRECTION('',(-0.408248290463863,-0.816496580927726,0.408248290463863));
#1221=DIRECTION('',(-0.408248290463862,0.816496580927726,-0.408248290463863));
#1222=DIRECTION('',(0.,0.,1.));
#1223=DIRECTION('',(1.,0.,0.));
#1224=DIRECTION('',(-1.,0.,0.));
#1225=DIRECTION('',(0.,-1.,0.));
#1226=DIRECTION('',(0.,1.,0.));
#1227=DIRECTION('',(0.,1.,0.));
#1228=DIRECTION('',(0.,0.,1.));
#1229=DIRECTION('',(0.,0.,-1.));
#1230=DIRECTION('',(0.,0.,-1.));
#1231=DIRECTION('',(0.,0.,-1.));
#1232=DIRECTION('',(-1.,0.,0.));
#1233=DIRECTION('',(0.,0.,-1.));
#1234=DIRECTION('',(0.,0.,-1.));
#1235=DIRECTION('',(0.,0.,-1.));
#1236=DIRECTION('',(0.,0.,1.));
#1237=DIRECTION('',(1.,0.,0.));
#1238=DIRECTION('',(0.,1.,0.));
#1239=DIRECTION('',(-1.,0.,0.));
#1240=DIRECTION('',(0.,1.,0.));
#1241=DIRECTION('',(0.,-8.05379715113285E-18,1.));
#1242=DIRECTION('',(0.,-1.,-8.05379715113285E-18));
#1243=DIRECTION('',(-1.,0.,0.));
#1244=DIRECTION('',(0.,1.,8.05379715113285E-18));
#1245=DIRECTION('',(-1.,0.,0.));
#1246=DIRECTION('',(0.,-1.,-8.05379715113285E-18));
#1247=DIRECTION('',(0.,-0.447213595499958,0.894427190999916));
#1248=DIRECTION('',(0.,-0.894427190999916,-0.447213595499958));
#1249=DIRECTION('',(0.408248290463863,0.816496580927726,0.408248290463863));
#1250=DIRECTION('',(-1.,0.,0.));
#1251=DIRECTION('',(0.408248290463863,-0.816496580927726,-0.408248290463863));
#1252=DIRECTION('',(0.,-1.,0.));
#1253=DIRECTION('',(0.,0.,-1.));
#1254=DIRECTION('',(0.,0.,-1.));
#1255=DIRECTION('',(-1.,0.,0.));
#1256=DIRECTION('',(0.,0.,-1.));
#1257=DIRECTION('',(0.,-0.447213595499958,-0.894427190999916));
#1258=DIRECTION('',(0.,0.894427190999916,-0.447213595499958));
#1259=DIRECTION('',(-0.408248290463863,-0.816496580927726,0.408248290463863));
#1260=DIRECTION('',(-1.,0.,0.));
#1261=DIRECTION('',(-0.408248290463863,0.816496580927726,-0.408248290463863));
#1262=DIRECTION('',(0.,0.,-1.));
#1263=DIRECTION('',(-1.,0.,0.));
#1264=DIRECTION('',(0.,-1.,0.));
#1265=DIRECTION('',(-1.,0.,0.));
#1266=DIRECTION('',(0.,1.,0.));
#1267=DIRECTION('',(0.,-1.,2.10012914642087E-15));
#1268=DIRECTION('',(0.,-2.10012914642087E-15,-1.));
#1269=DIRECTION('',(0.,0.,-1.));
#1270=DIRECTION('',(0.,0.,-1.));
#1271=DIRECTION('',(0.,0.,1.));
#1272=DIRECTION('',(0.,0.,-1.));
#1273=DIRECTION('',(0.,2.10012914642087E-15,1.));
#1274=DIRECTION('',(0.,0.,1.));
#1275=DIRECTION('',(1.,0.,0.));
#1276=DIRECTION('',(0.,0.,-1.));
#1277=DIRECTION('',(1.,0.,0.));
#1278=DIRECTION('',(0.,0.,-1.));
#1279=DIRECTION('',(0.,0.,-1.));
#1280=DIRECTION('',(0.,0.,1.));
#1281=DIRECTION('',(0.894427190999916,0.447213595499957,0.));
#1282=DIRECTION('',(-0.447213595499957,0.894427190999916,0.));
#1283=DIRECTION('',(0.894427190999916,-0.447213595499958,0.));
#1284=DIRECTION('',(0.447213595499958,0.894427190999916,0.));
#1285=DIRECTION('',(-1.,0.,0.));
#1286=DIRECTION('',(0.,0.,1.));
#1287=DIRECTION('',(0.,0.,-1.));
#1288=DIRECTION('',(-0.894427190999916,0.447213595499958,0.));
#1289=DIRECTION('',(-0.447213595499958,-0.894427190999916,0.));
#1290=DIRECTION('',(-1.,0.,0.));
#1291=DIRECTION('',(0.,0.,1.));
#1292=DIRECTION('',(0.,0.,-1.));
#1293=DIRECTION('',(-0.894427190999916,-0.447213595499958,0.));
#1294=DIRECTION('',(0.447213595499958,-0.894427190999916,0.));
#1295=DIRECTION('',(1.,0.,0.));
#1296=DIRECTION('',(0.,0.,-1.));
#1297=DIRECTION('',(0.,0.,-1.));
#1298=DIRECTION('',(-1.,0.,0.));
#1299=DIRECTION('',(0.,0.,1.));
#1300=DIRECTION('',(0.,0.,-1.));
#1301=DIRECTION('',(0.894427190999916,-0.447213595499958,0.));
#1302=DIRECTION('',(0.447213595499958,0.894427190999916,0.));
#1303=DIRECTION('',(-0.894427190999916,-0.447213595499958,0.));
#1304=DIRECTION('',(0.447213595499958,-0.894427190999916,0.));
#1305=DIRECTION('',(0.894427190999916,0.447213595499957,0.));
#1306=DIRECTION('',(-0.447213595499957,0.894427190999916,0.));
#1307=DIRECTION('',(0.,0.,-1.));
#1308=DIRECTION('',(-0.894427190999916,0.447213595499958,0.));
#1309=DIRECTION('',(-0.447213595499958,-0.894427190999916,0.));
#1310=DIRECTION('',(0.,0.,-1.));
#1311=DIRECTION('',(1.,0.,0.));
#1312=DIRECTION('',(0.,0.,-1.));
#1313=DIRECTION('',(-1.,0.,0.));
#1314=DIRECTION('',(0.,0.,1.));
#1315=DIRECTION('',(0.,0.,1.));
#1316=DIRECTION('',(1.,0.,0.));
#1317=DIRECTION('',(0.,1.,0.));
#1318=DIRECTION('',(0.,0.,1.));
#1319=DIRECTION('',(0.,0.,1.));
#1320=DIRECTION('',(1.,0.,0.));
#1321=DIRECTION('',(0.,0.,-1.));
#1322=DIRECTION('',(1.,0.,0.));
#1323=DIRECTION('',(1.,0.,0.));
#1324=DIRECTION('',(0.,0.,-1.));
#1325=DIRECTION('',(0.,0.,1.));
#1326=DIRECTION('',(0.,-1.,0.));
#1327=DIRECTION('',(0.,-1.,0.));
#1328=DIRECTION('',(0.,0.,1.));
#1329=DIRECTION('',(0.,-1.,0.));
#1330=DIRECTION('',(0.,0.,1.));
#1331=DIRECTION('',(0.,1.,0.));
#1332=DIRECTION('',(0.,0.,-1.));
#1333=DIRECTION('',(-1.,0.,0.));
#1334=DIRECTION('',(0.,-1.,0.));
#1335=DIRECTION('',(1.,0.,0.));
#1336=DIRECTION('',(-1.,0.,0.));
#1337=DIRECTION('',(0.,0.,1.));
#1338=DIRECTION('',(0.,-1.,0.));
#1339=DIRECTION('',(0.,0.,1.));
#1340=DIRECTION('',(0.,1.,0.));
#1341=DIRECTION('',(0.,0.,-1.));
#1342=DIRECTION('',(0.,-1.,0.));
#1343=DIRECTION('',(0.,0.,-1.));
#1344=DIRECTION('',(1.,0.,0.));
#1345=DIRECTION('',(0.,0.,-1.));
#1346=DIRECTION('',(0.,0.,1.));
#1347=DIRECTION('',(0.,-1.,0.));
#1348=DIRECTION('',(0.,0.,1.));
#1349=DIRECTION('',(0.,-1.,0.));
#1350=DIRECTION('',(0.,0.,1.));
#1351=DIRECTION('',(1.,0.,0.));
#1352=DIRECTION('',(-1.,0.,0.));
#1353=DIRECTION('',(0.,-1.,0.));
#1354=DIRECTION('',(-1.,0.,0.));
#1355=DIRECTION('',(-1.,0.,0.));
#1356=DIRECTION('',(0.,0.,1.));
#1357=DIRECTION('',(0.,0.,-1.));
#1358=DIRECTION('',(0.,-1.,0.));
#1359=DIRECTION('',(0.,0.,-1.));
#1360=DIRECTION('',(1.,0.,0.));
#1361=DIRECTION('',(0.,0.,-1.));
#1362=DIRECTION('',(0.,0.,1.));
#1363=DIRECTION('',(0.,-1.,0.));
#1364=DIRECTION('',(0.,0.,1.));
#1365=DIRECTION('',(0.,-1.,0.));
#1366=DIRECTION('',(0.,0.,1.));
#1367=DIRECTION('',(1.,0.,0.));
#1368=DIRECTION('',(-1.,0.,0.));
#1369=DIRECTION('',(0.,-1.,0.));
#1370=DIRECTION('',(-1.,0.,0.));
#1371=DIRECTION('',(-1.,0.,0.));
#1372=DIRECTION('',(0.,0.,1.));
#1373=DIRECTION('',(0.,0.,-1.));
#1374=DIRECTION('',(0.,-1.,0.));
#1375=DIRECTION('',(0.,0.,-1.));
#1376=DIRECTION('',(0.,0.,-1.));
#1377=DIRECTION('',(-1.,0.,0.));
#1378=DIRECTION('',(1.,0.,0.));
#1379=DIRECTION('',(1.,0.,0.));
#1380=DIRECTION('',(0.,0.,-1.));
#1381=DIRECTION('',(-1.,0.,0.));
#1382=DIRECTION('',(1.,0.,0.));
#1383=DIRECTION('',(1.,0.,0.));
#1384=DIRECTION('',(0.,0.,1.));
#1385=DIRECTION('',(1.,0.,0.));
#1386=DIRECTION('',(-1.,0.,0.));
#1387=DIRECTION('',(-1.,0.,0.));
#1388=DIRECTION('',(0.,1.,0.));
#1389=DIRECTION('',(0.,0.,1.));
#1390=DIRECTION('',(0.,1.,0.));
#1391=DIRECTION('',(0.,0.,1.));
#1392=DIRECTION('',(1.,0.,0.));
#1393=DIRECTION('',(0.,0.,1.));
#1394=DIRECTION('',(1.,0.,0.));
#1395=DIRECTION('',(1.,0.,0.));
#1396=DIRECTION('',(0.,0.,-1.));
#1397=DIRECTION('',(-1.,0.,0.));
#1398=DIRECTION('',(1.,0.,0.));
#1399=DIRECTION('',(0.,1.,0.));
#1400=DIRECTION('',(0.,0.,1.));
#1401=DIRECTION('',(0.,0.,1.));
#1402=DIRECTION('',(1.,0.,0.));
#1403=CARTESIAN_POINT('',(0.,0.,0.));
#1404=CARTESIAN_POINT('',(0.05437,0.03,0.01));
#1405=CARTESIAN_POINT('',(0.05437,-0.053,0.01));
#1406=CARTESIAN_POINT('',(0.04937,-0.053,0.00999999999999997));
#1407=CARTESIAN_POINT('',(0.02937,-0.053,0.00999999999999996));
#1408=CARTESIAN_POINT('',(0.04937,0.03,0.01));
#1409=CARTESIAN_POINT('',(0.04937,0.03,0.0100000000000001));
#1410=CARTESIAN_POINT('',(0.05437,0.03,0.01));
#1411=CARTESIAN_POINT('',(0.02937,0.03,0.0100000000000001));
#1412=CARTESIAN_POINT('',(0.02937,0.03,0.01));
#1413=CARTESIAN_POINT('',(0.05437,-0.053,0.01));
#1414=CARTESIAN_POINT('',(0.05437,-0.063,0.005));
#1415=CARTESIAN_POINT('',(0.04437,-0.063,0.00500000000000005));
#1416=CARTESIAN_POINT('',(0.03437,-0.063,0.00500000000000005));
#1417=CARTESIAN_POINT('',(0.0502033333333333,-0.0513333333333333,0.0108333333333333));
#1418=CARTESIAN_POINT('',(0.0335366666666667,-0.0613333333333333,0.00583333333333334));
#1419=CARTESIAN_POINT('',(0.05437,-0.063,0.005));
#1420=CARTESIAN_POINT('',(0.05437,-0.063,-0.005));
#1421=CARTESIAN_POINT('',(0.04437,-0.063,-0.00499999999999995));
#1422=CARTESIAN_POINT('',(0.03437,-0.063,-0.00499999999999999));
#1423=CARTESIAN_POINT('',(0.04437,-0.063,0.3));
#1424=CARTESIAN_POINT('',(0.03437,-0.063,0.3));
#1425=CARTESIAN_POINT('',(0.05437,-0.063,-0.005));
#1426=CARTESIAN_POINT('',(0.05437,-0.053,-0.01));
#1427=CARTESIAN_POINT('',(0.04937,-0.053,-0.00999999999999986));
#1428=CARTESIAN_POINT('',(0.02937,-0.053,-0.00999999999999986));
#1429=CARTESIAN_POINT('',(0.0460366666666667,-0.0596666666666667,-0.00666666666666667));
#1430=CARTESIAN_POINT('',(0.0377033333333333,-0.0696666666666667,-0.00166666666666667));
#1431=CARTESIAN_POINT('',(0.05437,-0.053,-0.01));
#1432=CARTESIAN_POINT('',(0.05437,0.03,-0.01));
#1433=CARTESIAN_POINT('',(0.04937,0.03,-0.00999999999999986));
#1434=CARTESIAN_POINT('',(0.02937,0.03,-0.00999999999999986));
#1435=CARTESIAN_POINT('',(0.04937,-0.053,-0.01));
#1436=CARTESIAN_POINT('',(0.02937,-0.053,-0.01));
#1437=CARTESIAN_POINT('',(0.05437,0.039,-0.01));
#1438=CARTESIAN_POINT('',(0.05437,0.304,-0.01));
#1439=CARTESIAN_POINT('',(-0.02937,0.304,-0.01));
#1440=CARTESIAN_POINT('',(-0.04937,0.304,-0.01));
#1441=CARTESIAN_POINT('',(-0.02937,0.039,-0.01));
#1442=CARTESIAN_POINT('',(-0.02937,0.039,-0.00999999999999986));
#1443=CARTESIAN_POINT('',(0.05437,0.039,-0.01));
#1444=CARTESIAN_POINT('',(-0.04937,0.039,-0.01));
#1445=CARTESIAN_POINT('',(-0.04937,0.039,-0.01));
#1446=CARTESIAN_POINT('',(0.05437,0.304,-0.01));
#1447=CARTESIAN_POINT('',(-0.03208,0.33858,0.00729));
#1448=CARTESIAN_POINT('',(-0.04437,0.314,-0.00499999999999995));
#1449=CARTESIAN_POINT('',(0.05437,0.314,-0.005));
#1450=CARTESIAN_POINT('',(-0.03437,0.314,-0.00499999999999995));
#1451=CARTESIAN_POINT('',(-0.0154133333333333,0.276086666666667,-0.0239566666666667));
#1452=CARTESIAN_POINT('',(0.05437,0.314,-0.005));
#1453=CARTESIAN_POINT('',(-0.04437,0.314,0.3));
#1454=CARTESIAN_POINT('',(-0.04437,0.314,0.00500000000000005));
#1455=CARTESIAN_POINT('',(0.05437,0.314,0.005));
#1456=CARTESIAN_POINT('',(-0.03437,0.314,0.00500000000000001));
#1457=CARTESIAN_POINT('',(-0.03437,0.314,0.3));
#1458=CARTESIAN_POINT('',(0.05437,0.314,0.005));
#1459=CARTESIAN_POINT('',(-0.0279133333333333,0.346913333333333,-0.0114566666666667));
#1460=CARTESIAN_POINT('',(-0.04937,0.304,0.0100000000000001));
#1461=CARTESIAN_POINT('',(0.05437,0.304,0.01));
#1462=CARTESIAN_POINT('',(-0.02937,0.304,0.0100000000000001));
#1463=CARTESIAN_POINT('',(-0.01958,0.28442,0.01979));
#1464=CARTESIAN_POINT('',(0.05437,0.304,0.01));
#1465=CARTESIAN_POINT('',(0.05437,0.039,0.01));
#1466=CARTESIAN_POINT('',(-0.02937,0.039,0.0100000000000001));
#1467=CARTESIAN_POINT('',(-0.04937,0.039,0.01));
#1468=CARTESIAN_POINT('',(-0.02937,0.304,0.01));
#1469=CARTESIAN_POINT('',(-0.04937,0.304,0.01));
#1470=CARTESIAN_POINT('',(0.05437,0.039,0.01813));
#1471=CARTESIAN_POINT('',(-0.04937,0.039,0.01813));
#1472=CARTESIAN_POINT('',(-0.04937,0.039,0.01813));
#1473=CARTESIAN_POINT('',(-0.04937,0.03,0.01813));
#1474=CARTESIAN_POINT('',(0.05437,0.03,0.01813));
#1475=CARTESIAN_POINT('',(0.05437,0.03,0.01813));
#1476=CARTESIAN_POINT('',(0.05437,0.039,0.01813));
#1477=CARTESIAN_POINT('',(0.05437,0.039,0.01813));
#1478=CARTESIAN_POINT('',(0.05437,0.039,0.01813));
#1479=CARTESIAN_POINT('',(0.05437,0.03,0.01));
#1480=CARTESIAN_POINT('',(0.05437,-0.053,0.01));
#1481=CARTESIAN_POINT('',(-0.02937,-0.053,0.00999999999999997));
#1482=CARTESIAN_POINT('',(-0.04937,-0.053,0.01));
#1483=CARTESIAN_POINT('',(-0.02937,0.03,0.01));
#1484=CARTESIAN_POINT('',(-0.02937,0.03,0.0100000000000001));
#1485=CARTESIAN_POINT('',(0.05437,0.03,0.01));
#1486=CARTESIAN_POINT('',(-0.04937,0.03,0.01));
#1487=CARTESIAN_POINT('',(-0.04937,0.03,0.01));
#1488=CARTESIAN_POINT('',(0.05437,-0.053,0.01));
#1489=CARTESIAN_POINT('',(0.05437,-0.063,0.005));
#1490=CARTESIAN_POINT('',(-0.03437,-0.063,0.00500000000000005));
#1491=CARTESIAN_POINT('',(-0.04437,-0.063,0.00500000000000005));
#1492=CARTESIAN_POINT('',(-0.0154133333333333,-0.0250866666666666,0.0239566666666666));
#1493=CARTESIAN_POINT('',(-0.03208,-0.08758,-0.00728999999999997));
#1494=CARTESIAN_POINT('',(0.05437,-0.063,0.005));
#1495=CARTESIAN_POINT('',(0.05437,-0.063,-0.005));
#1496=CARTESIAN_POINT('',(-0.03437,-0.063,-0.00499999999999995));
#1497=CARTESIAN_POINT('',(-0.04437,-0.063,-0.00500000000000001));
#1498=CARTESIAN_POINT('',(-0.03437,-0.063,0.3));
#1499=CARTESIAN_POINT('',(-0.04437,-0.063,0.3));
#1500=CARTESIAN_POINT('',(0.05437,-0.063,-0.005));
#1501=CARTESIAN_POINT('',(0.05437,-0.053,-0.01));
#1502=CARTESIAN_POINT('',(-0.02937,-0.053,-0.01));
#1503=CARTESIAN_POINT('',(-0.04937,-0.053,-0.00999999999999986));
#1504=CARTESIAN_POINT('',(-0.01958,-0.03342,-0.01979));
#1505=CARTESIAN_POINT('',(-0.0279133333333334,-0.0959133333333333,0.0114566666666666));
#1506=CARTESIAN_POINT('',(0.05437,-0.053,-0.01));
#1507=CARTESIAN_POINT('',(0.05437,0.03,-0.01));
#1508=CARTESIAN_POINT('',(-0.02937,0.03,-0.00999999999999986));
#1509=CARTESIAN_POINT('',(-0.04937,0.03,-0.01));
#1510=CARTESIAN_POINT('',(-0.02937,-0.053,-0.01));
#1511=CARTESIAN_POINT('',(-0.04937,-0.053,-0.01));
#1512=CARTESIAN_POINT('',(0.05437,0.03,-0.01));
#1513=CARTESIAN_POINT('',(-0.04937,0.03,0.01813));
#1514=CARTESIAN_POINT('',(-0.02937,0.03,0.3));
#1515=CARTESIAN_POINT('',(-0.04937,0.03,-0.01));
#1516=CARTESIAN_POINT('',(-0.04937,0.03,-0.01813));
#1517=CARTESIAN_POINT('',(0.05437,0.03,-0.01813));
#1518=CARTESIAN_POINT('',(0.05437,0.03,-0.01813));
#1519=CARTESIAN_POINT('',(0.05437,0.03,0.01813));
#1520=CARTESIAN_POINT('',(0.04937,0.03,0.3));
#1521=CARTESIAN_POINT('',(0.02937,0.03,0.3));
#1522=CARTESIAN_POINT('',(0.05437,0.03,-0.01813));
#1523=CARTESIAN_POINT('',(-0.04937,0.03,-0.01813));
#1524=CARTESIAN_POINT('',(-0.04937,0.039,-0.01813));
#1525=CARTESIAN_POINT('',(0.05437,0.039,-0.01813));
#1526=CARTESIAN_POINT('',(0.05437,0.039,-0.01813));
#1527=CARTESIAN_POINT('',(0.05437,0.03,-0.01813));
#1528=CARTESIAN_POINT('',(0.05437,0.039,-0.01));
#1529=CARTESIAN_POINT('',(0.05437,0.039,-0.01));
#1530=CARTESIAN_POINT('',(0.04937,0.039,-0.00999999999999986));
#1531=CARTESIAN_POINT('',(0.02937,0.039,-0.00999999999999986));
#1532=CARTESIAN_POINT('',(0.02937,0.039,-0.01));
#1533=CARTESIAN_POINT('',(0.02937,0.304,-0.01));
#1534=CARTESIAN_POINT('',(0.05437,0.304,-0.01));
#1535=CARTESIAN_POINT('',(0.04937,0.304,-0.01));
#1536=CARTESIAN_POINT('',(0.04937,0.039,-0.01));
#1537=CARTESIAN_POINT('',(0.05437,0.304,-0.01));
#1538=CARTESIAN_POINT('',(0.0335366666666667,0.312333333333333,-0.00583333333333334));
#1539=CARTESIAN_POINT('',(0.03437,0.314,-0.00499999999999995));
#1540=CARTESIAN_POINT('',(0.05437,0.314,-0.005));
#1541=CARTESIAN_POINT('',(0.04437,0.314,-0.00499999999999995));
#1542=CARTESIAN_POINT('',(0.0502033333333333,0.302333333333333,-0.0108333333333333));
#1543=CARTESIAN_POINT('',(0.05437,0.314,-0.005));
#1544=CARTESIAN_POINT('',(0.03437,0.314,0.3));
#1545=CARTESIAN_POINT('',(0.03437,0.314,0.00500000000000005));
#1546=CARTESIAN_POINT('',(0.05437,0.314,0.005));
#1547=CARTESIAN_POINT('',(0.04437,0.314,0.00500000000000001));
#1548=CARTESIAN_POINT('',(0.04437,0.314,0.3));
#1549=CARTESIAN_POINT('',(0.05437,0.314,0.005));
#1550=CARTESIAN_POINT('',(0.0377033333333333,0.320666666666667,0.00166666666666666));
#1551=CARTESIAN_POINT('',(0.02937,0.304,0.0100000000000001));
#1552=CARTESIAN_POINT('',(0.05437,0.304,0.01));
#1553=CARTESIAN_POINT('',(0.04937,0.304,0.0100000000000001));
#1554=CARTESIAN_POINT('',(0.0460366666666667,0.310666666666667,0.00666666666666666));
#1555=CARTESIAN_POINT('',(0.05437,0.304,0.01));
#1556=CARTESIAN_POINT('',(0.02937,0.304,0.01));
#1557=CARTESIAN_POINT('',(0.02937,0.039,0.01));
#1558=CARTESIAN_POINT('',(0.05437,0.039,0.01));
#1559=CARTESIAN_POINT('',(0.04937,0.039,0.0100000000000001));
#1560=CARTESIAN_POINT('',(0.04937,0.304,0.01));
#1561=CARTESIAN_POINT('',(0.05437,0.039,0.01));
#1562=CARTESIAN_POINT('',(0.02937,0.039,0.3));
#1563=CARTESIAN_POINT('',(0.04937,0.039,0.3));
#1564=CARTESIAN_POINT('',(-0.04937,0.039,-0.01813));
#1565=CARTESIAN_POINT('',(-0.02937,0.039,0.3));
#1566=CARTESIAN_POINT('',(-0.04937,0.039,0.01));
#1567=CARTESIAN_POINT('',(0.05437,0.039,-0.01813));
#1568=CARTESIAN_POINT('',(0.05437,0.,0.));
#1569=CARTESIAN_POINT('',(-0.04937,0.,0.));
#1570=CARTESIAN_POINT('',(-0.04937,0.304,0.));
#1571=CARTESIAN_POINT('',(-0.04937,-0.053,0.));
#1572=CARTESIAN_POINT('',(-0.04937,-0.053,0.3));
#1573=CARTESIAN_POINT('',(-0.04437,0.314,0.3));
#1574=CARTESIAN_POINT('',(0.04937,-0.053,0.3));
#1575=CARTESIAN_POINT('',(0.04937,-0.053,0.3));
#1576=CARTESIAN_POINT('',(0.04437,-0.063,0.3));
#1577=CARTESIAN_POINT('',(0.04937,0.039,0.3));
#1578=CARTESIAN_POINT('',(0.04937,0.304,0.3));
#1579=CARTESIAN_POINT('',(0.04937,0.304,0.3));
#1580=CARTESIAN_POINT('',(0.02937,0.304,0.3));
#1581=CARTESIAN_POINT('',(0.02937,0.304,0.3));
#1582=CARTESIAN_POINT('',(-0.02937,0.039,0.3));
#1583=CARTESIAN_POINT('',(-0.02937,0.304,0.3));
#1584=CARTESIAN_POINT('',(0.03437,0.314,0.3));
#1585=CARTESIAN_POINT('',(-0.02937,0.304,0.3));
#1586=CARTESIAN_POINT('',(0.02937,-0.053,0.3));
#1587=CARTESIAN_POINT('',(0.02937,-0.053,0.3));
#1588=CARTESIAN_POINT('',(-0.03437,-0.063,0.3));
#1589=CARTESIAN_POINT('',(-0.02937,-0.053,0.3));
#1590=CARTESIAN_POINT('',(0.02937,0.03,0.3));
#1591=CARTESIAN_POINT('',(-0.02937,-0.053,0.3));
#1592=CARTESIAN_POINT('',(0.,0.,0.));
#1593=CARTESIAN_POINT('',(0.,0.,0.));
#1594=CARTESIAN_POINT('',(-0.07874,0.,-0.03935));
#1595=CARTESIAN_POINT('',(-0.07874,0.,0.02435));
#1596=CARTESIAN_POINT('',(-0.07874,0.,0.03935));
#1597=CARTESIAN_POINT('',(-0.07874,0.,0.02435));
#1598=CARTESIAN_POINT('',(0.07874,0.,0.02435));
#1599=CARTESIAN_POINT('',(0.07874,0.,0.03935));
#1600=CARTESIAN_POINT('',(0.07874,0.,0.03935));
#1601=CARTESIAN_POINT('',(-0.07874,0.,0.03935));
#1602=CARTESIAN_POINT('',(-0.07874,0.059,-0.03935));
#1603=CARTESIAN_POINT('',(-0.07874,0.01,-0.02435));
#1604=CARTESIAN_POINT('',(-0.07874,0.01,-0.02435));
#1605=CARTESIAN_POINT('',(-0.07874,0.01,0.02435));
#1606=CARTESIAN_POINT('',(-0.07874,0.01,0.02435));
#1607=CARTESIAN_POINT('',(-0.07874,0.059,0.03935));
#1608=CARTESIAN_POINT('',(-0.07874,0.059,0.03935));
#1609=CARTESIAN_POINT('',(-0.07874,0.059,-0.03935));
#1610=CARTESIAN_POINT('',(-0.07874,0.059,-0.03935));
#1611=CARTESIAN_POINT('',(-0.07874,0.059,-0.03935));
#1612=CARTESIAN_POINT('',(-0.07874,0.,-0.03935));
#1613=CARTESIAN_POINT('',(-0.07874,0.,-0.03935));
#1614=CARTESIAN_POINT('',(-0.07874,0.,-0.02435));
#1615=CARTESIAN_POINT('',(-0.07874,0.,-0.02435));
#1616=CARTESIAN_POINT('',(-0.07874,0.059,0.03935));
#1617=CARTESIAN_POINT('',(0.07874,0.059,0.03935));
#1618=CARTESIAN_POINT('',(0.07874,0.059,0.03935));
#1619=CARTESIAN_POINT('',(-0.07874,0.059,0.03935));
#1620=CARTESIAN_POINT('',(0.07874,0.059,0.03935));
#1621=CARTESIAN_POINT('',(0.07874,0.01,0.02435));
#1622=CARTESIAN_POINT('',(0.07874,0.01,0.02435));
#1623=CARTESIAN_POINT('',(0.07874,0.01,-0.02435));
#1624=CARTESIAN_POINT('',(0.07874,0.01,-0.02435));
#1625=CARTESIAN_POINT('',(0.07874,0.,-0.02435));
#1626=CARTESIAN_POINT('',(0.07874,0.,-0.02435));
#1627=CARTESIAN_POINT('',(0.07874,0.,0.03935));
#1628=CARTESIAN_POINT('',(0.07874,0.,-0.03935));
#1629=CARTESIAN_POINT('',(0.07874,0.059,-0.03935));
#1630=CARTESIAN_POINT('',(0.07874,0.059,-0.03935));
#1631=CARTESIAN_POINT('',(0.07874,0.059,0.03935));
#1632=CARTESIAN_POINT('',(0.02937,0.059,-0.01));
#1633=CARTESIAN_POINT('',(0.02937,0.01,-0.01));
#1634=CARTESIAN_POINT('',(0.02937,0.01,-0.01));
#1635=CARTESIAN_POINT('',(0.02937,0.01,0.01));
#1636=CARTESIAN_POINT('',(0.02937,0.059,-0.01));
#1637=CARTESIAN_POINT('',(0.02937,0.059,-0.01));
#1638=CARTESIAN_POINT('',(0.02937,0.059,-0.01));
#1639=CARTESIAN_POINT('',(0.02937,0.059,0.01));
#1640=CARTESIAN_POINT('',(0.02937,0.059,0.01));
#1641=CARTESIAN_POINT('',(0.04937,0.059,-0.01));
#1642=CARTESIAN_POINT('',(0.04937,0.01,-0.01));
#1643=CARTESIAN_POINT('',(0.04937,0.01,-0.01));
#1644=CARTESIAN_POINT('',(0.04937,0.059,-0.01));
#1645=CARTESIAN_POINT('',(0.04937,0.059,-0.01));
#1646=CARTESIAN_POINT('',(0.04937,0.059,-0.01));
#1647=CARTESIAN_POINT('',(0.04937,0.059,0.01));
#1648=CARTESIAN_POINT('',(0.04937,0.01,0.01));
#1649=CARTESIAN_POINT('',(0.04937,0.01,0.01));
#1650=CARTESIAN_POINT('',(0.04937,0.059,0.01));
#1651=CARTESIAN_POINT('',(0.04937,0.059,0.01));
#1652=CARTESIAN_POINT('',(0.04937,0.059,0.01));
#1653=CARTESIAN_POINT('',(-0.04937,0.059,-0.01));
#1654=CARTESIAN_POINT('',(-0.04937,0.01,-0.01));
#1655=CARTESIAN_POINT('',(-0.04937,0.01,-0.01));
#1656=CARTESIAN_POINT('',(-0.04937,0.01,0.01));
#1657=CARTESIAN_POINT('',(-0.04937,0.059,-0.01));
#1658=CARTESIAN_POINT('',(-0.04937,0.059,-0.01));
#1659=CARTESIAN_POINT('',(-0.04937,0.059,-0.01));
#1660=CARTESIAN_POINT('',(-0.04937,0.059,0.01));
#1661=CARTESIAN_POINT('',(-0.04937,0.059,0.01));
#1662=CARTESIAN_POINT('',(-0.02937,0.059,-0.01));
#1663=CARTESIAN_POINT('',(-0.02937,0.01,-0.01));
#1664=CARTESIAN_POINT('',(-0.02937,0.01,-0.01));
#1665=CARTESIAN_POINT('',(-0.02937,0.059,-0.01));
#1666=CARTESIAN_POINT('',(-0.02937,0.059,-0.01));
#1667=CARTESIAN_POINT('',(-0.02937,0.059,-0.01));
#1668=CARTESIAN_POINT('',(-0.02937,0.059,0.01));
#1669=CARTESIAN_POINT('',(-0.02937,0.01,0.01));
#1670=CARTESIAN_POINT('',(-0.02937,0.01,0.01));
#1671=CARTESIAN_POINT('',(-0.02937,0.059,0.01));
#1672=CARTESIAN_POINT('',(-0.02937,0.059,0.01));
#1673=CARTESIAN_POINT('',(-0.02937,0.059,0.01));
#1674=CARTESIAN_POINT('',(0.02937,0.059,0.01));
#1675=CARTESIAN_POINT('',(0.02937,0.01,0.01));
#1676=CARTESIAN_POINT('',(0.02937,0.059,0.01));
#1677=CARTESIAN_POINT('',(-0.04937,0.059,0.01));
#1678=CARTESIAN_POINT('',(-0.04937,0.01,0.01));
#1679=CARTESIAN_POINT('',(-0.04937,0.059,0.01));
#1680=CARTESIAN_POINT('',(0.07874,0.059,-0.03935));
#1681=CARTESIAN_POINT('',(0.07874,0.,-0.03935));
#1682=CARTESIAN_POINT('',(0.07874,0.059,-0.03935));
#1683=CARTESIAN_POINT('',(0.,0.059,0.));
#1684=CARTESIAN_POINT('',(0.,0.,0.));
#1685=CARTESIAN_POINT('',(-0.07874,0.,-0.02435));
#1686=CARTESIAN_POINT('',(-0.07874,0.01,0.02435));
#1687=CARTESIAN_POINT('',(-0.07874,0.01,0.02435));
#1688=CARTESIAN_POINT('',(-0.07874,0.,-0.02435));
#1689=CARTESIAN_POINT('',(-0.07874,0.01,-0.02435));
#1690=CARTESIAN_POINT('',(-0.07874,0.01,-0.02435));
#1691=CARTESIAN_POINT('',(0.,0.,0.));
#1692=MECHANICAL_DESIGN_GEOMETRIC_PRESENTATION_REPRESENTATION('',(#1056,
#1057),#1693);
#1693=(
GEOMETRIC_REPRESENTATION_CONTEXT(3)
GLOBAL_UNCERTAINTY_ASSIGNED_CONTEXT((#1696))
GLOBAL_UNIT_ASSIGNED_CONTEXT((#1701,#1700,#1699))
REPRESENTATION_CONTEXT('MTMM-102-05-T-S-255','TOP_LEVEL_ASSEMBLY_PART')
);
#1694=(
GEOMETRIC_REPRESENTATION_CONTEXT(3)
GLOBAL_UNCERTAINTY_ASSIGNED_CONTEXT((#1697))
GLOBAL_UNIT_ASSIGNED_CONTEXT((#1701,#1700,#1699))
REPRESENTATION_CONTEXT('MTMM-102-05-T-S-255_pins','COMPONENT_PART')
);
#1695=(
GEOMETRIC_REPRESENTATION_CONTEXT(3)
GLOBAL_UNCERTAINTY_ASSIGNED_CONTEXT((#1698))
GLOBAL_UNIT_ASSIGNED_CONTEXT((#1701,#1700,#1699))
REPRESENTATION_CONTEXT('MTMM-102-05-T-S-255_body','COMPONENT_PART')
);
#1696=UNCERTAINTY_MEASURE_WITH_UNIT(LENGTH_MEASURE(3.93700787401575E-7),
#1701,'DISTANCE_ACCURACY_VALUE','Maximum Tolerance applied to model');
#1697=UNCERTAINTY_MEASURE_WITH_UNIT(LENGTH_MEASURE(3.93700787401575E-7),
#1701,'DISTANCE_ACCURACY_VALUE','Maximum Tolerance applied to model');
#1698=UNCERTAINTY_MEASURE_WITH_UNIT(LENGTH_MEASURE(3.93700787401575E-7),
#1701,'DISTANCE_ACCURACY_VALUE','Maximum Tolerance applied to model');
#1699=(
NAMED_UNIT(*)
SI_UNIT($,.STERADIAN.)
SOLID_ANGLE_UNIT()
);
#1700=(
NAMED_UNIT(*)
PLANE_ANGLE_UNIT()
SI_UNIT($,.RADIAN.)
);
#1701=(
CONVERSION_BASED_UNIT('INCH',#1703)
LENGTH_UNIT()
NAMED_UNIT(#1702)
);
#1702=DIMENSIONAL_EXPONENTS(1.,0.,0.,0.,0.,0.,0.);
#1703=LENGTH_MEASURE_WITH_UNIT(LENGTH_MEASURE(25.4),#1704);
#1704=(
LENGTH_UNIT()
NAMED_UNIT(*)
SI_UNIT(.MILLI.,.METRE.)
);
#1705=PRODUCT_DEFINITION_SHAPE('','',#1710);
#1706=PRODUCT_DEFINITION_SHAPE('','',#1711);
#1707=PRODUCT_DEFINITION_SHAPE(' ','NAUO PRDDFN',#12);
#1708=PRODUCT_DEFINITION_SHAPE('','',#1712);
#1709=PRODUCT_DEFINITION_SHAPE(' ','NAUO PRDDFN',#13);
#1710=PRODUCT_DEFINITION('','',#1716,#1713);
#1711=PRODUCT_DEFINITION('','',#1717,#1714);
#1712=PRODUCT_DEFINITION('','',#1718,#1715);
#1713=PRODUCT_DEFINITION_CONTEXT('',#1732,'design');
#1714=PRODUCT_DEFINITION_CONTEXT('',#1732,'design');
#1715=PRODUCT_DEFINITION_CONTEXT('',#1732,'design');
#1716=PRODUCT_DEFINITION_FORMATION_WITH_SPECIFIED_SOURCE('','',#1722,
 .NOT_KNOWN.);
#1717=PRODUCT_DEFINITION_FORMATION_WITH_SPECIFIED_SOURCE('','',#1723,
 .NOT_KNOWN.);
#1718=PRODUCT_DEFINITION_FORMATION_WITH_SPECIFIED_SOURCE('','',#1724,
 .NOT_KNOWN.);
#1719=PRODUCT_RELATED_PRODUCT_CATEGORY('','',(#1722));
#1720=PRODUCT_RELATED_PRODUCT_CATEGORY('','',(#1723));
#1721=PRODUCT_RELATED_PRODUCT_CATEGORY('','',(#1724));
#1722=PRODUCT('MTMM-102-05-T-S-255','MTMM-102-05-T-S-255',
'MTMM-102-05-T-S-255',(#1728));
#1723=PRODUCT('MTMM-102-05-T-S-255_pins','MTMM-102-05-T-S-255_pins',
'MTMM-102-05-T-S-255_pins',(#1729));
#1724=PRODUCT('MTMM-102-05-T-S-255_body','MTMM-102-05-T-S-255_body',
'MTMM-102-05-T-S-255_body',(#1730));
#1725=PRODUCT_CATEGORY('','');
#1726=PRODUCT_CATEGORY('','');
#1727=PRODUCT_CATEGORY('','');
#1728=PRODUCT_CONTEXT('',#1732,'mechanical');
#1729=PRODUCT_CONTEXT('',#1732,'mechanical');
#1730=PRODUCT_CONTEXT('',#1732,'mechanical');
#1731=APPLICATION_PROTOCOL_DEFINITION('international standard',
'ap242_managed_model_based_3d_engineering',2011,#1732);
#1732=APPLICATION_CONTEXT('managed model based 3d engineering');
ENDSEC;
END-ISO-10303-21;
