ISO-10303-21;
HEADER;
/* Generated by software containing ST-Developer
 * from STEP Tools, Inc. (www.steptools.com) 
 */
/* OPTION: using custom renumber hook */

FILE_DESCRIPTION(
/* description */ ('STEP AP242',
'CAx-IF Rec.Pracs.---Representation and Presentation of Product Manufa
cturing Information (PMI)---4.0---2014-10-13',
'CAx-IF Rec.Pracs.---3D Tessellated Geometry---0.4---2014-09-14','2;1'),

/* implementation_level */ '2;1');

FILE_NAME(
/* name */ 'MTSW-101-07-T-D-240',
/* time_stamp */ '2026-07-03T15:51:21+02:00',
/* author */ ('License CC BY-ND 4.0'),
/* organization */ ('CADENAS'),
/* preprocessor_version */ 'ST-DEVELOPER v20',
/* originating_system */ 'PARTsolutions',
/* authorisation */ '  ');

FILE_SCHEMA (('AP242_MANAGED_MODEL_BASED_3D_ENGINEERING_MIM_LF { 1 0 10303 442 1 1 4 }'));
ENDSEC;

DATA;
#10=DRAUGHTING_PRE_DEFINED_COLOUR('yellow');
#11=CONTEXT_DEPENDENT_SHAPE_REPRESENTATION(#15,#1739);
#12=CONTEXT_DEPENDENT_SHAPE_REPRESENTATION(#16,#1741);
#13=NEXT_ASSEMBLY_USAGE_OCCURRENCE('NAUO1','MTSW-101-07-T-D-240_body',
'MTSW-101-07-T-D-240_body',#1742,#1743,'');
#14=NEXT_ASSEMBLY_USAGE_OCCURRENCE('NAUO2','MTSW-101-07-D-240',
'MTSW-101-07-D-240',#1742,#1744,'');
#15=(
REPRESENTATION_RELATIONSHIP(' ',' ',#1102,#1101)
REPRESENTATION_RELATIONSHIP_WITH_TRANSFORMATION(#17)
SHAPE_REPRESENTATION_RELATIONSHIP()
);
#16=(
REPRESENTATION_RELATIONSHIP(' ',' ',#1103,#1101)
REPRESENTATION_RELATIONSHIP_WITH_TRANSFORMATION(#18)
SHAPE_REPRESENTATION_RELATIONSHIP()
);
#17=ITEM_DEFINED_TRANSFORMATION(' ',' ',#1104,#1135);
#18=ITEM_DEFINED_TRANSFORMATION(' ',' ',#1104,#1162);
#19=SHAPE_REPRESENTATION_RELATIONSHIP('','',#1102,#21);
#20=SHAPE_REPRESENTATION_RELATIONSHIP('','',#1103,#22);
#21=ADVANCED_BREP_SHAPE_REPRESENTATION('',(#1096),#1726);
#22=ADVANCED_BREP_SHAPE_REPRESENTATION('',(#1097),#1727);
#23=ORIENTED_EDGE('',*,*,#311,.F.);
#24=ORIENTED_EDGE('',*,*,#312,.F.);
#25=ORIENTED_EDGE('',*,*,#313,.F.);
#26=ORIENTED_EDGE('',*,*,#314,.F.);
#27=ORIENTED_EDGE('',*,*,#315,.F.);
#28=ORIENTED_EDGE('',*,*,#316,.F.);
#29=ORIENTED_EDGE('',*,*,#317,.F.);
#30=ORIENTED_EDGE('',*,*,#318,.F.);
#31=ORIENTED_EDGE('',*,*,#319,.F.);
#32=ORIENTED_EDGE('',*,*,#320,.F.);
#33=ORIENTED_EDGE('',*,*,#321,.F.);
#34=ORIENTED_EDGE('',*,*,#322,.F.);
#35=ORIENTED_EDGE('',*,*,#323,.F.);
#36=ORIENTED_EDGE('',*,*,#324,.F.);
#37=ORIENTED_EDGE('',*,*,#325,.F.);
#38=ORIENTED_EDGE('',*,*,#326,.F.);
#39=ORIENTED_EDGE('',*,*,#327,.T.);
#40=ORIENTED_EDGE('',*,*,#328,.T.);
#41=ORIENTED_EDGE('',*,*,#314,.T.);
#42=ORIENTED_EDGE('',*,*,#329,.T.);
#43=ORIENTED_EDGE('',*,*,#316,.T.);
#44=ORIENTED_EDGE('',*,*,#330,.T.);
#45=ORIENTED_EDGE('',*,*,#331,.T.);
#46=ORIENTED_EDGE('',*,*,#332,.T.);
#47=ORIENTED_EDGE('',*,*,#320,.T.);
#48=ORIENTED_EDGE('',*,*,#333,.T.);
#49=ORIENTED_EDGE('',*,*,#334,.F.);
#50=ORIENTED_EDGE('',*,*,#335,.T.);
#51=ORIENTED_EDGE('',*,*,#336,.F.);
#52=ORIENTED_EDGE('',*,*,#337,.T.);
#53=ORIENTED_EDGE('',*,*,#326,.T.);
#54=ORIENTED_EDGE('',*,*,#338,.T.);
#55=ORIENTED_EDGE('',*,*,#312,.T.);
#56=ORIENTED_EDGE('',*,*,#339,.T.);
#57=ORIENTED_EDGE('',*,*,#340,.F.);
#58=ORIENTED_EDGE('',*,*,#341,.T.);
#59=ORIENTED_EDGE('',*,*,#342,.F.);
#60=ORIENTED_EDGE('',*,*,#343,.T.);
#61=ORIENTED_EDGE('',*,*,#318,.T.);
#62=ORIENTED_EDGE('',*,*,#344,.T.);
#63=ORIENTED_EDGE('',*,*,#345,.T.);
#64=ORIENTED_EDGE('',*,*,#346,.T.);
#65=ORIENTED_EDGE('',*,*,#322,.T.);
#66=ORIENTED_EDGE('',*,*,#347,.T.);
#67=ORIENTED_EDGE('',*,*,#324,.T.);
#68=ORIENTED_EDGE('',*,*,#348,.T.);
#69=ORIENTED_EDGE('',*,*,#349,.T.);
#70=ORIENTED_EDGE('',*,*,#350,.T.);
#71=ORIENTED_EDGE('',*,*,#344,.F.);
#72=ORIENTED_EDGE('',*,*,#317,.T.);
#73=ORIENTED_EDGE('',*,*,#332,.F.);
#74=ORIENTED_EDGE('',*,*,#351,.F.);
#75=ORIENTED_EDGE('',*,*,#352,.F.);
#76=ORIENTED_EDGE('',*,*,#353,.F.);
#77=ORIENTED_EDGE('',*,*,#354,.T.);
#78=ORIENTED_EDGE('',*,*,#355,.F.);
#79=ORIENTED_EDGE('',*,*,#338,.F.);
#80=ORIENTED_EDGE('',*,*,#325,.T.);
#81=ORIENTED_EDGE('',*,*,#350,.F.);
#82=ORIENTED_EDGE('',*,*,#356,.F.);
#83=ORIENTED_EDGE('',*,*,#341,.F.);
#84=ORIENTED_EDGE('',*,*,#357,.F.);
#85=ORIENTED_EDGE('',*,*,#347,.F.);
#86=ORIENTED_EDGE('',*,*,#321,.T.);
#87=ORIENTED_EDGE('',*,*,#335,.F.);
#88=ORIENTED_EDGE('',*,*,#358,.F.);
#89=ORIENTED_EDGE('',*,*,#359,.F.);
#90=ORIENTED_EDGE('',*,*,#360,.F.);
#91=ORIENTED_EDGE('',*,*,#361,.T.);
#92=ORIENTED_EDGE('',*,*,#362,.F.);
#93=ORIENTED_EDGE('',*,*,#329,.F.);
#94=ORIENTED_EDGE('',*,*,#313,.T.);
#95=ORIENTED_EDGE('',*,*,#363,.T.);
#96=ORIENTED_EDGE('',*,*,#364,.T.);
#97=ORIENTED_EDGE('',*,*,#365,.F.);
#98=ORIENTED_EDGE('',*,*,#366,.T.);
#99=ORIENTED_EDGE('',*,*,#365,.T.);
#100=ORIENTED_EDGE('',*,*,#367,.T.);
#101=ORIENTED_EDGE('',*,*,#368,.F.);
#102=ORIENTED_EDGE('',*,*,#369,.T.);
#103=ORIENTED_EDGE('',*,*,#368,.T.);
#104=ORIENTED_EDGE('',*,*,#370,.T.);
#105=ORIENTED_EDGE('',*,*,#371,.F.);
#106=ORIENTED_EDGE('',*,*,#372,.T.);
#107=ORIENTED_EDGE('',*,*,#373,.T.);
#108=ORIENTED_EDGE('',*,*,#374,.T.);
#109=ORIENTED_EDGE('',*,*,#375,.F.);
#110=ORIENTED_EDGE('',*,*,#376,.T.);
#111=ORIENTED_EDGE('',*,*,#375,.T.);
#112=ORIENTED_EDGE('',*,*,#377,.T.);
#113=ORIENTED_EDGE('',*,*,#378,.F.);
#114=ORIENTED_EDGE('',*,*,#379,.T.);
#115=ORIENTED_EDGE('',*,*,#378,.T.);
#116=ORIENTED_EDGE('',*,*,#380,.T.);
#117=ORIENTED_EDGE('',*,*,#381,.F.);
#118=ORIENTED_EDGE('',*,*,#382,.T.);
#119=ORIENTED_EDGE('',*,*,#371,.T.);
#120=ORIENTED_EDGE('',*,*,#383,.T.);
#121=ORIENTED_EDGE('',*,*,#363,.F.);
#122=ORIENTED_EDGE('',*,*,#384,.T.);
#123=ORIENTED_EDGE('',*,*,#381,.T.);
#124=ORIENTED_EDGE('',*,*,#385,.T.);
#125=ORIENTED_EDGE('',*,*,#373,.F.);
#126=ORIENTED_EDGE('',*,*,#386,.T.);
#127=ORIENTED_EDGE('',*,*,#387,.F.);
#128=ORIENTED_EDGE('',*,*,#354,.F.);
#129=ORIENTED_EDGE('',*,*,#388,.F.);
#130=ORIENTED_EDGE('',*,*,#359,.T.);
#131=ORIENTED_EDGE('',*,*,#389,.F.);
#132=ORIENTED_EDGE('',*,*,#361,.F.);
#133=ORIENTED_EDGE('',*,*,#390,.F.);
#134=ORIENTED_EDGE('',*,*,#352,.T.);
#135=ORIENTED_EDGE('',*,*,#376,.F.);
#136=ORIENTED_EDGE('',*,*,#379,.F.);
#137=ORIENTED_EDGE('',*,*,#382,.F.);
#138=ORIENTED_EDGE('',*,*,#386,.F.);
#139=ORIENTED_EDGE('',*,*,#366,.F.);
#140=ORIENTED_EDGE('',*,*,#369,.F.);
#141=ORIENTED_EDGE('',*,*,#372,.F.);
#142=ORIENTED_EDGE('',*,*,#384,.F.);
#143=ORIENTED_EDGE('',*,*,#353,.T.);
#144=ORIENTED_EDGE('',*,*,#390,.T.);
#145=ORIENTED_EDGE('',*,*,#360,.T.);
#146=ORIENTED_EDGE('',*,*,#388,.T.);
#147=ORIENTED_EDGE('',*,*,#391,.T.);
#148=ORIENTED_EDGE('',*,*,#327,.F.);
#149=ORIENTED_EDGE('',*,*,#362,.T.);
#150=ORIENTED_EDGE('',*,*,#389,.T.);
#151=ORIENTED_EDGE('',*,*,#351,.T.);
#152=ORIENTED_EDGE('',*,*,#331,.F.);
#153=ORIENTED_EDGE('',*,*,#392,.F.);
#154=ORIENTED_EDGE('',*,*,#342,.T.);
#155=ORIENTED_EDGE('',*,*,#356,.T.);
#156=ORIENTED_EDGE('',*,*,#349,.F.);
#157=ORIENTED_EDGE('',*,*,#393,.F.);
#158=ORIENTED_EDGE('',*,*,#336,.T.);
#159=ORIENTED_EDGE('',*,*,#355,.T.);
#160=ORIENTED_EDGE('',*,*,#387,.T.);
#161=ORIENTED_EDGE('',*,*,#358,.T.);
#162=ORIENTED_EDGE('',*,*,#334,.T.);
#163=ORIENTED_EDGE('',*,*,#394,.T.);
#164=ORIENTED_EDGE('',*,*,#345,.F.);
#165=ORIENTED_EDGE('',*,*,#357,.T.);
#166=ORIENTED_EDGE('',*,*,#340,.T.);
#167=ORIENTED_EDGE('',*,*,#383,.F.);
#168=ORIENTED_EDGE('',*,*,#370,.F.);
#169=ORIENTED_EDGE('',*,*,#367,.F.);
#170=ORIENTED_EDGE('',*,*,#364,.F.);
#171=ORIENTED_EDGE('',*,*,#385,.F.);
#172=ORIENTED_EDGE('',*,*,#380,.F.);
#173=ORIENTED_EDGE('',*,*,#377,.F.);
#174=ORIENTED_EDGE('',*,*,#374,.F.);
#175=ORIENTED_EDGE('',*,*,#393,.T.);
#176=ORIENTED_EDGE('',*,*,#348,.F.);
#177=ORIENTED_EDGE('',*,*,#323,.T.);
#178=ORIENTED_EDGE('',*,*,#337,.F.);
#179=ORIENTED_EDGE('',*,*,#319,.T.);
#180=ORIENTED_EDGE('',*,*,#346,.F.);
#181=ORIENTED_EDGE('',*,*,#394,.F.);
#182=ORIENTED_EDGE('',*,*,#333,.F.);
#183=ORIENTED_EDGE('',*,*,#391,.F.);
#184=ORIENTED_EDGE('',*,*,#339,.F.);
#185=ORIENTED_EDGE('',*,*,#311,.T.);
#186=ORIENTED_EDGE('',*,*,#328,.F.);
#187=ORIENTED_EDGE('',*,*,#315,.T.);
#188=ORIENTED_EDGE('',*,*,#343,.F.);
#189=ORIENTED_EDGE('',*,*,#392,.T.);
#190=ORIENTED_EDGE('',*,*,#330,.F.);
#191=ORIENTED_EDGE('',*,*,#395,.F.);
#192=ORIENTED_EDGE('',*,*,#396,.F.);
#193=ORIENTED_EDGE('',*,*,#397,.F.);
#194=ORIENTED_EDGE('',*,*,#398,.T.);
#195=ORIENTED_EDGE('',*,*,#399,.F.);
#196=ORIENTED_EDGE('',*,*,#400,.T.);
#197=ORIENTED_EDGE('',*,*,#401,.T.);
#198=ORIENTED_EDGE('',*,*,#402,.F.);
#199=ORIENTED_EDGE('',*,*,#403,.F.);
#200=ORIENTED_EDGE('',*,*,#404,.F.);
#201=ORIENTED_EDGE('',*,*,#405,.F.);
#202=ORIENTED_EDGE('',*,*,#396,.T.);
#203=ORIENTED_EDGE('',*,*,#406,.F.);
#204=ORIENTED_EDGE('',*,*,#402,.T.);
#205=ORIENTED_EDGE('',*,*,#407,.T.);
#206=ORIENTED_EDGE('',*,*,#408,.F.);
#207=ORIENTED_EDGE('',*,*,#409,.F.);
#208=ORIENTED_EDGE('',*,*,#398,.F.);
#209=ORIENTED_EDGE('',*,*,#410,.F.);
#210=ORIENTED_EDGE('',*,*,#411,.F.);
#211=ORIENTED_EDGE('',*,*,#412,.F.);
#212=ORIENTED_EDGE('',*,*,#413,.F.);
#213=ORIENTED_EDGE('',*,*,#414,.T.);
#214=ORIENTED_EDGE('',*,*,#400,.F.);
#215=ORIENTED_EDGE('',*,*,#415,.F.);
#216=ORIENTED_EDGE('',*,*,#416,.F.);
#217=ORIENTED_EDGE('',*,*,#417,.F.);
#218=ORIENTED_EDGE('',*,*,#418,.T.);
#219=ORIENTED_EDGE('',*,*,#419,.F.);
#220=ORIENTED_EDGE('',*,*,#420,.T.);
#221=ORIENTED_EDGE('',*,*,#421,.T.);
#222=ORIENTED_EDGE('',*,*,#422,.F.);
#223=ORIENTED_EDGE('',*,*,#423,.F.);
#224=ORIENTED_EDGE('',*,*,#424,.F.);
#225=ORIENTED_EDGE('',*,*,#425,.F.);
#226=ORIENTED_EDGE('',*,*,#426,.F.);
#227=ORIENTED_EDGE('',*,*,#427,.F.);
#228=ORIENTED_EDGE('',*,*,#428,.F.);
#229=ORIENTED_EDGE('',*,*,#429,.T.);
#230=ORIENTED_EDGE('',*,*,#430,.F.);
#231=ORIENTED_EDGE('',*,*,#431,.F.);
#232=ORIENTED_EDGE('',*,*,#418,.F.);
#233=ORIENTED_EDGE('',*,*,#432,.F.);
#234=ORIENTED_EDGE('',*,*,#424,.T.);
#235=ORIENTED_EDGE('',*,*,#433,.F.);
#236=ORIENTED_EDGE('',*,*,#430,.T.);
#237=ORIENTED_EDGE('',*,*,#434,.T.);
#238=ORIENTED_EDGE('',*,*,#420,.F.);
#239=ORIENTED_EDGE('',*,*,#417,.T.);
#240=ORIENTED_EDGE('',*,*,#435,.T.);
#241=ORIENTED_EDGE('',*,*,#425,.T.);
#242=ORIENTED_EDGE('',*,*,#432,.T.);
#243=ORIENTED_EDGE('',*,*,#436,.F.);
#244=ORIENTED_EDGE('',*,*,#421,.F.);
#245=ORIENTED_EDGE('',*,*,#434,.F.);
#246=ORIENTED_EDGE('',*,*,#429,.F.);
#247=ORIENTED_EDGE('',*,*,#416,.T.);
#248=ORIENTED_EDGE('',*,*,#437,.F.);
#249=ORIENTED_EDGE('',*,*,#426,.T.);
#250=ORIENTED_EDGE('',*,*,#435,.F.);
#251=ORIENTED_EDGE('',*,*,#438,.T.);
#252=ORIENTED_EDGE('',*,*,#422,.T.);
#253=ORIENTED_EDGE('',*,*,#436,.T.);
#254=ORIENTED_EDGE('',*,*,#428,.T.);
#255=ORIENTED_EDGE('',*,*,#439,.T.);
#256=ORIENTED_EDGE('',*,*,#440,.F.);
#257=ORIENTED_EDGE('',*,*,#441,.F.);
#258=ORIENTED_EDGE('',*,*,#442,.T.);
#259=ORIENTED_EDGE('',*,*,#443,.T.);
#260=ORIENTED_EDGE('',*,*,#444,.F.);
#261=ORIENTED_EDGE('',*,*,#445,.F.);
#262=ORIENTED_EDGE('',*,*,#440,.T.);
#263=ORIENTED_EDGE('',*,*,#404,.T.);
#264=ORIENTED_EDGE('',*,*,#446,.T.);
#265=ORIENTED_EDGE('',*,*,#411,.T.);
#266=ORIENTED_EDGE('',*,*,#447,.F.);
#267=ORIENTED_EDGE('',*,*,#413,.T.);
#268=ORIENTED_EDGE('',*,*,#448,.F.);
#269=ORIENTED_EDGE('',*,*,#408,.T.);
#270=ORIENTED_EDGE('',*,*,#449,.T.);
#271=ORIENTED_EDGE('',*,*,#450,.T.);
#272=ORIENTED_EDGE('',*,*,#451,.F.);
#273=ORIENTED_EDGE('',*,*,#452,.F.);
#274=ORIENTED_EDGE('',*,*,#444,.T.);
#275=ORIENTED_EDGE('',*,*,#453,.T.);
#276=ORIENTED_EDGE('',*,*,#442,.F.);
#277=ORIENTED_EDGE('',*,*,#454,.F.);
#278=ORIENTED_EDGE('',*,*,#451,.T.);
#279=ORIENTED_EDGE('',*,*,#441,.T.);
#280=ORIENTED_EDGE('',*,*,#445,.T.);
#281=ORIENTED_EDGE('',*,*,#452,.T.);
#282=ORIENTED_EDGE('',*,*,#454,.T.);
#283=ORIENTED_EDGE('',*,*,#439,.F.);
#284=ORIENTED_EDGE('',*,*,#453,.F.);
#285=ORIENTED_EDGE('',*,*,#450,.F.);
#286=ORIENTED_EDGE('',*,*,#443,.F.);
#287=ORIENTED_EDGE('',*,*,#449,.F.);
#288=ORIENTED_EDGE('',*,*,#407,.F.);
#289=ORIENTED_EDGE('',*,*,#401,.F.);
#290=ORIENTED_EDGE('',*,*,#414,.F.);
#291=ORIENTED_EDGE('',*,*,#405,.T.);
#292=ORIENTED_EDGE('',*,*,#447,.T.);
#293=ORIENTED_EDGE('',*,*,#410,.T.);
#294=ORIENTED_EDGE('',*,*,#397,.T.);
#295=ORIENTED_EDGE('',*,*,#415,.T.);
#296=ORIENTED_EDGE('',*,*,#431,.T.);
#297=ORIENTED_EDGE('',*,*,#423,.T.);
#298=ORIENTED_EDGE('',*,*,#437,.T.);
#299=ORIENTED_EDGE('',*,*,#419,.T.);
#300=ORIENTED_EDGE('',*,*,#438,.F.);
#301=ORIENTED_EDGE('',*,*,#427,.T.);
#302=ORIENTED_EDGE('',*,*,#433,.T.);
#303=ORIENTED_EDGE('',*,*,#403,.T.);
#304=ORIENTED_EDGE('',*,*,#395,.T.);
#305=ORIENTED_EDGE('',*,*,#409,.T.);
#306=ORIENTED_EDGE('',*,*,#446,.F.);
#307=ORIENTED_EDGE('',*,*,#406,.T.);
#308=ORIENTED_EDGE('',*,*,#448,.T.);
#309=ORIENTED_EDGE('',*,*,#412,.T.);
#310=ORIENTED_EDGE('',*,*,#399,.T.);
#311=EDGE_CURVE('',#455,#456,#551,.T.);
#312=EDGE_CURVE('',#457,#455,#552,.T.);
#313=EDGE_CURVE('',#458,#457,#553,.T.);
#314=EDGE_CURVE('',#456,#458,#554,.T.);
#315=EDGE_CURVE('',#459,#460,#555,.T.);
#316=EDGE_CURVE('',#461,#459,#556,.T.);
#317=EDGE_CURVE('',#462,#461,#557,.T.);
#318=EDGE_CURVE('',#460,#462,#558,.T.);
#319=EDGE_CURVE('',#463,#464,#559,.T.);
#320=EDGE_CURVE('',#465,#463,#560,.T.);
#321=EDGE_CURVE('',#466,#465,#561,.T.);
#322=EDGE_CURVE('',#464,#466,#562,.T.);
#323=EDGE_CURVE('',#467,#468,#563,.T.);
#324=EDGE_CURVE('',#469,#467,#564,.T.);
#325=EDGE_CURVE('',#470,#469,#565,.T.);
#326=EDGE_CURVE('',#468,#470,#566,.T.);
#327=EDGE_CURVE('',#471,#472,#567,.T.);
#328=EDGE_CURVE('',#472,#456,#568,.T.);
#329=EDGE_CURVE('',#458,#471,#569,.T.);
#330=EDGE_CURVE('',#459,#473,#570,.T.);
#331=EDGE_CURVE('',#473,#474,#571,.T.);
#332=EDGE_CURVE('',#474,#461,#572,.T.);
#333=EDGE_CURVE('',#463,#475,#573,.T.);
#334=EDGE_CURVE('',#476,#475,#574,.T.);
#335=EDGE_CURVE('',#476,#465,#575,.T.);
#336=EDGE_CURVE('',#477,#478,#576,.T.);
#337=EDGE_CURVE('',#477,#468,#577,.T.);
#338=EDGE_CURVE('',#470,#478,#578,.T.);
#339=EDGE_CURVE('',#455,#479,#579,.T.);
#340=EDGE_CURVE('',#480,#479,#580,.T.);
#341=EDGE_CURVE('',#480,#457,#581,.T.);
#342=EDGE_CURVE('',#481,#482,#582,.T.);
#343=EDGE_CURVE('',#481,#460,#583,.T.);
#344=EDGE_CURVE('',#462,#482,#584,.T.);
#345=EDGE_CURVE('',#483,#484,#585,.T.);
#346=EDGE_CURVE('',#484,#464,#586,.T.);
#347=EDGE_CURVE('',#466,#483,#587,.T.);
#348=EDGE_CURVE('',#467,#485,#588,.T.);
#349=EDGE_CURVE('',#485,#486,#589,.T.);
#350=EDGE_CURVE('',#486,#469,#590,.T.);
#351=EDGE_CURVE('',#487,#474,#591,.T.);
#352=EDGE_CURVE('',#488,#487,#592,.T.);
#353=EDGE_CURVE('',#489,#488,#593,.T.);
#354=EDGE_CURVE('',#489,#490,#594,.T.);
#355=EDGE_CURVE('',#478,#490,#595,.T.);
#356=EDGE_CURVE('',#482,#486,#596,.T.);
#357=EDGE_CURVE('',#483,#480,#597,.T.);
#358=EDGE_CURVE('',#491,#476,#598,.T.);
#359=EDGE_CURVE('',#492,#491,#599,.T.);
#360=EDGE_CURVE('',#493,#492,#600,.T.);
#361=EDGE_CURVE('',#493,#494,#601,.T.);
#362=EDGE_CURVE('',#471,#494,#602,.T.);
#363=EDGE_CURVE('',#495,#496,#603,.T.);
#364=EDGE_CURVE('',#496,#497,#604,.T.);
#365=EDGE_CURVE('',#498,#497,#605,.T.);
#366=EDGE_CURVE('',#498,#495,#606,.T.);
#367=EDGE_CURVE('',#497,#499,#607,.T.);
#368=EDGE_CURVE('',#500,#499,#608,.T.);
#369=EDGE_CURVE('',#500,#498,#609,.T.);
#370=EDGE_CURVE('',#499,#501,#610,.T.);
#371=EDGE_CURVE('',#502,#501,#611,.T.);
#372=EDGE_CURVE('',#502,#500,#612,.T.);
#373=EDGE_CURVE('',#503,#504,#613,.T.);
#374=EDGE_CURVE('',#504,#505,#614,.T.);
#375=EDGE_CURVE('',#506,#505,#615,.T.);
#376=EDGE_CURVE('',#506,#503,#616,.T.);
#377=EDGE_CURVE('',#505,#507,#617,.T.);
#378=EDGE_CURVE('',#508,#507,#618,.T.);
#379=EDGE_CURVE('',#508,#506,#619,.T.);
#380=EDGE_CURVE('',#507,#509,#620,.T.);
#381=EDGE_CURVE('',#510,#509,#621,.T.);
#382=EDGE_CURVE('',#510,#508,#622,.T.);
#383=EDGE_CURVE('',#501,#496,#623,.T.);
#384=EDGE_CURVE('',#495,#502,#624,.T.);
#385=EDGE_CURVE('',#509,#504,#625,.T.);
#386=EDGE_CURVE('',#503,#510,#626,.T.);
#387=EDGE_CURVE('',#490,#491,#627,.T.);
#388=EDGE_CURVE('',#492,#489,#628,.T.);
#389=EDGE_CURVE('',#494,#487,#629,.T.);
#390=EDGE_CURVE('',#488,#493,#630,.T.);
#391=EDGE_CURVE('',#479,#472,#631,.T.);
#392=EDGE_CURVE('',#481,#473,#632,.T.);
#393=EDGE_CURVE('',#477,#485,#633,.T.);
#394=EDGE_CURVE('',#475,#484,#634,.T.);
#395=EDGE_CURVE('',#511,#512,#635,.T.);
#396=EDGE_CURVE('',#513,#511,#636,.T.);
#397=EDGE_CURVE('',#514,#513,#637,.T.);
#398=EDGE_CURVE('',#514,#512,#638,.T.);
#399=EDGE_CURVE('',#515,#516,#639,.T.);
#400=EDGE_CURVE('',#515,#517,#640,.T.);
#401=EDGE_CURVE('',#517,#518,#641,.T.);
#402=EDGE_CURVE('',#516,#518,#642,.T.);
#403=EDGE_CURVE('',#519,#511,#643,.T.);
#404=EDGE_CURVE('',#520,#519,#644,.T.);
#405=EDGE_CURVE('',#513,#520,#645,.T.);
#406=EDGE_CURVE('',#516,#521,#646,.T.);
#407=EDGE_CURVE('',#518,#522,#647,.T.);
#408=EDGE_CURVE('',#521,#522,#648,.T.);
#409=EDGE_CURVE('',#512,#523,#649,.T.);
#410=EDGE_CURVE('',#524,#514,#650,.T.);
#411=EDGE_CURVE('',#523,#524,#651,.T.);
#412=EDGE_CURVE('',#525,#515,#652,.T.);
#413=EDGE_CURVE('',#526,#525,#653,.T.);
#414=EDGE_CURVE('',#526,#517,#654,.T.);
#415=EDGE_CURVE('',#527,#528,#655,.T.);
#416=EDGE_CURVE('',#529,#527,#656,.T.);
#417=EDGE_CURVE('',#530,#529,#657,.T.);
#418=EDGE_CURVE('',#530,#528,#658,.T.);
#419=EDGE_CURVE('',#531,#532,#659,.T.);
#420=EDGE_CURVE('',#531,#533,#660,.T.);
#421=EDGE_CURVE('',#533,#534,#661,.T.);
#422=EDGE_CURVE('',#532,#534,#662,.T.);
#423=EDGE_CURVE('',#535,#536,#663,.T.);
#424=EDGE_CURVE('',#537,#535,#664,.T.);
#425=EDGE_CURVE('',#538,#537,#665,.T.);
#426=EDGE_CURVE('',#536,#538,#666,.T.);
#427=EDGE_CURVE('',#539,#540,#667,.T.);
#428=EDGE_CURVE('',#541,#539,#668,.T.);
#429=EDGE_CURVE('',#541,#542,#669,.T.);
#430=EDGE_CURVE('',#540,#542,#670,.T.);
#431=EDGE_CURVE('',#528,#535,#671,.T.);
#432=EDGE_CURVE('',#537,#530,#672,.T.);
#433=EDGE_CURVE('',#540,#531,#673,.T.);
#434=EDGE_CURVE('',#542,#533,#674,.T.);
#435=EDGE_CURVE('',#529,#538,#675,.T.);
#436=EDGE_CURVE('',#534,#541,#676,.T.);
#437=EDGE_CURVE('',#536,#527,#677,.T.);
#438=EDGE_CURVE('',#539,#532,#678,.T.);
#439=EDGE_CURVE('',#543,#544,#679,.T.);
#440=EDGE_CURVE('',#545,#544,#680,.T.);
#441=EDGE_CURVE('',#546,#545,#681,.T.);
#442=EDGE_CURVE('',#546,#543,#682,.T.);
#443=EDGE_CURVE('',#544,#547,#683,.T.);
#444=EDGE_CURVE('',#548,#547,#684,.T.);
#445=EDGE_CURVE('',#545,#548,#685,.T.);
#446=EDGE_CURVE('',#519,#523,#686,.T.);
#447=EDGE_CURVE('',#520,#524,#687,.T.);
#448=EDGE_CURVE('',#521,#525,#688,.T.);
#449=EDGE_CURVE('',#522,#526,#689,.T.);
#450=EDGE_CURVE('',#547,#549,#690,.T.);
#451=EDGE_CURVE('',#550,#549,#691,.T.);
#452=EDGE_CURVE('',#548,#550,#692,.T.);
#453=EDGE_CURVE('',#549,#543,#693,.T.);
#454=EDGE_CURVE('',#550,#546,#694,.T.);
#455=VERTEX_POINT('',#1428);
#456=VERTEX_POINT('',#1429);
#457=VERTEX_POINT('',#1431);
#458=VERTEX_POINT('',#1433);
#459=VERTEX_POINT('',#1437);
#460=VERTEX_POINT('',#1438);
#461=VERTEX_POINT('',#1440);
#462=VERTEX_POINT('',#1442);
#463=VERTEX_POINT('',#1446);
#464=VERTEX_POINT('',#1447);
#465=VERTEX_POINT('',#1449);
#466=VERTEX_POINT('',#1451);
#467=VERTEX_POINT('',#1455);
#468=VERTEX_POINT('',#1456);
#469=VERTEX_POINT('',#1458);
#470=VERTEX_POINT('',#1460);
#471=VERTEX_POINT('',#1464);
#472=VERTEX_POINT('',#1465);
#473=VERTEX_POINT('',#1470);
#474=VERTEX_POINT('',#1472);
#475=VERTEX_POINT('',#1476);
#476=VERTEX_POINT('',#1478);
#477=VERTEX_POINT('',#1482);
#478=VERTEX_POINT('',#1483);
#479=VERTEX_POINT('',#1488);
#480=VERTEX_POINT('',#1490);
#481=VERTEX_POINT('',#1494);
#482=VERTEX_POINT('',#1495);
#483=VERTEX_POINT('',#1500);
#484=VERTEX_POINT('',#1501);
#485=VERTEX_POINT('',#1506);
#486=VERTEX_POINT('',#1508);
#487=VERTEX_POINT('',#1512);
#488=VERTEX_POINT('',#1514);
#489=VERTEX_POINT('',#1516);
#490=VERTEX_POINT('',#1518);
#491=VERTEX_POINT('',#1524);
#492=VERTEX_POINT('',#1526);
#493=VERTEX_POINT('',#1528);
#494=VERTEX_POINT('',#1530);
#495=VERTEX_POINT('',#1534);
#496=VERTEX_POINT('',#1535);
#497=VERTEX_POINT('',#1537);
#498=VERTEX_POINT('',#1539);
#499=VERTEX_POINT('',#1543);
#500=VERTEX_POINT('',#1545);
#501=VERTEX_POINT('',#1549);
#502=VERTEX_POINT('',#1551);
#503=VERTEX_POINT('',#1555);
#504=VERTEX_POINT('',#1556);
#505=VERTEX_POINT('',#1558);
#506=VERTEX_POINT('',#1560);
#507=VERTEX_POINT('',#1564);
#508=VERTEX_POINT('',#1566);
#509=VERTEX_POINT('',#1570);
#510=VERTEX_POINT('',#1572);
#511=VERTEX_POINT('',#1599);
#512=VERTEX_POINT('',#1600);
#513=VERTEX_POINT('',#1602);
#514=VERTEX_POINT('',#1604);
#515=VERTEX_POINT('',#1608);
#516=VERTEX_POINT('',#1609);
#517=VERTEX_POINT('',#1611);
#518=VERTEX_POINT('',#1613);
#519=VERTEX_POINT('',#1617);
#520=VERTEX_POINT('',#1619);
#521=VERTEX_POINT('',#1623);
#522=VERTEX_POINT('',#1625);
#523=VERTEX_POINT('',#1629);
#524=VERTEX_POINT('',#1631);
#525=VERTEX_POINT('',#1635);
#526=VERTEX_POINT('',#1637);
#527=VERTEX_POINT('',#1641);
#528=VERTEX_POINT('',#1642);
#529=VERTEX_POINT('',#1644);
#530=VERTEX_POINT('',#1646);
#531=VERTEX_POINT('',#1650);
#532=VERTEX_POINT('',#1651);
#533=VERTEX_POINT('',#1653);
#534=VERTEX_POINT('',#1655);
#535=VERTEX_POINT('',#1659);
#536=VERTEX_POINT('',#1660);
#537=VERTEX_POINT('',#1662);
#538=VERTEX_POINT('',#1664);
#539=VERTEX_POINT('',#1668);
#540=VERTEX_POINT('',#1669);
#541=VERTEX_POINT('',#1671);
#542=VERTEX_POINT('',#1673);
#543=VERTEX_POINT('',#1689);
#544=VERTEX_POINT('',#1690);
#545=VERTEX_POINT('',#1692);
#546=VERTEX_POINT('',#1694);
#547=VERTEX_POINT('',#1698);
#548=VERTEX_POINT('',#1700);
#549=VERTEX_POINT('',#1708);
#550=VERTEX_POINT('',#1710);
#551=LINE('',#1427,#695);
#552=LINE('',#1430,#696);
#553=LINE('',#1432,#697);
#554=LINE('',#1434,#698);
#555=LINE('',#1436,#699);
#556=LINE('',#1439,#700);
#557=LINE('',#1441,#701);
#558=LINE('',#1443,#702);
#559=LINE('',#1445,#703);
#560=LINE('',#1448,#704);
#561=LINE('',#1450,#705);
#562=LINE('',#1452,#706);
#563=LINE('',#1454,#707);
#564=LINE('',#1457,#708);
#565=LINE('',#1459,#709);
#566=LINE('',#1461,#710);
#567=LINE('',#1463,#711);
#568=LINE('',#1466,#712);
#569=LINE('',#1467,#713);
#570=LINE('',#1469,#714);
#571=LINE('',#1471,#715);
#572=LINE('',#1473,#716);
#573=LINE('',#1475,#717);
#574=LINE('',#1477,#718);
#575=LINE('',#1479,#719);
#576=LINE('',#1481,#720);
#577=LINE('',#1484,#721);
#578=LINE('',#1485,#722);
#579=LINE('',#1487,#723);
#580=LINE('',#1489,#724);
#581=LINE('',#1491,#725);
#582=LINE('',#1493,#726);
#583=LINE('',#1496,#727);
#584=LINE('',#1497,#728);
#585=LINE('',#1499,#729);
#586=LINE('',#1502,#730);
#587=LINE('',#1503,#731);
#588=LINE('',#1505,#732);
#589=LINE('',#1507,#733);
#590=LINE('',#1509,#734);
#591=LINE('',#1511,#735);
#592=LINE('',#1513,#736);
#593=LINE('',#1515,#737);
#594=LINE('',#1517,#738);
#595=LINE('',#1519,#739);
#596=LINE('',#1520,#740);
#597=LINE('',#1522,#741);
#598=LINE('',#1523,#742);
#599=LINE('',#1525,#743);
#600=LINE('',#1527,#744);
#601=LINE('',#1529,#745);
#602=LINE('',#1531,#746);
#603=LINE('',#1533,#747);
#604=LINE('',#1536,#748);
#605=LINE('',#1538,#749);
#606=LINE('',#1540,#750);
#607=LINE('',#1542,#751);
#608=LINE('',#1544,#752);
#609=LINE('',#1546,#753);
#610=LINE('',#1548,#754);
#611=LINE('',#1550,#755);
#612=LINE('',#1552,#756);
#613=LINE('',#1554,#757);
#614=LINE('',#1557,#758);
#615=LINE('',#1559,#759);
#616=LINE('',#1561,#760);
#617=LINE('',#1563,#761);
#618=LINE('',#1565,#762);
#619=LINE('',#1567,#763);
#620=LINE('',#1569,#764);
#621=LINE('',#1571,#765);
#622=LINE('',#1573,#766);
#623=LINE('',#1575,#767);
#624=LINE('',#1576,#768);
#625=LINE('',#1578,#769);
#626=LINE('',#1579,#770);
#627=LINE('',#1581,#771);
#628=LINE('',#1582,#772);
#629=LINE('',#1584,#773);
#630=LINE('',#1585,#774);
#631=LINE('',#1588,#775);
#632=LINE('',#1589,#776);
#633=LINE('',#1590,#777);
#634=LINE('',#1591,#778);
#635=LINE('',#1598,#779);
#636=LINE('',#1601,#780);
#637=LINE('',#1603,#781);
#638=LINE('',#1605,#782);
#639=LINE('',#1607,#783);
#640=LINE('',#1610,#784);
#641=LINE('',#1612,#785);
#642=LINE('',#1614,#786);
#643=LINE('',#1616,#787);
#644=LINE('',#1618,#788);
#645=LINE('',#1620,#789);
#646=LINE('',#1622,#790);
#647=LINE('',#1624,#791);
#648=LINE('',#1626,#792);
#649=LINE('',#1628,#793);
#650=LINE('',#1630,#794);
#651=LINE('',#1632,#795);
#652=LINE('',#1634,#796);
#653=LINE('',#1636,#797);
#654=LINE('',#1638,#798);
#655=LINE('',#1640,#799);
#656=LINE('',#1643,#800);
#657=LINE('',#1645,#801);
#658=LINE('',#1647,#802);
#659=LINE('',#1649,#803);
#660=LINE('',#1652,#804);
#661=LINE('',#1654,#805);
#662=LINE('',#1656,#806);
#663=LINE('',#1658,#807);
#664=LINE('',#1661,#808);
#665=LINE('',#1663,#809);
#666=LINE('',#1665,#810);
#667=LINE('',#1667,#811);
#668=LINE('',#1670,#812);
#669=LINE('',#1672,#813);
#670=LINE('',#1674,#814);
#671=LINE('',#1676,#815);
#672=LINE('',#1677,#816);
#673=LINE('',#1679,#817);
#674=LINE('',#1680,#818);
#675=LINE('',#1682,#819);
#676=LINE('',#1684,#820);
#677=LINE('',#1686,#821);
#678=LINE('',#1687,#822);
#679=LINE('',#1688,#823);
#680=LINE('',#1691,#824);
#681=LINE('',#1693,#825);
#682=LINE('',#1695,#826);
#683=LINE('',#1697,#827);
#684=LINE('',#1699,#828);
#685=LINE('',#1701,#829);
#686=LINE('',#1703,#830);
#687=LINE('',#1704,#831);
#688=LINE('',#1705,#832);
#689=LINE('',#1706,#833);
#690=LINE('',#1707,#834);
#691=LINE('',#1709,#835);
#692=LINE('',#1711,#836);
#693=LINE('',#1713,#837);
#694=LINE('',#1714,#838);
#695=VECTOR('',#1167,39.3700787401575);
#696=VECTOR('',#1168,39.3700787401575);
#697=VECTOR('',#1169,39.3700787401575);
#698=VECTOR('',#1170,39.3700787401575);
#699=VECTOR('',#1173,39.3700787401575);
#700=VECTOR('',#1174,39.3700787401575);
#701=VECTOR('',#1175,39.3700787401575);
#702=VECTOR('',#1176,39.3700787401575);
#703=VECTOR('',#1179,39.3700787401575);
#704=VECTOR('',#1180,39.3700787401575);
#705=VECTOR('',#1181,39.3700787401575);
#706=VECTOR('',#1182,39.3700787401575);
#707=VECTOR('',#1185,39.3700787401575);
#708=VECTOR('',#1186,39.3700787401575);
#709=VECTOR('',#1187,39.3700787401575);
#710=VECTOR('',#1188,39.3700787401575);
#711=VECTOR('',#1191,39.3700787401575);
#712=VECTOR('',#1192,39.3700787401575);
#713=VECTOR('',#1193,39.3700787401575);
#714=VECTOR('',#1196,39.3700787401575);
#715=VECTOR('',#1197,39.3700787401575);
#716=VECTOR('',#1198,39.3700787401575);
#717=VECTOR('',#1201,39.3700787401575);
#718=VECTOR('',#1202,39.3700787401575);
#719=VECTOR('',#1203,39.3700787401575);
#720=VECTOR('',#1206,39.3700787401575);
#721=VECTOR('',#1207,39.3700787401575);
#722=VECTOR('',#1208,39.3700787401575);
#723=VECTOR('',#1211,39.3700787401575);
#724=VECTOR('',#1212,39.3700787401575);
#725=VECTOR('',#1213,39.3700787401575);
#726=VECTOR('',#1216,39.3700787401575);
#727=VECTOR('',#1217,39.3700787401575);
#728=VECTOR('',#1218,39.3700787401575);
#729=VECTOR('',#1221,39.3700787401575);
#730=VECTOR('',#1222,39.3700787401575);
#731=VECTOR('',#1223,39.3700787401575);
#732=VECTOR('',#1226,39.3700787401575);
#733=VECTOR('',#1227,39.3700787401575);
#734=VECTOR('',#1228,39.3700787401575);
#735=VECTOR('',#1231,39.3700787401575);
#736=VECTOR('',#1232,39.3700787401575);
#737=VECTOR('',#1233,39.3700787401575);
#738=VECTOR('',#1234,39.3700787401575);
#739=VECTOR('',#1235,39.3700787401575);
#740=VECTOR('',#1236,39.3700787401575);
#741=VECTOR('',#1239,39.3700787401575);
#742=VECTOR('',#1240,39.3700787401575);
#743=VECTOR('',#1241,39.3700787401575);
#744=VECTOR('',#1242,39.3700787401575);
#745=VECTOR('',#1243,39.3700787401575);
#746=VECTOR('',#1244,39.3700787401575);
#747=VECTOR('',#1247,39.3700787401575);
#748=VECTOR('',#1248,39.3700787401575);
#749=VECTOR('',#1249,39.3700787401575);
#750=VECTOR('',#1250,39.3700787401575);
#751=VECTOR('',#1253,39.3700787401575);
#752=VECTOR('',#1254,39.3700787401575);
#753=VECTOR('',#1255,39.3700787401575);
#754=VECTOR('',#1258,39.3700787401575);
#755=VECTOR('',#1259,39.3700787401575);
#756=VECTOR('',#1260,39.3700787401575);
#757=VECTOR('',#1263,39.3700787401575);
#758=VECTOR('',#1264,39.3700787401575);
#759=VECTOR('',#1265,39.3700787401575);
#760=VECTOR('',#1266,39.3700787401575);
#761=VECTOR('',#1269,39.3700787401575);
#762=VECTOR('',#1270,39.3700787401575);
#763=VECTOR('',#1271,39.3700787401575);
#764=VECTOR('',#1274,39.3700787401575);
#765=VECTOR('',#1275,39.3700787401575);
#766=VECTOR('',#1276,39.3700787401575);
#767=VECTOR('',#1279,39.3700787401575);
#768=VECTOR('',#1280,39.3700787401575);
#769=VECTOR('',#1283,39.3700787401575);
#770=VECTOR('',#1284,39.3700787401575);
#771=VECTOR('',#1287,39.3700787401575);
#772=VECTOR('',#1288,39.3700787401575);
#773=VECTOR('',#1291,39.3700787401575);
#774=VECTOR('',#1292,39.3700787401575);
#775=VECTOR('',#1297,39.3700787401575);
#776=VECTOR('',#1298,39.3700787401575);
#777=VECTOR('',#1299,39.3700787401575);
#778=VECTOR('',#1300,39.3700787401575);
#779=VECTOR('',#1313,39.3700787401575);
#780=VECTOR('',#1314,39.3700787401575);
#781=VECTOR('',#1315,39.3700787401575);
#782=VECTOR('',#1316,39.3700787401575);
#783=VECTOR('',#1319,39.3700787401575);
#784=VECTOR('',#1320,39.3700787401575);
#785=VECTOR('',#1321,39.3700787401575);
#786=VECTOR('',#1322,39.3700787401575);
#787=VECTOR('',#1325,39.3700787401575);
#788=VECTOR('',#1326,39.3700787401575);
#789=VECTOR('',#1327,39.3700787401575);
#790=VECTOR('',#1330,39.3700787401575);
#791=VECTOR('',#1331,39.3700787401575);
#792=VECTOR('',#1332,39.3700787401575);
#793=VECTOR('',#1335,39.3700787401575);
#794=VECTOR('',#1336,39.3700787401575);
#795=VECTOR('',#1337,39.3700787401575);
#796=VECTOR('',#1340,39.3700787401575);
#797=VECTOR('',#1341,39.3700787401575);
#798=VECTOR('',#1342,39.3700787401575);
#799=VECTOR('',#1345,39.3700787401575);
#800=VECTOR('',#1346,39.3700787401575);
#801=VECTOR('',#1347,39.3700787401575);
#802=VECTOR('',#1348,39.3700787401575);
#803=VECTOR('',#1351,39.3700787401575);
#804=VECTOR('',#1352,39.3700787401575);
#805=VECTOR('',#1353,39.3700787401575);
#806=VECTOR('',#1354,39.3700787401575);
#807=VECTOR('',#1357,39.3700787401575);
#808=VECTOR('',#1358,39.3700787401575);
#809=VECTOR('',#1359,39.3700787401575);
#810=VECTOR('',#1360,39.3700787401575);
#811=VECTOR('',#1363,39.3700787401575);
#812=VECTOR('',#1364,39.3700787401575);
#813=VECTOR('',#1365,39.3700787401575);
#814=VECTOR('',#1366,39.3700787401575);
#815=VECTOR('',#1369,39.3700787401575);
#816=VECTOR('',#1370,39.3700787401575);
#817=VECTOR('',#1373,39.3700787401575);
#818=VECTOR('',#1374,39.3700787401575);
#819=VECTOR('',#1377,39.3700787401575);
#820=VECTOR('',#1380,39.3700787401575);
#821=VECTOR('',#1383,39.3700787401575);
#822=VECTOR('',#1384,39.3700787401575);
#823=VECTOR('',#1385,39.3700787401575);
#824=VECTOR('',#1386,39.3700787401575);
#825=VECTOR('',#1387,39.3700787401575);
#826=VECTOR('',#1388,39.3700787401575);
#827=VECTOR('',#1391,39.3700787401575);
#828=VECTOR('',#1392,39.3700787401575);
#829=VECTOR('',#1393,39.3700787401575);
#830=VECTOR('',#1396,39.3700787401575);
#831=VECTOR('',#1397,39.3700787401575);
#832=VECTOR('',#1398,39.3700787401575);
#833=VECTOR('',#1399,39.3700787401575);
#834=VECTOR('',#1400,39.3700787401575);
#835=VECTOR('',#1401,39.3700787401575);
#836=VECTOR('',#1402,39.3700787401575);
#837=VECTOR('',#1405,39.3700787401575);
#838=VECTOR('',#1406,39.3700787401575);
#839=EDGE_LOOP('',(#23,#24,#25,#26));
#840=EDGE_LOOP('',(#27,#28,#29,#30));
#841=EDGE_LOOP('',(#31,#32,#33,#34));
#842=EDGE_LOOP('',(#35,#36,#37,#38));
#843=EDGE_LOOP('',(#39,#40,#41,#42));
#844=EDGE_LOOP('',(#43,#44,#45,#46));
#845=EDGE_LOOP('',(#47,#48,#49,#50));
#846=EDGE_LOOP('',(#51,#52,#53,#54));
#847=EDGE_LOOP('',(#55,#56,#57,#58));
#848=EDGE_LOOP('',(#59,#60,#61,#62));
#849=EDGE_LOOP('',(#63,#64,#65,#66));
#850=EDGE_LOOP('',(#67,#68,#69,#70));
#851=EDGE_LOOP('',(#71,#72,#73,#74,#75,#76,#77,#78,#79,#80,#81,#82));
#852=EDGE_LOOP('',(#83,#84,#85,#86,#87,#88,#89,#90,#91,#92,#93,#94));
#853=EDGE_LOOP('',(#95,#96,#97,#98));
#854=EDGE_LOOP('',(#99,#100,#101,#102));
#855=EDGE_LOOP('',(#103,#104,#105,#106));
#856=EDGE_LOOP('',(#107,#108,#109,#110));
#857=EDGE_LOOP('',(#111,#112,#113,#114));
#858=EDGE_LOOP('',(#115,#116,#117,#118));
#859=EDGE_LOOP('',(#119,#120,#121,#122));
#860=EDGE_LOOP('',(#123,#124,#125,#126));
#861=EDGE_LOOP('',(#127,#128,#129,#130));
#862=EDGE_LOOP('',(#131,#132,#133,#134));
#863=EDGE_LOOP('',(#135,#136,#137,#138));
#864=EDGE_LOOP('',(#139,#140,#141,#142));
#865=EDGE_LOOP('',(#143,#144,#145,#146));
#866=EDGE_LOOP('',(#147,#148,#149,#150,#151,#152,#153,#154,#155,#156,#157,
#158,#159,#160,#161,#162,#163,#164,#165,#166));
#867=EDGE_LOOP('',(#167,#168,#169,#170));
#868=EDGE_LOOP('',(#171,#172,#173,#174));
#869=EDGE_LOOP('',(#175,#176,#177,#178));
#870=EDGE_LOOP('',(#179,#180,#181,#182));
#871=EDGE_LOOP('',(#183,#184,#185,#186));
#872=EDGE_LOOP('',(#187,#188,#189,#190));
#873=EDGE_LOOP('',(#191,#192,#193,#194));
#874=EDGE_LOOP('',(#195,#196,#197,#198));
#875=EDGE_LOOP('',(#199,#200,#201,#202));
#876=EDGE_LOOP('',(#203,#204,#205,#206));
#877=EDGE_LOOP('',(#207,#208,#209,#210));
#878=EDGE_LOOP('',(#211,#212,#213,#214));
#879=EDGE_LOOP('',(#215,#216,#217,#218));
#880=EDGE_LOOP('',(#219,#220,#221,#222));
#881=EDGE_LOOP('',(#223,#224,#225,#226));
#882=EDGE_LOOP('',(#227,#228,#229,#230));
#883=EDGE_LOOP('',(#231,#232,#233,#234));
#884=EDGE_LOOP('',(#235,#236,#237,#238));
#885=EDGE_LOOP('',(#239,#240,#241,#242));
#886=EDGE_LOOP('',(#243,#244,#245,#246));
#887=EDGE_LOOP('',(#247,#248,#249,#250));
#888=EDGE_LOOP('',(#251,#252,#253,#254));
#889=EDGE_LOOP('',(#255,#256,#257,#258));
#890=EDGE_LOOP('',(#259,#260,#261,#262));
#891=EDGE_LOOP('',(#263,#264,#265,#266));
#892=EDGE_LOOP('',(#267,#268,#269,#270));
#893=EDGE_LOOP('',(#271,#272,#273,#274));
#894=EDGE_LOOP('',(#275,#276,#277,#278));
#895=EDGE_LOOP('',(#279,#280,#281,#282));
#896=EDGE_LOOP('',(#283,#284,#285,#286));
#897=EDGE_LOOP('',(#287,#288,#289,#290));
#898=EDGE_LOOP('',(#291,#292,#293,#294));
#899=EDGE_LOOP('',(#295,#296,#297,#298));
#900=EDGE_LOOP('',(#299,#300,#301,#302));
#901=EDGE_LOOP('',(#303,#304,#305,#306));
#902=EDGE_LOOP('',(#307,#308,#309,#310));
#903=FACE_BOUND('',#839,.T.);
#904=FACE_BOUND('',#840,.T.);
#905=FACE_BOUND('',#841,.T.);
#906=FACE_BOUND('',#842,.T.);
#907=FACE_BOUND('',#843,.T.);
#908=FACE_BOUND('',#844,.T.);
#909=FACE_BOUND('',#845,.T.);
#910=FACE_BOUND('',#846,.T.);
#911=FACE_BOUND('',#847,.T.);
#912=FACE_BOUND('',#848,.T.);
#913=FACE_BOUND('',#849,.T.);
#914=FACE_BOUND('',#850,.T.);
#915=FACE_BOUND('',#851,.T.);
#916=FACE_BOUND('',#852,.T.);
#917=FACE_BOUND('',#853,.T.);
#918=FACE_BOUND('',#854,.T.);
#919=FACE_BOUND('',#855,.T.);
#920=FACE_BOUND('',#856,.T.);
#921=FACE_BOUND('',#857,.T.);
#922=FACE_BOUND('',#858,.T.);
#923=FACE_BOUND('',#859,.T.);
#924=FACE_BOUND('',#860,.T.);
#925=FACE_BOUND('',#861,.T.);
#926=FACE_BOUND('',#862,.T.);
#927=FACE_BOUND('',#863,.T.);
#928=FACE_BOUND('',#864,.T.);
#929=FACE_BOUND('',#865,.T.);
#930=FACE_BOUND('',#866,.T.);
#931=FACE_BOUND('',#867,.T.);
#932=FACE_BOUND('',#868,.T.);
#933=FACE_BOUND('',#869,.T.);
#934=FACE_BOUND('',#870,.T.);
#935=FACE_BOUND('',#871,.T.);
#936=FACE_BOUND('',#872,.T.);
#937=FACE_BOUND('',#873,.T.);
#938=FACE_BOUND('',#874,.T.);
#939=FACE_BOUND('',#875,.T.);
#940=FACE_BOUND('',#876,.T.);
#941=FACE_BOUND('',#877,.T.);
#942=FACE_BOUND('',#878,.T.);
#943=FACE_BOUND('',#879,.T.);
#944=FACE_BOUND('',#880,.T.);
#945=FACE_BOUND('',#881,.T.);
#946=FACE_BOUND('',#882,.T.);
#947=FACE_BOUND('',#883,.T.);
#948=FACE_BOUND('',#884,.T.);
#949=FACE_BOUND('',#885,.T.);
#950=FACE_BOUND('',#886,.T.);
#951=FACE_BOUND('',#887,.T.);
#952=FACE_BOUND('',#888,.T.);
#953=FACE_BOUND('',#889,.T.);
#954=FACE_BOUND('',#890,.T.);
#955=FACE_BOUND('',#891,.T.);
#956=FACE_BOUND('',#892,.T.);
#957=FACE_BOUND('',#893,.T.);
#958=FACE_BOUND('',#894,.T.);
#959=FACE_BOUND('',#895,.T.);
#960=FACE_BOUND('',#896,.T.);
#961=FACE_BOUND('',#897,.T.);
#962=FACE_BOUND('',#898,.T.);
#963=FACE_BOUND('',#899,.T.);
#964=FACE_BOUND('',#900,.T.);
#965=FACE_BOUND('',#901,.T.);
#966=FACE_BOUND('',#902,.T.);
#967=PLANE('',#1105);
#968=PLANE('',#1106);
#969=PLANE('',#1107);
#970=PLANE('',#1108);
#971=PLANE('',#1109);
#972=PLANE('',#1110);
#973=PLANE('',#1111);
#974=PLANE('',#1112);
#975=PLANE('',#1113);
#976=PLANE('',#1114);
#977=PLANE('',#1115);
#978=PLANE('',#1116);
#979=PLANE('',#1117);
#980=PLANE('',#1118);
#981=PLANE('',#1119);
#982=PLANE('',#1120);
#983=PLANE('',#1121);
#984=PLANE('',#1122);
#985=PLANE('',#1123);
#986=PLANE('',#1124);
#987=PLANE('',#1125);
#988=PLANE('',#1126);
#989=PLANE('',#1127);
#990=PLANE('',#1128);
#991=PLANE('',#1129);
#992=PLANE('',#1130);
#993=PLANE('',#1131);
#994=PLANE('',#1132);
#995=PLANE('',#1133);
#996=PLANE('',#1134);
#997=PLANE('',#1136);
#998=PLANE('',#1137);
#999=PLANE('',#1138);
#1000=PLANE('',#1139);
#1001=PLANE('',#1140);
#1002=PLANE('',#1141);
#1003=PLANE('',#1142);
#1004=PLANE('',#1143);
#1005=PLANE('',#1144);
#1006=PLANE('',#1145);
#1007=PLANE('',#1146);
#1008=PLANE('',#1147);
#1009=PLANE('',#1148);
#1010=PLANE('',#1149);
#1011=PLANE('',#1150);
#1012=PLANE('',#1151);
#1013=PLANE('',#1152);
#1014=PLANE('',#1153);
#1015=PLANE('',#1154);
#1016=PLANE('',#1155);
#1017=PLANE('',#1156);
#1018=PLANE('',#1157);
#1019=PLANE('',#1158);
#1020=PLANE('',#1159);
#1021=PLANE('',#1160);
#1022=PLANE('',#1161);
#1023=ADVANCED_FACE('',(#903),#967,.F.);
#1024=ADVANCED_FACE('',(#904),#968,.F.);
#1025=ADVANCED_FACE('',(#905),#969,.F.);
#1026=ADVANCED_FACE('',(#906),#970,.F.);
#1027=ADVANCED_FACE('',(#907),#971,.T.);
#1028=ADVANCED_FACE('',(#908),#972,.T.);
#1029=ADVANCED_FACE('',(#909),#973,.T.);
#1030=ADVANCED_FACE('',(#910),#974,.T.);
#1031=ADVANCED_FACE('',(#911),#975,.T.);
#1032=ADVANCED_FACE('',(#912),#976,.T.);
#1033=ADVANCED_FACE('',(#913),#977,.T.);
#1034=ADVANCED_FACE('',(#914),#978,.T.);
#1035=ADVANCED_FACE('',(#915),#979,.F.);
#1036=ADVANCED_FACE('',(#916),#980,.F.);
#1037=ADVANCED_FACE('',(#917),#981,.T.);
#1038=ADVANCED_FACE('',(#918),#982,.T.);
#1039=ADVANCED_FACE('',(#919),#983,.T.);
#1040=ADVANCED_FACE('',(#920),#984,.T.);
#1041=ADVANCED_FACE('',(#921),#985,.T.);
#1042=ADVANCED_FACE('',(#922),#986,.T.);
#1043=ADVANCED_FACE('',(#923),#987,.T.);
#1044=ADVANCED_FACE('',(#924),#988,.T.);
#1045=ADVANCED_FACE('',(#925),#989,.F.);
#1046=ADVANCED_FACE('',(#926),#990,.F.);
#1047=ADVANCED_FACE('',(#927,#928,#929),#991,.T.);
#1048=ADVANCED_FACE('',(#930,#931,#932),#992,.T.);
#1049=ADVANCED_FACE('',(#933),#993,.T.);
#1050=ADVANCED_FACE('',(#934),#994,.T.);
#1051=ADVANCED_FACE('',(#935),#995,.T.);
#1052=ADVANCED_FACE('',(#936),#996,.T.);
#1053=ADVANCED_FACE('',(#937),#997,.F.);
#1054=ADVANCED_FACE('',(#938),#998,.F.);
#1055=ADVANCED_FACE('',(#939),#999,.F.);
#1056=ADVANCED_FACE('',(#940),#1000,.F.);
#1057=ADVANCED_FACE('',(#941),#1001,.F.);
#1058=ADVANCED_FACE('',(#942),#1002,.F.);
#1059=ADVANCED_FACE('',(#943),#1003,.F.);
#1060=ADVANCED_FACE('',(#944),#1004,.F.);
#1061=ADVANCED_FACE('',(#945),#1005,.F.);
#1062=ADVANCED_FACE('',(#946),#1006,.F.);
#1063=ADVANCED_FACE('',(#947),#1007,.F.);
#1064=ADVANCED_FACE('',(#948),#1008,.F.);
#1065=ADVANCED_FACE('',(#949),#1009,.T.);
#1066=ADVANCED_FACE('',(#950),#1010,.F.);
#1067=ADVANCED_FACE('',(#951,#952,#953),#1011,.F.);
#1068=ADVANCED_FACE('',(#954),#1012,.F.);
#1069=ADVANCED_FACE('',(#955,#956,#957),#1013,.F.);
#1070=ADVANCED_FACE('',(#958),#1014,.F.);
#1071=ADVANCED_FACE('',(#959),#1015,.T.);
#1072=ADVANCED_FACE('',(#960),#1016,.F.);
#1073=ADVANCED_FACE('',(#961),#1017,.F.);
#1074=ADVANCED_FACE('',(#962),#1018,.T.);
#1075=ADVANCED_FACE('',(#963),#1019,.T.);
#1076=ADVANCED_FACE('',(#964),#1020,.T.);
#1077=ADVANCED_FACE('',(#965),#1021,.T.);
#1078=ADVANCED_FACE('',(#966),#1022,.T.);
#1079=CLOSED_SHELL('',(#1023,#1024,#1025,#1026,#1027,#1028,#1029,#1030,
#1031,#1032,#1033,#1034,#1035,#1036,#1037,#1038,#1039,#1040,#1041,#1042,
#1043,#1044,#1045,#1046,#1047,#1048,#1049,#1050,#1051,#1052));
#1080=CLOSED_SHELL('',(#1053,#1054,#1055,#1056,#1057,#1058,#1059,#1060,
#1061,#1062,#1063,#1064,#1065,#1066,#1067,#1068,#1069,#1070,#1071,#1072,
#1073,#1074,#1075,#1076,#1077,#1078));
#1081=STYLED_ITEM('',(#1083),#1096);
#1082=STYLED_ITEM('',(#1084),#1097);
#1083=PRESENTATION_STYLE_ASSIGNMENT((#1085));
#1084=PRESENTATION_STYLE_ASSIGNMENT((#1086));
#1085=SURFACE_STYLE_USAGE(.BOTH.,#1087);
#1086=SURFACE_STYLE_USAGE(.BOTH.,#1088);
#1087=SURFACE_SIDE_STYLE('',(#1089));
#1088=SURFACE_SIDE_STYLE('',(#1090));
#1089=SURFACE_STYLE_FILL_AREA(#1091);
#1090=SURFACE_STYLE_FILL_AREA(#1092);
#1091=FILL_AREA_STYLE('',(#1093));
#1092=FILL_AREA_STYLE('',(#1094));
#1093=FILL_AREA_STYLE_COLOUR('',#1095);
#1094=FILL_AREA_STYLE_COLOUR('',#10);
#1095=COLOUR_RGB('',0.5,0.5,0.5);
#1096=MANIFOLD_SOLID_BREP('MTSW-101-07-T-D-240_body',#1079);
#1097=MANIFOLD_SOLID_BREP('MTSW-101-07-D-240',#1080);
#1098=SHAPE_DEFINITION_REPRESENTATION(#1737,#1101);
#1099=SHAPE_DEFINITION_REPRESENTATION(#1738,#1102);
#1100=SHAPE_DEFINITION_REPRESENTATION(#1740,#1103);
#1101=SHAPE_REPRESENTATION('MTSW-101-07-T-D-240',(#1104,#1135,#1162),#1725);
#1102=SHAPE_REPRESENTATION('MTSW-101-07-T-D-240_body',(#1104),#1726);
#1103=SHAPE_REPRESENTATION('MTSW-101-07-D-240',(#1104),#1727);
#1104=AXIS2_PLACEMENT_3D('',#1425,#1163,#1164);
#1105=AXIS2_PLACEMENT_3D('',#1426,#1165,#1166);
#1106=AXIS2_PLACEMENT_3D('',#1435,#1171,#1172);
#1107=AXIS2_PLACEMENT_3D('',#1444,#1177,#1178);
#1108=AXIS2_PLACEMENT_3D('',#1453,#1183,#1184);
#1109=AXIS2_PLACEMENT_3D('',#1462,#1189,#1190);
#1110=AXIS2_PLACEMENT_3D('',#1468,#1194,#1195);
#1111=AXIS2_PLACEMENT_3D('',#1474,#1199,#1200);
#1112=AXIS2_PLACEMENT_3D('',#1480,#1204,#1205);
#1113=AXIS2_PLACEMENT_3D('',#1486,#1209,#1210);
#1114=AXIS2_PLACEMENT_3D('',#1492,#1214,#1215);
#1115=AXIS2_PLACEMENT_3D('',#1498,#1219,#1220);
#1116=AXIS2_PLACEMENT_3D('',#1504,#1224,#1225);
#1117=AXIS2_PLACEMENT_3D('',#1510,#1229,#1230);
#1118=AXIS2_PLACEMENT_3D('',#1521,#1237,#1238);
#1119=AXIS2_PLACEMENT_3D('',#1532,#1245,#1246);
#1120=AXIS2_PLACEMENT_3D('',#1541,#1251,#1252);
#1121=AXIS2_PLACEMENT_3D('',#1547,#1256,#1257);
#1122=AXIS2_PLACEMENT_3D('',#1553,#1261,#1262);
#1123=AXIS2_PLACEMENT_3D('',#1562,#1267,#1268);
#1124=AXIS2_PLACEMENT_3D('',#1568,#1272,#1273);
#1125=AXIS2_PLACEMENT_3D('',#1574,#1277,#1278);
#1126=AXIS2_PLACEMENT_3D('',#1577,#1281,#1282);
#1127=AXIS2_PLACEMENT_3D('',#1580,#1285,#1286);
#1128=AXIS2_PLACEMENT_3D('',#1583,#1289,#1290);
#1129=AXIS2_PLACEMENT_3D('',#1586,#1293,#1294);
#1130=AXIS2_PLACEMENT_3D('',#1587,#1295,#1296);
#1131=AXIS2_PLACEMENT_3D('',#1592,#1301,#1302);
#1132=AXIS2_PLACEMENT_3D('',#1593,#1303,#1304);
#1133=AXIS2_PLACEMENT_3D('',#1594,#1305,#1306);
#1134=AXIS2_PLACEMENT_3D('',#1595,#1307,#1308);
#1135=AXIS2_PLACEMENT_3D('',#1596,#1309,#1310);
#1136=AXIS2_PLACEMENT_3D('',#1597,#1311,#1312);
#1137=AXIS2_PLACEMENT_3D('',#1606,#1317,#1318);
#1138=AXIS2_PLACEMENT_3D('',#1615,#1323,#1324);
#1139=AXIS2_PLACEMENT_3D('',#1621,#1328,#1329);
#1140=AXIS2_PLACEMENT_3D('',#1627,#1333,#1334);
#1141=AXIS2_PLACEMENT_3D('',#1633,#1338,#1339);
#1142=AXIS2_PLACEMENT_3D('',#1639,#1343,#1344);
#1143=AXIS2_PLACEMENT_3D('',#1648,#1349,#1350);
#1144=AXIS2_PLACEMENT_3D('',#1657,#1355,#1356);
#1145=AXIS2_PLACEMENT_3D('',#1666,#1361,#1362);
#1146=AXIS2_PLACEMENT_3D('',#1675,#1367,#1368);
#1147=AXIS2_PLACEMENT_3D('',#1678,#1371,#1372);
#1148=AXIS2_PLACEMENT_3D('',#1681,#1375,#1376);
#1149=AXIS2_PLACEMENT_3D('',#1683,#1378,#1379);
#1150=AXIS2_PLACEMENT_3D('',#1685,#1381,#1382);
#1151=AXIS2_PLACEMENT_3D('',#1696,#1389,#1390);
#1152=AXIS2_PLACEMENT_3D('',#1702,#1394,#1395);
#1153=AXIS2_PLACEMENT_3D('',#1712,#1403,#1404);
#1154=AXIS2_PLACEMENT_3D('',#1715,#1407,#1408);
#1155=AXIS2_PLACEMENT_3D('',#1716,#1409,#1410);
#1156=AXIS2_PLACEMENT_3D('',#1717,#1411,#1412);
#1157=AXIS2_PLACEMENT_3D('',#1718,#1413,#1414);
#1158=AXIS2_PLACEMENT_3D('',#1719,#1415,#1416);
#1159=AXIS2_PLACEMENT_3D('',#1720,#1417,#1418);
#1160=AXIS2_PLACEMENT_3D('',#1721,#1419,#1420);
#1161=AXIS2_PLACEMENT_3D('',#1722,#1421,#1422);
#1162=AXIS2_PLACEMENT_3D('',#1723,#1423,#1424);
#1163=DIRECTION('',(0.,0.,1.));
#1164=DIRECTION('',(1.,0.,0.));
#1165=DIRECTION('',(0.,1.,0.));
#1166=DIRECTION('',(0.,0.,1.));
#1167=DIRECTION('',(-1.,0.,0.));
#1168=DIRECTION('',(0.,0.,-1.));
#1169=DIRECTION('',(1.,0.,0.));
#1170=DIRECTION('',(0.,0.,1.));
#1171=DIRECTION('',(0.,1.,0.));
#1172=DIRECTION('',(0.,0.,1.));
#1173=DIRECTION('',(1.,0.,0.));
#1174=DIRECTION('',(0.,0.,1.));
#1175=DIRECTION('',(-1.,0.,0.));
#1176=DIRECTION('',(0.,0.,-1.));
#1177=DIRECTION('',(0.,1.,0.));
#1178=DIRECTION('',(0.,0.,1.));
#1179=DIRECTION('',(-1.,0.,0.));
#1180=DIRECTION('',(0.,0.,-1.));
#1181=DIRECTION('',(1.,0.,0.));
#1182=DIRECTION('',(0.,0.,1.));
#1183=DIRECTION('',(0.,1.,0.));
#1184=DIRECTION('',(0.,0.,1.));
#1185=DIRECTION('',(1.,0.,0.));
#1186=DIRECTION('',(0.,0.,1.));
#1187=DIRECTION('',(-1.,0.,0.));
#1188=DIRECTION('',(0.,0.,-1.));
#1189=DIRECTION('',(-1.,0.,0.));
#1190=DIRECTION('',(0.,0.,1.));
#1191=DIRECTION('',(0.,0.,-1.));
#1192=DIRECTION('',(0.,-1.,0.));
#1193=DIRECTION('',(0.,1.,0.));
#1194=DIRECTION('',(-1.,0.,0.));
#1195=DIRECTION('',(0.,0.,1.));
#1196=DIRECTION('',(0.,1.,0.));
#1197=DIRECTION('',(0.,0.,-1.));
#1198=DIRECTION('',(0.,-1.,0.));
#1199=DIRECTION('',(1.,0.,0.));
#1200=DIRECTION('',(0.,0.,-1.));
#1201=DIRECTION('',(0.,1.,0.));
#1202=DIRECTION('',(0.,0.,-1.));
#1203=DIRECTION('',(0.,-1.,0.));
#1204=DIRECTION('',(1.,0.,0.));
#1205=DIRECTION('',(0.,0.,-1.));
#1206=DIRECTION('',(0.,0.,-1.));
#1207=DIRECTION('',(0.,-1.,0.));
#1208=DIRECTION('',(0.,1.,0.));
#1209=DIRECTION('',(1.,0.,0.));
#1210=DIRECTION('',(0.,0.,-1.));
#1211=DIRECTION('',(0.,1.,0.));
#1212=DIRECTION('',(0.,0.,-1.));
#1213=DIRECTION('',(0.,-1.,0.));
#1214=DIRECTION('',(1.,0.,0.));
#1215=DIRECTION('',(0.,0.,-1.));
#1216=DIRECTION('',(0.,0.,-1.));
#1217=DIRECTION('',(0.,-1.,0.));
#1218=DIRECTION('',(0.,1.,0.));
#1219=DIRECTION('',(-1.,0.,0.));
#1220=DIRECTION('',(0.,0.,1.));
#1221=DIRECTION('',(0.,0.,-1.));
#1222=DIRECTION('',(0.,-1.,0.));
#1223=DIRECTION('',(0.,1.,0.));
#1224=DIRECTION('',(-1.,0.,0.));
#1225=DIRECTION('',(0.,0.,1.));
#1226=DIRECTION('',(0.,1.,0.));
#1227=DIRECTION('',(0.,0.,-1.));
#1228=DIRECTION('',(0.,-1.,0.));
#1229=DIRECTION('',(0.,0.,1.));
#1230=DIRECTION('',(1.,0.,0.));
#1231=DIRECTION('',(1.,0.,0.));
#1232=DIRECTION('',(0.,-1.,0.));
#1233=DIRECTION('',(-1.,0.,0.));
#1234=DIRECTION('',(0.,-1.,0.));
#1235=DIRECTION('',(1.,0.,0.));
#1236=DIRECTION('',(1.,0.,0.));
#1237=DIRECTION('',(0.,0.,-1.));
#1238=DIRECTION('',(-1.,0.,0.));
#1239=DIRECTION('',(-1.,0.,0.));
#1240=DIRECTION('',(-1.,0.,0.));
#1241=DIRECTION('',(0.,-1.,0.));
#1242=DIRECTION('',(1.,0.,0.));
#1243=DIRECTION('',(0.,-1.,0.));
#1244=DIRECTION('',(-1.,0.,0.));
#1245=DIRECTION('',(0.,0.,1.));
#1246=DIRECTION('',(1.,0.,0.));
#1247=DIRECTION('',(0.,-1.,0.));
#1248=DIRECTION('',(1.,0.,0.));
#1249=DIRECTION('',(0.,-1.,0.));
#1250=DIRECTION('',(-1.,0.,0.));
#1251=DIRECTION('',(-1.,0.,0.));
#1252=DIRECTION('',(0.,0.,1.));
#1253=DIRECTION('',(0.,0.,1.));
#1254=DIRECTION('',(0.,-1.,0.));
#1255=DIRECTION('',(0.,0.,-1.));
#1256=DIRECTION('',(0.,0.,-1.));
#1257=DIRECTION('',(-1.,0.,0.));
#1258=DIRECTION('',(-1.,0.,0.));
#1259=DIRECTION('',(0.,-1.,0.));
#1260=DIRECTION('',(1.,0.,0.));
#1261=DIRECTION('',(0.,0.,1.));
#1262=DIRECTION('',(1.,0.,0.));
#1263=DIRECTION('',(0.,-1.,0.));
#1264=DIRECTION('',(1.,0.,0.));
#1265=DIRECTION('',(0.,-1.,0.));
#1266=DIRECTION('',(-1.,0.,0.));
#1267=DIRECTION('',(-1.,0.,0.));
#1268=DIRECTION('',(0.,0.,1.));
#1269=DIRECTION('',(0.,0.,1.));
#1270=DIRECTION('',(0.,-1.,0.));
#1271=DIRECTION('',(0.,0.,-1.));
#1272=DIRECTION('',(0.,0.,-1.));
#1273=DIRECTION('',(-1.,0.,0.));
#1274=DIRECTION('',(-1.,0.,0.));
#1275=DIRECTION('',(0.,-1.,0.));
#1276=DIRECTION('',(1.,0.,0.));
#1277=DIRECTION('',(1.,0.,0.));
#1278=DIRECTION('',(0.,0.,-1.));
#1279=DIRECTION('',(0.,0.,-1.));
#1280=DIRECTION('',(0.,0.,1.));
#1281=DIRECTION('',(1.,0.,0.));
#1282=DIRECTION('',(0.,0.,-1.));
#1283=DIRECTION('',(0.,0.,-1.));
#1284=DIRECTION('',(0.,0.,1.));
#1285=DIRECTION('',(-1.,0.,0.));
#1286=DIRECTION('',(0.,0.,1.));
#1287=DIRECTION('',(0.,0.,1.));
#1288=DIRECTION('',(0.,0.,-1.));
#1289=DIRECTION('',(1.,0.,0.));
#1290=DIRECTION('',(0.,0.,-1.));
#1291=DIRECTION('',(0.,0.,-1.));
#1292=DIRECTION('',(0.,0.,1.));
#1293=DIRECTION('',(0.,1.,0.));
#1294=DIRECTION('',(0.,0.,1.));
#1295=DIRECTION('',(0.,-1.,0.));
#1296=DIRECTION('',(0.,0.,-1.));
#1297=DIRECTION('',(-1.,0.,0.));
#1298=DIRECTION('',(-1.,0.,0.));
#1299=DIRECTION('',(-1.,0.,0.));
#1300=DIRECTION('',(-1.,0.,0.));
#1301=DIRECTION('',(0.,0.,1.));
#1302=DIRECTION('',(1.,0.,0.));
#1303=DIRECTION('',(0.,0.,-1.));
#1304=DIRECTION('',(-1.,0.,0.));
#1305=DIRECTION('',(0.,0.,-1.));
#1306=DIRECTION('',(-1.,0.,0.));
#1307=DIRECTION('',(0.,0.,1.));
#1308=DIRECTION('',(1.,0.,0.));
#1309=DIRECTION('',(0.,0.,1.));
#1310=DIRECTION('',(1.,0.,0.));
#1311=DIRECTION('',(0.,1.,0.));
#1312=DIRECTION('',(0.,0.,1.));
#1313=DIRECTION('',(-1.,0.,0.));
#1314=DIRECTION('',(0.,0.,-1.));
#1315=DIRECTION('',(1.,0.,0.));
#1316=DIRECTION('',(0.,0.,-1.));
#1317=DIRECTION('',(0.,1.,0.));
#1318=DIRECTION('',(0.,0.,1.));
#1319=DIRECTION('',(1.,0.,0.));
#1320=DIRECTION('',(0.,0.,-1.));
#1321=DIRECTION('',(1.,0.,0.));
#1322=DIRECTION('',(0.,0.,-1.));
#1323=DIRECTION('',(-1.,0.,0.));
#1324=DIRECTION('',(0.,0.,1.));
#1325=DIRECTION('',(0.,-1.,0.));
#1326=DIRECTION('',(0.,0.,-1.));
#1327=DIRECTION('',(0.,1.,0.));
#1328=DIRECTION('',(-1.,0.,0.));
#1329=DIRECTION('',(0.,0.,1.));
#1330=DIRECTION('',(0.,1.,0.));
#1331=DIRECTION('',(0.,1.,0.));
#1332=DIRECTION('',(0.,0.,-1.));
#1333=DIRECTION('',(1.,0.,0.));
#1334=DIRECTION('',(0.,0.,-1.));
#1335=DIRECTION('',(0.,1.,0.));
#1336=DIRECTION('',(0.,-1.,0.));
#1337=DIRECTION('',(0.,0.,1.));
#1338=DIRECTION('',(1.,0.,0.));
#1339=DIRECTION('',(0.,0.,-1.));
#1340=DIRECTION('',(0.,-1.,0.));
#1341=DIRECTION('',(0.,0.,1.));
#1342=DIRECTION('',(0.,-1.,0.));
#1343=DIRECTION('',(1.,0.,0.));
#1344=DIRECTION('',(0.,0.,-1.));
#1345=DIRECTION('',(0.,1.,0.));
#1346=DIRECTION('',(0.,0.,-1.));
#1347=DIRECTION('',(0.,-1.,0.));
#1348=DIRECTION('',(0.,0.,-1.));
#1349=DIRECTION('',(1.,0.,0.));
#1350=DIRECTION('',(0.,0.,-1.));
#1351=DIRECTION('',(0.,-1.,0.));
#1352=DIRECTION('',(0.,0.,-1.));
#1353=DIRECTION('',(0.,-1.,0.));
#1354=DIRECTION('',(0.,0.,-1.));
#1355=DIRECTION('',(-1.,0.,0.));
#1356=DIRECTION('',(0.,0.,1.));
#1357=DIRECTION('',(0.,-1.,0.));
#1358=DIRECTION('',(0.,0.,-1.));
#1359=DIRECTION('',(0.,1.,0.));
#1360=DIRECTION('',(0.,0.,1.));
#1361=DIRECTION('',(-1.,0.,0.));
#1362=DIRECTION('',(0.,0.,1.));
#1363=DIRECTION('',(0.,1.,0.));
#1364=DIRECTION('',(0.,0.,1.));
#1365=DIRECTION('',(0.,1.,0.));
#1366=DIRECTION('',(0.,0.,-1.));
#1367=DIRECTION('',(0.,-1.,0.));
#1368=DIRECTION('',(0.,0.,-1.));
#1369=DIRECTION('',(1.,0.,0.));
#1370=DIRECTION('',(-1.,0.,0.));
#1371=DIRECTION('',(0.,-1.,0.));
#1372=DIRECTION('',(0.,0.,-1.));
#1373=DIRECTION('',(-1.,0.,0.));
#1374=DIRECTION('',(-1.,0.,0.));
#1375=DIRECTION('',(0.,0.,1.));
#1376=DIRECTION('',(1.,0.,0.));
#1377=DIRECTION('',(1.,0.,0.));
#1378=DIRECTION('',(0.,0.,1.));
#1379=DIRECTION('',(1.,0.,0.));
#1380=DIRECTION('',(1.,0.,0.));
#1381=DIRECTION('',(0.,-1.,0.));
#1382=DIRECTION('',(0.,0.,-1.));
#1383=DIRECTION('',(-1.,0.,0.));
#1384=DIRECTION('',(-1.,0.,0.));
#1385=DIRECTION('',(0.,0.,1.));
#1386=DIRECTION('',(-1.,0.,0.));
#1387=DIRECTION('',(0.,0.,1.));
#1388=DIRECTION('',(-1.,0.,0.));
#1389=DIRECTION('',(0.,0.,-1.));
#1390=DIRECTION('',(-1.,0.,0.));
#1391=DIRECTION('',(0.,-1.,0.));
#1392=DIRECTION('',(-1.,0.,0.));
#1393=DIRECTION('',(0.,-1.,0.));
#1394=DIRECTION('',(0.,1.,0.));
#1395=DIRECTION('',(0.,0.,1.));
#1396=DIRECTION('',(-1.,0.,0.));
#1397=DIRECTION('',(-1.,0.,0.));
#1398=DIRECTION('',(-1.,0.,0.));
#1399=DIRECTION('',(-1.,0.,0.));
#1400=DIRECTION('',(0.,0.,-1.));
#1401=DIRECTION('',(-1.,0.,0.));
#1402=DIRECTION('',(0.,0.,-1.));
#1403=DIRECTION('',(0.,0.,1.));
#1404=DIRECTION('',(1.,0.,0.));
#1405=DIRECTION('',(0.,1.,0.));
#1406=DIRECTION('',(0.,1.,0.));
#1407=DIRECTION('',(1.,0.,0.));
#1408=DIRECTION('',(0.,0.,-1.));
#1409=DIRECTION('',(1.,0.,0.));
#1410=DIRECTION('',(0.,0.,-1.));
#1411=DIRECTION('',(0.,0.,1.));
#1412=DIRECTION('',(1.,0.,0.));
#1413=DIRECTION('',(0.,0.,1.));
#1414=DIRECTION('',(1.,0.,0.));
#1415=DIRECTION('',(0.,0.,-1.));
#1416=DIRECTION('',(-1.,0.,0.));
#1417=DIRECTION('',(0.,0.,1.));
#1418=DIRECTION('',(1.,0.,0.));
#1419=DIRECTION('',(0.,0.,-1.));
#1420=DIRECTION('',(-1.,0.,0.));
#1421=DIRECTION('',(0.,0.,1.));
#1422=DIRECTION('',(1.,0.,0.));
#1423=DIRECTION('',(0.,0.,1.));
#1424=DIRECTION('',(1.,0.,0.));
#1425=CARTESIAN_POINT('',(0.,0.,0.));
#1426=CARTESIAN_POINT('',(0.,0.,0.));
#1427=CARTESIAN_POINT('',(0.,0.,0.083));
#1428=CARTESIAN_POINT('',(-0.0226,0.,0.083));
#1429=CARTESIAN_POINT('',(-0.0396,0.,0.083));
#1430=CARTESIAN_POINT('',(-0.0226,0.,0.));
#1431=CARTESIAN_POINT('',(-0.0226,0.,0.1));
#1432=CARTESIAN_POINT('',(-0.05,0.,0.1));
#1433=CARTESIAN_POINT('',(-0.0396,0.,0.1));
#1434=CARTESIAN_POINT('',(-0.0396,0.,0.));
#1435=CARTESIAN_POINT('',(0.,0.,0.));
#1436=CARTESIAN_POINT('',(0.,0.,-0.083));
#1437=CARTESIAN_POINT('',(-0.0396,0.,-0.083));
#1438=CARTESIAN_POINT('',(-0.0226,0.,-0.083));
#1439=CARTESIAN_POINT('',(-0.0396,0.,0.));
#1440=CARTESIAN_POINT('',(-0.0396,0.,-0.1));
#1441=CARTESIAN_POINT('',(0.05,0.,-0.1));
#1442=CARTESIAN_POINT('',(-0.0226,0.,-0.1));
#1443=CARTESIAN_POINT('',(-0.0226,0.,0.));
#1444=CARTESIAN_POINT('',(0.,0.,0.));
#1445=CARTESIAN_POINT('',(0.,0.,0.083));
#1446=CARTESIAN_POINT('',(0.0396,0.,0.083));
#1447=CARTESIAN_POINT('',(0.0226,0.,0.083));
#1448=CARTESIAN_POINT('',(0.0396,0.,0.));
#1449=CARTESIAN_POINT('',(0.0396,0.,0.1));
#1450=CARTESIAN_POINT('',(-0.05,0.,0.1));
#1451=CARTESIAN_POINT('',(0.0226,0.,0.1));
#1452=CARTESIAN_POINT('',(0.0226,0.,0.));
#1453=CARTESIAN_POINT('',(0.,0.,0.));
#1454=CARTESIAN_POINT('',(0.,0.,-0.083));
#1455=CARTESIAN_POINT('',(0.0226,0.,-0.083));
#1456=CARTESIAN_POINT('',(0.0396,0.,-0.083));
#1457=CARTESIAN_POINT('',(0.0226,0.,0.));
#1458=CARTESIAN_POINT('',(0.0226,0.,-0.1));
#1459=CARTESIAN_POINT('',(0.05,0.,-0.1));
#1460=CARTESIAN_POINT('',(0.0396,0.,-0.1));
#1461=CARTESIAN_POINT('',(0.0396,0.,0.));
#1462=CARTESIAN_POINT('',(-0.0396,-0.01,0.2));
#1463=CARTESIAN_POINT('',(-0.0396,0.02,0.2));
#1464=CARTESIAN_POINT('',(-0.0396,0.02,0.1));
#1465=CARTESIAN_POINT('',(-0.0396,0.02,0.083));
#1466=CARTESIAN_POINT('',(-0.0396,-0.01,0.083));
#1467=CARTESIAN_POINT('',(-0.0396,0.1,0.1));
#1468=CARTESIAN_POINT('',(-0.0396,-0.01,0.2));
#1469=CARTESIAN_POINT('',(-0.0396,-0.01,-0.083));
#1470=CARTESIAN_POINT('',(-0.0396,0.02,-0.083));
#1471=CARTESIAN_POINT('',(-0.0396,0.02,0.2));
#1472=CARTESIAN_POINT('',(-0.0396,0.02,-0.1));
#1473=CARTESIAN_POINT('',(-0.0396,0.1,-0.1));
#1474=CARTESIAN_POINT('',(0.0396,0.02,0.2));
#1475=CARTESIAN_POINT('',(0.0396,0.02,0.083));
#1476=CARTESIAN_POINT('',(0.0396,0.02,0.083));
#1477=CARTESIAN_POINT('',(0.0396,0.02,0.2));
#1478=CARTESIAN_POINT('',(0.0396,0.02,0.1));
#1479=CARTESIAN_POINT('',(0.0396,0.1,0.1));
#1480=CARTESIAN_POINT('',(0.0396,0.02,0.2));
#1481=CARTESIAN_POINT('',(0.0396,0.02,0.2));
#1482=CARTESIAN_POINT('',(0.0396,0.02,-0.083));
#1483=CARTESIAN_POINT('',(0.0396,0.02,-0.1));
#1484=CARTESIAN_POINT('',(0.0396,0.02,-0.083));
#1485=CARTESIAN_POINT('',(0.0396,0.1,-0.1));
#1486=CARTESIAN_POINT('',(-0.0226,0.02,0.2));
#1487=CARTESIAN_POINT('',(-0.0226,0.02,0.083));
#1488=CARTESIAN_POINT('',(-0.0226,0.02,0.083));
#1489=CARTESIAN_POINT('',(-0.0226,0.02,0.2));
#1490=CARTESIAN_POINT('',(-0.0226,0.02,0.1));
#1491=CARTESIAN_POINT('',(-0.0226,0.1,0.1));
#1492=CARTESIAN_POINT('',(-0.0226,0.02,0.2));
#1493=CARTESIAN_POINT('',(-0.0226,0.02,0.2));
#1494=CARTESIAN_POINT('',(-0.0226,0.02,-0.083));
#1495=CARTESIAN_POINT('',(-0.0226,0.02,-0.1));
#1496=CARTESIAN_POINT('',(-0.0226,0.02,-0.083));
#1497=CARTESIAN_POINT('',(-0.0226,0.1,-0.1));
#1498=CARTESIAN_POINT('',(0.0226,-0.01,0.2));
#1499=CARTESIAN_POINT('',(0.0226,0.02,0.2));
#1500=CARTESIAN_POINT('',(0.0226,0.02,0.1));
#1501=CARTESIAN_POINT('',(0.0226,0.02,0.083));
#1502=CARTESIAN_POINT('',(0.0226,-0.01,0.083));
#1503=CARTESIAN_POINT('',(0.0226,0.1,0.1));
#1504=CARTESIAN_POINT('',(0.0226,-0.01,0.2));
#1505=CARTESIAN_POINT('',(0.0226,-0.01,-0.083));
#1506=CARTESIAN_POINT('',(0.0226,0.02,-0.083));
#1507=CARTESIAN_POINT('',(0.0226,0.02,0.2));
#1508=CARTESIAN_POINT('',(0.0226,0.02,-0.1));
#1509=CARTESIAN_POINT('',(0.0226,0.1,-0.1));
#1510=CARTESIAN_POINT('',(0.05,0.1,-0.1));
#1511=CARTESIAN_POINT('',(0.05,0.02,-0.1));
#1512=CARTESIAN_POINT('',(-0.05,0.02,-0.1));
#1513=CARTESIAN_POINT('',(-0.05,0.1,-0.1));
#1514=CARTESIAN_POINT('',(-0.05,0.1,-0.1));
#1515=CARTESIAN_POINT('',(0.05,0.1,-0.1));
#1516=CARTESIAN_POINT('',(0.05,0.1,-0.1));
#1517=CARTESIAN_POINT('',(0.05,0.1,-0.1));
#1518=CARTESIAN_POINT('',(0.05,0.02,-0.1));
#1519=CARTESIAN_POINT('',(0.05,0.02,-0.1));
#1520=CARTESIAN_POINT('',(0.05,0.02,-0.1));
#1521=CARTESIAN_POINT('',(-0.05,0.1,0.1));
#1522=CARTESIAN_POINT('',(-0.05,0.02,0.1));
#1523=CARTESIAN_POINT('',(-0.05,0.02,0.1));
#1524=CARTESIAN_POINT('',(0.05,0.02,0.1));
#1525=CARTESIAN_POINT('',(0.05,0.1,0.1));
#1526=CARTESIAN_POINT('',(0.05,0.1,0.1));
#1527=CARTESIAN_POINT('',(-0.05,0.1,0.1));
#1528=CARTESIAN_POINT('',(-0.05,0.1,0.1));
#1529=CARTESIAN_POINT('',(-0.05,0.1,0.1));
#1530=CARTESIAN_POINT('',(-0.05,0.02,0.1));
#1531=CARTESIAN_POINT('',(-0.05,0.02,0.1));
#1532=CARTESIAN_POINT('',(0.0125,0.1,0.0375));
#1533=CARTESIAN_POINT('',(-0.0125,0.1,0.0375));
#1534=CARTESIAN_POINT('',(-0.0125,0.1,0.0375));
#1535=CARTESIAN_POINT('',(-0.0125,0.02,0.0375));
#1536=CARTESIAN_POINT('',(0.0125,0.02,0.0375));
#1537=CARTESIAN_POINT('',(0.0125,0.02,0.0375));
#1538=CARTESIAN_POINT('',(0.0125,0.1,0.0375));
#1539=CARTESIAN_POINT('',(0.0125,0.1,0.0375));
#1540=CARTESIAN_POINT('',(0.0125,0.1,0.0375));
#1541=CARTESIAN_POINT('',(0.0125,0.1,0.0625));
#1542=CARTESIAN_POINT('',(0.0125,0.02,0.0625));
#1543=CARTESIAN_POINT('',(0.0125,0.02,0.0625));
#1544=CARTESIAN_POINT('',(0.0125,0.1,0.0625));
#1545=CARTESIAN_POINT('',(0.0125,0.1,0.0625));
#1546=CARTESIAN_POINT('',(0.0125,0.1,0.0625));
#1547=CARTESIAN_POINT('',(-0.0125,0.1,0.0625));
#1548=CARTESIAN_POINT('',(-0.0125,0.02,0.0625));
#1549=CARTESIAN_POINT('',(-0.0125,0.02,0.0625));
#1550=CARTESIAN_POINT('',(-0.0125,0.1,0.0625));
#1551=CARTESIAN_POINT('',(-0.0125,0.1,0.0625));
#1552=CARTESIAN_POINT('',(-0.0125,0.1,0.0625));
#1553=CARTESIAN_POINT('',(0.0125,0.1,-0.0625));
#1554=CARTESIAN_POINT('',(-0.0125,0.1,-0.0625));
#1555=CARTESIAN_POINT('',(-0.0125,0.1,-0.0625));
#1556=CARTESIAN_POINT('',(-0.0125,0.02,-0.0625));
#1557=CARTESIAN_POINT('',(0.0125,0.02,-0.0625));
#1558=CARTESIAN_POINT('',(0.0125,0.02,-0.0625));
#1559=CARTESIAN_POINT('',(0.0125,0.1,-0.0625));
#1560=CARTESIAN_POINT('',(0.0125,0.1,-0.0625));
#1561=CARTESIAN_POINT('',(0.0125,0.1,-0.0625));
#1562=CARTESIAN_POINT('',(0.0125,0.1,-0.0375));
#1563=CARTESIAN_POINT('',(0.0125,0.02,-0.0375));
#1564=CARTESIAN_POINT('',(0.0125,0.02,-0.0375));
#1565=CARTESIAN_POINT('',(0.0125,0.1,-0.0375));
#1566=CARTESIAN_POINT('',(0.0125,0.1,-0.0375));
#1567=CARTESIAN_POINT('',(0.0125,0.1,-0.0375));
#1568=CARTESIAN_POINT('',(-0.0125,0.1,-0.0375));
#1569=CARTESIAN_POINT('',(-0.0125,0.02,-0.0375));
#1570=CARTESIAN_POINT('',(-0.0125,0.02,-0.0375));
#1571=CARTESIAN_POINT('',(-0.0125,0.1,-0.0375));
#1572=CARTESIAN_POINT('',(-0.0125,0.1,-0.0375));
#1573=CARTESIAN_POINT('',(-0.0125,0.1,-0.0375));
#1574=CARTESIAN_POINT('',(-0.0125,0.1,0.0375));
#1575=CARTESIAN_POINT('',(-0.0125,0.02,0.0375));
#1576=CARTESIAN_POINT('',(-0.0125,0.1,0.0375));
#1577=CARTESIAN_POINT('',(-0.0125,0.1,-0.0625));
#1578=CARTESIAN_POINT('',(-0.0125,0.02,-0.0625));
#1579=CARTESIAN_POINT('',(-0.0125,0.1,-0.0625));
#1580=CARTESIAN_POINT('',(0.05,0.1,0.1));
#1581=CARTESIAN_POINT('',(0.05,0.02,0.1));
#1582=CARTESIAN_POINT('',(0.05,0.1,0.1));
#1583=CARTESIAN_POINT('',(-0.05,0.1,-0.1));
#1584=CARTESIAN_POINT('',(-0.05,0.02,-0.1));
#1585=CARTESIAN_POINT('',(-0.05,0.1,-0.1));
#1586=CARTESIAN_POINT('',(0.,0.1,0.));
#1587=CARTESIAN_POINT('',(-0.0396,0.02,0.2));
#1588=CARTESIAN_POINT('',(0.1,0.02,0.083));
#1589=CARTESIAN_POINT('',(0.1,0.02,-0.083));
#1590=CARTESIAN_POINT('',(0.1,0.02,-0.083));
#1591=CARTESIAN_POINT('',(0.1,0.02,0.083));
#1592=CARTESIAN_POINT('',(0.1,-0.01,-0.083));
#1593=CARTESIAN_POINT('',(0.1,0.02,0.083));
#1594=CARTESIAN_POINT('',(0.1,0.02,0.083));
#1595=CARTESIAN_POINT('',(0.1,-0.01,-0.083));
#1596=CARTESIAN_POINT('',(0.,0.,0.));
#1597=CARTESIAN_POINT('',(-0.0125,0.,0.0625));
#1598=CARTESIAN_POINT('',(-0.0125,0.,0.0375));
#1599=CARTESIAN_POINT('',(0.0125,0.,0.0375));
#1600=CARTESIAN_POINT('',(-0.0125,0.,0.0375));
#1601=CARTESIAN_POINT('',(0.0125,0.,0.0625));
#1602=CARTESIAN_POINT('',(0.0125,0.,0.0625));
#1603=CARTESIAN_POINT('',(-0.0125,0.,0.0625));
#1604=CARTESIAN_POINT('',(-0.0125,0.,0.0625));
#1605=CARTESIAN_POINT('',(-0.0125,0.,0.0625));
#1606=CARTESIAN_POINT('',(-0.0125,0.,0.0625));
#1607=CARTESIAN_POINT('',(-0.0125,0.,-0.0375));
#1608=CARTESIAN_POINT('',(-0.0125,0.,-0.0375));
#1609=CARTESIAN_POINT('',(0.0125,0.,-0.0375));
#1610=CARTESIAN_POINT('',(-0.0125,0.,0.0625));
#1611=CARTESIAN_POINT('',(-0.0125,0.,-0.0625));
#1612=CARTESIAN_POINT('',(-0.0125,0.,-0.0625));
#1613=CARTESIAN_POINT('',(0.0125,0.,-0.0625));
#1614=CARTESIAN_POINT('',(0.0125,0.,0.0625));
#1615=CARTESIAN_POINT('',(0.0125,0.,0.0625));
#1616=CARTESIAN_POINT('',(0.0125,0.,0.0375));
#1617=CARTESIAN_POINT('',(0.0125,0.14,0.0375));
#1618=CARTESIAN_POINT('',(0.0125,0.14,0.0625));
#1619=CARTESIAN_POINT('',(0.0125,0.14,0.0625));
#1620=CARTESIAN_POINT('',(0.0125,0.,0.0625));
#1621=CARTESIAN_POINT('',(0.0125,0.,0.0625));
#1622=CARTESIAN_POINT('',(0.0125,0.,-0.0375));
#1623=CARTESIAN_POINT('',(0.0125,0.14,-0.0375));
#1624=CARTESIAN_POINT('',(0.0125,0.,-0.0625));
#1625=CARTESIAN_POINT('',(0.0125,0.14,-0.0625));
#1626=CARTESIAN_POINT('',(0.0125,0.14,0.0625));
#1627=CARTESIAN_POINT('',(-0.0125,0.43,0.0625));
#1628=CARTESIAN_POINT('',(-0.0125,0.43,0.0375));
#1629=CARTESIAN_POINT('',(-0.0125,0.14,0.0375));
#1630=CARTESIAN_POINT('',(-0.0125,0.43,0.0625));
#1631=CARTESIAN_POINT('',(-0.0125,0.14,0.0625));
#1632=CARTESIAN_POINT('',(-0.0125,0.14,0.0625));
#1633=CARTESIAN_POINT('',(-0.0125,0.43,0.0625));
#1634=CARTESIAN_POINT('',(-0.0125,0.43,-0.0375));
#1635=CARTESIAN_POINT('',(-0.0125,0.14,-0.0375));
#1636=CARTESIAN_POINT('',(-0.0125,0.14,0.0625));
#1637=CARTESIAN_POINT('',(-0.0125,0.14,-0.0625));
#1638=CARTESIAN_POINT('',(-0.0125,0.43,-0.0625));
#1639=CARTESIAN_POINT('',(-0.0125,0.43,0.0625));
#1640=CARTESIAN_POINT('',(-0.0125,0.43,0.0375));
#1641=CARTESIAN_POINT('',(-0.0125,0.145,0.0375));
#1642=CARTESIAN_POINT('',(-0.0125,0.43,0.0375));
#1643=CARTESIAN_POINT('',(-0.0125,0.145,0.0625));
#1644=CARTESIAN_POINT('',(-0.0125,0.145,0.0625));
#1645=CARTESIAN_POINT('',(-0.0125,0.43,0.0625));
#1646=CARTESIAN_POINT('',(-0.0125,0.43,0.0625));
#1647=CARTESIAN_POINT('',(-0.0125,0.43,0.0625));
#1648=CARTESIAN_POINT('',(-0.0125,0.43,0.0625));
#1649=CARTESIAN_POINT('',(-0.0125,0.43,-0.0375));
#1650=CARTESIAN_POINT('',(-0.0125,0.43,-0.0375));
#1651=CARTESIAN_POINT('',(-0.0125,0.145,-0.0375));
#1652=CARTESIAN_POINT('',(-0.0125,0.43,0.0625));
#1653=CARTESIAN_POINT('',(-0.0125,0.43,-0.0625));
#1654=CARTESIAN_POINT('',(-0.0125,0.43,-0.0625));
#1655=CARTESIAN_POINT('',(-0.0125,0.145,-0.0625));
#1656=CARTESIAN_POINT('',(-0.0125,0.145,0.0625));
#1657=CARTESIAN_POINT('',(0.0125,0.,0.0625));
#1658=CARTESIAN_POINT('',(0.0125,0.,0.0375));
#1659=CARTESIAN_POINT('',(0.0125,0.43,0.0375));
#1660=CARTESIAN_POINT('',(0.0125,0.145,0.0375));
#1661=CARTESIAN_POINT('',(0.0125,0.43,0.0625));
#1662=CARTESIAN_POINT('',(0.0125,0.43,0.0625));
#1663=CARTESIAN_POINT('',(0.0125,0.,0.0625));
#1664=CARTESIAN_POINT('',(0.0125,0.145,0.0625));
#1665=CARTESIAN_POINT('',(0.0125,0.145,0.0625));
#1666=CARTESIAN_POINT('',(0.0125,0.,0.0625));
#1667=CARTESIAN_POINT('',(0.0125,0.,-0.0375));
#1668=CARTESIAN_POINT('',(0.0125,0.145,-0.0375));
#1669=CARTESIAN_POINT('',(0.0125,0.43,-0.0375));
#1670=CARTESIAN_POINT('',(0.0125,0.145,0.0625));
#1671=CARTESIAN_POINT('',(0.0125,0.145,-0.0625));
#1672=CARTESIAN_POINT('',(0.0125,0.,-0.0625));
#1673=CARTESIAN_POINT('',(0.0125,0.43,-0.0625));
#1674=CARTESIAN_POINT('',(0.0125,0.43,0.0625));
#1675=CARTESIAN_POINT('',(0.0125,0.43,0.0625));
#1676=CARTESIAN_POINT('',(0.0125,0.43,0.0375));
#1677=CARTESIAN_POINT('',(0.0125,0.43,0.0625));
#1678=CARTESIAN_POINT('',(0.0125,0.43,0.0625));
#1679=CARTESIAN_POINT('',(0.0125,0.43,-0.0375));
#1680=CARTESIAN_POINT('',(0.0125,0.43,-0.0625));
#1681=CARTESIAN_POINT('',(0.,0.,0.0625));
#1682=CARTESIAN_POINT('',(0.,0.145,0.0625));
#1683=CARTESIAN_POINT('',(0.,0.,-0.0625));
#1684=CARTESIAN_POINT('',(0.,0.145,-0.0625));
#1685=CARTESIAN_POINT('',(0.0175,0.145,-0.0675));
#1686=CARTESIAN_POINT('',(0.1,0.145,0.0375));
#1687=CARTESIAN_POINT('',(0.1,0.145,-0.0375));
#1688=CARTESIAN_POINT('',(-0.0175,0.145,-0.0675));
#1689=CARTESIAN_POINT('',(-0.0175,0.145,-0.0675));
#1690=CARTESIAN_POINT('',(-0.0175,0.145,0.0675));
#1691=CARTESIAN_POINT('',(0.0175,0.145,0.0675));
#1692=CARTESIAN_POINT('',(0.0175,0.145,0.0675));
#1693=CARTESIAN_POINT('',(0.0175,0.145,-0.0675));
#1694=CARTESIAN_POINT('',(0.0175,0.145,-0.0675));
#1695=CARTESIAN_POINT('',(0.0175,0.145,-0.0675));
#1696=CARTESIAN_POINT('',(0.0175,0.145,0.0675));
#1697=CARTESIAN_POINT('',(-0.0175,0.145,0.0675));
#1698=CARTESIAN_POINT('',(-0.0175,0.14,0.0675));
#1699=CARTESIAN_POINT('',(0.0175,0.14,0.0675));
#1700=CARTESIAN_POINT('',(0.0175,0.14,0.0675));
#1701=CARTESIAN_POINT('',(0.0175,0.145,0.0675));
#1702=CARTESIAN_POINT('',(0.0175,0.14,0.0675));
#1703=CARTESIAN_POINT('',(0.1,0.14,0.0375));
#1704=CARTESIAN_POINT('',(0.,0.14,0.0625));
#1705=CARTESIAN_POINT('',(0.1,0.14,-0.0375));
#1706=CARTESIAN_POINT('',(0.,0.14,-0.0625));
#1707=CARTESIAN_POINT('',(-0.0175,0.14,0.0675));
#1708=CARTESIAN_POINT('',(-0.0175,0.14,-0.0675));
#1709=CARTESIAN_POINT('',(0.0175,0.14,-0.0675));
#1710=CARTESIAN_POINT('',(0.0175,0.14,-0.0675));
#1711=CARTESIAN_POINT('',(0.0175,0.14,0.0675));
#1712=CARTESIAN_POINT('',(0.0175,0.14,-0.0675));
#1713=CARTESIAN_POINT('',(-0.0175,0.14,-0.0675));
#1714=CARTESIAN_POINT('',(0.0175,0.14,-0.0675));
#1715=CARTESIAN_POINT('',(0.0175,0.,0.));
#1716=CARTESIAN_POINT('',(-0.0175,0.,0.));
#1717=CARTESIAN_POINT('',(0.,0.,-0.0625));
#1718=CARTESIAN_POINT('',(0.,0.,0.0625));
#1719=CARTESIAN_POINT('',(0.1,0.575,0.0375));
#1720=CARTESIAN_POINT('',(0.1,0.145,-0.0375));
#1721=CARTESIAN_POINT('',(0.1,0.14,0.0375));
#1722=CARTESIAN_POINT('',(0.1,-0.29,-0.0375));
#1723=CARTESIAN_POINT('',(0.,-0.09,0.));
#1724=MECHANICAL_DESIGN_GEOMETRIC_PRESENTATION_REPRESENTATION('',(#1081,
#1082),#1725);
#1725=(
GEOMETRIC_REPRESENTATION_CONTEXT(3)
GLOBAL_UNCERTAINTY_ASSIGNED_CONTEXT((#1728))
GLOBAL_UNIT_ASSIGNED_CONTEXT((#1733,#1732,#1731))
REPRESENTATION_CONTEXT('MTSW-101-07-T-D-240','TOP_LEVEL_ASSEMBLY_PART')
);
#1726=(
GEOMETRIC_REPRESENTATION_CONTEXT(3)
GLOBAL_UNCERTAINTY_ASSIGNED_CONTEXT((#1729))
GLOBAL_UNIT_ASSIGNED_CONTEXT((#1733,#1732,#1731))
REPRESENTATION_CONTEXT('MTSW-101-07-T-D-240_body','COMPONENT_PART')
);
#1727=(
GEOMETRIC_REPRESENTATION_CONTEXT(3)
GLOBAL_UNCERTAINTY_ASSIGNED_CONTEXT((#1730))
GLOBAL_UNIT_ASSIGNED_CONTEXT((#1733,#1732,#1731))
REPRESENTATION_CONTEXT('MTSW-101-07-D-240','COMPONENT_PART')
);
#1728=UNCERTAINTY_MEASURE_WITH_UNIT(LENGTH_MEASURE(3.93700787401575E-7),
#1733,'DISTANCE_ACCURACY_VALUE','Maximum Tolerance applied to model');
#1729=UNCERTAINTY_MEASURE_WITH_UNIT(LENGTH_MEASURE(3.93700787401575E-7),
#1733,'DISTANCE_ACCURACY_VALUE','Maximum Tolerance applied to model');
#1730=UNCERTAINTY_MEASURE_WITH_UNIT(LENGTH_MEASURE(3.93700787401575E-7),
#1733,'DISTANCE_ACCURACY_VALUE','Maximum Tolerance applied to model');
#1731=(
NAMED_UNIT(*)
SI_UNIT($,.STERADIAN.)
SOLID_ANGLE_UNIT()
);
#1732=(
NAMED_UNIT(*)
PLANE_ANGLE_UNIT()
SI_UNIT($,.RADIAN.)
);
#1733=(
CONVERSION_BASED_UNIT('INCH',#1735)
LENGTH_UNIT()
NAMED_UNIT(#1734)
);
#1734=DIMENSIONAL_EXPONENTS(1.,0.,0.,0.,0.,0.,0.);
#1735=LENGTH_MEASURE_WITH_UNIT(LENGTH_MEASURE(25.4),#1736);
#1736=(
LENGTH_UNIT()
NAMED_UNIT(*)
SI_UNIT(.MILLI.,.METRE.)
);
#1737=PRODUCT_DEFINITION_SHAPE('','',#1742);
#1738=PRODUCT_DEFINITION_SHAPE('','',#1743);
#1739=PRODUCT_DEFINITION_SHAPE(' ','NAUO PRDDFN',#13);
#1740=PRODUCT_DEFINITION_SHAPE('','',#1744);
#1741=PRODUCT_DEFINITION_SHAPE(' ','NAUO PRDDFN',#14);
#1742=PRODUCT_DEFINITION('','',#1748,#1745);
#1743=PRODUCT_DEFINITION('','',#1749,#1746);
#1744=PRODUCT_DEFINITION('','',#1750,#1747);
#1745=PRODUCT_DEFINITION_CONTEXT('',#1764,'design');
#1746=PRODUCT_DEFINITION_CONTEXT('',#1764,'design');
#1747=PRODUCT_DEFINITION_CONTEXT('',#1764,'design');
#1748=PRODUCT_DEFINITION_FORMATION_WITH_SPECIFIED_SOURCE('','',#1754,
 .NOT_KNOWN.);
#1749=PRODUCT_DEFINITION_FORMATION_WITH_SPECIFIED_SOURCE('','',#1755,
 .NOT_KNOWN.);
#1750=PRODUCT_DEFINITION_FORMATION_WITH_SPECIFIED_SOURCE('','',#1756,
 .NOT_KNOWN.);
#1751=PRODUCT_RELATED_PRODUCT_CATEGORY('','',(#1754));
#1752=PRODUCT_RELATED_PRODUCT_CATEGORY('','',(#1755));
#1753=PRODUCT_RELATED_PRODUCT_CATEGORY('','',(#1756));
#1754=PRODUCT('MTSW-101-07-T-D-240','MTSW-101-07-T-D-240',
'MTSW-101-07-T-D-240',(#1760));
#1755=PRODUCT('MTSW-101-07-T-D-240_body','MTSW-101-07-T-D-240_body',
'MTSW-101-07-T-D-240_body',(#1761));
#1756=PRODUCT('MTSW-101-07-D-240','MTSW-101-07-D-240',
'MTSW-101-07-D-240',(#1762));
#1757=PRODUCT_CATEGORY('','');
#1758=PRODUCT_CATEGORY('','');
#1759=PRODUCT_CATEGORY('','');
#1760=PRODUCT_CONTEXT('',#1764,'mechanical');
#1761=PRODUCT_CONTEXT('',#1764,'mechanical');
#1762=PRODUCT_CONTEXT('',#1764,'mechanical');
#1763=APPLICATION_PROTOCOL_DEFINITION('international standard',
'ap242_managed_model_based_3d_engineering',2011,#1764);
#1764=APPLICATION_CONTEXT('managed model based 3d engineering');
ENDSEC;
END-ISO-10303-21;
