M48
; DRILL file {KiCad 9.0.5} date 2026-09-22T14:54:35+0200
; FORMAT={-:-/ absolute / metric / decimal}
; #@! TF.CreationDate,2026-09-22T14:54:35+02:00
; #@! TF.GenerationSoftware,Kicad,Pcbnew,9.0.5
; #@! TF.FileFunction,Plated,1,4,PTH
FMAT,2
METRIC
; #@! TA.AperFunction,Plated,PTH,ComponentDrill
T1C0.250
; #@! TA.AperFunction,Plated,PTH,ViaDrill
T2C0.300
; #@! TA.AperFunction,Plated,PTH,ViaDrill
T3C0.400
; #@! TA.AperFunction,Plated,PTH,ComponentDrill
T4C0.400
; #@! TA.AperFunction,Plated,PTH,ComponentDrill
T5C0.600
; #@! TA.AperFunction,Plated,PTH,ComponentDrill
T6C1.016
; #@! TA.AperFunction,Plated,PTH,ComponentDrill
T7C1.150
; #@! TA.AperFunction,Plated,PTH,ComponentDrill
T8C2.200
%
G90
G05
T1
X118.75Y-91.2
X118.75Y-92.18
T2
X90.4Y-62.3
X90.4Y-64.0
X90.4Y-65.6
X90.4Y-67.6
X90.4Y-69.6
X90.4Y-71.6
X90.4Y-73.6
X90.4Y-75.6
X90.4Y-77.6
X90.4Y-79.6
X90.4Y-81.6
X91.15Y-82.5
X92.0Y-80.6
X92.15Y-82.5
X92.2Y-64.6
X92.75Y-66.75
X92.998Y-82.498
X93.25Y-72.5
X93.5Y-71.0
X93.7Y-74.253
X93.7Y-77.253
X93.85Y-63.0
X94.85Y-57.45
X95.0Y-80.525
X95.2Y-85.6
X95.2Y-88.4
X95.2Y-91.2
X95.2Y-94.0
X95.2Y-96.0
X95.2Y-98.0
X95.2Y-100.0
X95.2Y-102.0
X95.2Y-104.0
X95.2Y-106.0
X95.2Y-110.2
X95.25Y-69.75
X95.5Y-71.0
X95.5Y-79.25
X96.0Y-65.5
X96.0Y-68.25
X96.0Y-80.525
X96.45Y-103.25
X96.5Y-60.5
X96.5Y-72.0
X97.0Y-105.0
X97.05Y-59.25
X97.25Y-69.75
X97.4Y-62.55
X97.5Y-68.25
X97.6Y-85.7
X97.6Y-88.4
X97.6Y-91.2
X97.75Y-71.0
X98.2Y-72.0
X98.3Y-97.6
X98.5Y-59.25
X98.6Y-105.6
X98.75Y-94.0
X99.0Y-95.5
X99.2Y-85.6
X99.2Y-88.4
X99.2Y-91.2
X99.25Y-68.25
X99.4Y-66.0
X99.6Y-72.0
X99.75Y-70.25
X99.75Y-94.0
X100.25Y-107.25
X100.4Y-61.8
X100.45Y-59.1
X100.5Y-78.65
X100.5Y-101.0
X100.6Y-97.25
X100.75Y-94.0
X100.75Y-110.0
X100.8Y-105.5
X100.837Y-106.5
X100.837Y-108.0
X100.837Y-109.0
X101.0Y-72.0
X101.0Y-85.6
X101.0Y-88.4
X101.0Y-91.2
X101.1Y-100.25
X101.6Y-57.45
X101.75Y-68.236
X102.0Y-101.0
X102.087Y-105.75
X102.25Y-70.25
X102.25Y-98.75
X102.5Y-89.0
X102.7Y-59.15
X103.25Y-100.75
X103.45Y-69.25
X103.65Y-109.55
X103.7Y-82.503
X103.75Y-72.0
X103.8Y-62.0
X103.8Y-64.1
X103.8Y-66.0
X103.95Y-67.25
X104.0Y-57.45
X104.0Y-60.45
X104.25Y-98.75
X104.442Y-79.245
X104.45Y-83.003
X104.55Y-109.55
X104.7Y-81.6
X104.7Y-86.1
X104.7Y-88.503
X104.7Y-94.0
X104.75Y-87.25
X104.75Y-102.25
X105.35Y-62.2
X105.4Y-83.4
X105.5Y-70.25
X105.5Y-73.5
X105.5Y-95.0
X105.5Y-104.5
X105.587Y-106.5
X105.75Y-64.75
X106.0Y-86.428
X106.0Y-98.75
X106.75Y-73.0
X106.9Y-74.6
X107.0Y-59.25
X107.0Y-61.2
X107.0Y-63.5
X107.0Y-87.5
X107.0Y-100.5
X107.0Y-102.25
X107.0Y-105.5
X107.0Y-109.2
X107.05Y-57.45
X107.375Y-98.75
X107.5Y-76.0
X107.75Y-65.25
X107.75Y-67.05
X107.75Y-69.0
X107.837Y-106.5
X108.0Y-71.4
X108.0Y-86.428
X108.4Y-88.1
X108.4Y-91.3
X108.5Y-93.0
X108.837Y-106.5
X108.956Y-82.819
X109.5Y-83.6
X109.5Y-97.5
X109.5Y-110.25
X110.0Y-100.5
X110.0Y-102.5
X110.0Y-105.0
X110.0Y-107.75
X110.25Y-74.75
X110.75Y-109.75
X111.25Y-74.75
X111.25Y-82.0
X111.4Y-99.5
X111.75Y-107.25
X112.5Y-91.75
X112.5Y-103.75
X112.5Y-105.75
X113.2Y-101.1
X113.5Y-74.5
X113.85Y-108.7
X114.0Y-72.75
X114.0Y-75.75
X114.0Y-93.8
X114.2Y-85.8
X114.75Y-82.0
X114.75Y-85.0
X114.75Y-87.0
X114.85Y-78.35
X115.0Y-105.75
X115.0Y-107.5
X115.25Y-71.5
X115.25Y-74.5
X115.75Y-104.0
X115.75Y-110.25
X115.8Y-87.6
X115.8Y-89.5
X116.0Y-102.0
X116.25Y-63.0
X116.35Y-64.15
X116.35Y-65.7
X116.35Y-67.5
X116.35Y-80.3
X116.5Y-70.25
X116.5Y-73.25
X116.5Y-76.25
X116.65Y-82.9
X116.68Y-92.75
X117.18Y-93.655
X117.25Y-98.5
X117.25Y-99.25
X117.25Y-105.75
X117.5Y-78.3
X117.6Y-102.55
X118.0Y-66.75
X118.3Y-90.1
X118.5Y-104.5
X118.725Y-73.975
X118.8Y-83.0
X119.25Y-64.25
X119.25Y-65.75
X119.5Y-107.5
X119.5Y-109.5
X119.625Y-72.125
X119.95Y-84.7
X120.0Y-94.5
X120.05Y-86.8
X120.3Y-75.5
X120.8Y-77.9
X121.25Y-90.5
X121.35Y-72.1
X121.5Y-107.5
X121.5Y-109.5
X121.75Y-100.0
X121.8Y-63.75
X122.0Y-66.8
X122.0Y-79.8
X122.195Y-103.555
X122.3Y-87.7
X122.5Y-68.75
X122.5Y-72.1
X122.5Y-74.5
X122.5Y-100.25
X122.6Y-84.7
X122.8Y-81.45
X122.95Y-102.15
X123.25Y-62.25
X123.35Y-99.0
X123.5Y-107.5
X123.5Y-109.5
X124.07Y-95.6
X124.25Y-97.65
X124.35Y-81.7
X124.4Y-86.4
X124.5Y-103.75
X124.55Y-105.1
X125.0Y-92.25
X125.0Y-99.7
X125.25Y-90.0
X125.25Y-94.5
X125.25Y-95.5
X125.5Y-98.5
X126.25Y-88.0
X126.5Y-89.0
X126.5Y-96.25
X126.5Y-102.75
X126.9Y-82.3
X126.9Y-86.8
X127.0Y-84.7
X127.0Y-98.5
X127.0Y-99.5
X127.0Y-105.0
X127.0Y-106.25
X127.25Y-108.75
X127.25Y-110.25
X127.5Y-88.75
X127.5Y-91.2
X127.5Y-93.6
X128.0Y-86.75
X128.25Y-88.75
X128.5Y-98.5
X128.6Y-107.0
X128.8Y-91.2
X128.8Y-93.6
X129.0Y-81.25
X129.0Y-88.75
X129.0Y-103.0
X129.5Y-98.25
X129.6Y-99.4
X129.75Y-101.5
X130.1Y-91.2
X130.1Y-93.6
X130.25Y-106.25
X130.25Y-107.5
X130.25Y-108.75
X130.25Y-110.25
X130.75Y-98.25
X131.0Y-99.5
X131.75Y-98.25
X132.0Y-99.5
X132.1Y-86.0
X132.25Y-81.25
X132.25Y-83.25
X132.5Y-100.5
X132.75Y-93.25
X132.75Y-98.25
X133.0Y-96.75
X133.0Y-107.0
X133.0Y-108.75
X133.0Y-110.25
X133.05Y-87.05
X133.25Y-99.75
X133.7Y-88.15
X133.75Y-84.75
X134.0Y-82.75
X134.1Y-96.3
X134.8Y-95.5
X134.8Y-103.5
X135.0Y-90.75
X135.199Y-92.45
X135.75Y-106.25
X135.75Y-107.5
X135.75Y-108.75
X135.75Y-110.25
X136.0Y-89.65
X136.0Y-97.25
X136.05Y-81.4
X136.1Y-102.4
X136.5Y-98.75
X136.6Y-91.0
X136.6Y-91.8
X136.75Y-87.75
X136.75Y-90.0
X136.75Y-92.85
X136.75Y-93.5
X136.9Y-100.6
X137.15Y-95.45
X137.3Y-86.8
X137.3Y-103.1
X138.5Y-86.1
X138.5Y-88.3
X138.5Y-106.3
X138.7Y-99.1
X138.7Y-101.85
X138.7Y-104.6
X138.7Y-110.2
X139.0Y-81.75
X139.5Y-93.0
X139.5Y-97.25
X139.9Y-87.4
X140.0Y-89.7
X140.2Y-99.1
X140.2Y-101.85
X140.2Y-104.6
X140.475Y-85.4
X140.6Y-91.7
X140.6Y-93.0
X141.7Y-97.4
X141.7Y-99.1
X141.7Y-101.85
X141.7Y-104.6
X141.75Y-85.75
X143.0Y-87.4
X143.0Y-91.7
X143.0Y-93.0
X143.2Y-99.1
X143.2Y-101.85
X143.2Y-104.6
X143.25Y-81.0
X143.25Y-83.0
X143.25Y-85.25
X143.25Y-97.0
T3
X112.4Y-81.75
X112.4Y-87.65
T4
X90.6Y-59.25
X91.083Y-58.083
X91.083Y-60.417
X92.25Y-57.6
X92.25Y-60.9
X93.417Y-58.083
X93.417Y-60.417
X93.9Y-59.25
X95.85Y-108.25
X96.333Y-107.083
X96.333Y-109.417
X97.5Y-106.6
X97.5Y-109.9
X98.667Y-107.083
X98.667Y-109.417
X99.15Y-108.25
X111.75Y-110.5
X113.85Y-110.5
X139.6Y-59.25
X139.6Y-108.25
X140.083Y-58.083
X140.083Y-60.417
X140.083Y-107.083
X140.083Y-109.417
X141.25Y-57.6
X141.25Y-60.9
X141.25Y-106.6
X141.25Y-109.9
X142.417Y-58.083
X142.417Y-60.417
X142.417Y-107.083
X142.417Y-109.417
X142.9Y-59.25
X142.9Y-108.25
T6
X111.23Y-96.0
X112.48Y-77.23
X112.48Y-79.77
X113.77Y-96.0
X117.73Y-88.5
X120.27Y-88.5
T7
X115.45Y-58.0
X120.05Y-58.0
T8
X92.25Y-59.25
X97.5Y-108.25
X141.25Y-59.25
X141.25Y-108.25
T5
G00X128.68Y-104.7
M15
G01X128.68Y-105.3
M16
G05
G00X128.68Y-108.5
M15
G01X128.68Y-109.1
M16
G05
G00X137.32Y-104.7
M15
G01X137.32Y-105.3
M16
G05
G00X137.32Y-108.5
M15
G01X137.32Y-109.1
M16
G05
M30
