%TF.GenerationSoftware,KiCad,Pcbnew,9.0.5*%
%TF.CreationDate,2026-09-22T14:53:24+02:00*%
%TF.ProjectId,IEMU_Sensor_DB,49454d55-5f53-4656-9e73-6f725f44422e,rev?*%
%TF.SameCoordinates,Original*%
%TF.FileFunction,Soldermask,Top*%
%TF.FilePolarity,Negative*%
%FSLAX46Y46*%
G04 Gerber Fmt 4.6, Leading zero omitted, Abs format (unit mm)*
G04 Created by KiCad (PCBNEW 9.0.5) date 2026-09-22 14:53:24*
%MOMM*%
%LPD*%
G01*
G04 APERTURE LIST*
G04 Aperture macros list*
%AMRoundRect*
0 Rectangle with rounded corners*
0 $1 Rounding radius*
0 $2 $3 $4 $5 $6 $7 $8 $9 X,Y pos of 4 corners*
0 Add a 4 corners polygon primitive as box body*
4,1,4,$2,$3,$4,$5,$6,$7,$8,$9,$2,$3,0*
0 Add four circle primitives for the rounded corners*
1,1,$1+$1,$2,$3*
1,1,$1+$1,$4,$5*
1,1,$1+$1,$6,$7*
1,1,$1+$1,$8,$9*
0 Add four rect primitives between the rounded corners*
20,1,$1+$1,$2,$3,$4,$5,0*
20,1,$1+$1,$4,$5,$6,$7,0*
20,1,$1+$1,$6,$7,$8,$9,0*
20,1,$1+$1,$8,$9,$2,$3,0*%
%AMFreePoly0*
4,1,59,0.071566,0.443599,0.159821,0.419951,0.183939,0.409961,0.263067,0.364277,0.283778,0.348385,0.348385,0.283778,0.364277,0.263067,0.409961,0.183939,0.419951,0.159821,0.443599,0.071566,0.447006,0.045684,0.447006,-0.045684,0.443599,-0.071566,0.419951,-0.159821,0.409961,-0.183939,0.364277,-0.263067,0.348385,-0.283778,0.283778,-0.348385,0.263066,-0.364277,0.255000,-0.368933,
0.255000,-0.700000,0.253074,-0.719533,0.252693,-0.721446,0.225330,-0.772624,0.222624,-0.775330,0.171446,-0.802693,0.169533,-0.803074,0.150000,-0.805000,-0.150000,-0.805000,-0.169533,-0.803074,-0.171446,-0.802693,-0.222624,-0.775330,-0.225330,-0.772624,-0.252693,-0.721446,-0.253074,-0.719533,-0.255000,-0.700000,-0.255000,-0.368933,-0.263066,-0.364277,-0.283778,-0.348385,-0.348385,-0.283778,
-0.364277,-0.263067,-0.409961,-0.183939,-0.419951,-0.159821,-0.443599,-0.071566,-0.447006,-0.045684,-0.447006,0.045684,-0.443599,0.071566,-0.419951,0.159821,-0.409961,0.183939,-0.364277,0.263067,-0.348385,0.283778,-0.283778,0.348385,-0.263067,0.364277,-0.183939,0.409961,-0.159821,0.419951,-0.071566,0.443599,-0.045684,0.447006,0.045684,0.447006,0.071566,0.443599,0.071566,0.443599,
$1*%
G04 Aperture macros list end*
%ADD10C,0.010000*%
%ADD11RoundRect,0.100000X0.400000X0.350000X-0.400000X0.350000X-0.400000X-0.350000X0.400000X-0.350000X0*%
%ADD12RoundRect,0.100000X-0.260000X0.350000X-0.260000X-0.350000X0.260000X-0.350000X0.260000X0.350000X0*%
%ADD13RoundRect,0.100000X-0.400000X-0.350000X0.400000X-0.350000X0.400000X0.350000X-0.400000X0.350000X0*%
%ADD14RoundRect,0.100000X0.260000X-0.350000X0.260000X0.350000X-0.260000X0.350000X-0.260000X-0.350000X0*%
%ADD15RoundRect,0.050000X-0.190000X-0.315000X0.190000X-0.315000X0.190000X0.315000X-0.190000X0.315000X0*%
%ADD16RoundRect,0.050000X-0.190000X-0.075000X0.190000X-0.075000X0.190000X0.075000X-0.190000X0.075000X0*%
%ADD17RoundRect,0.160000X0.210000X-0.160000X0.210000X0.160000X-0.210000X0.160000X-0.210000X-0.160000X0*%
%ADD18RoundRect,0.097500X0.292500X0.292500X-0.292500X0.292500X-0.292500X-0.292500X0.292500X-0.292500X0*%
%ADD19RoundRect,0.062500X0.337500X-0.187500X0.337500X0.187500X-0.337500X0.187500X-0.337500X-0.187500X0*%
%ADD20RoundRect,0.165000X-0.165000X-0.195000X0.165000X-0.195000X0.165000X0.195000X-0.165000X0.195000X0*%
%ADD21RoundRect,0.250000X-0.250000X-0.275000X0.250000X-0.275000X0.250000X0.275000X-0.250000X0.275000X0*%
%ADD22RoundRect,0.050000X0.900000X-0.500000X0.900000X0.500000X-0.900000X0.500000X-0.900000X-0.500000X0*%
%ADD23RoundRect,0.160000X0.160000X0.210000X-0.160000X0.210000X-0.160000X-0.210000X0.160000X-0.210000X0*%
%ADD24C,1.100000*%
%ADD25RoundRect,0.102000X-0.550000X0.650000X-0.550000X-0.650000X0.550000X-0.650000X0.550000X0.650000X0*%
%ADD26RoundRect,0.243750X-0.281250X0.243750X-0.281250X-0.243750X0.281250X-0.243750X0.281250X0.243750X0*%
%ADD27C,0.330000*%
%ADD28RoundRect,0.102000X-0.762000X-0.762000X0.762000X-0.762000X0.762000X0.762000X-0.762000X0.762000X0*%
%ADD29C,1.728000*%
%ADD30RoundRect,0.160000X-0.210000X0.160000X-0.210000X-0.160000X0.210000X-0.160000X0.210000X0.160000X0*%
%ADD31RoundRect,0.165000X-0.195000X0.165000X-0.195000X-0.165000X0.195000X-0.165000X0.195000X0.165000X0*%
%ADD32C,0.800000*%
%ADD33C,4.500000*%
%ADD34RoundRect,0.050000X0.075000X-0.190000X0.075000X0.190000X-0.075000X0.190000X-0.075000X-0.190000X0*%
%ADD35RoundRect,0.050000X0.315000X-0.190000X0.315000X0.190000X-0.315000X0.190000X-0.315000X-0.190000X0*%
%ADD36RoundRect,0.243750X-0.243750X-0.281250X0.243750X-0.281250X0.243750X0.281250X-0.243750X0.281250X0*%
%ADD37RoundRect,0.050000X-0.225000X0.150000X-0.225000X-0.150000X0.225000X-0.150000X0.225000X0.150000X0*%
%ADD38RoundRect,0.050000X-0.450000X0.312500X-0.450000X-0.312500X0.450000X-0.312500X0.450000X0.312500X0*%
%ADD39RoundRect,0.165000X0.165000X0.195000X-0.165000X0.195000X-0.165000X-0.195000X0.165000X-0.195000X0*%
%ADD40RoundRect,0.075000X0.075000X-0.425000X0.075000X0.425000X-0.075000X0.425000X-0.075000X-0.425000X0*%
%ADD41RoundRect,0.075000X0.075000X-0.375000X0.075000X0.375000X-0.075000X0.375000X-0.075000X-0.375000X0*%
%ADD42RoundRect,0.075000X0.375000X-0.075000X0.375000X0.075000X-0.375000X0.075000X-0.375000X-0.075000X0*%
%ADD43RoundRect,0.225000X0.300000X-0.225000X0.300000X0.225000X-0.300000X0.225000X-0.300000X-0.225000X0*%
%ADD44RoundRect,0.097500X-0.292500X-0.292500X0.292500X-0.292500X0.292500X0.292500X-0.292500X0.292500X0*%
%ADD45RoundRect,0.165000X0.195000X-0.165000X0.195000X0.165000X-0.195000X0.165000X-0.195000X-0.165000X0*%
%ADD46RoundRect,0.125000X-0.165000X-0.125000X0.165000X-0.125000X0.165000X0.125000X-0.165000X0.125000X0*%
%ADD47FreePoly0,0.000000*%
%ADD48RoundRect,0.062500X-0.187500X-0.337500X0.187500X-0.337500X0.187500X0.337500X-0.187500X0.337500X0*%
%ADD49RoundRect,0.125000X0.165000X0.125000X-0.165000X0.125000X-0.165000X-0.125000X0.165000X-0.125000X0*%
%ADD50C,1.090600*%
%ADD51C,0.887400*%
%ADD52RoundRect,0.160000X-0.160000X-0.210000X0.160000X-0.210000X0.160000X0.210000X-0.160000X0.210000X0*%
%ADD53RoundRect,0.112500X-0.250000X-0.112500X0.250000X-0.112500X0.250000X0.112500X-0.250000X0.112500X0*%
%ADD54RoundRect,0.112500X-0.112500X-0.250000X0.112500X-0.250000X0.112500X0.250000X-0.112500X0.250000X0*%
%ADD55RoundRect,0.102000X0.325000X0.425000X-0.325000X0.425000X-0.325000X-0.425000X0.325000X-0.425000X0*%
%ADD56RoundRect,0.059250X-0.442750X-0.177750X0.442750X-0.177750X0.442750X0.177750X-0.442750X0.177750X0*%
%ADD57RoundRect,0.059250X-0.177750X-0.442750X0.177750X-0.442750X0.177750X0.442750X-0.177750X0.442750X0*%
%ADD58RoundRect,0.102000X-1.750000X-1.750000X1.750000X-1.750000X1.750000X1.750000X-1.750000X1.750000X0*%
%ADD59RoundRect,0.175000X-0.225000X0.175000X-0.225000X-0.175000X0.225000X-0.175000X0.225000X0.175000X0*%
%ADD60RoundRect,0.102000X-0.350000X-0.600000X0.350000X-0.600000X0.350000X0.600000X-0.350000X0.600000X0*%
%ADD61RoundRect,0.102000X-0.380000X-0.600000X0.380000X-0.600000X0.380000X0.600000X-0.380000X0.600000X0*%
%ADD62RoundRect,0.102000X-0.400000X-0.600000X0.400000X-0.600000X0.400000X0.600000X-0.400000X0.600000X0*%
%ADD63RoundRect,0.102000X0.762000X-0.762000X0.762000X0.762000X-0.762000X0.762000X-0.762000X-0.762000X0*%
%ADD64RoundRect,0.050000X0.225000X0.300000X-0.225000X0.300000X-0.225000X-0.300000X0.225000X-0.300000X0*%
%ADD65RoundRect,0.050000X-0.300000X0.225000X-0.300000X-0.225000X0.300000X-0.225000X0.300000X0.225000X0*%
%ADD66RoundRect,0.250000X-0.275000X0.250000X-0.275000X-0.250000X0.275000X-0.250000X0.275000X0.250000X0*%
%ADD67RoundRect,0.243750X0.243750X0.281250X-0.243750X0.281250X-0.243750X-0.281250X0.243750X-0.281250X0*%
%ADD68RoundRect,0.125000X-0.063463X-0.197034X0.206857X-0.007754X0.063463X0.197034X-0.206857X0.007754X0*%
%ADD69RoundRect,0.250000X0.275000X-0.250000X0.275000X0.250000X-0.275000X0.250000X-0.275000X-0.250000X0*%
%ADD70RoundRect,0.225000X0.225000X0.300000X-0.225000X0.300000X-0.225000X-0.300000X0.225000X-0.300000X0*%
%ADD71RoundRect,0.243750X0.281250X-0.243750X0.281250X0.243750X-0.281250X0.243750X-0.281250X-0.243750X0*%
%ADD72RoundRect,0.102000X-0.350000X-0.900000X0.350000X-0.900000X0.350000X0.900000X-0.350000X0.900000X0*%
%ADD73RoundRect,0.102000X-0.800000X-1.100000X0.800000X-1.100000X0.800000X1.100000X-0.800000X1.100000X0*%
%ADD74RoundRect,0.435000X1.027454X1.958517X-2.191814X-0.295638X-1.027454X-1.958517X2.191814X0.295638X0*%
%ADD75RoundRect,0.435000X0.617878X1.671729X-1.782238X-0.008850X-0.617878X-1.671729X1.782238X0.008850X0*%
%ADD76RoundRect,0.118750X-0.118750X-0.131250X0.118750X-0.131250X0.118750X0.131250X-0.118750X0.131250X0*%
%ADD77RoundRect,0.050000X-0.500000X-0.800000X0.500000X-0.800000X0.500000X0.800000X-0.500000X0.800000X0*%
%ADD78RoundRect,0.095000X0.380000X-0.095000X0.380000X0.095000X-0.380000X0.095000X-0.380000X-0.095000X0*%
%ADD79RoundRect,0.095000X0.330000X-0.095000X0.330000X0.095000X-0.330000X0.095000X-0.330000X-0.095000X0*%
%ADD80RoundRect,0.102000X-0.750000X0.275000X-0.750000X-0.275000X0.750000X-0.275000X0.750000X0.275000X0*%
%ADD81RoundRect,0.261628X-0.863372X-0.863372X0.863372X-0.863372X0.863372X0.863372X-0.863372X0.863372X0*%
%ADD82C,2.250000*%
%ADD83RoundRect,0.102000X0.750000X0.400000X-0.750000X0.400000X-0.750000X-0.400000X0.750000X-0.400000X0*%
%ADD84RoundRect,0.102000X1.625000X2.025000X-1.625000X2.025000X-1.625000X-2.025000X1.625000X-2.025000X0*%
G04 APERTURE END LIST*
D10*
%TO.C,M401*%
X110550000Y-61875000D02*
X110950000Y-61875000D01*
X110950000Y-61325000D01*
X112150000Y-61325000D01*
X112150000Y-61875000D01*
X112550000Y-61875000D01*
X112550000Y-66375000D01*
X111350000Y-66375000D01*
X111350000Y-67875000D01*
X110150000Y-67875000D01*
X110150000Y-66375000D01*
X108950000Y-66375000D01*
X108950000Y-61875000D01*
X109350000Y-61875000D01*
X109350000Y-61325000D01*
X110550000Y-61325000D01*
X110550000Y-61875000D01*
G36*
X110550000Y-61875000D02*
G01*
X110950000Y-61875000D01*
X110950000Y-61325000D01*
X112150000Y-61325000D01*
X112150000Y-61875000D01*
X112550000Y-61875000D01*
X112550000Y-66375000D01*
X111350000Y-66375000D01*
X111350000Y-67875000D01*
X110150000Y-67875000D01*
X110150000Y-66375000D01*
X108950000Y-66375000D01*
X108950000Y-61875000D01*
X109350000Y-61875000D01*
X109350000Y-61325000D01*
X110550000Y-61325000D01*
X110550000Y-61875000D01*
G37*
%TO.C,J101*%
X128714000Y-104051000D02*
X128748000Y-104054000D01*
X128782000Y-104058000D01*
X128815000Y-104064000D01*
X128848000Y-104072000D01*
X128881000Y-104082000D01*
X128913000Y-104093000D01*
X128944000Y-104106000D01*
X128975000Y-104121000D01*
X129005000Y-104137000D01*
X129034000Y-104155000D01*
X129062000Y-104174000D01*
X129089000Y-104195000D01*
X129115000Y-104217000D01*
X129140000Y-104240000D01*
X129163000Y-104265000D01*
X129185000Y-104291000D01*
X129206000Y-104318000D01*
X129225000Y-104346000D01*
X129243000Y-104375000D01*
X129259000Y-104405000D01*
X129274000Y-104436000D01*
X129287000Y-104467000D01*
X129298000Y-104499000D01*
X129308000Y-104532000D01*
X129316000Y-104565000D01*
X129322000Y-104598000D01*
X129326000Y-104632000D01*
X129329000Y-104666000D01*
X129330000Y-104700000D01*
X129330000Y-105300000D01*
X129329000Y-105334000D01*
X129326000Y-105368000D01*
X129322000Y-105402000D01*
X129316000Y-105435000D01*
X129308000Y-105468000D01*
X129298000Y-105501000D01*
X129287000Y-105533000D01*
X129274000Y-105564000D01*
X129259000Y-105595000D01*
X129243000Y-105625000D01*
X129225000Y-105654000D01*
X129206000Y-105682000D01*
X129185000Y-105709000D01*
X129163000Y-105735000D01*
X129140000Y-105760000D01*
X129115000Y-105783000D01*
X129089000Y-105805000D01*
X129062000Y-105826000D01*
X129034000Y-105845000D01*
X129005000Y-105863000D01*
X128975000Y-105879000D01*
X128944000Y-105894000D01*
X128913000Y-105907000D01*
X128881000Y-105918000D01*
X128848000Y-105928000D01*
X128815000Y-105936000D01*
X128782000Y-105942000D01*
X128748000Y-105946000D01*
X128714000Y-105949000D01*
X128680000Y-105950000D01*
X128646000Y-105949000D01*
X128612000Y-105946000D01*
X128578000Y-105942000D01*
X128545000Y-105936000D01*
X128512000Y-105928000D01*
X128479000Y-105918000D01*
X128447000Y-105907000D01*
X128416000Y-105894000D01*
X128385000Y-105879000D01*
X128355000Y-105863000D01*
X128326000Y-105845000D01*
X128298000Y-105826000D01*
X128271000Y-105805000D01*
X128245000Y-105783000D01*
X128220000Y-105760000D01*
X128197000Y-105735000D01*
X128175000Y-105709000D01*
X128154000Y-105682000D01*
X128135000Y-105654000D01*
X128117000Y-105625000D01*
X128101000Y-105595000D01*
X128086000Y-105564000D01*
X128073000Y-105533000D01*
X128062000Y-105501000D01*
X128052000Y-105468000D01*
X128044000Y-105435000D01*
X128038000Y-105402000D01*
X128034000Y-105368000D01*
X128031000Y-105334000D01*
X128030000Y-105300000D01*
X128030000Y-104700000D01*
X128031000Y-104666000D01*
X128034000Y-104632000D01*
X128038000Y-104598000D01*
X128044000Y-104565000D01*
X128052000Y-104532000D01*
X128062000Y-104499000D01*
X128073000Y-104467000D01*
X128086000Y-104436000D01*
X128101000Y-104405000D01*
X128117000Y-104375000D01*
X128135000Y-104346000D01*
X128154000Y-104318000D01*
X128175000Y-104291000D01*
X128197000Y-104265000D01*
X128220000Y-104240000D01*
X128245000Y-104217000D01*
X128271000Y-104195000D01*
X128298000Y-104174000D01*
X128326000Y-104155000D01*
X128355000Y-104137000D01*
X128385000Y-104121000D01*
X128416000Y-104106000D01*
X128447000Y-104093000D01*
X128479000Y-104082000D01*
X128512000Y-104072000D01*
X128545000Y-104064000D01*
X128578000Y-104058000D01*
X128612000Y-104054000D01*
X128646000Y-104051000D01*
X128680000Y-104050000D01*
X128714000Y-104051000D01*
G36*
X128714000Y-104051000D02*
G01*
X128748000Y-104054000D01*
X128782000Y-104058000D01*
X128815000Y-104064000D01*
X128848000Y-104072000D01*
X128881000Y-104082000D01*
X128913000Y-104093000D01*
X128944000Y-104106000D01*
X128975000Y-104121000D01*
X129005000Y-104137000D01*
X129034000Y-104155000D01*
X129062000Y-104174000D01*
X129089000Y-104195000D01*
X129115000Y-104217000D01*
X129140000Y-104240000D01*
X129163000Y-104265000D01*
X129185000Y-104291000D01*
X129206000Y-104318000D01*
X129225000Y-104346000D01*
X129243000Y-104375000D01*
X129259000Y-104405000D01*
X129274000Y-104436000D01*
X129287000Y-104467000D01*
X129298000Y-104499000D01*
X129308000Y-104532000D01*
X129316000Y-104565000D01*
X129322000Y-104598000D01*
X129326000Y-104632000D01*
X129329000Y-104666000D01*
X129330000Y-104700000D01*
X129330000Y-105300000D01*
X129329000Y-105334000D01*
X129326000Y-105368000D01*
X129322000Y-105402000D01*
X129316000Y-105435000D01*
X129308000Y-105468000D01*
X129298000Y-105501000D01*
X129287000Y-105533000D01*
X129274000Y-105564000D01*
X129259000Y-105595000D01*
X129243000Y-105625000D01*
X129225000Y-105654000D01*
X129206000Y-105682000D01*
X129185000Y-105709000D01*
X129163000Y-105735000D01*
X129140000Y-105760000D01*
X129115000Y-105783000D01*
X129089000Y-105805000D01*
X129062000Y-105826000D01*
X129034000Y-105845000D01*
X129005000Y-105863000D01*
X128975000Y-105879000D01*
X128944000Y-105894000D01*
X128913000Y-105907000D01*
X128881000Y-105918000D01*
X128848000Y-105928000D01*
X128815000Y-105936000D01*
X128782000Y-105942000D01*
X128748000Y-105946000D01*
X128714000Y-105949000D01*
X128680000Y-105950000D01*
X128646000Y-105949000D01*
X128612000Y-105946000D01*
X128578000Y-105942000D01*
X128545000Y-105936000D01*
X128512000Y-105928000D01*
X128479000Y-105918000D01*
X128447000Y-105907000D01*
X128416000Y-105894000D01*
X128385000Y-105879000D01*
X128355000Y-105863000D01*
X128326000Y-105845000D01*
X128298000Y-105826000D01*
X128271000Y-105805000D01*
X128245000Y-105783000D01*
X128220000Y-105760000D01*
X128197000Y-105735000D01*
X128175000Y-105709000D01*
X128154000Y-105682000D01*
X128135000Y-105654000D01*
X128117000Y-105625000D01*
X128101000Y-105595000D01*
X128086000Y-105564000D01*
X128073000Y-105533000D01*
X128062000Y-105501000D01*
X128052000Y-105468000D01*
X128044000Y-105435000D01*
X128038000Y-105402000D01*
X128034000Y-105368000D01*
X128031000Y-105334000D01*
X128030000Y-105300000D01*
X128030000Y-104700000D01*
X128031000Y-104666000D01*
X128034000Y-104632000D01*
X128038000Y-104598000D01*
X128044000Y-104565000D01*
X128052000Y-104532000D01*
X128062000Y-104499000D01*
X128073000Y-104467000D01*
X128086000Y-104436000D01*
X128101000Y-104405000D01*
X128117000Y-104375000D01*
X128135000Y-104346000D01*
X128154000Y-104318000D01*
X128175000Y-104291000D01*
X128197000Y-104265000D01*
X128220000Y-104240000D01*
X128245000Y-104217000D01*
X128271000Y-104195000D01*
X128298000Y-104174000D01*
X128326000Y-104155000D01*
X128355000Y-104137000D01*
X128385000Y-104121000D01*
X128416000Y-104106000D01*
X128447000Y-104093000D01*
X128479000Y-104082000D01*
X128512000Y-104072000D01*
X128545000Y-104064000D01*
X128578000Y-104058000D01*
X128612000Y-104054000D01*
X128646000Y-104051000D01*
X128680000Y-104050000D01*
X128714000Y-104051000D01*
G37*
X128714000Y-107851000D02*
X128748000Y-107854000D01*
X128782000Y-107858000D01*
X128815000Y-107864000D01*
X128848000Y-107872000D01*
X128881000Y-107882000D01*
X128913000Y-107893000D01*
X128944000Y-107906000D01*
X128975000Y-107921000D01*
X129005000Y-107937000D01*
X129034000Y-107955000D01*
X129062000Y-107974000D01*
X129089000Y-107995000D01*
X129115000Y-108017000D01*
X129140000Y-108040000D01*
X129163000Y-108065000D01*
X129185000Y-108091000D01*
X129206000Y-108118000D01*
X129225000Y-108146000D01*
X129243000Y-108175000D01*
X129259000Y-108205000D01*
X129274000Y-108236000D01*
X129287000Y-108267000D01*
X129298000Y-108299000D01*
X129308000Y-108332000D01*
X129316000Y-108365000D01*
X129322000Y-108398000D01*
X129326000Y-108432000D01*
X129329000Y-108466000D01*
X129330000Y-108500000D01*
X129330000Y-109100000D01*
X129329000Y-109134000D01*
X129326000Y-109168000D01*
X129322000Y-109202000D01*
X129316000Y-109235000D01*
X129308000Y-109268000D01*
X129298000Y-109301000D01*
X129287000Y-109333000D01*
X129274000Y-109364000D01*
X129259000Y-109395000D01*
X129243000Y-109425000D01*
X129225000Y-109454000D01*
X129206000Y-109482000D01*
X129185000Y-109509000D01*
X129163000Y-109535000D01*
X129140000Y-109560000D01*
X129115000Y-109583000D01*
X129089000Y-109605000D01*
X129062000Y-109626000D01*
X129034000Y-109645000D01*
X129005000Y-109663000D01*
X128975000Y-109679000D01*
X128944000Y-109694000D01*
X128913000Y-109707000D01*
X128881000Y-109718000D01*
X128848000Y-109728000D01*
X128815000Y-109736000D01*
X128782000Y-109742000D01*
X128748000Y-109746000D01*
X128714000Y-109749000D01*
X128680000Y-109750000D01*
X128646000Y-109749000D01*
X128612000Y-109746000D01*
X128578000Y-109742000D01*
X128545000Y-109736000D01*
X128512000Y-109728000D01*
X128479000Y-109718000D01*
X128447000Y-109707000D01*
X128416000Y-109694000D01*
X128385000Y-109679000D01*
X128355000Y-109663000D01*
X128326000Y-109645000D01*
X128298000Y-109626000D01*
X128271000Y-109605000D01*
X128245000Y-109583000D01*
X128220000Y-109560000D01*
X128197000Y-109535000D01*
X128175000Y-109509000D01*
X128154000Y-109482000D01*
X128135000Y-109454000D01*
X128117000Y-109425000D01*
X128101000Y-109395000D01*
X128086000Y-109364000D01*
X128073000Y-109333000D01*
X128062000Y-109301000D01*
X128052000Y-109268000D01*
X128044000Y-109235000D01*
X128038000Y-109202000D01*
X128034000Y-109168000D01*
X128031000Y-109134000D01*
X128030000Y-109100000D01*
X128030000Y-108500000D01*
X128031000Y-108466000D01*
X128034000Y-108432000D01*
X128038000Y-108398000D01*
X128044000Y-108365000D01*
X128052000Y-108332000D01*
X128062000Y-108299000D01*
X128073000Y-108267000D01*
X128086000Y-108236000D01*
X128101000Y-108205000D01*
X128117000Y-108175000D01*
X128135000Y-108146000D01*
X128154000Y-108118000D01*
X128175000Y-108091000D01*
X128197000Y-108065000D01*
X128220000Y-108040000D01*
X128245000Y-108017000D01*
X128271000Y-107995000D01*
X128298000Y-107974000D01*
X128326000Y-107955000D01*
X128355000Y-107937000D01*
X128385000Y-107921000D01*
X128416000Y-107906000D01*
X128447000Y-107893000D01*
X128479000Y-107882000D01*
X128512000Y-107872000D01*
X128545000Y-107864000D01*
X128578000Y-107858000D01*
X128612000Y-107854000D01*
X128646000Y-107851000D01*
X128680000Y-107850000D01*
X128714000Y-107851000D01*
G36*
X128714000Y-107851000D02*
G01*
X128748000Y-107854000D01*
X128782000Y-107858000D01*
X128815000Y-107864000D01*
X128848000Y-107872000D01*
X128881000Y-107882000D01*
X128913000Y-107893000D01*
X128944000Y-107906000D01*
X128975000Y-107921000D01*
X129005000Y-107937000D01*
X129034000Y-107955000D01*
X129062000Y-107974000D01*
X129089000Y-107995000D01*
X129115000Y-108017000D01*
X129140000Y-108040000D01*
X129163000Y-108065000D01*
X129185000Y-108091000D01*
X129206000Y-108118000D01*
X129225000Y-108146000D01*
X129243000Y-108175000D01*
X129259000Y-108205000D01*
X129274000Y-108236000D01*
X129287000Y-108267000D01*
X129298000Y-108299000D01*
X129308000Y-108332000D01*
X129316000Y-108365000D01*
X129322000Y-108398000D01*
X129326000Y-108432000D01*
X129329000Y-108466000D01*
X129330000Y-108500000D01*
X129330000Y-109100000D01*
X129329000Y-109134000D01*
X129326000Y-109168000D01*
X129322000Y-109202000D01*
X129316000Y-109235000D01*
X129308000Y-109268000D01*
X129298000Y-109301000D01*
X129287000Y-109333000D01*
X129274000Y-109364000D01*
X129259000Y-109395000D01*
X129243000Y-109425000D01*
X129225000Y-109454000D01*
X129206000Y-109482000D01*
X129185000Y-109509000D01*
X129163000Y-109535000D01*
X129140000Y-109560000D01*
X129115000Y-109583000D01*
X129089000Y-109605000D01*
X129062000Y-109626000D01*
X129034000Y-109645000D01*
X129005000Y-109663000D01*
X128975000Y-109679000D01*
X128944000Y-109694000D01*
X128913000Y-109707000D01*
X128881000Y-109718000D01*
X128848000Y-109728000D01*
X128815000Y-109736000D01*
X128782000Y-109742000D01*
X128748000Y-109746000D01*
X128714000Y-109749000D01*
X128680000Y-109750000D01*
X128646000Y-109749000D01*
X128612000Y-109746000D01*
X128578000Y-109742000D01*
X128545000Y-109736000D01*
X128512000Y-109728000D01*
X128479000Y-109718000D01*
X128447000Y-109707000D01*
X128416000Y-109694000D01*
X128385000Y-109679000D01*
X128355000Y-109663000D01*
X128326000Y-109645000D01*
X128298000Y-109626000D01*
X128271000Y-109605000D01*
X128245000Y-109583000D01*
X128220000Y-109560000D01*
X128197000Y-109535000D01*
X128175000Y-109509000D01*
X128154000Y-109482000D01*
X128135000Y-109454000D01*
X128117000Y-109425000D01*
X128101000Y-109395000D01*
X128086000Y-109364000D01*
X128073000Y-109333000D01*
X128062000Y-109301000D01*
X128052000Y-109268000D01*
X128044000Y-109235000D01*
X128038000Y-109202000D01*
X128034000Y-109168000D01*
X128031000Y-109134000D01*
X128030000Y-109100000D01*
X128030000Y-108500000D01*
X128031000Y-108466000D01*
X128034000Y-108432000D01*
X128038000Y-108398000D01*
X128044000Y-108365000D01*
X128052000Y-108332000D01*
X128062000Y-108299000D01*
X128073000Y-108267000D01*
X128086000Y-108236000D01*
X128101000Y-108205000D01*
X128117000Y-108175000D01*
X128135000Y-108146000D01*
X128154000Y-108118000D01*
X128175000Y-108091000D01*
X128197000Y-108065000D01*
X128220000Y-108040000D01*
X128245000Y-108017000D01*
X128271000Y-107995000D01*
X128298000Y-107974000D01*
X128326000Y-107955000D01*
X128355000Y-107937000D01*
X128385000Y-107921000D01*
X128416000Y-107906000D01*
X128447000Y-107893000D01*
X128479000Y-107882000D01*
X128512000Y-107872000D01*
X128545000Y-107864000D01*
X128578000Y-107858000D01*
X128612000Y-107854000D01*
X128646000Y-107851000D01*
X128680000Y-107850000D01*
X128714000Y-107851000D01*
G37*
X137354000Y-104051000D02*
X137388000Y-104054000D01*
X137422000Y-104058000D01*
X137455000Y-104064000D01*
X137488000Y-104072000D01*
X137521000Y-104082000D01*
X137553000Y-104093000D01*
X137584000Y-104106000D01*
X137615000Y-104121000D01*
X137645000Y-104137000D01*
X137674000Y-104155000D01*
X137702000Y-104174000D01*
X137729000Y-104195000D01*
X137755000Y-104217000D01*
X137780000Y-104240000D01*
X137803000Y-104265000D01*
X137825000Y-104291000D01*
X137846000Y-104318000D01*
X137865000Y-104346000D01*
X137883000Y-104375000D01*
X137899000Y-104405000D01*
X137914000Y-104436000D01*
X137927000Y-104467000D01*
X137938000Y-104499000D01*
X137948000Y-104532000D01*
X137956000Y-104565000D01*
X137962000Y-104598000D01*
X137966000Y-104632000D01*
X137969000Y-104666000D01*
X137970000Y-104700000D01*
X137970000Y-105300000D01*
X137969000Y-105334000D01*
X137966000Y-105368000D01*
X137962000Y-105402000D01*
X137956000Y-105435000D01*
X137948000Y-105468000D01*
X137938000Y-105501000D01*
X137927000Y-105533000D01*
X137914000Y-105564000D01*
X137899000Y-105595000D01*
X137883000Y-105625000D01*
X137865000Y-105654000D01*
X137846000Y-105682000D01*
X137825000Y-105709000D01*
X137803000Y-105735000D01*
X137780000Y-105760000D01*
X137755000Y-105783000D01*
X137729000Y-105805000D01*
X137702000Y-105826000D01*
X137674000Y-105845000D01*
X137645000Y-105863000D01*
X137615000Y-105879000D01*
X137584000Y-105894000D01*
X137553000Y-105907000D01*
X137521000Y-105918000D01*
X137488000Y-105928000D01*
X137455000Y-105936000D01*
X137422000Y-105942000D01*
X137388000Y-105946000D01*
X137354000Y-105949000D01*
X137320000Y-105950000D01*
X137286000Y-105949000D01*
X137252000Y-105946000D01*
X137218000Y-105942000D01*
X137185000Y-105936000D01*
X137152000Y-105928000D01*
X137119000Y-105918000D01*
X137087000Y-105907000D01*
X137056000Y-105894000D01*
X137025000Y-105879000D01*
X136995000Y-105863000D01*
X136966000Y-105845000D01*
X136938000Y-105826000D01*
X136911000Y-105805000D01*
X136885000Y-105783000D01*
X136860000Y-105760000D01*
X136837000Y-105735000D01*
X136815000Y-105709000D01*
X136794000Y-105682000D01*
X136775000Y-105654000D01*
X136757000Y-105625000D01*
X136741000Y-105595000D01*
X136726000Y-105564000D01*
X136713000Y-105533000D01*
X136702000Y-105501000D01*
X136692000Y-105468000D01*
X136684000Y-105435000D01*
X136678000Y-105402000D01*
X136674000Y-105368000D01*
X136671000Y-105334000D01*
X136670000Y-105300000D01*
X136670000Y-104700000D01*
X136671000Y-104666000D01*
X136674000Y-104632000D01*
X136678000Y-104598000D01*
X136684000Y-104565000D01*
X136692000Y-104532000D01*
X136702000Y-104499000D01*
X136713000Y-104467000D01*
X136726000Y-104436000D01*
X136741000Y-104405000D01*
X136757000Y-104375000D01*
X136775000Y-104346000D01*
X136794000Y-104318000D01*
X136815000Y-104291000D01*
X136837000Y-104265000D01*
X136860000Y-104240000D01*
X136885000Y-104217000D01*
X136911000Y-104195000D01*
X136938000Y-104174000D01*
X136966000Y-104155000D01*
X136995000Y-104137000D01*
X137025000Y-104121000D01*
X137056000Y-104106000D01*
X137087000Y-104093000D01*
X137119000Y-104082000D01*
X137152000Y-104072000D01*
X137185000Y-104064000D01*
X137218000Y-104058000D01*
X137252000Y-104054000D01*
X137286000Y-104051000D01*
X137320000Y-104050000D01*
X137354000Y-104051000D01*
G36*
X137354000Y-104051000D02*
G01*
X137388000Y-104054000D01*
X137422000Y-104058000D01*
X137455000Y-104064000D01*
X137488000Y-104072000D01*
X137521000Y-104082000D01*
X137553000Y-104093000D01*
X137584000Y-104106000D01*
X137615000Y-104121000D01*
X137645000Y-104137000D01*
X137674000Y-104155000D01*
X137702000Y-104174000D01*
X137729000Y-104195000D01*
X137755000Y-104217000D01*
X137780000Y-104240000D01*
X137803000Y-104265000D01*
X137825000Y-104291000D01*
X137846000Y-104318000D01*
X137865000Y-104346000D01*
X137883000Y-104375000D01*
X137899000Y-104405000D01*
X137914000Y-104436000D01*
X137927000Y-104467000D01*
X137938000Y-104499000D01*
X137948000Y-104532000D01*
X137956000Y-104565000D01*
X137962000Y-104598000D01*
X137966000Y-104632000D01*
X137969000Y-104666000D01*
X137970000Y-104700000D01*
X137970000Y-105300000D01*
X137969000Y-105334000D01*
X137966000Y-105368000D01*
X137962000Y-105402000D01*
X137956000Y-105435000D01*
X137948000Y-105468000D01*
X137938000Y-105501000D01*
X137927000Y-105533000D01*
X137914000Y-105564000D01*
X137899000Y-105595000D01*
X137883000Y-105625000D01*
X137865000Y-105654000D01*
X137846000Y-105682000D01*
X137825000Y-105709000D01*
X137803000Y-105735000D01*
X137780000Y-105760000D01*
X137755000Y-105783000D01*
X137729000Y-105805000D01*
X137702000Y-105826000D01*
X137674000Y-105845000D01*
X137645000Y-105863000D01*
X137615000Y-105879000D01*
X137584000Y-105894000D01*
X137553000Y-105907000D01*
X137521000Y-105918000D01*
X137488000Y-105928000D01*
X137455000Y-105936000D01*
X137422000Y-105942000D01*
X137388000Y-105946000D01*
X137354000Y-105949000D01*
X137320000Y-105950000D01*
X137286000Y-105949000D01*
X137252000Y-105946000D01*
X137218000Y-105942000D01*
X137185000Y-105936000D01*
X137152000Y-105928000D01*
X137119000Y-105918000D01*
X137087000Y-105907000D01*
X137056000Y-105894000D01*
X137025000Y-105879000D01*
X136995000Y-105863000D01*
X136966000Y-105845000D01*
X136938000Y-105826000D01*
X136911000Y-105805000D01*
X136885000Y-105783000D01*
X136860000Y-105760000D01*
X136837000Y-105735000D01*
X136815000Y-105709000D01*
X136794000Y-105682000D01*
X136775000Y-105654000D01*
X136757000Y-105625000D01*
X136741000Y-105595000D01*
X136726000Y-105564000D01*
X136713000Y-105533000D01*
X136702000Y-105501000D01*
X136692000Y-105468000D01*
X136684000Y-105435000D01*
X136678000Y-105402000D01*
X136674000Y-105368000D01*
X136671000Y-105334000D01*
X136670000Y-105300000D01*
X136670000Y-104700000D01*
X136671000Y-104666000D01*
X136674000Y-104632000D01*
X136678000Y-104598000D01*
X136684000Y-104565000D01*
X136692000Y-104532000D01*
X136702000Y-104499000D01*
X136713000Y-104467000D01*
X136726000Y-104436000D01*
X136741000Y-104405000D01*
X136757000Y-104375000D01*
X136775000Y-104346000D01*
X136794000Y-104318000D01*
X136815000Y-104291000D01*
X136837000Y-104265000D01*
X136860000Y-104240000D01*
X136885000Y-104217000D01*
X136911000Y-104195000D01*
X136938000Y-104174000D01*
X136966000Y-104155000D01*
X136995000Y-104137000D01*
X137025000Y-104121000D01*
X137056000Y-104106000D01*
X137087000Y-104093000D01*
X137119000Y-104082000D01*
X137152000Y-104072000D01*
X137185000Y-104064000D01*
X137218000Y-104058000D01*
X137252000Y-104054000D01*
X137286000Y-104051000D01*
X137320000Y-104050000D01*
X137354000Y-104051000D01*
G37*
X137354000Y-107851000D02*
X137388000Y-107854000D01*
X137422000Y-107858000D01*
X137455000Y-107864000D01*
X137488000Y-107872000D01*
X137521000Y-107882000D01*
X137553000Y-107893000D01*
X137584000Y-107906000D01*
X137615000Y-107921000D01*
X137645000Y-107937000D01*
X137674000Y-107955000D01*
X137702000Y-107974000D01*
X137729000Y-107995000D01*
X137755000Y-108017000D01*
X137780000Y-108040000D01*
X137803000Y-108065000D01*
X137825000Y-108091000D01*
X137846000Y-108118000D01*
X137865000Y-108146000D01*
X137883000Y-108175000D01*
X137899000Y-108205000D01*
X137914000Y-108236000D01*
X137927000Y-108267000D01*
X137938000Y-108299000D01*
X137948000Y-108332000D01*
X137956000Y-108365000D01*
X137962000Y-108398000D01*
X137966000Y-108432000D01*
X137969000Y-108466000D01*
X137970000Y-108500000D01*
X137970000Y-109100000D01*
X137969000Y-109134000D01*
X137966000Y-109168000D01*
X137962000Y-109202000D01*
X137956000Y-109235000D01*
X137948000Y-109268000D01*
X137938000Y-109301000D01*
X137927000Y-109333000D01*
X137914000Y-109364000D01*
X137899000Y-109395000D01*
X137883000Y-109425000D01*
X137865000Y-109454000D01*
X137846000Y-109482000D01*
X137825000Y-109509000D01*
X137803000Y-109535000D01*
X137780000Y-109560000D01*
X137755000Y-109583000D01*
X137729000Y-109605000D01*
X137702000Y-109626000D01*
X137674000Y-109645000D01*
X137645000Y-109663000D01*
X137615000Y-109679000D01*
X137584000Y-109694000D01*
X137553000Y-109707000D01*
X137521000Y-109718000D01*
X137488000Y-109728000D01*
X137455000Y-109736000D01*
X137422000Y-109742000D01*
X137388000Y-109746000D01*
X137354000Y-109749000D01*
X137320000Y-109750000D01*
X137286000Y-109749000D01*
X137252000Y-109746000D01*
X137218000Y-109742000D01*
X137185000Y-109736000D01*
X137152000Y-109728000D01*
X137119000Y-109718000D01*
X137087000Y-109707000D01*
X137056000Y-109694000D01*
X137025000Y-109679000D01*
X136995000Y-109663000D01*
X136966000Y-109645000D01*
X136938000Y-109626000D01*
X136911000Y-109605000D01*
X136885000Y-109583000D01*
X136860000Y-109560000D01*
X136837000Y-109535000D01*
X136815000Y-109509000D01*
X136794000Y-109482000D01*
X136775000Y-109454000D01*
X136757000Y-109425000D01*
X136741000Y-109395000D01*
X136726000Y-109364000D01*
X136713000Y-109333000D01*
X136702000Y-109301000D01*
X136692000Y-109268000D01*
X136684000Y-109235000D01*
X136678000Y-109202000D01*
X136674000Y-109168000D01*
X136671000Y-109134000D01*
X136670000Y-109100000D01*
X136670000Y-108500000D01*
X136671000Y-108466000D01*
X136674000Y-108432000D01*
X136678000Y-108398000D01*
X136684000Y-108365000D01*
X136692000Y-108332000D01*
X136702000Y-108299000D01*
X136713000Y-108267000D01*
X136726000Y-108236000D01*
X136741000Y-108205000D01*
X136757000Y-108175000D01*
X136775000Y-108146000D01*
X136794000Y-108118000D01*
X136815000Y-108091000D01*
X136837000Y-108065000D01*
X136860000Y-108040000D01*
X136885000Y-108017000D01*
X136911000Y-107995000D01*
X136938000Y-107974000D01*
X136966000Y-107955000D01*
X136995000Y-107937000D01*
X137025000Y-107921000D01*
X137056000Y-107906000D01*
X137087000Y-107893000D01*
X137119000Y-107882000D01*
X137152000Y-107872000D01*
X137185000Y-107864000D01*
X137218000Y-107858000D01*
X137252000Y-107854000D01*
X137286000Y-107851000D01*
X137320000Y-107850000D01*
X137354000Y-107851000D01*
G36*
X137354000Y-107851000D02*
G01*
X137388000Y-107854000D01*
X137422000Y-107858000D01*
X137455000Y-107864000D01*
X137488000Y-107872000D01*
X137521000Y-107882000D01*
X137553000Y-107893000D01*
X137584000Y-107906000D01*
X137615000Y-107921000D01*
X137645000Y-107937000D01*
X137674000Y-107955000D01*
X137702000Y-107974000D01*
X137729000Y-107995000D01*
X137755000Y-108017000D01*
X137780000Y-108040000D01*
X137803000Y-108065000D01*
X137825000Y-108091000D01*
X137846000Y-108118000D01*
X137865000Y-108146000D01*
X137883000Y-108175000D01*
X137899000Y-108205000D01*
X137914000Y-108236000D01*
X137927000Y-108267000D01*
X137938000Y-108299000D01*
X137948000Y-108332000D01*
X137956000Y-108365000D01*
X137962000Y-108398000D01*
X137966000Y-108432000D01*
X137969000Y-108466000D01*
X137970000Y-108500000D01*
X137970000Y-109100000D01*
X137969000Y-109134000D01*
X137966000Y-109168000D01*
X137962000Y-109202000D01*
X137956000Y-109235000D01*
X137948000Y-109268000D01*
X137938000Y-109301000D01*
X137927000Y-109333000D01*
X137914000Y-109364000D01*
X137899000Y-109395000D01*
X137883000Y-109425000D01*
X137865000Y-109454000D01*
X137846000Y-109482000D01*
X137825000Y-109509000D01*
X137803000Y-109535000D01*
X137780000Y-109560000D01*
X137755000Y-109583000D01*
X137729000Y-109605000D01*
X137702000Y-109626000D01*
X137674000Y-109645000D01*
X137645000Y-109663000D01*
X137615000Y-109679000D01*
X137584000Y-109694000D01*
X137553000Y-109707000D01*
X137521000Y-109718000D01*
X137488000Y-109728000D01*
X137455000Y-109736000D01*
X137422000Y-109742000D01*
X137388000Y-109746000D01*
X137354000Y-109749000D01*
X137320000Y-109750000D01*
X137286000Y-109749000D01*
X137252000Y-109746000D01*
X137218000Y-109742000D01*
X137185000Y-109736000D01*
X137152000Y-109728000D01*
X137119000Y-109718000D01*
X137087000Y-109707000D01*
X137056000Y-109694000D01*
X137025000Y-109679000D01*
X136995000Y-109663000D01*
X136966000Y-109645000D01*
X136938000Y-109626000D01*
X136911000Y-109605000D01*
X136885000Y-109583000D01*
X136860000Y-109560000D01*
X136837000Y-109535000D01*
X136815000Y-109509000D01*
X136794000Y-109482000D01*
X136775000Y-109454000D01*
X136757000Y-109425000D01*
X136741000Y-109395000D01*
X136726000Y-109364000D01*
X136713000Y-109333000D01*
X136702000Y-109301000D01*
X136692000Y-109268000D01*
X136684000Y-109235000D01*
X136678000Y-109202000D01*
X136674000Y-109168000D01*
X136671000Y-109134000D01*
X136670000Y-109100000D01*
X136670000Y-108500000D01*
X136671000Y-108466000D01*
X136674000Y-108432000D01*
X136678000Y-108398000D01*
X136684000Y-108365000D01*
X136692000Y-108332000D01*
X136702000Y-108299000D01*
X136713000Y-108267000D01*
X136726000Y-108236000D01*
X136741000Y-108205000D01*
X136757000Y-108175000D01*
X136775000Y-108146000D01*
X136794000Y-108118000D01*
X136815000Y-108091000D01*
X136837000Y-108065000D01*
X136860000Y-108040000D01*
X136885000Y-108017000D01*
X136911000Y-107995000D01*
X136938000Y-107974000D01*
X136966000Y-107955000D01*
X136995000Y-107937000D01*
X137025000Y-107921000D01*
X137056000Y-107906000D01*
X137087000Y-107893000D01*
X137119000Y-107882000D01*
X137152000Y-107872000D01*
X137185000Y-107864000D01*
X137218000Y-107858000D01*
X137252000Y-107854000D01*
X137286000Y-107851000D01*
X137320000Y-107850000D01*
X137354000Y-107851000D01*
G37*
%TD*%
D11*
%TO.C,D302*%
X118290000Y-61200000D03*
D12*
X117250000Y-61200000D03*
%TD*%
D13*
%TO.C,D301*%
X110310000Y-71250000D03*
D14*
X111350000Y-71250000D03*
%TD*%
D15*
%TO.C,Q302*%
X118177500Y-63500000D03*
D16*
X117517500Y-63675000D03*
X117517500Y-63326000D03*
%TD*%
D17*
%TO.C,R110*%
X120750000Y-99760000D03*
X120750000Y-98740000D03*
%TD*%
D18*
%TO.C,D204*%
X100570000Y-67250000D03*
X99650000Y-67250000D03*
%TD*%
D19*
%TO.C,D104*%
X131500000Y-101350000D03*
X131500000Y-100650000D03*
%TD*%
D20*
%TO.C,C105*%
X133270000Y-90750000D03*
X134230000Y-90750000D03*
%TD*%
D21*
%TO.C,C111*%
X123545000Y-87995000D03*
X125095000Y-87995000D03*
%TD*%
D22*
%TO.C,Y201*%
X106700000Y-88753000D03*
X106700000Y-91253000D03*
%TD*%
D23*
%TO.C,R209*%
X119260000Y-93605000D03*
X118240000Y-93605000D03*
%TD*%
D24*
%TO.C,TP113*%
X112500000Y-100000000D03*
%TD*%
D25*
%TO.C,M401*%
X109100000Y-67525000D03*
X112400000Y-67525000D03*
%TD*%
D26*
%TO.C,L101*%
X122570000Y-89457500D03*
X122570000Y-91032500D03*
%TD*%
D27*
%TO.C,U204*%
X108137500Y-107950000D03*
X108137500Y-107550000D03*
X108537500Y-107950000D03*
X108537500Y-107550000D03*
%TD*%
D28*
%TO.C,J105*%
X112480000Y-79770000D03*
D29*
X112480000Y-77230000D03*
%TD*%
D30*
%TO.C,R102*%
X131750000Y-96240000D03*
X131750000Y-97260000D03*
%TD*%
D24*
%TO.C,TP207*%
X99500000Y-100000000D03*
%TD*%
D31*
%TO.C,C102*%
X133000000Y-94770000D03*
X133000000Y-95730000D03*
%TD*%
D32*
%TO.C,MH301*%
X95850000Y-108250000D03*
X96333274Y-107083274D03*
X96333274Y-109416726D03*
X97500000Y-106600000D03*
D33*
X97500000Y-108250000D03*
D32*
X97500000Y-109900000D03*
X98666726Y-107083274D03*
X98666726Y-109416726D03*
X99150000Y-108250000D03*
%TD*%
D34*
%TO.C,Q301*%
X110576000Y-73080000D03*
X110925000Y-73080000D03*
D35*
X110750000Y-72420000D03*
%TD*%
D24*
%TO.C,TP114*%
X124300000Y-84700000D03*
%TD*%
D36*
%TO.C,L102*%
X120962500Y-93750000D03*
X122537500Y-93750000D03*
%TD*%
D24*
%TO.C,TP108*%
X114000000Y-92500000D03*
%TD*%
D37*
%TO.C,Q101*%
X140475000Y-84400000D03*
X140475000Y-83750000D03*
X140475000Y-83100000D03*
X138525000Y-83100000D03*
X138525000Y-83750000D03*
X138525000Y-84400000D03*
D38*
X139500000Y-84238000D03*
X139500000Y-83262000D03*
%TD*%
D39*
%TO.C,C202*%
X95980000Y-81500000D03*
X95020000Y-81500000D03*
%TD*%
D24*
%TO.C,TP109*%
X114750000Y-88500000D03*
%TD*%
D40*
%TO.C,U104*%
X116750000Y-86250000D03*
D41*
X117150000Y-86300000D03*
D42*
X117800000Y-86050000D03*
X117800000Y-85650000D03*
X117800000Y-85250000D03*
D41*
X117150000Y-85000000D03*
X116750000Y-85000000D03*
D42*
X116100000Y-85250000D03*
X116100000Y-85650000D03*
X116100000Y-86050000D03*
%TD*%
D24*
%TO.C,TP205*%
X100750000Y-103250000D03*
%TD*%
D43*
%TO.C,R202*%
X99000000Y-81425000D03*
X99000000Y-79775000D03*
%TD*%
D44*
%TO.C,D201*%
X99680000Y-60500000D03*
X100600000Y-60500000D03*
%TD*%
D24*
%TO.C,TP203*%
X100750000Y-69250000D03*
%TD*%
D45*
%TO.C,C204*%
X105587500Y-108230000D03*
X105587500Y-107270000D03*
%TD*%
D32*
%TO.C,MH304*%
X139600000Y-108250000D03*
X140083274Y-107083274D03*
X140083274Y-109416726D03*
X141250000Y-106600000D03*
D33*
X141250000Y-108250000D03*
D32*
X141250000Y-109900000D03*
X142416726Y-107083274D03*
X142416726Y-109416726D03*
X142900000Y-108250000D03*
%TD*%
D46*
%TO.C,D101*%
X131410000Y-102750000D03*
X130090000Y-102750000D03*
%TD*%
D47*
%TO.C,SW301*%
X111750000Y-110500000D03*
X113850000Y-110500000D03*
%TD*%
D39*
%TO.C,C205*%
X102730000Y-110000000D03*
X101770000Y-110000000D03*
%TD*%
D24*
%TO.C,TP107*%
X108000000Y-95500000D03*
%TD*%
%TO.C,TP105*%
X112500000Y-90000000D03*
%TD*%
D18*
%TO.C,D205*%
X98220000Y-67250000D03*
X97300000Y-67250000D03*
%TD*%
%TO.C,D202*%
X98245000Y-60492500D03*
X97325000Y-60492500D03*
%TD*%
D48*
%TO.C,D105*%
X129550000Y-100500000D03*
X130250000Y-100500000D03*
%TD*%
D46*
%TO.C,D103*%
X135660000Y-99750000D03*
X134340000Y-99750000D03*
%TD*%
D24*
%TO.C,TP102*%
X130250000Y-82750000D03*
%TD*%
D31*
%TO.C,C110*%
X116680000Y-90925000D03*
X116680000Y-91885000D03*
%TD*%
D45*
%TO.C,C109*%
X121250000Y-92230000D03*
X121250000Y-91270000D03*
%TD*%
D49*
%TO.C,D106*%
X124090000Y-102500000D03*
X125410000Y-102500000D03*
%TD*%
D17*
%TO.C,R109*%
X119750000Y-99760000D03*
X119750000Y-98740000D03*
%TD*%
D50*
%TO.C,J201*%
X97190000Y-63875000D03*
X102270000Y-62859000D03*
X102270000Y-64891000D03*
D51*
X98460000Y-64510000D03*
X98460000Y-63240000D03*
X99730000Y-64510000D03*
X99730000Y-63240000D03*
X101000000Y-64510000D03*
X101000000Y-63240000D03*
%TD*%
D32*
%TO.C,MH302*%
X90600000Y-59250000D03*
X91083274Y-58083274D03*
X91083274Y-60416726D03*
X92250000Y-57600000D03*
D33*
X92250000Y-59250000D03*
D32*
X92250000Y-60900000D03*
X93416726Y-58083274D03*
X93416726Y-60416726D03*
X93900000Y-59250000D03*
%TD*%
D39*
%TO.C,C104*%
X128300000Y-96245000D03*
X127340000Y-96245000D03*
%TD*%
D52*
%TO.C,R208*%
X100740000Y-95000000D03*
X101760000Y-95000000D03*
%TD*%
D53*
%TO.C,U203*%
X101925000Y-107000000D03*
X101925000Y-107500000D03*
X101925000Y-108000000D03*
X101925000Y-108500000D03*
D54*
X102587500Y-108662500D03*
X103087500Y-108662500D03*
X103587500Y-108662500D03*
D53*
X104250000Y-108500000D03*
X104250000Y-108000000D03*
X104250000Y-107500000D03*
X104250000Y-107000000D03*
D54*
X103587500Y-106837500D03*
X103087500Y-106837500D03*
X102587500Y-106837500D03*
%TD*%
D39*
%TO.C,C206*%
X108767500Y-109200000D03*
X107807500Y-109200000D03*
%TD*%
D21*
%TO.C,C201*%
X105975000Y-93000000D03*
X107525000Y-93000000D03*
%TD*%
D17*
%TO.C,R108*%
X119000000Y-86260000D03*
X119000000Y-85240000D03*
%TD*%
D30*
%TO.C,R107*%
X135795000Y-86700000D03*
X135795000Y-87720000D03*
%TD*%
D24*
%TO.C,TP204*%
X101200000Y-81200000D03*
%TD*%
D55*
%TO.C,D109*%
X130925000Y-87225000D03*
X130075000Y-87225000D03*
X130075000Y-85775000D03*
X130925000Y-85775000D03*
%TD*%
D24*
%TO.C,TP301*%
X109750000Y-76500000D03*
%TD*%
D52*
%TO.C,R101*%
X120740000Y-101000000D03*
X121760000Y-101000000D03*
%TD*%
D32*
%TO.C,MH303*%
X139600000Y-59250000D03*
X140083274Y-58083274D03*
X140083274Y-60416726D03*
X141250000Y-57600000D03*
D33*
X141250000Y-59250000D03*
D32*
X141250000Y-60900000D03*
X142416726Y-58083274D03*
X142416726Y-60416726D03*
X142900000Y-59250000D03*
%TD*%
D24*
%TO.C,TP202*%
X92750000Y-68250000D03*
%TD*%
D56*
%TO.C,U101*%
X126365000Y-90745000D03*
X126365000Y-91245000D03*
X126365000Y-91745000D03*
X126365000Y-92245000D03*
X126365000Y-92745000D03*
X126365000Y-93245000D03*
X126365000Y-93745000D03*
X126365000Y-94245000D03*
D57*
X127070000Y-94950000D03*
X127570000Y-94950000D03*
X128070000Y-94950000D03*
X128570000Y-94950000D03*
X129070000Y-94950000D03*
X129570000Y-94950000D03*
X130070000Y-94950000D03*
X130570000Y-94950000D03*
D56*
X131275000Y-94245000D03*
X131275000Y-93745000D03*
X131275000Y-93245000D03*
X131275000Y-92745000D03*
X131275000Y-92245000D03*
X131275000Y-91745000D03*
X131275000Y-91245000D03*
X131275000Y-90745000D03*
D57*
X130570000Y-90040000D03*
X130070000Y-90040000D03*
X129570000Y-90040000D03*
X129070000Y-90040000D03*
X128570000Y-90040000D03*
X128070000Y-90040000D03*
X127570000Y-90040000D03*
X127070000Y-90040000D03*
D58*
X128820000Y-92495000D03*
%TD*%
D21*
%TO.C,C112*%
X120975000Y-95250000D03*
X122525000Y-95250000D03*
%TD*%
D24*
%TO.C,TP302*%
X123250000Y-58000000D03*
%TD*%
D23*
%TO.C,R205*%
X103510000Y-79250000D03*
X102490000Y-79250000D03*
%TD*%
D52*
%TO.C,R305*%
X142240000Y-94250000D03*
X143260000Y-94250000D03*
%TD*%
D23*
%TO.C,R204*%
X106520000Y-76000000D03*
X105500000Y-76000000D03*
%TD*%
D24*
%TO.C,TP208*%
X110250000Y-98750000D03*
%TD*%
D23*
%TO.C,R206*%
X104597500Y-105500000D03*
X103577500Y-105500000D03*
%TD*%
D52*
%TO.C,R304*%
X142240000Y-96000000D03*
X143260000Y-96000000D03*
%TD*%
D24*
%TO.C,TP103*%
X142000000Y-69750000D03*
%TD*%
D23*
%TO.C,R112*%
X124510000Y-100600000D03*
X123490000Y-100600000D03*
%TD*%
D59*
%TO.C,D111*%
X137100000Y-82850000D03*
X137100000Y-81450000D03*
%TD*%
D45*
%TO.C,C103*%
X134795000Y-84690000D03*
X134795000Y-83730000D03*
%TD*%
D24*
%TO.C,TP303*%
X111750000Y-108750000D03*
%TD*%
D60*
%TO.C,J101*%
X132500000Y-104920000D03*
D61*
X134520000Y-104920000D03*
D62*
X135750000Y-104920000D03*
D60*
X133500000Y-104920000D03*
D61*
X131480000Y-104920000D03*
D62*
X130250000Y-104920000D03*
%TD*%
D30*
%TO.C,R302*%
X120500000Y-68692500D03*
X120500000Y-69712500D03*
%TD*%
D63*
%TO.C,J104*%
X113770000Y-96000000D03*
D29*
X111230000Y-96000000D03*
%TD*%
D64*
%TO.C,U201*%
X92200000Y-83753000D03*
X92950000Y-83753000D03*
X93700000Y-83753000D03*
X94450000Y-83753000D03*
X95200000Y-83753000D03*
X95950000Y-83753000D03*
X96700000Y-83753000D03*
X97450000Y-83753000D03*
X98200000Y-83753000D03*
X98950000Y-83753000D03*
X99700000Y-83753000D03*
X100450000Y-83753000D03*
X101200000Y-83753000D03*
X101950000Y-83753000D03*
X102700000Y-83753000D03*
X103450000Y-83753000D03*
D65*
X103500000Y-84500000D03*
X103500000Y-85250000D03*
X103500000Y-86000000D03*
X103500000Y-86750000D03*
X103500000Y-87500000D03*
X103500000Y-88250000D03*
X103500000Y-89000000D03*
X103500000Y-89750000D03*
X103500000Y-90500000D03*
X103500000Y-91250000D03*
X103500000Y-92000000D03*
D64*
X103450000Y-92747000D03*
X102700000Y-92747000D03*
X101950000Y-92747000D03*
X101200000Y-92747000D03*
X100450000Y-92747000D03*
X99700000Y-92747000D03*
X98950000Y-92747000D03*
X98200000Y-92747000D03*
X97450000Y-92747000D03*
X96700000Y-92747000D03*
X95950000Y-92747000D03*
X95200000Y-92747000D03*
%TD*%
D66*
%TO.C,C108*%
X124070000Y-92970000D03*
X124070000Y-94520000D03*
%TD*%
D67*
%TO.C,D306*%
X141037500Y-96000000D03*
X139462500Y-96000000D03*
%TD*%
D30*
%TO.C,R303*%
X123250000Y-66740000D03*
X123250000Y-67760000D03*
%TD*%
D68*
%TO.C,D110*%
X126790640Y-80121440D03*
X125709360Y-80878560D03*
%TD*%
D52*
%TO.C,R201*%
X101790000Y-67250000D03*
X102810000Y-67250000D03*
%TD*%
D46*
%TO.C,D102*%
X135160000Y-98250000D03*
X133840000Y-98250000D03*
%TD*%
D44*
%TO.C,D108*%
X120980000Y-102500000D03*
X121900000Y-102500000D03*
%TD*%
D52*
%TO.C,R203*%
X96490000Y-79250000D03*
X97510000Y-79250000D03*
%TD*%
D18*
%TO.C,D107*%
X119592500Y-102500000D03*
X118672500Y-102500000D03*
%TD*%
D24*
%TO.C,TP304*%
X106950000Y-78503000D03*
%TD*%
%TO.C,TP104*%
X128500000Y-84750000D03*
%TD*%
D69*
%TO.C,C107*%
X124070000Y-91520000D03*
X124070000Y-89970000D03*
%TD*%
D70*
%TO.C,R111*%
X127325000Y-100600000D03*
X125675000Y-100600000D03*
%TD*%
D24*
%TO.C,TP101*%
X133250000Y-101500000D03*
%TD*%
D63*
%TO.C,J103*%
X120270000Y-88500000D03*
D29*
X117730000Y-88500000D03*
%TD*%
D30*
%TO.C,R103*%
X130750000Y-96240000D03*
X130750000Y-97260000D03*
%TD*%
D71*
%TO.C,D305*%
X123250000Y-65537500D03*
X123250000Y-63962500D03*
%TD*%
D17*
%TO.C,R105*%
X135900000Y-83710000D03*
X135900000Y-82690000D03*
%TD*%
D30*
%TO.C,R301*%
X117847500Y-70665000D03*
X117847500Y-71685000D03*
%TD*%
D67*
%TO.C,D307*%
X141037500Y-94250000D03*
X139462500Y-94250000D03*
%TD*%
D34*
%TO.C,Q304*%
X120326000Y-71282500D03*
X120675000Y-71282500D03*
D35*
X120500000Y-70622500D03*
%TD*%
D23*
%TO.C,R207*%
X104010000Y-95000000D03*
X102990000Y-95000000D03*
%TD*%
D34*
%TO.C,Q303*%
X117673500Y-73255000D03*
X118022500Y-73255000D03*
D35*
X117847500Y-72595000D03*
%TD*%
D24*
%TO.C,TP110*%
X122250000Y-97750000D03*
%TD*%
D21*
%TO.C,C106*%
X133975000Y-93500000D03*
X135525000Y-93500000D03*
%TD*%
D45*
%TO.C,C203*%
X93700000Y-76233000D03*
X93700000Y-75273000D03*
%TD*%
D72*
%TO.C,J102*%
X123445000Y-105200000D03*
X122195000Y-105200000D03*
X120945000Y-105200000D03*
X119695000Y-105200000D03*
D73*
X117445000Y-108500000D03*
X125695000Y-108500000D03*
%TD*%
D74*
%TO.C,BT101*%
X124422843Y-76238709D03*
D75*
X139986733Y-65340758D03*
%TD*%
D24*
%TO.C,TP209*%
X108000000Y-97500000D03*
%TD*%
D44*
%TO.C,D203*%
X101855000Y-60507500D03*
X102775000Y-60507500D03*
%TD*%
D76*
%TO.C,U103*%
X117862500Y-91050000D03*
X117862500Y-91700000D03*
X117862500Y-92350000D03*
X119637500Y-92350000D03*
X119637500Y-91700000D03*
X119637500Y-91050000D03*
D77*
X118750000Y-91700000D03*
%TD*%
D71*
%TO.C,D303*%
X117847500Y-69500000D03*
X117847500Y-67925000D03*
%TD*%
D24*
%TO.C,TP201*%
X94500000Y-66750000D03*
%TD*%
D78*
%TO.C,U102*%
X137070000Y-85710000D03*
D79*
X137120000Y-85210000D03*
X137120000Y-84710000D03*
X135970000Y-84710000D03*
X135970000Y-85210000D03*
X135970000Y-85710000D03*
%TD*%
D17*
%TO.C,R104*%
X134795000Y-86720000D03*
X134795000Y-85700000D03*
%TD*%
D80*
%TO.C,SW302*%
X107000000Y-80187500D03*
X107000000Y-83437500D03*
%TD*%
D24*
%TO.C,TP206*%
X98250000Y-103250000D03*
%TD*%
D71*
%TO.C,D304*%
X120500000Y-67537500D03*
X120500000Y-65962500D03*
%TD*%
D81*
%TO.C,J301*%
X115450000Y-58000000D03*
D82*
X120050000Y-58000000D03*
%TD*%
D24*
%TO.C,TP112*%
X105650000Y-67950000D03*
%TD*%
%TO.C,TP111*%
X114750000Y-101250000D03*
%TD*%
D30*
%TO.C,R106*%
X141750000Y-83740000D03*
X141750000Y-84760000D03*
%TD*%
D24*
%TO.C,TP106*%
X112500000Y-84000000D03*
%TD*%
D20*
%TO.C,C101*%
X133090000Y-92245000D03*
X134050000Y-92245000D03*
%TD*%
D83*
%TO.C,U202*%
X103800000Y-77270000D03*
X103800000Y-76000000D03*
X103800000Y-74730000D03*
X103800000Y-73460000D03*
X95500000Y-73460000D03*
X95500000Y-74730000D03*
X95500000Y-76000000D03*
X95500000Y-77270000D03*
D84*
X99650000Y-75365000D03*
%TD*%
M02*
